<svg xmlns="http://www.w3.org/2000/svg" width="37.573" height="38.25" viewBox="0 0 37.573 38.25">
  <path id="setting_2_" data-name="setting (2)" d="M36.36,22.386a1.912,1.912,0,0,1,0-2.524l2.448-2.754a1.912,1.912,0,0,0,.229-2.237L35.213,8.254a1.912,1.912,0,0,0-2.046-.918l-3.6.727a1.912,1.912,0,0,1-2.2-1.262L26.206,3.3A1.912,1.912,0,0,0,24.389,2H16.74a1.912,1.912,0,0,0-1.912,1.3L13.757,6.8a1.912,1.912,0,0,1-2.2,1.262L7.868,7.336a1.912,1.912,0,0,0-1.912.918L2.131,14.871a1.912,1.912,0,0,0,.191,2.237l2.429,2.754a1.912,1.912,0,0,1,0,2.524L2.322,25.139a1.912,1.912,0,0,0-.191,2.237l3.824,6.616A1.912,1.912,0,0,0,8,34.911l3.6-.727a1.912,1.912,0,0,1,2.2,1.262l1.166,3.5a1.912,1.912,0,0,0,1.912,1.3h7.649a1.912,1.912,0,0,0,1.817-1.3l1.166-3.5a1.912,1.912,0,0,1,2.2-1.262l3.6.727a1.912,1.912,0,0,0,2.046-.918l3.824-6.616a1.912,1.912,0,0,0-.229-2.237Zm-2.849,2.562,1.53,1.721-2.448,4.245-2.256-.459a5.737,5.737,0,0,0-6.6,3.824l-.727,2.142h-4.9l-.688-2.18a5.737,5.737,0,0,0-6.6-3.824l-2.256.459L6.089,26.65l1.53-1.721a5.737,5.737,0,0,0,0-7.649l-1.53-1.721,2.448-4.207,2.256.459a5.737,5.737,0,0,0,6.6-3.824l.727-2.161h4.9l.727,2.18a5.737,5.737,0,0,0,6.6,3.824l2.256-.459,2.448,4.245-1.53,1.721a5.737,5.737,0,0,0,0,7.611ZM20.565,13.475a7.649,7.649,0,1,0,7.649,7.649A7.649,7.649,0,0,0,20.565,13.475Zm0,11.473a3.824,3.824,0,1,1,3.824-3.824A3.824,3.824,0,0,1,20.565,24.948Z" transform="translate(-1.857 -1.999)" fill="#aaa"/>
</svg>
