<svg width="1577" height="1175" viewBox="0 0 1577 1175" fill="none" xmlns="http://www.w3.org/2000/svg">
<path d="M1576.26 1032.14H0V1032.92H1576.26V1032.14Z" fill="#EBEBEB"/>
<path d="M1418.32 1082.86H1313.91V1083.65H1418.32V1082.86Z" fill="#EBEBEB"/>
<path d="M1044.18 1091.43H1016.78V1092.22H1044.18V1091.43Z" fill="#EBEBEB"/>
<path d="M1310.76 1053.6H1250.26V1054.39H1310.76V1053.6Z" fill="#EBEBEB"/>
<path d="M301.539 1058.9H165.381V1059.69H301.539V1058.9Z" fill="#EBEBEB"/>
<path d="M349.583 1058.9H329.628V1059.69H349.583V1058.9Z" fill="#EBEBEB"/>
<path d="M709.79 1072.2H414.462V1072.99H709.79V1072.2Z" fill="#EBEBEB"/>
<path d="M747.148 891.533H138.427C133.659 891.525 129.088 889.625 125.719 886.25C122.35 882.875 120.458 878.301 120.458 873.532V17.8433C120.5 13.102 122.41 8.56849 125.775 5.22757C129.139 1.88665 133.686 0.00812212 138.427 0H747.148C751.922 0 756.501 1.89652 759.877 5.27234C763.252 8.64817 765.149 13.2268 765.149 18.0009V873.532C765.149 878.307 763.252 882.885 759.877 886.261C756.501 889.637 751.922 891.533 747.148 891.533ZM138.427 0.630507C133.868 0.638858 129.498 2.45602 126.276 5.68314C123.055 8.91025 121.246 13.2836 121.246 17.8433V873.532C121.246 878.092 123.055 882.465 126.276 885.693C129.498 888.92 133.868 890.737 138.427 890.745H747.148C751.711 890.737 756.084 888.921 759.31 885.695C762.536 882.468 764.352 878.095 764.361 873.532V17.8433C764.352 13.2807 762.536 8.90743 759.31 5.68121C756.084 2.455 751.711 0.63884 747.148 0.630507H138.427Z" fill="#EBEBEB"/>
<path d="M1429.07 891.533H820.318C815.546 891.525 810.973 889.626 807.598 886.252C804.224 882.878 802.325 878.304 802.317 873.532V17.8433C802.367 13.0991 804.284 8.56565 807.654 5.2256C811.023 1.88555 815.573 0.00803354 820.318 0H1429.07C1433.81 0.0164073 1438.34 1.8986 1441.7 5.23863C1445.06 8.57867 1446.97 13.1074 1447.01 17.8433V873.532C1447.01 878.296 1445.12 882.865 1441.76 886.239C1438.4 889.613 1433.83 891.517 1429.07 891.533ZM820.318 0.630507C815.755 0.63884 811.382 2.455 808.156 5.68121C804.93 8.90743 803.113 13.2807 803.105 17.8433V873.532C803.113 878.095 804.93 882.468 808.156 885.695C811.382 888.921 815.755 890.737 820.318 890.745H1429.07C1433.63 890.737 1438.01 888.921 1441.23 885.695C1444.46 882.468 1446.27 878.095 1446.28 873.532V17.8433C1446.27 13.2807 1444.46 8.90743 1441.23 5.68121C1438.01 2.455 1433.63 0.63884 1429.07 0.630507H820.318Z" fill="#EBEBEB"/>
<path d="M798.25 324.142C793.336 300.595 784.02 278.187 770.792 258.097L794.435 229.535L743.995 179.095L715.433 202.739C695.359 189.475 672.963 180.116 649.419 175.154L645.952 138.364H574.326L570.859 175.154C547.321 180.068 524.924 189.384 504.845 202.613L476.283 178.969L425.843 229.409L449.486 257.971C436.258 278.061 426.942 300.469 422.028 324.016L385.207 327.484V398.952L422.028 402.419C426.948 425.965 436.263 448.372 449.486 468.465L425.59 497.153L476.031 547.593L504.593 523.949C524.665 537.19 547.065 546.507 570.606 551.408L574.074 588.229H645.573L649.041 551.408C672.591 546.502 695 537.185 715.086 523.949L743.648 547.593L794.089 497.153L770.445 468.591C783.668 448.498 792.983 426.091 797.903 402.546L834.725 399.078V327.61L798.25 324.142ZM706.827 363.328C706.827 382.47 701.151 401.182 690.516 417.098C679.881 433.013 664.766 445.418 647.081 452.744C629.397 460.069 609.937 461.985 591.163 458.251C572.389 454.517 555.144 445.299 541.609 431.764C528.074 418.228 518.856 400.983 515.122 382.21C511.387 363.436 513.304 343.976 520.629 326.291C527.954 308.606 540.359 293.491 556.275 282.857C572.191 272.222 590.903 266.546 610.044 266.546C622.758 266.537 635.348 269.035 647.096 273.895C658.844 278.756 669.518 285.884 678.51 294.872C687.501 303.861 694.632 314.533 699.497 326.279C704.361 338.025 706.863 350.615 706.858 363.328H706.827Z" fill="#E0E0E0"/>
<path d="M1003.29 667.231L1005.65 693.555H1057.01L1059.5 667.105C1076.41 663.579 1092.51 656.895 1106.95 647.402L1127.47 664.394L1163.82 628.046L1146.82 607.523C1156.32 593.091 1163.01 576.993 1166.53 560.077L1192.98 557.587V506.358L1166.53 503.868C1163.01 486.952 1156.32 470.854 1146.82 456.422L1163.82 435.899L1127.47 399.582L1106.95 416.574C1092.52 407.059 1076.42 400.363 1059.5 396.84L1057.01 370.39H1005.65L1003.16 396.84C986.247 400.369 970.149 407.065 955.719 416.574L935.196 399.582L898.879 435.899L915.871 456.422C906.361 470.852 899.665 486.95 896.136 503.868L869.687 506.358V557.713L896.136 560.203C899.665 577.121 906.361 593.219 915.871 607.649L898.879 628.172L935.196 664.52L955.719 647.528C970.195 657.03 986.335 663.715 1003.29 667.231ZM1031.47 601.564C1017.71 601.571 1004.25 597.492 992.809 589.846C981.364 582.2 972.446 571.329 967.183 558.611C961.92 545.893 960.549 531.899 963.244 518.402C965.94 504.904 972.579 492.51 982.323 482.788C992.067 473.067 1004.48 466.455 1017.98 463.791C1031.48 461.126 1045.47 462.528 1058.18 467.82C1070.89 473.112 1081.74 482.055 1089.36 493.517C1096.98 504.979 1101.02 518.445 1100.99 532.209C1100.94 550.615 1093.59 568.251 1080.56 581.251C1067.53 594.251 1049.88 601.556 1031.47 601.564Z" fill="#E0E0E0"/>
<path d="M348.385 920.284L349.646 933.777H375.844L377.136 920.316C385.758 918.5 393.961 915.078 401.316 910.228L411.782 918.897L430.319 900.392L421.65 889.926C426.496 882.56 429.908 874.346 431.706 865.714L445.199 864.453V838.256L431.706 836.995C429.908 828.363 426.496 820.149 421.65 812.783L430.319 802.317L411.782 783.78L401.316 792.45C393.959 787.609 385.756 784.198 377.136 782.393L375.844 768.9H349.646L348.385 782.393C339.765 784.198 331.563 787.609 324.205 792.45L313.739 783.78L295.202 802.317L303.872 812.783C299.011 820.141 295.598 828.358 293.815 836.995L280.322 838.256V864.453L293.815 865.714C295.598 874.351 299.011 882.568 303.872 889.926L295.202 900.392L313.739 918.897L324.205 910.228C331.556 915.081 339.761 918.494 348.385 920.284ZM362.761 886.805C355.746 886.805 348.889 884.724 343.057 880.827C337.225 876.93 332.679 871.391 329.995 864.911C327.31 858.43 326.608 851.299 327.976 844.42C329.345 837.54 332.723 831.221 337.683 826.261C342.643 821.301 348.962 817.923 355.842 816.554C362.721 815.186 369.852 815.888 376.333 818.572C382.813 821.257 388.352 825.803 392.25 831.635C396.147 837.467 398.227 844.324 398.227 851.339C398.227 855.996 397.309 860.608 395.527 864.911C393.745 869.214 391.132 873.124 387.839 876.417C384.546 879.71 380.636 882.323 376.333 884.105C372.03 885.887 367.418 886.805 362.761 886.805Z" fill="#F0F0F0"/>
<path d="M1290.17 854.838L1291.21 865.935H1312.77L1313.81 854.838C1320.92 853.351 1327.68 850.539 1333.74 846.547L1342.34 853.703L1357.6 838.445L1350.45 829.839C1354.44 823.78 1357.26 817.02 1358.74 809.915L1369.83 808.874V787.311L1358.74 786.271C1357.25 779.167 1354.44 772.408 1350.45 766.347L1357.6 757.74L1342.34 742.482L1333.74 749.638C1327.68 745.647 1320.92 742.834 1313.81 741.347L1312.77 730.25H1291.21L1290.17 741.347C1283.07 742.834 1276.31 745.647 1270.25 749.638L1261.64 742.482L1246.38 757.74L1253.54 766.347C1249.55 772.408 1246.73 779.167 1245.25 786.271L1234.15 787.311V808.874L1245.25 809.915C1246.73 817.02 1249.54 823.78 1253.54 829.839L1246.38 838.571L1261.64 853.829L1270.25 846.673C1276.32 850.62 1283.08 853.39 1290.17 854.838ZM1301.99 827.285C1296.22 827.285 1290.57 825.573 1285.77 822.365C1280.97 819.157 1277.23 814.598 1275.02 809.264C1272.81 803.93 1272.23 798.06 1273.36 792.397C1274.49 786.735 1277.27 781.533 1281.35 777.45C1285.43 773.368 1290.63 770.588 1296.3 769.461C1301.96 768.335 1307.83 768.913 1313.16 771.122C1318.5 773.332 1323.06 777.074 1326.26 781.874C1329.47 786.675 1331.18 792.319 1331.18 798.093C1331.18 805.832 1328.1 813.253 1322.62 818.726C1317.15 824.198 1309.73 827.277 1301.99 827.285Z" fill="#F0F0F0"/>
<path d="M730.534 1026.93H791.693L794.656 995.409C814.814 991.243 833.996 983.284 851.181 971.954L875.613 992.193L918.803 948.909L898.469 924.509C909.785 907.328 917.743 888.159 921.924 868.016L953.449 865.052V803.893L921.924 800.93C917.737 780.798 909.779 761.641 898.469 744.468L918.677 720.036L875.424 676.784L851.181 696.991C834.004 685.684 814.849 677.717 794.72 673.505L791.756 641.98H730.597L727.634 673.505C707.493 677.711 688.327 685.679 671.141 696.991L646.709 676.784L603.393 720.036L623.632 744.468C612.299 761.632 604.329 780.792 600.146 800.93L568.621 803.893V865.052L600.146 868.016C604.324 888.165 612.294 907.336 623.632 924.509L603.393 948.909L646.646 992.162L671.078 971.923C688.25 983.261 707.421 991.231 727.571 995.409L730.534 1026.93ZM761.114 917.258C744.74 917.258 728.735 912.403 715.121 903.306C701.507 894.21 690.896 881.28 684.63 866.153C678.364 851.026 676.725 834.381 679.919 818.322C683.113 802.263 690.998 787.512 702.576 775.935C714.153 764.357 728.904 756.472 744.963 753.278C761.022 750.084 777.667 751.723 792.794 757.989C807.921 764.255 820.851 774.866 829.947 788.48C839.044 802.094 843.899 818.099 843.899 834.473C843.915 845.355 841.786 856.133 837.633 866.192C833.481 876.251 827.385 885.392 819.696 893.092C812.007 900.793 802.876 906.902 792.823 911.07C782.771 915.239 771.996 917.384 761.114 917.384V917.258Z" fill="#E0E0E0"/>
<path d="M1072.36 915.051L1069.21 908.746C1064.13 899.091 1055.43 891.846 1045.02 888.601C1034.6 885.356 1023.32 886.376 1013.66 891.439L998.908 899.162C989.257 904.252 982.017 912.959 978.773 923.376C975.529 933.794 976.546 945.072 981.601 954.741L984.753 960.889L974.476 966.311L1011.52 1036.86L1119.68 980.119L1082.64 909.534L1072.36 915.051ZM1049.79 969.022L1056.25 981.349L1048.43 985.479L1041.97 973.152C1040.48 973.094 1039.03 972.648 1037.76 971.857C1036.5 971.066 1035.46 969.959 1034.75 968.644C1034.15 967.625 1033.76 966.494 1033.61 965.32C1033.46 964.146 1033.55 962.954 1033.87 961.815C1034.2 960.677 1034.75 959.617 1035.5 958.698C1036.24 957.78 1037.17 957.023 1038.22 956.473C1039.27 955.923 1040.41 955.592 1041.59 955.5C1042.77 955.408 1043.96 955.557 1045.08 955.938C1046.2 956.318 1047.23 956.923 1048.11 957.714C1048.99 958.506 1049.7 959.468 1050.2 960.542C1050.88 961.867 1051.2 963.348 1051.13 964.837C1051.06 966.326 1050.6 967.77 1049.79 969.022ZM1056.09 923.689L1000.96 952.629L997.805 946.324C995.006 940.963 994.447 934.711 996.249 928.938C998.052 923.165 1002.07 918.341 1007.42 915.524L1022.14 907.8C1027.48 904.99 1033.72 904.407 1039.49 906.179C1045.26 907.951 1050.1 911.934 1052.94 917.258L1056.09 923.689Z" fill="#F0F0F0"/>
<path d="M316.229 540.185L318.531 533.627C322.096 523.318 321.43 512.015 316.68 502.195C311.929 492.375 303.481 484.837 293.184 481.233L277.422 475.779C267.1 472.221 255.788 472.905 245.97 477.681C236.152 482.457 228.631 490.934 225.058 501.251L222.757 507.84L211.818 504.025L185.652 579.339L301.066 619.313L327.2 543.999L316.229 540.185ZM261.439 560.708L256.867 573.759L248.513 570.859L253.084 557.713C252.105 556.591 251.435 555.233 251.142 553.774C250.849 552.314 250.943 550.803 251.413 549.39C252.179 547.195 253.784 545.394 255.877 544.383C257.97 543.372 260.379 543.234 262.573 543.999C264.768 544.764 266.569 546.37 267.58 548.463C268.591 550.556 268.729 552.964 267.964 555.159C267.456 556.573 266.586 557.83 265.441 558.803C264.296 559.776 262.916 560.433 261.439 560.708ZM298.922 534.195L240.096 513.861L242.366 507.272C244.361 501.565 248.537 496.881 253.979 494.246C259.421 491.61 265.685 491.239 271.4 493.212L287.163 498.666C292.876 500.655 297.565 504.83 300.202 510.274C302.838 515.718 303.205 521.986 301.223 527.701L298.922 534.195Z" fill="#F0F0F0"/>
<path d="M1349.06 503.363L1342.31 501.22C1351.55 499.582 1359.97 494.897 1366.23 487.911C1372.5 480.925 1376.24 472.043 1376.86 462.682C1377.48 453.321 1374.95 444.022 1369.66 436.27C1364.38 428.518 1356.65 422.761 1347.71 419.917C1338.77 417.074 1329.13 417.308 1320.34 420.583C1311.55 423.858 1304.11 429.985 1299.21 437.985C1294.31 445.984 1292.23 455.396 1293.31 464.715C1294.38 474.035 1298.55 482.725 1305.14 489.398L1298.43 487.254C1288.59 484.111 1277.9 485.002 1268.72 489.731C1259.53 494.459 1252.6 502.639 1249.44 512.474L1242.69 533.722L1367.66 573.412L1374.5 552.322C1376.05 547.437 1376.62 542.294 1376.18 537.188C1375.74 532.081 1374.3 527.112 1371.94 522.564C1369.57 518.016 1366.34 513.98 1362.41 510.685C1358.48 507.39 1353.95 504.902 1349.06 503.363Z" fill="#F0F0F0"/>
<path d="M895.915 122.633L891.722 124.399C895.563 119.736 897.731 113.921 897.879 107.882C898.027 101.843 896.147 95.9287 892.539 91.0837C888.931 86.2386 883.804 82.7424 877.976 81.1537C872.148 79.565 865.955 79.9753 860.388 82.3191C854.82 84.663 850.199 88.8051 847.261 94.0838C844.324 99.3625 843.241 105.473 844.185 111.44C845.128 117.407 848.044 122.885 852.467 127C856.89 131.114 862.564 133.628 868.583 134.14L864.39 135.905C858.275 138.507 853.434 143.417 850.92 149.568C848.405 155.719 848.42 162.614 850.96 168.755L856.509 181.995L934.344 149.272L928.764 136.063C926.163 129.948 921.253 125.107 915.102 122.593C908.951 120.078 902.056 120.092 895.915 122.633Z" fill="#F0F0F0"/>
<path d="M332.591 211.219L328.146 210.305C333.974 208.652 339.079 205.094 342.646 200.199C346.212 195.303 348.035 189.353 347.822 183.3C347.61 177.247 345.373 171.44 341.472 166.807C337.57 162.174 332.227 158.983 326.298 157.744C320.369 156.505 314.196 157.29 308.766 159.972C303.335 162.655 298.96 167.081 296.341 172.542C293.722 178.003 293.01 184.185 294.318 190.1C295.626 196.014 298.879 201.319 303.557 205.166L299.112 204.252C292.579 202.929 285.789 204.246 280.224 207.914C274.66 211.582 270.773 217.304 269.415 223.829L266.483 237.858L349.111 255.071L352.042 241.042C353.406 234.509 352.124 227.702 348.478 222.112C344.833 216.522 339.12 212.605 332.591 211.219Z" fill="#F0F0F0"/>
<path d="M788.131 1174.5C1125.71 1174.5 1399.37 1158.53 1399.37 1138.82C1399.37 1119.11 1125.71 1103.13 788.131 1103.13C450.551 1103.13 176.888 1119.11 176.888 1138.82C176.888 1158.53 450.551 1174.5 788.131 1174.5Z" fill="#F5F5F5"/>
<path d="M1163.85 247.221H599.83C587.086 247.221 576.754 257.553 576.754 270.297V962.812C576.754 975.557 587.086 985.888 599.83 985.888H1163.85C1176.59 985.888 1186.92 975.557 1186.92 962.812V270.297C1186.92 257.553 1176.59 247.221 1163.85 247.221Z" fill="#FC4F00"/>
<path opacity="0.6" d="M1163.85 247.221H599.83C587.086 247.221 576.754 257.553 576.754 270.297V962.812C576.754 975.557 587.086 985.888 599.83 985.888H1163.85C1176.59 985.888 1186.92 975.557 1186.92 962.812V270.297C1186.92 257.553 1176.59 247.221 1163.85 247.221Z" fill="white"/>
<path d="M1090.06 621.948H693.585C689.167 621.948 685.585 625.529 685.585 629.948V684.564C685.585 688.982 689.167 692.564 693.585 692.564H1090.06C1094.48 692.564 1098.06 688.983 1098.06 684.564V629.948C1098.06 625.529 1094.48 621.948 1090.06 621.948Z" fill="white"/>
<path d="M1090.48 750.6H694C689.582 750.6 686 754.182 686 758.6V813.217C686 817.635 689.582 821.217 694 821.217H1090.48C1094.89 821.217 1098.48 817.635 1098.48 813.217V758.6C1098.48 754.182 1094.89 750.6 1090.48 750.6Z" fill="#FC4F00"/>
<path d="M1090.06 496.331H693.585C689.167 496.331 685.585 499.913 685.585 504.331V558.948C685.585 563.366 689.167 566.948 693.585 566.948H1090.06C1094.48 566.948 1098.06 563.366 1098.06 558.948V504.331C1098.06 499.913 1094.48 496.331 1090.06 496.331Z" fill="white"/>
<path d="M1256.47 1012.56C1256.47 1012.56 1236.99 1015.14 1228.66 1012.56C1220.34 1009.97 1223.46 972.206 1214.98 971.418C1195.4 969.621 1198.75 1019.78 1207.07 1030.34C1215.39 1040.9 1258.23 1036.42 1258.23 1036.42L1256.47 1012.56Z" fill="#FC4F00"/>
<path opacity="0.2" d="M1256.47 1012.56C1256.47 1012.56 1236.99 1015.14 1228.66 1012.56C1220.34 1009.97 1223.46 972.206 1214.98 971.418C1195.4 969.621 1198.75 1019.78 1207.07 1030.34C1215.39 1040.9 1258.23 1036.42 1258.23 1036.42L1256.47 1012.56Z" fill="white"/>
<path d="M1258.08 1101.49C1258.08 1101.49 1229.23 845.38 1263.66 842.449C1298.08 839.517 1306.4 929.805 1293.1 1098.24L1258.08 1101.49Z" fill="#FC4F00"/>
<path opacity="0.3" d="M1258.08 1101.49C1258.08 1101.49 1229.23 845.38 1263.66 842.449C1298.08 839.517 1306.4 929.805 1293.1 1098.24L1258.08 1101.49Z" fill="white"/>
<path d="M1217.63 1070.5H1330.9L1321.44 1142.95H1227.09L1217.63 1070.5Z" fill="#455A64"/>
<path d="M1292.28 926.4C1292.28 926.4 1323.81 928.071 1324.6 926.4C1325.38 924.729 1325.54 888.57 1338.84 890.619C1352.15 892.668 1346.32 936.394 1338.84 941.469C1331.37 946.545 1292.28 949.287 1292.28 949.287C1292.28 949.287 1287.05 933.146 1292.28 926.4Z" fill="#FC4F00"/>
<path opacity="0.4" d="M1292.28 926.4C1292.28 926.4 1323.81 928.071 1324.6 926.4C1325.38 924.729 1325.54 888.57 1338.84 890.619C1352.15 892.668 1346.32 936.394 1338.84 941.469C1331.37 946.545 1292.28 949.287 1292.28 949.287C1292.28 949.287 1287.05 933.146 1292.28 926.4Z" fill="white"/>
<path d="M1272.39 1078.16C1265.42 1009.85 1257.86 941.185 1259.59 872.429C1260.09 867.164 1260.44 841.377 1269.21 845.317C1270.33 846.257 1271.19 847.474 1271.7 848.848C1274.38 857.142 1276.07 865.724 1276.74 874.415C1283.36 942.888 1282.86 1011.8 1282.51 1080.5C1281.22 1011.87 1281.12 943.014 1274.41 874.699C1273.52 866.345 1268.48 829.681 1263.34 858.022C1261.65 872.585 1261.03 887.252 1261.48 901.905C1262.65 960.763 1267.41 1019.49 1272.39 1078.16Z" fill="#FC4F00"/>
<path d="M1296.22 935.007C1305.43 934.124 1321.82 933.557 1329.7 931.507C1329.7 920.694 1333.52 906.003 1337.39 894.497C1336.29 899.635 1335.22 907.107 1334.24 912.498C1332.99 918.989 1332.24 925.565 1331.97 932.169C1331.47 933.714 1329.54 933.998 1328.32 934.313C1317.65 935.758 1306.85 935.99 1296.13 935.007H1296.22Z" fill="#FC4F00"/>
<path d="M1296.22 943.361C1309.37 940.933 1324.03 939.988 1336.92 936.898C1340.26 931.602 1340.07 924.13 1341.02 917.983C1341.78 911.111 1342.34 904.207 1343.01 897.302C1343.37 904.244 1343.37 911.199 1343.01 918.141C1342.89 924.335 1341.93 930.486 1340.17 936.425C1339.8 937.548 1339.06 938.508 1338.06 939.136C1324.3 941.837 1310.33 943.251 1296.32 943.361H1296.22Z" fill="#FC4F00"/>
<path d="M1246.76 1019.56C1237.68 1019.75 1228.29 1020.19 1219.49 1017.16C1217.32 1015.25 1215.95 1012.6 1215.64 1009.72C1214.52 1003.99 1213.95 998.161 1213.94 992.319C1213.81 986.523 1214.01 980.723 1214.54 974.949C1214.98 980.718 1215.33 986.487 1215.83 992.225C1216.21 997.919 1216.95 1003.58 1218.04 1009.19C1218.7 1011.77 1219.33 1015.02 1221.44 1015.49C1229.72 1017.56 1238.16 1018.94 1246.66 1019.62L1246.76 1019.56Z" fill="#FC4F00"/>
<path d="M1208.74 979.52L1210.79 999.665C1212.05 1008.46 1211.83 1018.04 1215.33 1026.18C1215.88 1026.59 1216.48 1026.93 1217.13 1027.19C1226.58 1030.34 1236.89 1030.56 1246.76 1031.73C1239.99 1032.08 1233.21 1031.94 1226.46 1031.32C1221.79 1030.53 1213.85 1030.69 1212.24 1025.01C1208.33 1010.16 1208.55 994.621 1208.74 979.394V979.52Z" fill="#FC4F00"/>
<path d="M1138.06 266.609C1147.89 249.477 1164.12 236.947 1183.18 231.769C1202.24 226.591 1222.58 229.189 1239.73 238.993L1236.58 244.32L1257.7 238.583L1251.96 217.461L1248.81 222.757C1229.67 211.789 1207.26 207.965 1185.57 211.967C1163.87 215.968 1144.3 227.536 1130.34 244.611C1116.37 261.686 1108.92 283.162 1109.3 305.218C1109.68 327.273 1117.87 348.479 1132.42 365.062L1146.48 352.736C1136.28 341.046 1129.98 326.462 1128.47 311.021C1126.96 295.579 1130.32 280.052 1138.06 266.609Z" fill="#263238"/>
<path d="M1273.62 243.343L1259.43 255.354C1270.78 268.72 1277.04 285.658 1277.13 303.189C1277.22 320.72 1271.12 337.719 1259.91 351.197C1248.7 364.675 1233.09 373.767 1215.84 376.874C1198.59 379.981 1180.79 376.904 1165.58 368.183L1168.73 362.855L1147.52 368.845L1153.26 389.967L1156.41 384.639C1175.45 395.47 1197.69 399.251 1219.24 395.318C1240.79 391.384 1260.26 379.989 1274.25 363.13C1288.23 346.271 1295.84 325.026 1295.72 303.122C1295.61 281.218 1287.78 260.054 1273.62 243.343Z" fill="#263238"/>
<g opacity="0.6">
<path d="M1138.06 266.609C1147.89 249.477 1164.12 236.947 1183.18 231.769C1202.24 226.591 1222.58 229.189 1239.73 238.993L1236.58 244.32L1257.7 238.583L1251.96 217.461L1248.81 222.757C1229.67 211.789 1207.26 207.965 1185.57 211.967C1163.87 215.968 1144.3 227.536 1130.34 244.611C1116.37 261.686 1108.92 283.162 1109.3 305.218C1109.68 327.273 1117.87 348.479 1132.42 365.062L1146.48 352.736C1136.28 341.046 1129.98 326.462 1128.47 311.021C1126.96 295.579 1130.32 280.052 1138.06 266.609Z" fill="white"/>
<path d="M1273.62 243.343L1259.43 255.354C1270.78 268.72 1277.04 285.658 1277.13 303.189C1277.22 320.72 1271.12 337.719 1259.91 351.197C1248.7 364.675 1233.09 373.767 1215.84 376.874C1198.59 379.981 1180.79 376.904 1165.58 368.183L1168.73 362.855L1147.52 368.845L1153.26 389.967L1156.41 384.639C1175.45 395.47 1197.69 399.251 1219.24 395.318C1240.79 391.384 1260.26 379.989 1274.25 363.13C1288.23 346.271 1295.84 325.026 1295.72 303.122C1295.61 281.218 1287.78 260.054 1273.62 243.343Z" fill="white"/>
</g>
<path d="M1189.19 215.286H1168.64V152.235C1168.64 140.639 1164.03 129.517 1155.83 121.317C1147.63 113.117 1136.51 108.51 1124.91 108.51C1113.32 108.51 1102.2 113.117 1094 121.317C1085.8 129.517 1081.19 140.639 1081.19 152.235V215.286H1060.63V152.235C1060.63 135.187 1067.41 118.837 1079.46 106.783C1091.52 94.7276 1107.87 87.9553 1124.91 87.9553C1141.96 87.9553 1158.31 94.7276 1170.37 106.783C1182.42 118.837 1189.19 135.187 1189.19 152.235V215.286Z" fill="#263238"/>
<g opacity="0.3">
<path d="M1189.19 215.286H1168.64V152.235C1168.64 140.639 1164.03 129.517 1155.83 121.317C1147.63 113.117 1136.51 108.51 1124.91 108.51C1113.32 108.51 1102.2 113.117 1094 121.317C1085.8 129.517 1081.19 140.639 1081.19 152.235V215.286H1060.63V152.235C1060.63 135.187 1067.41 118.837 1079.46 106.783C1091.52 94.7276 1107.87 87.9553 1124.91 87.9553C1141.96 87.9553 1158.31 94.7276 1170.37 106.783C1182.42 118.837 1189.19 135.187 1189.19 152.235V215.286Z" fill="#455A64"/>
</g>
<path d="M1212.74 199.239V302.421C1212.74 303.995 1212.43 305.552 1211.83 307.006C1211.23 308.459 1210.35 309.78 1209.24 310.892C1208.12 312.005 1206.8 312.887 1205.35 313.489C1203.9 314.091 1202.34 314.401 1200.76 314.401H1049C1047.43 314.397 1045.88 314.084 1044.43 313.48C1042.98 312.875 1041.67 311.992 1040.56 310.879C1039.46 309.767 1038.58 308.447 1037.98 306.996C1037.39 305.545 1037.08 303.991 1037.09 302.421V199.239C1037.08 197.67 1037.39 196.116 1037.98 194.665C1038.58 193.213 1039.46 191.894 1040.56 190.782C1041.67 189.669 1042.98 188.786 1044.43 188.181C1045.88 187.577 1047.43 187.264 1049 187.26H1200.76C1202.75 187.246 1204.7 187.745 1206.44 188.71C1208.35 189.725 1209.94 191.242 1211.06 193.098C1212.17 194.953 1212.75 197.077 1212.74 199.239Z" fill="#FC4F00"/>
<path opacity="0.2" d="M1206.44 188.71V289.811C1206.44 291.383 1206.13 292.939 1205.53 294.391C1204.92 295.843 1204.04 297.161 1202.93 298.271C1201.82 299.381 1200.49 300.26 1199.04 300.859C1197.59 301.458 1196.03 301.764 1194.46 301.759H1042.7C1040.74 301.766 1038.81 301.278 1037.09 300.341V199.239C1037.08 197.67 1037.39 196.116 1037.98 194.665C1038.58 193.213 1039.46 191.894 1040.56 190.782C1041.67 189.669 1042.98 188.786 1044.43 188.181C1045.88 187.577 1047.43 187.264 1049 187.26H1200.76C1202.75 187.246 1204.7 187.745 1206.44 188.71Z" fill="white"/>
<path opacity="0.5" d="M1147.52 237.889C1147.46 233.775 1146.28 229.754 1144.11 226.261C1141.93 222.768 1138.85 219.934 1135.18 218.066C1131.51 216.198 1127.41 215.366 1123.3 215.659C1119.2 215.953 1115.25 217.362 1111.89 219.734C1108.53 222.105 1105.88 225.35 1104.22 229.117C1102.57 232.885 1101.97 237.032 1102.5 241.113C1103.03 245.194 1104.66 249.052 1107.22 252.273C1109.79 255.494 1113.18 257.954 1117.03 259.39L1115.99 286.88H1134.06L1131.38 259.925C1136.08 258.471 1140.18 255.543 1143.09 251.575C1146 247.606 1147.55 242.808 1147.52 237.889Z" fill="black"/>
<path d="M401.537 266.609L412.003 300.246L422.438 266.609H401.537Z" fill="#FC4F00"/>
<path d="M497.563 186.251H326.412C311.456 186.251 299.332 198.375 299.332 213.331V249.806C299.332 264.762 311.456 276.886 326.412 276.886H497.563C512.519 276.886 524.643 264.762 524.643 249.806V213.331C524.643 198.375 512.519 186.251 497.563 186.251Z" fill="#FC4F00"/>
<path d="M352.294 231.521L358.221 234.863L356.676 237.574L350.655 234.043V240.821H347.503V234.043L341.481 237.574L339.937 234.863L345.926 231.521L339.937 228.369L341.481 225.595L347.503 229.125V222.253H350.655V228.968L356.676 225.437L358.221 228.211L352.294 231.521Z" fill="white"/>
<path d="M373.227 231.521L379.154 234.863L377.609 237.574L371.588 234.043V240.821H368.625V234.043L362.54 237.574L360.996 234.863L366.985 231.521L360.996 228.369L362.54 225.595L368.562 229.125V222.253H371.525V228.968L377.546 225.437L379.091 228.211L373.227 231.521Z" fill="white"/>
<path d="M394.065 231.521L399.992 234.863L398.447 237.574L392.426 234.043V240.821H389.274V234.043L383.252 237.574L381.708 234.863L387.666 231.521L381.708 228.369L383.252 225.594L389.274 229.125V222.41H392.426V229.125L398.447 225.594L399.992 228.369L394.065 231.521Z" fill="white"/>
<path d="M415.093 231.521L421.02 234.863L419.475 237.574L413.453 234.043V240.821H410.459V234.043L404.437 237.574L402.893 234.863L408.851 231.521L402.893 228.369L404.437 225.594L410.459 229.125V222.41H413.453V229.125L419.475 225.594L421.02 228.369L415.093 231.521Z" fill="white"/>
<path d="M436.025 231.521L441.952 234.863L440.407 237.574L434.354 234.043V240.821H431.202V234.043L425.59 237.574L424.014 234.863L430.004 231.521L424.014 228.369L425.59 225.594L431.612 229.125V222.41H434.764V229.125L440.817 225.594L442.362 228.369L436.025 231.521Z" fill="white"/>
<path d="M456.927 231.521L462.885 234.863L461.34 237.574L455.287 234.043V240.821H452.292V234.043L446.24 237.574L444.695 234.863L450.685 231.521L444.695 228.369L446.24 225.594L452.292 229.125V222.41H455.287V229.125L461.34 225.594L462.885 228.369L456.927 231.521Z" fill="white"/>
<path d="M477.859 231.521L483.786 234.863L482.241 237.574L476.22 234.043V240.821H473.067V234.043L467.046 237.574L465.501 234.863L471.491 231.521L465.501 228.369L467.046 225.595L473.067 229.125V222.253H476.22V228.968L482.241 225.437L483.786 228.211L477.859 231.521Z" fill="white"/>
<path d="M548.76 501.472L567.99 489.019L546.332 475.716C546.332 475.716 529.844 487.853 536.465 496.081L548.76 501.472Z" fill="#B55B52"/>
<path d="M577.857 468.559L555.348 463.452L546.332 475.716L567.99 489.019L577.857 468.559Z" fill="#B55B52"/>
<path d="M469.726 461.056C481.895 479.467 494.095 501.85 510.709 516.194C511.024 516.446 510.898 516.194 509.668 516.194C509.038 516.352 509.353 516.667 510.646 516.194C514.429 514.038 517.758 511.168 520.45 507.745C526.615 500.273 532.101 492.265 536.843 483.818C537.064 483.471 536.843 483.818 536.843 484.196C536.763 484.771 536.763 485.355 536.843 485.93C537.127 486.214 536.118 485.394 538.072 489.713C538.994 491.091 540.304 492.165 541.836 492.799C543.367 493.433 545.053 493.599 546.679 493.275C547.72 493.051 548.703 492.613 549.566 491.989C550.428 491.364 551.152 490.568 551.691 489.65C551.199 490.231 550.756 490.854 550.367 491.51L536.244 485.488C536.586 483.483 537.408 481.59 538.64 479.972C539.781 478.688 541.288 477.786 542.959 477.386C544.597 477.066 546.294 477.236 547.836 477.875C549.378 478.514 550.697 479.594 551.628 480.98C553.583 485.331 552.606 484.511 552.889 484.826C552.925 485.833 552.829 486.84 552.606 487.821C547.656 508.849 534.731 543.495 507.934 543.684C489.019 541.95 474.675 521.175 464.051 508.061C456.511 497.964 449.564 487.438 443.245 476.535L469.568 461.088L469.726 461.056Z" fill="#B55B52"/>
<path d="M460.016 447.217C472.626 451.378 498.193 509.479 498.193 509.479L454.751 530.097C454.751 530.097 445.924 484.448 447.658 469.726C448.746 460.918 453.168 452.862 460.016 447.217Z" fill="#FC4F00"/>
<path opacity="0.7" d="M460.016 447.217C472.626 451.378 498.193 509.479 498.193 509.479L454.751 530.097C454.751 530.097 445.924 484.448 447.658 469.726C448.746 460.918 453.168 452.862 460.016 447.217Z" fill="white"/>
<path d="M511.087 1120.82L488.956 1127.09L483.691 1092.63L480.854 1074.22L502.985 1067.95L506.768 1092.63L511.087 1120.82Z" fill="#B55B52"/>
<path d="M383.851 1122.61L361.027 1125.64L360.806 1092.63L360.648 1072.11L383.504 1069.15L383.662 1092.63L383.851 1122.61Z" fill="#B55B52"/>
<path opacity="0.2" d="M383.504 1069.15L383.662 1092.63H360.806L360.648 1072.11L383.504 1069.15Z" fill="black"/>
<path opacity="0.2" d="M506.768 1092.63H483.691L480.854 1074.22L502.985 1067.95L506.768 1092.63Z" fill="black"/>
<path d="M510.708 1117.35L485.488 1116.69C485.03 1116.67 484.581 1116.81 484.214 1117.09C483.847 1117.36 483.585 1117.76 483.471 1118.2L478.206 1138.44C478.04 1138.93 477.997 1139.45 478.079 1139.96C478.161 1140.46 478.367 1140.95 478.678 1141.36C478.989 1141.77 479.396 1142.09 479.863 1142.31C480.331 1142.53 480.844 1142.63 481.358 1142.6C490.438 1142.6 503.426 1142.6 514.933 1142.82C528.268 1143.2 536.748 1142.54 552.385 1142.82C561.842 1143.07 564.774 1133.65 560.865 1132.67C542.99 1128.26 531.326 1129.14 516.099 1119.18C514.504 1118.08 512.639 1117.45 510.708 1117.35Z" fill="#455A64"/>
<path d="M512.632 1120.15C512.612 1120.04 512.63 1119.93 512.681 1119.82C512.732 1119.72 512.814 1119.64 512.915 1119.59C513.987 1119.08 523.413 1114.64 526.156 1116.28C526.416 1116.43 526.632 1116.64 526.781 1116.9C526.93 1117.16 527.009 1117.46 527.007 1117.76C527.037 1118.25 526.95 1118.75 526.753 1119.2C526.555 1119.66 526.254 1120.06 525.872 1120.38C523.287 1122.52 516.73 1121.45 513.042 1120.6C512.935 1120.58 512.837 1120.52 512.764 1120.44C512.69 1120.36 512.643 1120.26 512.632 1120.15ZM514.87 1119.9C519.946 1120.88 523.729 1120.75 525.179 1119.52C525.435 1119.33 525.637 1119.07 525.764 1118.77C525.891 1118.47 525.939 1118.14 525.904 1117.82C525.914 1117.7 525.889 1117.58 525.833 1117.48C525.778 1117.37 525.693 1117.28 525.589 1117.22H525.399C523.666 1116.5 518.59 1118.26 514.87 1119.9Z" fill="#FC4F00"/>
<path d="M512.821 1120.5C512.744 1120.45 512.685 1120.38 512.651 1120.29C512.617 1120.21 512.611 1120.12 512.632 1120.03C512.963 1116.78 514.321 1113.72 516.509 1111.3C516.942 1110.94 517.448 1110.67 517.992 1110.53C518.537 1110.38 519.106 1110.35 519.662 1110.44C521.144 1110.63 521.553 1111.39 521.648 1112.02C521.963 1114.61 516.289 1119.43 513.451 1120.6C513.327 1120.63 513.197 1120.63 513.073 1120.6L512.821 1120.5ZM519.41 1111.52C519.013 1111.46 518.61 1111.49 518.225 1111.6C517.84 1111.71 517.482 1111.89 517.171 1112.15C515.425 1114.09 514.323 1116.52 514.019 1119.11C516.919 1117.51 520.797 1113.72 520.576 1112.15C520.576 1112.15 520.576 1111.8 520.103 1111.64L519.41 1111.52Z" fill="#FC4F00"/>
<path d="M382.937 1117.35L357.717 1116.69C357.259 1116.67 356.809 1116.81 356.442 1117.09C356.076 1117.36 355.814 1117.76 355.699 1118.2L350.403 1138.44C350.273 1138.93 350.257 1139.43 350.354 1139.93C350.451 1140.42 350.659 1140.89 350.963 1141.29C351.267 1141.69 351.659 1142.02 352.108 1142.24C352.557 1142.47 353.052 1142.59 353.555 1142.6C362.603 1142.6 375.623 1142.6 387.13 1142.82C400.465 1143.2 408.914 1142.54 424.55 1142.82C434.008 1143.07 436.971 1133.65 433.031 1132.67C415.187 1128.26 403.491 1129.14 388.296 1119.18C386.708 1118.09 384.856 1117.46 382.937 1117.35Z" fill="#455A64"/>
<path d="M384.608 1120.15C384.591 1120.04 384.613 1119.92 384.669 1119.82C384.726 1119.71 384.815 1119.63 384.923 1119.59C385.995 1119.08 395.389 1114.64 398.132 1116.28C398.392 1116.43 398.607 1116.64 398.757 1116.9C398.906 1117.16 398.984 1117.46 398.983 1117.76C399.017 1118.25 398.934 1118.74 398.743 1119.2C398.551 1119.65 398.255 1120.06 397.88 1120.38C395.263 1122.52 388.706 1121.45 385.017 1120.6C384.915 1120.57 384.822 1120.51 384.749 1120.43C384.677 1120.36 384.628 1120.26 384.608 1120.15ZM386.877 1119.9C391.921 1120.88 395.736 1120.75 397.186 1119.52C397.438 1119.32 397.636 1119.06 397.763 1118.76C397.889 1118.47 397.94 1118.14 397.911 1117.82C397.911 1117.7 397.879 1117.58 397.818 1117.48C397.757 1117.37 397.67 1117.28 397.564 1117.22H397.375C395.799 1116.5 390.723 1118.26 387.003 1119.9H386.877Z" fill="#FC4F00"/>
<path d="M384.954 1120.5C384.875 1120.45 384.812 1120.38 384.773 1120.3C384.734 1120.21 384.72 1120.12 384.734 1120.03C385.08 1116.78 386.448 1113.72 388.643 1111.3C389.075 1110.93 389.581 1110.67 390.125 1110.52C390.67 1110.38 391.24 1110.35 391.795 1110.44C393.277 1110.63 393.687 1111.39 393.75 1112.02C394.097 1114.61 388.391 1119.43 385.585 1120.6C385.45 1120.63 385.31 1120.63 385.175 1120.6L384.954 1120.5ZM391.543 1111.52C391.147 1111.46 390.743 1111.49 390.358 1111.6C389.973 1111.71 389.614 1111.89 389.305 1112.15C387.572 1114.1 386.473 1116.53 386.152 1119.11C389.053 1117.51 392.93 1113.72 392.741 1112.15C392.714 1112.02 392.652 1111.91 392.563 1111.82C392.473 1111.73 392.36 1111.67 392.237 1111.64C392.015 1111.56 391.78 1111.52 391.543 1111.52Z" fill="#FC4F00"/>
<path d="M336.784 621.047C324.678 673.442 345.422 1085.7 345.422 1085.7H385.522L402.672 742.072L465.722 1085.7L508.597 1082.54C480.571 816.409 455.823 657.522 455.823 657.522V637.44L336.784 621.047Z" fill="#263238"/>
<path opacity="0.2" d="M508.659 1082.48L465.785 1085.63L416.133 815.148L402.703 742.041L385.553 1085.67H345.453C345.453 1085.67 324.71 673.347 336.784 621.047L455.949 637.472V657.553C455.949 657.553 480.633 816.503 508.659 1082.48Z" fill="#455A64"/>
<path d="M334.167 443.844C338.367 468.581 340.717 493.598 341.198 518.685C341.607 536.181 341.198 552.826 340.599 567.895C339.022 603.235 335.618 629.969 335.775 639.142L456.076 641.286C484.763 515.501 460.111 447.217 460.111 447.217C450.784 444.627 441.309 442.606 431.738 441.164C429.636 440.891 427.535 440.639 425.433 440.407C408.421 439.114 391.348 438.798 374.299 439.462C371.147 439.462 367.773 439.745 364.589 439.998C348.511 441.353 334.167 443.844 334.167 443.844Z" fill="#FC4F00"/>
<path d="M429.342 444.506C429.342 444.506 422.186 454.877 416.448 455.603C408.314 456.706 378.618 438.516 378.618 438.516C385.49 433.44 388.863 422.375 390.345 410.679C391.405 401.185 391.605 391.615 390.944 382.086L418.718 412.287C415.061 421.744 412.886 431.832 420.073 438.926C422.715 441.444 425.88 443.349 429.342 444.506Z" fill="#B55B52"/>
<path opacity="0.2" d="M420.01 438.831C407.776 432.155 397.521 422.368 390.282 410.458C391.342 400.965 391.543 391.395 390.881 381.865L418.655 412.066C414.998 421.618 412.98 431.896 420.01 438.831Z" fill="black"/>
<path d="M450.811 354.848C453.175 363.58 450.811 381.298 439.083 374.993C427.356 368.687 446.87 339.779 450.811 354.848Z" fill="#263238"/>
<path d="M388.138 363.833C385.837 385.9 383.378 398.826 392.615 411.846C406.549 431.391 435.395 425.559 444.253 404.469C452.261 385.554 454.657 352.452 434.575 340.346C430.119 337.669 425.057 336.165 419.862 335.975C414.667 335.786 409.509 336.917 404.87 339.263C400.231 341.61 396.263 345.094 393.336 349.391C390.41 353.688 388.622 358.657 388.138 363.833Z" fill="#B55B52"/>
<path d="M404.216 352.42L405.32 327.61C405.32 327.61 378.965 324.458 379.564 338.077C364.621 344.697 370.547 367.742 389.715 379.753C400.875 371.619 400.528 350.781 400.528 350.781C401.663 351.349 402.924 351.885 404.216 352.42Z" fill="#455A64"/>
<path d="M376.632 380.699C377.036 383.437 377.98 386.067 379.408 388.437C380.837 390.808 382.722 392.871 384.955 394.507C390.944 398.857 396.587 394.065 397.092 387.067C397.565 380.762 395.011 370.894 387.95 369.318C386.392 369.011 384.782 369.094 383.264 369.559C381.746 370.023 380.366 370.855 379.246 371.981C378.127 373.107 377.303 374.491 376.847 376.012C376.39 377.533 376.317 379.143 376.632 380.699Z" fill="#B55B52"/>
<path d="M420.515 375.15C420.2 376.947 420.925 378.523 422.091 378.713C423.257 378.902 424.455 377.609 424.739 375.812C425.023 374.015 424.329 372.439 423.163 372.25C421.996 372.061 420.799 373.353 420.515 375.15Z" fill="#263238"/>
<path d="M440.754 378.303C440.47 380.1 441.195 381.707 442.362 381.865C443.528 382.023 444.726 380.762 445.01 378.965C445.294 377.168 444.6 375.592 443.434 375.402C442.267 375.213 441.069 376.537 440.754 378.303Z" fill="#263238"/>
<path d="M434.166 378.303C435.52 383.926 437.641 389.336 440.471 394.381C439.091 394.994 437.598 395.311 436.089 395.311C434.579 395.311 433.086 394.994 431.707 394.381L434.166 378.303Z" fill="#A02724"/>
<path d="M420.956 399.74C421.709 399.977 422.478 400.156 423.258 400.276C423.395 400.294 423.535 400.258 423.646 400.176C423.758 400.094 423.833 399.971 423.857 399.834C423.87 399.764 423.87 399.691 423.855 399.621C423.84 399.551 423.811 399.485 423.77 399.426C423.728 399.367 423.676 399.317 423.615 399.279C423.554 399.241 423.486 399.215 423.415 399.204C421.19 398.906 419.066 398.089 417.215 396.818C415.364 395.548 413.838 393.859 412.76 391.89C412.736 391.824 412.698 391.763 412.649 391.712C412.601 391.661 412.542 391.621 412.476 391.594C412.411 391.567 412.341 391.554 412.27 391.557C412.199 391.559 412.13 391.576 412.066 391.606C411.938 391.662 411.836 391.766 411.783 391.895C411.73 392.025 411.73 392.17 411.783 392.3C412.721 394.102 414.02 395.692 415.598 396.971C417.176 398.251 419 399.193 420.956 399.74Z" fill="#263238"/>
<path d="M415.345 367.647C415.524 367.707 415.717 367.715 415.901 367.67C416.085 367.626 416.253 367.53 416.385 367.395C417.336 366.446 418.494 365.73 419.769 365.303C421.043 364.876 422.399 364.751 423.73 364.936C423.865 364.967 424.004 364.971 424.14 364.949C424.277 364.926 424.407 364.876 424.524 364.803C424.641 364.73 424.743 364.634 424.823 364.522C424.903 364.41 424.96 364.282 424.991 364.148C425.022 364.013 425.027 363.874 425.004 363.738C424.981 363.602 424.932 363.471 424.858 363.354C424.785 363.237 424.69 363.136 424.577 363.055C424.465 362.975 424.338 362.918 424.203 362.887C422.531 362.603 420.815 362.727 419.202 363.248C417.588 363.77 416.124 364.673 414.935 365.882C414.734 366.083 414.622 366.355 414.622 366.638C414.622 366.922 414.734 367.194 414.935 367.395C415.052 367.507 415.192 367.593 415.345 367.647Z" fill="#263238"/>
<path d="M450.811 372.723C451.006 372.785 451.215 372.785 451.41 372.723C451.681 372.642 451.909 372.458 452.045 372.21C452.181 371.962 452.213 371.67 452.135 371.399C451.691 369.772 450.86 368.277 449.713 367.042C448.565 365.806 447.136 364.868 445.546 364.306C445.275 364.236 444.987 364.272 444.741 364.406C444.495 364.541 444.309 364.764 444.222 365.031C444.144 365.302 444.176 365.594 444.312 365.842C444.448 366.09 444.676 366.274 444.947 366.355C446.208 366.799 447.338 367.55 448.235 368.541C449.132 369.532 449.768 370.731 450.086 372.029C450.141 372.195 450.236 372.345 450.362 372.466C450.488 372.587 450.642 372.675 450.811 372.723Z" fill="#263238"/>
<path d="M379.564 338.077C379.564 338.077 365.945 324.552 412.161 325.782C458.377 327.011 466.069 352.925 444.884 358.946L443.938 354.722C440.3 356.598 436.302 357.675 432.214 357.882C428.126 358.088 424.04 357.419 420.231 355.92L423.573 353.839C423.573 353.839 392.016 357.055 379.564 338.077Z" fill="#455A64"/>
<path d="M416.448 455.508C416.448 455.508 410.553 462.317 403.838 469.032C394.034 464.083 371.083 450.811 372.313 438.547C373.668 434.985 383 432.715 383 432.715C383 432.715 392.899 445.924 416.448 455.508Z" fill="#FC4F00"/>
<path d="M416.448 455.508C421.271 459.396 425.517 463.949 429.058 469.032C436.278 464.367 432.652 441.542 430.004 439.02C426.186 436.935 421.902 435.85 417.552 435.868C418.98 438.984 419.626 442.402 419.434 445.825C419.242 449.247 418.217 452.571 416.448 455.508Z" fill="#FC4F00"/>
<g opacity="0.5">
<path d="M416.448 455.508C416.448 455.508 410.553 462.317 403.838 469.032C394.034 464.083 371.083 450.811 372.313 438.547C373.668 434.985 383 432.715 383 432.715C383 432.715 392.899 445.924 416.448 455.508Z" fill="white"/>
<path d="M416.448 455.508C421.271 459.396 425.517 463.949 429.058 469.032C436.277 464.367 432.652 441.542 430.004 439.02C426.186 436.935 421.902 435.85 417.551 435.868C418.98 438.984 419.626 442.402 419.434 445.825C419.241 449.247 418.216 452.571 416.448 455.508Z" fill="white"/>
</g>
<path opacity="0.2" d="M416.133 815.148L402.703 742.041L405.288 703.359C405.288 703.359 423.667 770.445 416.133 815.148Z" fill="black"/>
<path d="M346.777 477.229C335.113 496.68 317.049 524.517 307.15 544.283C301.885 555.474 300.246 567.454 297.377 579.528C294.635 592.422 291.892 605.568 288.866 618.556L273.796 617.232C273.261 603.582 273.387 590.058 274.206 576.407C275.247 562.189 276.003 546.837 281.363 533.344C292.018 507.398 306.047 484.196 321.084 460.836L346.777 477.292V477.229Z" fill="#B55B52"/>
<path d="M334.167 443.844C317.238 448.226 286.879 509.069 286.879 509.069L322.85 532.366L355.289 500.841C357.151 489.429 356.451 477.745 353.24 466.636C347.975 447.658 334.167 443.844 334.167 443.844Z" fill="#FC4F00"/>
<path opacity="0.7" d="M334.167 443.844C317.238 448.226 286.879 509.069 286.879 509.069L322.85 532.366L355.289 500.841C357.151 489.429 356.451 477.745 353.24 466.636C347.975 447.658 334.167 443.844 334.167 443.844Z" fill="white"/>
<path d="M346.927 631.399L596.824 366.4C598.17 364.973 599.785 363.824 601.575 363.02C603.365 362.217 605.296 361.773 607.257 361.716C609.219 361.658 611.172 361.988 613.007 362.685C614.841 363.383 616.52 364.435 617.947 365.781L623.979 371.469C626.863 374.188 628.548 377.941 628.664 381.903C628.78 385.864 627.318 389.709 624.599 392.593L374.702 657.591L346.927 631.399Z" fill="#263238"/>
<path opacity="0.6" d="M346.927 631.399L596.824 366.4C598.17 364.973 599.785 363.824 601.575 363.02C603.365 362.217 605.296 361.773 607.257 361.716C609.219 361.658 611.172 361.988 613.007 362.685C614.841 363.383 616.52 364.435 617.947 365.781L623.979 371.469C626.863 374.188 628.548 377.941 628.664 381.903C628.78 385.864 627.318 389.709 624.599 392.593L374.702 657.591L346.927 631.399Z" fill="white"/>
<path opacity="0.2" d="M619.786 367.553L623.979 371.493C625.406 372.836 626.554 374.447 627.359 376.234C628.163 378.021 628.607 379.949 628.665 381.908C628.724 383.866 628.396 385.818 627.7 387.649C627.004 389.481 625.954 391.158 624.609 392.584L374.709 657.616L370.547 653.676L620.448 388.643C621.79 387.215 622.838 385.537 623.531 383.704C624.225 381.871 624.55 379.919 624.489 377.961C624.427 376.002 623.98 374.074 623.173 372.289C622.366 370.503 621.215 368.893 619.786 367.553Z" fill="black"/>
<path d="M540.059 470.167L586.369 513.861L592.39 507.462L586.401 501.819L595.921 491.699L592.422 488.389L606.734 473.225L610.234 476.535L619.187 467.046L625.177 472.721L631.387 466.1L627.888 462.79L636.841 453.27L629.811 446.649L635.675 440.439L646.236 450.369L656.954 439.02L610.644 395.326L540.059 470.167Z" fill="#263238"/>
<path opacity="0.6" d="M540.059 470.167L586.369 513.861L592.39 507.462L586.401 501.819L595.921 491.699L592.422 488.389L606.734 473.225L610.234 476.535L619.187 467.046L625.177 472.721L631.387 466.1L627.888 462.79L636.841 453.27L629.811 446.649L635.675 440.439L646.236 450.369L656.954 439.02L610.644 395.326L540.059 470.167Z" fill="white"/>
<g opacity="0.2">
<path opacity="0.6" d="M588.216 503.564L582.204 509.94L586.378 513.876L592.391 507.5L588.216 503.564Z" fill="black"/>
<path opacity="0.6" d="M610.233 476.535L606.734 473.194L592.422 488.389L595.921 491.699L586.4 501.819L582.208 497.878L591.76 487.758L588.229 484.448L602.541 469.253L606.072 472.595L614.994 463.106L619.187 467.046L610.233 476.535Z" fill="black"/>
<path opacity="0.6" d="M623.695 458.818L632.679 449.329L636.872 453.27L627.888 462.79L631.418 466.1L625.176 472.721L621.015 468.78L627.226 462.16L623.695 458.818Z" fill="black"/>
<path opacity="0.6" d="M631.468 436.485L625.606 442.7L629.781 446.637L635.642 440.421L631.468 436.485Z" fill="black"/>
<path opacity="0.6" d="M652.77 435.101L642.042 446.477L646.216 450.414L656.944 439.038L652.77 435.101Z" fill="black"/>
</g>
<path d="M590.173 368.574L513.564 449.813C512.298 451.155 512.36 453.27 513.703 454.536L541.501 480.75C542.843 482.016 544.958 481.954 546.224 480.612L622.833 399.374C624.099 398.031 624.037 395.916 622.694 394.65L594.896 368.436C593.554 367.17 591.439 367.232 590.173 368.574Z" fill="#263238"/>
<path d="M376.159 743.27C370.345 749.438 363.373 754.399 355.641 757.872C347.909 761.344 339.569 763.26 331.097 763.509C322.625 763.757 314.187 762.335 306.264 759.322C298.342 756.309 291.091 751.765 284.925 745.95L263.992 726.215C257.825 720.401 252.863 713.429 249.391 705.697C245.918 697.966 244.003 689.625 243.754 681.153C243.505 672.681 244.928 664.243 247.94 656.321C250.953 648.398 255.497 641.147 261.313 634.981C267.132 628.789 274.116 623.807 281.865 620.32C289.613 616.833 297.974 614.91 306.468 614.661C314.961 614.412 323.42 615.842 331.36 618.869C339.3 621.897 346.564 626.461 352.736 632.302L373.637 652.036C379.794 657.861 384.743 664.841 388.201 672.579C391.66 680.316 393.561 688.659 393.795 697.131C394.029 705.603 392.592 714.038 389.566 721.955C386.54 729.871 381.984 737.114 376.159 743.27Z" fill="#263238"/>
<path d="M352.105 720.572C349.212 723.645 345.742 726.118 341.893 727.85C338.044 729.581 333.891 730.538 329.672 730.663C325.453 730.789 321.251 730.083 317.305 728.584C313.36 727.085 309.748 724.823 306.677 721.928L286.879 703.012C283.808 700.117 281.338 696.646 279.609 692.795C277.88 688.945 276.927 684.792 276.804 680.573C276.681 676.354 277.391 672.152 278.892 668.208C280.394 664.264 282.658 660.654 285.555 657.585C288.446 654.511 291.914 652.038 295.762 650.307C299.61 648.576 303.761 647.622 307.979 647.499C312.196 647.376 316.396 648.086 320.338 649.59C324.281 651.094 327.887 653.36 330.952 656.261L350.939 675.176C357.11 681.043 360.7 689.12 360.918 697.632C361.137 706.145 357.967 714.396 352.105 720.572Z" fill="white"/>
<path opacity="0.5" d="M590.173 368.574L513.564 449.813C512.298 451.155 512.36 453.27 513.703 454.536L541.501 480.75C542.843 482.016 544.958 481.954 546.224 480.612L622.833 399.374C624.099 398.031 624.037 395.916 622.694 394.65L594.896 368.436C593.554 367.17 591.439 367.232 590.173 368.574Z" fill="white"/>
<g opacity="0.5">
<path d="M376.159 743.27C370.345 749.438 363.373 754.399 355.641 757.872C347.909 761.344 339.569 763.26 331.097 763.509C322.625 763.757 314.187 762.335 306.264 759.322C298.342 756.309 291.091 751.765 284.925 745.95L263.992 726.215C257.825 720.401 252.863 713.429 249.391 705.697C245.918 697.966 244.003 689.625 243.754 681.153C243.505 672.681 244.928 664.243 247.94 656.321C250.953 648.398 255.497 641.147 261.313 634.981C267.132 628.789 274.116 623.807 281.865 620.32C289.613 616.833 297.974 614.91 306.468 614.661C314.961 614.412 323.42 615.842 331.36 618.869C339.3 621.897 346.564 626.461 352.736 632.302L373.637 652.036C379.794 657.861 384.743 664.841 388.201 672.579C391.66 680.316 393.561 688.659 393.795 697.131C394.029 705.603 392.592 714.038 389.566 721.955C386.54 729.871 381.984 737.114 376.159 743.27Z" fill="white"/>
<path d="M352.105 720.572C349.212 723.645 345.742 726.118 341.893 727.85C338.044 729.581 333.891 730.538 329.672 730.663C325.453 730.789 321.251 730.083 317.305 728.584C313.36 727.085 309.748 724.823 306.677 721.928L286.879 703.012C283.808 700.117 281.338 696.646 279.609 692.795C277.88 688.945 276.927 684.792 276.804 680.573C276.681 676.354 277.391 672.152 278.892 668.208C280.394 664.264 282.658 660.654 285.555 657.585C288.446 654.511 291.914 652.038 295.762 650.307C299.61 648.576 303.761 647.622 307.979 647.499C312.196 647.376 316.396 648.086 320.338 649.59C324.281 651.094 327.887 653.36 330.952 656.261L350.939 675.176C357.11 681.043 360.7 689.12 360.918 697.632C361.137 706.145 357.967 714.396 352.105 720.572Z" fill="white"/>
</g>
<path opacity="0.2" d="M614.332 386.751L622.718 394.633C623.033 394.944 623.284 395.314 623.455 395.723C623.626 396.131 623.714 396.57 623.714 397.013C623.714 397.456 623.626 397.894 623.455 398.303C623.284 398.712 623.033 399.082 622.718 399.393L546.111 480.602C545.803 480.917 545.435 481.167 545.029 481.337C544.623 481.508 544.187 481.596 543.747 481.596C543.306 481.596 542.871 481.508 542.465 481.337C542.059 481.167 541.691 480.917 541.382 480.602L533.028 472.721C533.654 473.339 534.498 473.685 535.377 473.685C536.256 473.685 537.1 473.339 537.726 472.721L614.332 391.48C614.646 391.172 614.896 390.804 615.067 390.398C615.238 389.992 615.325 389.556 615.325 389.116C615.325 388.675 615.238 388.24 615.067 387.834C614.896 387.428 614.646 387.06 614.332 386.751Z" fill="black"/>
<g opacity="0.2">
<path d="M324.71 650.428L331.015 656.324C324.75 650.909 316.638 648.119 308.368 648.536C300.098 648.953 292.307 652.544 286.619 658.561C280.931 664.579 277.783 672.559 277.832 680.839C277.88 689.119 281.121 697.062 286.879 703.013L280.574 697.086C274.375 691.233 270.754 683.157 270.508 674.635C270.263 666.113 273.413 657.842 279.266 651.642C285.119 645.442 293.195 641.822 301.717 641.576C310.239 641.331 318.51 644.481 324.71 650.334V650.428Z" fill="black"/>
<path d="M367.237 646.267L373.542 652.194C385.602 664.033 392.54 680.13 392.864 697.027C393.189 713.924 386.875 730.275 375.279 742.569C363.682 754.863 347.728 762.119 330.84 762.781C313.953 763.443 297.479 757.457 284.956 746.108L278.651 740.212C291.133 751.828 307.702 758.036 324.743 757.48C341.784 756.924 357.914 749.649 369.611 737.244C381.308 724.839 387.624 708.311 387.179 691.266C386.734 674.222 379.566 658.045 367.237 646.267Z" fill="black"/>
</g>
<g opacity="0.2">
<path d="M324.71 650.428L331.015 656.324C324.75 650.909 316.638 648.119 308.368 648.536C300.098 648.953 292.307 652.544 286.619 658.561C280.931 664.579 277.783 672.559 277.832 680.839C277.88 689.119 281.121 697.062 286.879 703.013L280.574 697.086C274.375 691.233 270.754 683.157 270.508 674.635C270.263 666.113 273.413 657.842 279.266 651.642C285.119 645.442 293.195 641.822 301.717 641.576C310.239 641.331 318.51 644.481 324.71 650.334V650.428Z" fill="black"/>
<path d="M324.71 650.428L331.015 656.324C324.75 650.909 316.638 648.119 308.368 648.536C300.098 648.953 292.307 652.544 286.619 658.561C280.931 664.579 277.783 672.559 277.832 680.839C277.88 689.119 281.121 697.062 286.879 703.013L280.574 697.086C274.375 691.233 270.754 683.157 270.508 674.635C270.263 666.113 273.413 657.842 279.266 651.642C285.119 645.442 293.195 641.822 301.717 641.576C310.239 641.331 318.51 644.481 324.71 650.334V650.428Z" fill="black"/>
</g>
<path d="M276.729 653.234L299.9 647.434L297.314 630.505L269.068 636.211L276.729 653.234Z" fill="#B55B52"/>
<path d="M274.459 614.048L269.068 636.116L297.441 630.41C297.441 630.41 297.819 610.581 287.289 609.288L274.459 614.048Z" fill="#B55B52"/>
<path d="M716 438H1048" stroke="black" stroke-width="14"/>
</svg>
