<svg width="802" height="802" viewBox="0 0 802 802" fill="none" xmlns="http://www.w3.org/2000/svg">
<path d="M748.891 507.185H486.012V355.062H748.891V507.185ZM487.616 505.581H747.287V356.666H487.616V505.581Z" fill="#E0E0E0"/>
<path d="M694.66 436.176H521.22V441.26H694.66V436.176Z" fill="#F0F0F0"/>
<path d="M706.61 455.135H521.22V460.685H706.61V455.135Z" fill="#F0F0F0"/>
<path d="M706.61 474.319H521.22V479.869H706.61V474.319Z" fill="#F0F0F0"/>
<path d="M581.835 408.635H521.22V421.836H581.835V408.635Z" fill="#F0F0F0"/>
<path d="M748.089 355.864H486.862V380.084H748.089V355.864Z" fill="#E0E0E0"/>
<path d="M727.991 376.459C727.654 376.138 731.023 372.08 735.498 367.396C739.973 362.712 743.903 359.168 744.224 359.472C744.544 359.777 741.192 363.851 736.717 368.551C732.242 373.251 728.312 376.78 727.991 376.459Z" fill="white"/>
<path d="M744.256 376.459C743.935 376.78 740.021 373.251 735.53 368.551C731.039 363.851 727.686 359.793 728.023 359.472C728.36 359.152 732.258 362.68 736.749 367.396C741.24 372.112 744.561 376.138 744.256 376.459Z" fill="white"/>
<path d="M425.413 54.6162H164.185V205.152H425.413V54.6162Z" fill="#E6E6E6"/>
<path d="M372 134.945H198.559V140.029H372V134.945Z" fill="#F0F0F0"/>
<path d="M383.949 153.904H198.559V159.454H383.949V153.904Z" fill="#F0F0F0"/>
<path d="M383.949 173.088H198.559V178.637H383.949V173.088Z" fill="#F0F0F0"/>
<path d="M259.174 107.404H198.559V120.605H259.174V107.404Z" fill="#F0F0F0"/>
<path d="M425.413 54.6162H164.185V78.8366H425.413V54.6162Z" fill="#E0E0E0"/>
<path d="M404.432 75.0994C404.096 74.7946 407.464 70.7204 411.939 66.0368C416.414 61.3531 420.344 57.8083 420.665 58.1291C420.986 58.4499 417.633 62.508 413.158 67.1916C408.683 71.8753 404.753 75.3881 404.432 75.0994Z" fill="white"/>
<path d="M420.665 75.0992C420.344 75.42 416.43 71.8912 411.939 67.1915C407.448 62.4918 404.096 58.4497 404.432 58.1289C404.769 57.8081 408.667 61.3369 413.158 66.0366C417.649 70.7363 421.002 74.7944 420.665 75.0992Z" fill="white"/>
<path d="M326.478 334.258H63.6465V182.118H326.478V334.258ZM65.2505 332.654H324.874V183.722H65.2505V332.654Z" fill="#E0E0E0"/>
<path d="M272.263 263.249H98.8223V268.333H272.263V263.249Z" fill="#F0F0F0"/>
<path d="M284.213 282.208H98.8223V287.758H284.213V282.208Z" fill="#F0F0F0"/>
<path d="M284.213 301.392H98.8223V306.941H284.213V301.392Z" fill="#F0F0F0"/>
<path d="M159.437 235.708H98.8223V248.909H159.437V235.708Z" fill="#F0F0F0"/>
<path d="M325.676 182.92H64.4482V207.141H325.676V182.92Z" fill="#E0E0E0"/>
<path d="M629.811 369.113H321.361V645.257H629.811V369.113Z" fill="#E6E6E6"/>
<path d="M336.872 282.127H95.2451V533.169H336.872V282.127Z" fill="#F0F0F0"/>
<path d="M336.872 282.127H95.2451V309.476H336.872V282.127Z" fill="#E0E0E0"/>
<path d="M115.199 295.521C115.155 296.513 114.821 297.47 114.238 298.273C113.655 299.077 112.849 299.691 111.92 300.041C110.991 300.39 109.979 300.459 109.011 300.239C108.043 300.019 107.161 299.519 106.475 298.802C105.788 298.085 105.327 297.182 105.149 296.206C104.971 295.229 105.084 294.222 105.473 293.308C105.862 292.395 106.511 291.617 107.339 291.069C108.167 290.521 109.138 290.229 110.131 290.228C111.503 290.261 112.807 290.837 113.757 291.829C114.706 292.821 115.225 294.148 115.199 295.521V295.521Z" fill="white"/>
<path d="M135.778 295.521C135.737 296.517 135.404 297.48 134.821 298.288C134.237 299.097 133.428 299.716 132.496 300.069C131.563 300.421 130.547 300.492 129.574 300.271C128.602 300.051 127.715 299.549 127.025 298.829C126.336 298.109 125.873 297.202 125.695 296.22C125.517 295.239 125.631 294.227 126.024 293.31C126.417 292.394 127.07 291.613 127.903 291.065C128.737 290.516 129.712 290.225 130.71 290.228C132.083 290.261 133.386 290.837 134.336 291.829C135.286 292.821 135.804 294.148 135.778 295.521V295.521Z" fill="white"/>
<path d="M156.357 295.521C156.317 296.517 155.984 297.48 155.4 298.288C154.816 299.097 154.008 299.716 153.075 300.069C152.142 300.421 151.126 300.492 150.153 300.271C149.181 300.051 148.294 299.549 147.605 298.829C146.915 298.109 146.452 297.202 146.274 296.22C146.096 295.239 146.21 294.227 146.603 293.31C146.996 292.394 147.649 291.613 148.482 291.065C149.316 290.516 150.292 290.225 151.289 290.228C152.662 290.261 153.965 290.837 154.915 291.829C155.865 292.821 156.383 294.148 156.357 295.521V295.521Z" fill="white"/>
<path d="M714.389 109.521H405.94V416.944H714.389V109.521Z" fill="#F0F0F0"/>
<path d="M714.389 109.521H405.94V145.531H714.389V109.521Z" fill="#E0E0E0"/>
<path d="M432.213 127.165C432.157 128.474 431.717 129.738 430.949 130.799C430.18 131.861 429.117 132.673 427.891 133.135C426.665 133.597 425.33 133.689 424.052 133.399C422.774 133.11 421.609 132.451 420.703 131.505C419.796 130.559 419.187 129.368 418.951 128.079C418.716 126.79 418.864 125.46 419.378 124.255C419.891 123.049 420.748 122.021 421.84 121.298C422.933 120.575 424.214 120.189 425.525 120.188C427.336 120.23 429.056 120.988 430.31 122.295C431.563 123.603 432.248 125.354 432.213 127.165V127.165Z" fill="white"/>
<path d="M457.348 122.449C458.238 123.415 458.823 124.621 459.032 125.917C459.24 127.213 459.063 128.542 458.522 129.738C457.981 130.934 457.099 131.944 455.988 132.643C454.877 133.342 453.584 133.698 452.272 133.667C450.96 133.637 449.685 133.22 448.608 132.471C447.53 131.721 446.697 130.671 446.212 129.451C445.727 128.231 445.612 126.895 445.881 125.61C446.15 124.325 446.791 123.148 447.724 122.225C449.032 120.981 450.779 120.306 452.583 120.348C454.387 120.39 456.101 121.146 457.348 122.449V122.449Z" fill="white"/>
<path d="M486.397 127.165C486.34 128.474 485.9 129.738 485.132 130.799C484.363 131.861 483.3 132.673 482.074 133.135C480.848 133.597 479.513 133.689 478.235 133.399C476.957 133.11 475.792 132.451 474.886 131.505C473.979 130.559 473.37 129.368 473.134 128.079C472.899 126.79 473.047 125.46 473.561 124.255C474.074 123.049 474.931 122.021 476.024 121.298C477.116 120.575 478.398 120.189 479.708 120.188C481.519 120.23 483.239 120.988 484.493 122.295C485.747 123.603 486.431 125.354 486.397 127.165V127.165Z" fill="white"/>
<path d="M647.759 726.82C647.759 727.045 536.378 727.237 399.027 727.237C261.676 727.237 150.247 727.045 150.247 726.82C150.247 726.596 261.612 726.403 399.027 726.403C536.442 726.403 647.759 726.612 647.759 726.82Z" fill="#455A64"/>
<path d="M539.233 530.459C514.451 513.152 508.837 481.024 509.815 452.135C509.976 447.323 509.446 442.223 511.74 438.004C514.034 433.786 519.391 430.883 523.706 432.904C527.283 434.588 528.839 438.758 530.844 442.207C533.519 446.8 537.439 450.542 542.152 453.002C545.215 454.606 549.017 455.568 552.049 453.9C556.219 451.606 556.7 445.88 556.668 441.068C556.668 432.118 556.615 423.178 556.508 414.249C556.219 409.454 556.707 404.645 557.951 400.005C559.443 395.45 562.763 391.232 567.303 389.948C571.842 388.665 577.504 391.312 578.531 395.995C578.707 397.979 578.755 399.972 578.675 401.962C578.803 403.967 579.734 406.165 581.61 406.774C583.487 407.384 585.444 405.988 586.887 404.577C591.828 399.765 595.196 393.493 598.324 387.302C601.452 381.11 604.515 374.742 609.007 369.465C613.498 364.188 619.705 360.002 626.651 359.601C633.596 359.2 640.83 363.466 642.562 370.203C644.295 376.94 640.365 383.821 636.146 389.291C629.781 397.41 622.277 404.568 613.867 410.544C612.225 411.44 610.915 412.84 610.129 414.538C609.087 417.746 612.118 420.954 615.278 421.964C618.855 423.151 622.737 422.782 626.506 423.231C630.276 423.68 634.286 425.317 635.713 428.845C637.67 433.754 633.564 438.886 629.538 442.255C621.454 448.992 612.274 454.292 602.398 457.926C598.869 459.209 595.164 460.348 592.309 462.818C589.454 465.288 587.754 469.603 589.47 472.987C591.186 476.372 595.597 477.447 599.302 476.757C603.008 476.067 606.296 474.078 609.825 472.747C616.417 470.261 624.918 470.71 629.073 476.404C630.36 478.366 631.174 480.599 631.453 482.928C631.731 485.258 631.465 487.62 630.677 489.829C629.071 494.227 626.601 498.257 623.41 501.683C612.905 514.235 599.255 523.772 583.856 529.32C568.57 534.613 554.406 536.057 539.217 530.491" fill="#FC4F00"/>
<path d="M635.505 363.562C635.505 363.562 635.36 363.723 635.039 364.012L633.612 365.279C632.361 366.402 630.516 368.038 628.19 370.203C621.596 376.326 615.473 382.937 609.873 389.98C606.296 394.423 602.591 399.46 598.645 404.93C594.699 410.399 590.625 416.302 586.583 422.574C582.273 429.187 578.327 436.03 574.761 443.073C572.901 446.746 571.264 450.58 569.58 454.493L564.608 466.443C558.054 481.495 552.345 496.901 547.509 512.59C543.614 525.427 540.929 538.599 539.489 551.936C538.556 560.937 538.406 570.001 539.04 579.028C539.297 582.236 539.537 584.69 539.762 586.358C539.858 587.16 539.922 587.802 539.986 588.267V588.924C539.917 588.716 539.869 588.501 539.842 588.283C539.762 587.818 539.666 587.192 539.537 586.39C539.249 584.786 538.944 582.252 538.655 579.044C537.881 570.001 537.935 560.906 538.816 551.872C540.166 538.478 542.792 525.244 546.659 512.35C551.454 496.617 557.147 481.172 563.71 466.09L568.81 454.188C570.495 450.291 572.147 446.425 574.023 442.736C577.614 435.672 581.593 428.813 585.941 422.189C590.047 415.773 594.186 409.966 598.083 404.545C601.981 399.123 605.75 394.055 609.311 389.627C614.968 382.603 621.174 376.038 627.87 369.995C630.244 367.861 632.136 366.257 633.419 365.183L634.911 363.98C635.094 363.82 635.293 363.681 635.505 363.562V363.562Z" fill="#455A64"/>
<path d="M574.232 442.704C574.005 442.043 573.849 441.36 573.767 440.667C573.51 439.336 573.221 437.459 572.884 435.021C572.195 430.209 571.489 423.616 570.735 416.318C569.981 409.02 569.131 402.412 568.425 397.648C568.056 395.274 567.735 393.365 567.511 392.034C567.336 391.352 567.244 390.652 567.238 389.948C567.514 390.591 567.714 391.264 567.832 391.953C568.185 393.269 568.586 395.161 569.035 397.551C569.949 402.363 570.847 408.908 571.601 416.222C572.355 423.536 572.997 429.952 573.494 434.941C573.734 437.186 573.943 439.095 574.103 440.619C574.228 441.306 574.271 442.006 574.232 442.704V442.704Z" fill="#455A64"/>
<path d="M635.954 431.187C635.173 431.357 634.379 431.454 633.58 431.476C631.976 431.62 629.698 431.813 626.875 432.134C621.229 432.743 613.466 433.866 604.949 435.47C596.431 437.074 588.78 438.886 583.279 440.282C580.536 440.988 578.322 441.629 576.863 442.062C576.083 442.339 575.277 442.533 574.457 442.64C575.198 442.267 575.971 441.961 576.766 441.726C578.274 441.196 580.455 440.458 583.182 439.672C588.652 438.068 596.303 436.16 604.852 434.524C612.094 433.139 619.402 432.122 626.747 431.476C629.586 431.235 631.88 431.139 633.484 431.107C634.308 431.051 635.135 431.078 635.954 431.187Z" fill="#455A64"/>
<path d="M547.445 511.227C547.274 510.995 547.134 510.741 547.028 510.473L545.969 508.243C545.055 506.303 543.82 503.431 542.344 499.919C539.361 492.861 535.559 482.98 531.517 472.009C527.475 461.038 523.754 451.157 520.931 444.019C519.552 440.555 518.413 437.716 517.563 435.598L516.664 433.305C516.54 433.04 516.453 432.759 516.408 432.47C516.579 432.703 516.719 432.956 516.825 433.224L517.883 435.454C518.782 437.395 520.033 440.266 521.508 443.779C524.492 450.836 528.293 460.717 532.335 471.688C536.378 482.66 540.099 492.54 542.922 499.678C544.301 503.143 545.44 505.982 546.274 508.099C546.643 509.013 546.948 509.703 547.188 510.393C547.313 510.657 547.399 510.938 547.445 511.227V511.227Z" fill="#455A64"/>
<path d="M629.378 484.809C629.121 484.957 628.846 485.07 628.56 485.146L626.186 485.948L617.412 488.787C610.001 491.193 599.768 494.626 588.54 498.411C577.312 502.196 567.03 505.565 559.571 507.81C555.85 508.949 552.819 509.815 550.717 510.393L548.295 511.018C548.014 511.108 547.723 511.167 547.429 511.195C547.686 511.047 547.961 510.934 548.247 510.858L550.621 510.056L559.395 507.217C566.806 504.811 577.039 501.378 588.267 497.593C599.495 493.808 609.761 490.439 617.219 488.193C620.957 487.055 623.972 486.189 626.089 485.611L628.511 484.985C628.793 484.896 629.083 484.837 629.378 484.809V484.809Z" fill="#455A64"/>
<path d="M595.95 95.7266L587.69 98.678L584.145 87.8831C577.632 67.9774 556.877 57.4071 537.805 64.1278C518.734 70.8486 508.58 92.679 515.093 112.585L518.637 123.38L510.345 126.347C507.183 127.574 504.615 129.971 503.175 133.042C501.735 136.113 501.534 139.621 502.613 142.836L525.599 213.075C526.076 214.667 526.868 216.147 527.928 217.426C528.988 218.705 530.295 219.759 531.77 220.523C533.246 221.288 534.86 221.748 536.516 221.877C538.173 222.005 539.839 221.8 541.414 221.272L627.02 190.651C630.224 189.427 632.828 187.008 634.285 183.903C635.742 180.798 635.937 177.248 634.831 174.002L611.83 103.763C611.34 102.175 610.536 100.703 609.465 99.4335C608.394 98.1638 607.078 97.123 605.596 96.373C604.114 95.623 602.496 95.1792 600.839 95.0682C599.182 94.9571 597.519 95.1811 595.95 95.7266V95.7266ZM530.699 106.955C528.944 101.779 529.259 96.1244 531.579 91.1759C533.899 86.2273 538.045 82.3687 543.146 80.4084C545.666 79.5465 548.333 79.2009 550.989 79.3921C553.644 79.5834 556.234 80.3077 558.604 81.5217C560.974 82.7358 563.075 84.4148 564.781 86.4584C566.488 88.5021 567.766 90.8687 568.538 93.4169L572.067 104.212L534.228 117.75L530.699 106.955ZM578.819 169.286L584.69 187.219C584.798 187.578 584.763 187.966 584.593 188.3C584.423 188.635 584.13 188.891 583.776 189.015L575.547 191.951C575.22 192.041 574.87 192.002 574.571 191.84C574.272 191.679 574.047 191.408 573.943 191.084L568.025 173.232C564.761 173.054 561.63 171.884 559.05 169.877C556.47 167.87 554.564 165.123 553.589 162.004C552.193 157.88 552.448 153.376 554.299 149.436C556.149 145.495 559.453 142.423 563.517 140.863C565.524 140.178 567.648 139.903 569.764 140.056C571.879 140.208 573.942 140.786 575.829 141.752C577.717 142.719 579.39 144.056 580.75 145.684C582.11 147.311 583.128 149.196 583.744 151.225C584.776 154.394 584.861 157.795 583.989 161.011C583.117 164.228 581.326 167.12 578.835 169.334L578.819 169.286Z" fill="#FC4F00"/>
<path d="M587.321 98.4854C587.321 98.71 572.002 104.468 552.947 111.317C533.891 118.167 518.349 123.668 518.268 123.508C518.188 123.347 533.587 117.541 552.658 110.676C571.73 103.811 587.24 98.2769 587.321 98.4854Z" fill="#455A64"/>
<path d="M605.51 101.437C605.581 101.576 605.64 101.721 605.686 101.87C605.815 102.191 605.959 102.608 606.151 103.121C606.568 104.292 607.146 105.912 607.868 107.933L614.027 125.866C616.593 133.469 619.657 142.483 623.058 152.492C624.662 157.513 626.554 162.742 628.319 168.243C629.263 171.079 629.671 174.065 629.522 177.049C629.386 178.601 628.944 180.111 628.222 181.492C627.452 182.869 626.422 184.083 625.191 185.069C622.713 186.878 619.962 188.281 617.043 189.224L608.782 192.191L593.143 197.789L566.661 207.221L548.776 213.508L543.964 215.112L542.681 215.529C542.544 215.59 542.398 215.628 542.248 215.642C542.248 215.642 542.376 215.642 542.649 215.449L543.9 214.952L548.712 213.139L566.501 206.595L592.934 196.971L608.541 191.325L616.802 188.341C619.639 187.437 622.309 186.077 624.71 184.315C625.855 183.4 626.814 182.273 627.533 180.995C628.212 179.718 628.621 178.315 628.736 176.873C628.883 173.997 628.492 171.119 627.581 168.388C625.849 162.934 624.02 157.657 622.368 152.636C619.032 142.611 615.952 133.565 613.514 125.962C611.076 118.359 609.023 112.248 607.611 107.949C606.937 105.848 606.424 104.212 606.007 103.025L605.622 101.742C605.574 101.644 605.536 101.542 605.51 101.437V101.437Z" fill="#455A64"/>
<path d="M560.341 79.3178C560.341 79.3178 559.491 78.9007 557.919 78.2591C555.679 77.3982 553.309 76.921 550.91 76.8476C547.354 76.7257 543.815 77.394 540.548 78.8045C536.576 80.5608 533.179 83.4017 530.748 87.0009C528.3 90.5899 526.987 94.8313 526.978 99.1753C527.012 102.736 527.552 106.273 528.582 109.682C529.416 112.601 530.282 114.927 530.86 116.547C531.201 117.37 531.479 118.217 531.694 119.081C531.238 118.312 530.857 117.501 530.555 116.659C529.898 115.055 528.951 112.777 528.021 109.842C526.879 106.398 526.257 102.803 526.176 99.1753C526.134 94.6671 527.477 90.2547 530.026 86.5358C532.542 82.8051 536.077 79.8764 540.211 78.0987C543.58 76.6805 547.229 76.0549 550.878 76.2702C553.329 76.3951 555.737 76.9658 557.984 77.9544C558.584 78.2315 559.163 78.5532 559.716 78.9168C559.944 79.017 560.155 79.1523 560.341 79.3178V79.3178Z" fill="#455A64"/>
<path d="M561.079 142.082C561.335 141.927 561.603 141.793 561.881 141.681C562.684 141.319 563.516 141.024 564.367 140.799C565.719 140.4 567.114 140.163 568.522 140.093C570.437 139.99 572.353 140.28 574.152 140.943C578.258 142.387 582.027 146.573 583.888 152.171C584.78 155.176 584.78 158.374 583.888 161.378C582.899 164.639 581.125 167.607 578.723 170.024L578.819 169.591C580.953 175.445 583.278 181.797 585.684 188.422L585.829 188.823L585.428 188.967L581.755 190.186L573.735 192.865L573.334 192.993L573.205 192.592C571.008 185.952 568.602 179.76 566.789 173.681L567.142 173.954C564.006 173.693 561.017 172.516 558.545 170.569C556.308 168.847 554.475 166.657 553.171 164.153C551.995 161.933 551.41 159.447 551.471 156.935C551.545 154.368 552.186 151.849 553.348 149.558C554.51 147.268 556.164 145.263 558.192 143.686C559.027 143.009 559.963 142.467 560.967 142.082C560.061 142.62 559.183 143.203 558.336 143.831C556.109 145.715 554.402 148.14 553.38 150.872C552.502 152.933 552.092 155.162 552.178 157.4C552.264 159.638 552.844 161.829 553.877 163.816C555.159 166.225 556.948 168.327 559.122 169.976C561.48 171.826 564.331 172.942 567.319 173.184H567.591L567.672 173.424C569.436 179.391 571.858 185.631 574.088 192.304L573.558 192.047L581.578 189.368L585.235 188.133L584.979 188.678C582.589 182.054 580.279 175.686 578.162 169.831V169.591L578.354 169.398C580.686 167.082 582.425 164.237 583.423 161.106C584.274 158.232 584.274 155.173 583.423 152.3C581.674 146.91 578.065 142.82 574.152 141.376C572.419 140.708 570.57 140.397 568.714 140.462C567.329 140.494 565.951 140.682 564.608 141.024C562.218 141.617 561.095 142.162 561.079 142.082Z" fill="#455A64"/>
<path d="M511.5 605.221L351.276 604.483C342.023 604.433 333.169 600.711 326.658 594.137C320.147 587.563 316.511 578.673 316.55 569.42L318.25 167.762C318.269 163.178 319.191 158.643 320.964 154.415C322.736 150.188 325.325 146.351 328.581 143.124C331.838 139.898 335.698 137.345 339.942 135.611C344.185 133.877 348.729 132.997 353.313 133.02L513.521 133.758C522.774 133.804 531.63 137.521 538.144 144.093C544.658 150.664 548.298 159.552 548.263 168.805L546.563 570.447C546.544 575.032 545.622 579.569 543.85 583.799C542.078 588.028 539.49 591.867 536.234 595.096C532.978 598.325 529.118 600.881 524.874 602.619C520.63 604.356 516.085 605.24 511.5 605.221V605.221Z" fill="#455A64"/>
<path d="M513.28 147.568H482.227C481.213 147.587 480.214 147.805 479.285 148.21C478.356 148.615 477.516 149.2 476.813 149.929C476.11 150.659 475.558 151.521 475.187 152.464C474.817 153.407 474.637 154.414 474.656 155.428V161.058C474.675 162.07 474.494 163.076 474.124 164.019C473.753 164.961 473.201 165.821 472.498 166.55C471.794 167.279 470.954 167.861 470.025 168.265C469.097 168.668 468.097 168.885 467.085 168.901L406.55 168.629C404.502 168.574 402.56 167.709 401.149 166.223C399.739 164.737 398.975 162.753 399.027 160.705V155.075C399.079 153.029 398.318 151.047 396.911 149.562C395.504 148.077 393.565 147.21 391.52 147.151H380.597L353.409 147.023C346.943 146.984 340.724 149.51 336.116 154.046C331.507 158.583 328.884 164.761 328.82 171.227L327.216 563.277C327.201 566.485 327.819 569.664 329.033 572.634C330.247 575.603 332.034 578.305 334.292 580.583C336.55 582.862 339.234 584.674 342.193 585.915C345.151 587.157 348.325 587.803 351.533 587.818L511.419 588.556C514.63 588.57 517.811 587.953 520.783 586.738C523.754 585.523 526.457 583.735 528.738 581.475C531.018 579.216 532.831 576.529 534.073 573.569C535.315 570.609 535.962 567.433 535.977 564.223L537.581 172.173C537.619 165.689 535.081 159.454 530.524 154.84C525.967 150.226 519.765 147.61 513.28 147.568V147.568Z" fill="white"/>
<path d="M491.771 536.249L372.882 535.736C371.647 535.736 370.653 534.389 370.669 532.752L370.797 501.651C370.797 500.047 371.808 498.667 373.043 498.667L491.931 499.213C492.615 499.331 493.228 499.709 493.64 500.268C494.053 500.827 494.233 501.523 494.145 502.212L494.032 533.282C494.032 534.934 493.006 536.265 491.771 536.249Z" fill="#FC4F00"/>
<path d="M409.105 511.473C409.07 511.18 408.93 510.953 408.683 510.791C408.437 510.63 408.135 510.549 407.777 510.549C407.515 510.549 407.286 510.591 407.089 510.676C406.895 510.761 406.743 510.877 406.633 511.025C406.525 511.174 406.471 511.342 406.471 511.531C406.471 511.689 406.509 511.824 406.584 511.938C406.661 512.049 406.759 512.143 406.879 512.218C406.998 512.291 407.123 512.352 407.254 512.4C407.385 512.446 407.505 512.484 407.615 512.512L408.216 512.674C408.37 512.715 408.541 512.77 408.73 512.842C408.92 512.913 409.102 513.01 409.275 513.133C409.45 513.255 409.595 513.41 409.708 513.601C409.822 513.792 409.879 514.026 409.879 514.303C409.879 514.622 409.795 514.911 409.628 515.169C409.462 515.427 409.219 515.632 408.9 515.784C408.582 515.936 408.196 516.012 407.742 516.012C407.319 516.012 406.952 515.944 406.642 515.807C406.334 515.67 406.091 515.48 405.914 515.235C405.739 514.991 405.64 514.707 405.617 514.384H406.356C406.375 514.607 406.45 514.792 406.581 514.938C406.714 515.082 406.882 515.19 407.084 515.261C407.288 515.331 407.507 515.365 407.742 515.365C408.015 515.365 408.261 515.321 408.478 515.233C408.696 515.142 408.868 515.017 408.995 514.857C409.122 514.695 409.186 514.507 409.186 514.291C409.186 514.095 409.131 513.935 409.021 513.812C408.911 513.689 408.767 513.589 408.588 513.512C408.409 513.435 408.216 513.367 408.008 513.309L407.28 513.102C406.818 512.969 406.452 512.779 406.183 512.533C405.913 512.286 405.778 511.964 405.778 511.565C405.778 511.234 405.868 510.946 406.047 510.699C406.228 510.451 406.471 510.258 406.775 510.122C407.081 509.983 407.422 509.914 407.8 509.914C408.181 509.914 408.52 509.982 408.816 510.119C409.113 510.253 409.347 510.438 409.521 510.673C409.696 510.908 409.788 511.175 409.798 511.473H409.105ZM411.772 509.995V515.908H411.056V509.995H411.772ZM417.897 509.995V515.908H417.204L413.982 511.265H413.924V515.908H413.208V509.995H413.901L417.135 514.649H417.193V509.995H417.897ZM423.373 511.843C423.309 511.648 423.226 511.474 423.122 511.32C423.02 511.164 422.897 511.031 422.755 510.921C422.614 510.812 422.455 510.728 422.276 510.67C422.097 510.612 421.9 510.584 421.687 510.584C421.336 510.584 421.018 510.674 420.731 510.855C420.444 511.036 420.216 511.303 420.047 511.655C419.877 512.007 419.792 512.439 419.792 512.951C419.792 513.463 419.878 513.896 420.049 514.248C420.221 514.6 420.453 514.867 420.745 515.048C421.038 515.229 421.367 515.319 421.733 515.319C422.072 515.319 422.37 515.247 422.628 515.103C422.888 514.956 423.09 514.75 423.234 514.485C423.381 514.217 423.454 513.902 423.454 513.54L423.673 513.587H421.895V512.951H424.147V513.587C424.147 514.074 424.043 514.497 423.835 514.857C423.629 515.217 423.344 515.496 422.98 515.695C422.618 515.891 422.203 515.989 421.733 515.989C421.209 515.989 420.749 515.866 420.353 515.619C419.958 515.373 419.65 515.023 419.429 514.568C419.209 514.114 419.099 513.575 419.099 512.951C419.099 512.484 419.162 512.063 419.287 511.69C419.414 511.314 419.593 510.995 419.824 510.731C420.055 510.467 420.329 510.265 420.644 510.124C420.96 509.984 421.307 509.914 421.687 509.914C421.998 509.914 422.289 509.961 422.559 510.055C422.83 510.148 423.072 510.279 423.283 510.451C423.497 510.62 423.675 510.823 423.818 511.06C423.96 511.295 424.058 511.556 424.112 511.843H423.373ZM431.541 509.995H432.257V513.91C432.257 514.314 432.162 514.675 431.971 514.993C431.783 515.309 431.516 515.558 431.171 515.741C430.827 515.922 430.423 516.012 429.959 516.012C429.495 516.012 429.09 515.922 428.746 515.741C428.401 515.558 428.134 515.309 427.943 514.993C427.755 514.675 427.66 514.314 427.66 513.91V509.995H428.376V513.852C428.376 514.141 428.44 514.398 428.567 514.623C428.694 514.847 428.875 515.023 429.11 515.152C429.347 515.279 429.629 515.342 429.959 515.342C430.288 515.342 430.571 515.279 430.808 515.152C431.044 515.023 431.225 514.847 431.35 514.623C431.478 514.398 431.541 514.141 431.541 513.852V509.995ZM433.687 515.908V509.995H435.685C436.149 509.995 436.529 510.078 436.823 510.246C437.12 510.411 437.339 510.636 437.481 510.919C437.624 511.202 437.695 511.517 437.695 511.866C437.695 512.214 437.624 512.531 437.481 512.816C437.341 513.101 437.123 513.328 436.829 513.497C436.534 513.665 436.157 513.748 435.697 513.748H434.265V513.113H435.674C435.991 513.113 436.247 513.058 436.439 512.948C436.632 512.839 436.771 512.691 436.858 512.504C436.946 512.315 436.991 512.102 436.991 511.866C436.991 511.629 436.946 511.417 436.858 511.23C436.771 511.044 436.631 510.897 436.436 510.791C436.242 510.684 435.984 510.63 435.662 510.63H434.403V515.908H433.687Z" fill="#E8E8E3"/>
<path d="M396.596 262.816L355.341 262.628L355.307 270.199L396.561 270.386L396.596 262.816Z" fill="#FC4F00"/>
<path opacity="0.1" d="M396.596 262.816L355.341 262.628L355.307 270.199L396.561 270.386L396.596 262.816Z" fill="black"/>
<path d="M517.531 309.299C517.855 309.267 518.173 309.191 518.477 309.075C518.921 308.901 519.307 308.606 519.591 308.223C519.875 307.84 520.045 307.385 520.081 306.909C520.081 304.359 520.081 300.638 520.081 295.858C520.081 293.468 520.081 290.789 520.081 287.838C520.081 287.116 520.081 286.362 520.081 285.608C520.186 284.877 520.027 284.132 519.632 283.507C519.411 283.207 519.124 282.963 518.793 282.793C518.462 282.624 518.096 282.533 517.723 282.529H515.221H492.043L357.885 282.031C357.541 282.025 357.202 282.103 356.895 282.256C356.587 282.41 356.322 282.635 356.12 282.914C355.733 283.541 355.585 284.287 355.703 285.015C355.703 286.619 355.703 288.223 355.703 289.827C355.703 293.035 355.703 296.243 355.703 299.451C355.703 301.055 355.703 302.659 355.703 304.263C355.637 305.01 355.637 305.761 355.703 306.508C355.788 306.829 355.944 307.125 356.161 307.376C356.378 307.626 356.649 307.823 356.955 307.952C357.271 308.078 357.609 308.138 357.949 308.128H366.113L401.738 308.321L462.049 308.69L502.71 309.011L513.762 309.139H516.633C517.29 309.139 517.611 309.139 517.611 309.139H516.633H513.762H502.71H462.049L401.738 308.946L366.113 308.802H357.949C357.5 308.82 357.052 308.744 356.634 308.578C356.211 308.397 355.836 308.123 355.536 307.775C355.235 307.428 355.018 307.017 354.901 306.573C354.809 306.152 354.776 305.719 354.805 305.289V304.102C354.805 302.498 354.805 300.894 354.805 299.29C354.805 296.082 354.805 292.874 354.805 289.666C354.805 288.062 354.805 286.458 354.805 284.854C354.775 284.427 354.775 283.998 354.805 283.571C354.865 283.099 355.048 282.651 355.334 282.272C355.611 281.885 355.977 281.57 356.402 281.355C356.826 281.14 357.297 281.031 357.773 281.037L491.931 281.775L515.109 281.935H517.611C518.052 281.935 518.486 282.042 518.877 282.246C519.268 282.45 519.604 282.745 519.857 283.106C520.309 283.803 520.491 284.642 520.37 285.464C520.37 286.218 520.37 286.972 520.37 287.693C520.37 290.613 520.37 293.291 520.37 295.713C520.37 300.525 520.258 304.215 520.226 306.781C520.186 307.274 520.007 307.746 519.709 308.141C519.41 308.536 519.005 308.838 518.541 309.011C518.238 309.199 517.888 309.299 517.531 309.299V309.299Z" fill="#E0E0E0"/>
<path d="M443.186 290.083H367.733V297.157H443.186V290.083Z" fill="#FC4F00"/>
<path opacity="0.2" d="M443.186 290.083H367.733V297.157H443.186V290.083Z" fill="white"/>
<path d="M396.315 331.882L355.06 331.695L355.026 339.266L396.28 339.453L396.315 331.882Z" fill="#FC4F00"/>
<path opacity="0.1" d="M396.315 331.882L355.06 331.695L355.026 339.266L396.28 339.453L396.315 331.882Z" fill="black"/>
<path d="M516.488 378.368C516.812 378.328 517.133 378.269 517.45 378.191C517.898 378.048 518.311 377.812 518.659 377.496C519.008 377.181 519.285 376.794 519.471 376.363C519.724 375.715 519.823 375.018 519.76 374.325C519.76 373.556 519.76 372.721 519.76 371.791C519.76 369.93 519.76 367.813 519.76 365.375V355.19C519.837 354.452 519.674 353.71 519.295 353.072C518.899 352.419 518.277 351.933 517.547 351.709C516.748 351.566 515.934 351.523 515.125 351.581H492.043L358.35 351.083C357.631 351.085 356.937 351.348 356.397 351.823C355.857 352.298 355.508 352.953 355.414 353.666C355.414 355.19 355.414 356.874 355.414 358.478C355.414 361.686 355.414 364.894 355.414 368.102C355.414 369.706 355.414 371.31 355.414 372.914C355.355 373.664 355.387 374.418 355.511 375.16C355.711 375.81 356.123 376.375 356.682 376.764C357.274 377.14 357.97 377.319 358.671 377.277H360.9H365.536L401.032 377.453L461.134 377.822L501.651 378.143L512.671 378.271H515.542H516.504H515.542H512.671H501.651H461.134L401 378.207L365.504 378.079H358.526C357.659 378.13 356.798 377.9 356.072 377.421C355.342 376.916 354.81 376.173 354.564 375.32C354.421 374.505 354.377 373.675 354.436 372.85C354.436 371.246 354.436 369.642 354.436 368.038C354.436 364.83 354.436 361.622 354.436 358.414C354.436 356.81 354.436 355.206 354.436 353.602C354.553 352.685 355 351.842 355.694 351.23C356.388 350.619 357.281 350.282 358.205 350.281L491.899 351.019L514.98 351.196C515.84 351.143 516.703 351.202 517.547 351.372C518.38 351.644 519.083 352.216 519.52 352.976C519.935 353.683 520.114 354.503 520.033 355.318C520.033 356.072 520.033 356.81 520.033 357.548C520.033 360.451 520.033 363.113 520.033 365.568C520.033 368.022 520.033 370.091 520.033 371.984C520.033 372.898 520.033 373.748 520.033 374.534C520.091 375.251 519.976 375.972 519.696 376.635C519.488 377.078 519.187 377.47 518.813 377.786C518.439 378.101 518.002 378.333 517.531 378.464C517.18 378.493 516.827 378.46 516.488 378.368V378.368Z" fill="#E0E0E0"/>
<path d="M396.003 403.947L354.749 403.76L354.715 411.331L395.969 411.518L396.003 403.947Z" fill="#FC4F00"/>
<path opacity="0.1" d="M396.003 403.947L354.749 403.76L354.715 411.331L395.969 411.518L396.003 403.947Z" fill="black"/>
<path d="M516.167 450.403C516.492 450.365 516.813 450.306 517.13 450.227C517.576 450.085 517.987 449.85 518.335 449.538C518.684 449.225 518.962 448.842 519.151 448.414C519.402 447.766 519.501 447.069 519.44 446.377C519.44 445.591 519.44 444.773 519.44 443.827C519.44 441.982 519.44 439.849 519.44 437.411V427.225C519.516 426.488 519.353 425.746 518.974 425.108C518.569 424.466 517.95 423.989 517.226 423.761C516.428 423.613 515.614 423.564 514.804 423.616H491.722L358.029 423.119C357.31 423.121 356.616 423.384 356.076 423.859C355.536 424.334 355.187 424.989 355.094 425.702C355.094 427.306 355.094 428.91 355.094 430.514C355.094 433.722 355.094 436.93 355.094 440.138C355.094 441.742 355.094 443.346 355.094 444.95C355.034 445.694 355.066 446.443 355.19 447.179C355.382 447.834 355.796 448.401 356.361 448.783C356.95 449.168 357.649 449.348 358.35 449.296H365.327L400.824 449.489L460.926 449.858L501.443 450.179L512.462 450.307H515.333C515.975 450.307 516.296 450.307 516.296 450.307C516.296 450.307 515.975 450.307 515.333 450.307H512.462H501.443H460.926L400.824 450.131L365.327 449.986H358.35C357.482 450.045 356.618 449.813 355.896 449.329C355.166 448.823 354.633 448.081 354.388 447.227C354.244 446.412 354.201 445.583 354.26 444.757C354.26 443.153 354.26 441.549 354.26 439.945C354.26 436.737 354.26 433.529 354.26 430.321C354.26 428.717 354.26 427.113 354.26 425.429C354.373 424.513 354.817 423.67 355.508 423.059C356.199 422.447 357.09 422.109 358.013 422.109L491.706 422.846L514.788 423.023C515.648 422.97 516.51 423.029 517.354 423.199C518.188 423.472 518.891 424.043 519.327 424.803C519.742 425.51 519.922 426.33 519.841 427.145C519.841 427.899 519.841 428.653 519.841 429.375C519.841 432.278 519.841 434.941 519.841 437.395C519.841 439.849 519.841 441.918 519.841 443.811C519.841 444.725 519.841 445.575 519.841 446.361C519.902 447.079 519.786 447.8 519.504 448.462C519.296 448.905 518.994 449.297 518.621 449.613C518.247 449.929 517.81 450.16 517.338 450.291C516.962 450.42 516.561 450.458 516.167 450.403V450.403Z" fill="#E0E0E0"/>
<path d="M441.575 361.151L366.124 360.809L366.091 367.883L441.543 368.225L441.575 361.151Z" fill="#FC4F00"/>
<path opacity="0.2" d="M441.575 361.151L366.124 360.809L366.091 367.883L441.543 368.225L441.575 361.151Z" fill="white"/>
<path d="M372.946 437.315C372.899 437.96 372.663 438.577 372.268 439.089C371.874 439.602 371.337 439.987 370.725 440.198C370.113 440.408 369.453 440.434 368.827 440.273C368.2 440.111 367.635 439.77 367.201 439.29C366.767 438.81 366.483 438.214 366.385 437.574C366.287 436.935 366.378 436.281 366.649 435.693C366.919 435.105 367.356 434.609 367.905 434.268C368.454 433.926 369.092 433.753 369.738 433.77C370.632 433.82 371.47 434.22 372.07 434.883C372.671 435.547 372.986 436.42 372.946 437.315V437.315Z" fill="#FC4F00"/>
<path d="M383.164 437.363C383.196 437.815 383.134 438.269 382.982 438.696C382.831 439.123 382.593 439.515 382.284 439.846C381.975 440.178 381.601 440.442 381.185 440.623C380.769 440.804 380.321 440.897 379.868 440.897C379.414 440.897 378.966 440.804 378.55 440.623C378.135 440.442 377.76 440.178 377.451 439.846C377.142 439.515 376.904 439.123 376.753 438.696C376.602 438.269 376.54 437.815 376.571 437.363C376.54 436.911 376.602 436.457 376.753 436.029C376.904 435.602 377.142 435.21 377.451 434.879C377.76 434.547 378.135 434.283 378.55 434.102C378.966 433.922 379.414 433.828 379.868 433.828C380.321 433.828 380.769 433.922 381.185 434.102C381.601 434.283 381.975 434.547 382.284 434.879C382.593 435.21 382.831 435.602 382.982 436.029C383.134 436.457 383.196 436.911 383.164 437.363V437.363Z" fill="#FC4F00"/>
<path d="M393.397 437.411C393.35 438.056 393.114 438.673 392.72 439.186C392.325 439.698 391.788 440.083 391.176 440.294C390.565 440.504 389.905 440.53 389.278 440.369C388.652 440.208 388.086 439.866 387.652 439.386C387.218 438.906 386.934 438.31 386.836 437.67C386.738 437.031 386.83 436.377 387.1 435.789C387.37 435.201 387.807 434.706 388.356 434.364C388.905 434.022 389.543 433.849 390.189 433.866C391.082 433.92 391.917 434.321 392.517 434.984C393.117 435.646 393.433 436.518 393.397 437.411Z" fill="#FC4F00"/>
<path d="M403.615 437.459C403.567 438.104 403.332 438.721 402.937 439.234C402.542 439.746 402.006 440.131 401.394 440.342C400.782 440.552 400.122 440.578 399.495 440.417C398.869 440.256 398.304 439.914 397.869 439.434C397.435 438.955 397.152 438.358 397.053 437.719C396.955 437.079 397.047 436.425 397.317 435.837C397.587 435.249 398.024 434.754 398.573 434.412C399.123 434.07 399.76 433.897 400.407 433.914C401.299 433.968 402.134 434.369 402.734 435.032C403.334 435.694 403.65 436.566 403.615 437.459Z" fill="#FC4F00"/>
<path d="M413.832 437.491C413.788 438.137 413.555 438.756 413.162 439.271C412.769 439.785 412.233 440.173 411.621 440.386C411.009 440.599 410.349 440.627 409.721 440.467C409.093 440.308 408.526 439.967 408.091 439.488C407.655 439.009 407.37 438.412 407.271 437.772C407.171 437.132 407.262 436.477 407.532 435.888C407.802 435.299 408.239 434.803 408.789 434.461C409.339 434.118 409.977 433.945 410.624 433.962C411.513 434.016 412.347 434.415 412.946 435.074C413.545 435.733 413.863 436.601 413.832 437.491Z" fill="#FC4F00"/>
<path d="M424.066 437.539C424.022 438.182 423.791 438.798 423.402 439.311C423.012 439.825 422.481 440.213 421.874 440.428C421.267 440.644 420.61 440.677 419.984 440.524C419.358 440.371 418.791 440.038 418.352 439.567C417.912 439.096 417.621 438.506 417.512 437.871C417.404 437.236 417.483 436.583 417.741 435.993C417.999 435.402 418.423 434.9 418.963 434.548C419.502 434.195 420.133 434.009 420.777 434.01C421.681 434.044 422.534 434.434 423.151 435.095C423.767 435.757 424.096 436.636 424.066 437.539V437.539Z" fill="#FC4F00"/>
<path d="M434.283 437.587C434.315 438.039 434.253 438.493 434.101 438.921C433.95 439.348 433.712 439.74 433.403 440.071C433.094 440.403 432.72 440.667 432.304 440.848C431.889 441.028 431.44 441.122 430.987 441.122C430.534 441.122 430.085 441.028 429.669 440.848C429.254 440.667 428.88 440.403 428.57 440.071C428.261 439.74 428.024 439.348 427.872 438.921C427.721 438.493 427.659 438.039 427.691 437.587C427.659 437.135 427.721 436.681 427.872 436.254C428.024 435.827 428.261 435.435 428.57 435.104C428.88 434.772 429.254 434.508 429.669 434.327C430.085 434.146 430.534 434.053 430.987 434.053C431.44 434.053 431.889 434.146 432.304 434.327C432.72 434.508 433.094 434.772 433.403 435.104C433.712 435.435 433.95 435.827 434.101 436.254C434.253 436.681 434.315 437.135 434.283 437.587Z" fill="#FC4F00"/>
<path d="M444.501 437.635C444.457 438.278 444.226 438.894 443.837 439.408C443.447 439.921 442.917 440.309 442.309 440.525C441.702 440.74 441.045 440.774 440.419 440.621C439.793 440.468 439.226 440.135 438.787 439.663C438.347 439.192 438.056 438.603 437.947 437.967C437.839 437.332 437.918 436.679 438.176 436.089C438.434 435.498 438.858 434.996 439.398 434.644C439.937 434.292 440.568 434.105 441.213 434.107C442.116 434.14 442.969 434.53 443.586 435.192C444.202 435.853 444.531 436.732 444.501 437.635V437.635Z" fill="#FC4F00"/>
<path d="M454.718 437.684C454.674 438.33 454.441 438.949 454.047 439.463C453.654 439.978 453.119 440.366 452.507 440.579C451.895 440.791 451.234 440.82 450.607 440.66C449.979 440.5 449.412 440.16 448.976 439.68C448.541 439.201 448.256 438.605 448.156 437.964C448.057 437.324 448.148 436.669 448.418 436.081C448.688 435.492 449.125 434.996 449.675 434.653C450.224 434.311 450.863 434.137 451.51 434.155C452.399 434.209 453.232 434.608 453.832 435.267C454.431 435.926 454.749 436.793 454.718 437.684V437.684Z" fill="#FC4F00"/>
<g opacity="0.2">
<path d="M372.946 437.315C372.899 437.96 372.663 438.577 372.268 439.089C371.874 439.602 371.337 439.987 370.725 440.198C370.113 440.408 369.453 440.434 368.827 440.273C368.2 440.111 367.635 439.77 367.201 439.29C366.767 438.81 366.483 438.214 366.385 437.574C366.287 436.935 366.378 436.281 366.649 435.693C366.919 435.105 367.356 434.609 367.905 434.268C368.454 433.926 369.092 433.753 369.738 433.77C370.632 433.82 371.47 434.22 372.07 434.883C372.671 435.547 372.986 436.42 372.946 437.315V437.315Z" fill="white"/>
<path d="M383.164 437.363C383.196 437.815 383.134 438.269 382.982 438.696C382.831 439.123 382.593 439.515 382.284 439.846C381.975 440.178 381.601 440.442 381.185 440.623C380.769 440.804 380.321 440.897 379.868 440.897C379.414 440.897 378.966 440.804 378.55 440.623C378.135 440.442 377.76 440.178 377.451 439.846C377.142 439.515 376.904 439.123 376.753 438.696C376.602 438.269 376.54 437.815 376.571 437.363C376.54 436.911 376.602 436.457 376.753 436.029C376.904 435.602 377.142 435.21 377.451 434.879C377.76 434.547 378.135 434.283 378.55 434.102C378.966 433.922 379.414 433.828 379.868 433.828C380.321 433.828 380.769 433.922 381.185 434.102C381.601 434.283 381.975 434.547 382.284 434.879C382.593 435.21 382.831 435.602 382.982 436.029C383.134 436.457 383.196 436.911 383.164 437.363V437.363Z" fill="white"/>
<path d="M393.397 437.411C393.35 438.056 393.114 438.673 392.72 439.186C392.325 439.698 391.788 440.083 391.176 440.294C390.565 440.504 389.905 440.53 389.278 440.369C388.652 440.208 388.086 439.866 387.652 439.386C387.218 438.906 386.934 438.31 386.836 437.67C386.738 437.031 386.83 436.377 387.1 435.789C387.37 435.201 387.807 434.706 388.356 434.364C388.905 434.022 389.543 433.849 390.189 433.866C391.082 433.92 391.917 434.321 392.517 434.984C393.117 435.646 393.433 436.518 393.397 437.411Z" fill="white"/>
<path d="M403.615 437.459C403.567 438.104 403.332 438.721 402.937 439.234C402.542 439.746 402.006 440.131 401.394 440.342C400.782 440.552 400.122 440.578 399.495 440.417C398.869 440.256 398.304 439.914 397.869 439.434C397.435 438.955 397.152 438.358 397.053 437.719C396.955 437.079 397.047 436.425 397.317 435.837C397.587 435.249 398.024 434.754 398.573 434.412C399.123 434.07 399.76 433.897 400.407 433.914C401.299 433.968 402.134 434.369 402.734 435.032C403.334 435.694 403.65 436.566 403.615 437.459Z" fill="white"/>
<path d="M413.832 437.491C413.788 438.137 413.555 438.756 413.162 439.271C412.769 439.785 412.233 440.173 411.621 440.386C411.009 440.599 410.349 440.627 409.721 440.467C409.093 440.308 408.526 439.967 408.091 439.488C407.655 439.009 407.37 438.412 407.271 437.772C407.171 437.132 407.262 436.477 407.532 435.888C407.802 435.299 408.239 434.803 408.789 434.461C409.339 434.118 409.977 433.945 410.624 433.962C411.513 434.016 412.347 434.415 412.946 435.074C413.545 435.733 413.863 436.601 413.832 437.491Z" fill="white"/>
<path d="M424.066 437.539C424.022 438.182 423.791 438.798 423.402 439.311C423.012 439.825 422.481 440.213 421.874 440.428C421.267 440.644 420.61 440.677 419.984 440.524C419.358 440.371 418.791 440.038 418.352 439.567C417.912 439.096 417.621 438.506 417.512 437.871C417.404 437.236 417.483 436.583 417.741 435.993C417.999 435.402 418.423 434.9 418.963 434.548C419.502 434.195 420.133 434.009 420.777 434.01C421.681 434.044 422.534 434.434 423.151 435.095C423.767 435.757 424.096 436.636 424.066 437.539V437.539Z" fill="white"/>
<path d="M434.283 437.587C434.315 438.039 434.253 438.493 434.101 438.921C433.95 439.348 433.712 439.74 433.403 440.071C433.094 440.403 432.72 440.667 432.304 440.848C431.889 441.028 431.44 441.122 430.987 441.122C430.534 441.122 430.085 441.028 429.669 440.848C429.254 440.667 428.88 440.403 428.57 440.071C428.261 439.74 428.024 439.348 427.872 438.921C427.721 438.493 427.659 438.039 427.691 437.587C427.659 437.135 427.721 436.681 427.872 436.254C428.024 435.827 428.261 435.435 428.57 435.104C428.88 434.772 429.254 434.508 429.669 434.327C430.085 434.146 430.534 434.053 430.987 434.053C431.44 434.053 431.889 434.146 432.304 434.327C432.72 434.508 433.094 434.772 433.403 435.104C433.712 435.435 433.95 435.827 434.101 436.254C434.253 436.681 434.315 437.135 434.283 437.587Z" fill="white"/>
<path d="M444.501 437.635C444.457 438.278 444.226 438.894 443.837 439.408C443.447 439.921 442.917 440.309 442.309 440.525C441.702 440.74 441.045 440.774 440.419 440.621C439.793 440.468 439.226 440.135 438.787 439.663C438.347 439.192 438.056 438.603 437.947 437.967C437.839 437.332 437.918 436.679 438.176 436.089C438.434 435.498 438.858 434.996 439.398 434.644C439.937 434.292 440.568 434.105 441.213 434.107C442.116 434.14 442.969 434.53 443.586 435.192C444.202 435.853 444.531 436.732 444.501 437.635V437.635Z" fill="white"/>
<path d="M454.718 437.684C454.674 438.33 454.441 438.949 454.048 439.463C453.655 439.978 453.119 440.366 452.507 440.579C451.896 440.791 451.235 440.82 450.607 440.66C449.98 440.5 449.413 440.16 448.977 439.68C448.541 439.201 448.256 438.605 448.157 437.964C448.057 437.324 448.148 436.669 448.418 436.081C448.688 435.492 449.125 434.996 449.675 434.653C450.225 434.311 450.863 434.137 451.51 434.155C452.4 434.209 453.233 434.608 453.832 435.267C454.431 435.926 454.749 436.793 454.718 437.684V437.684Z" fill="white"/>
</g>
<path d="M440.202 206.13C441.316 205.639 442.262 204.832 442.92 203.808C443.579 202.784 443.922 201.589 443.907 200.372C443.949 199.58 443.829 198.789 443.554 198.045C443.28 197.302 442.857 196.622 442.312 196.047C441.766 195.472 441.11 195.014 440.381 194.701C439.653 194.389 438.869 194.227 438.077 194.227C437.284 194.227 436.5 194.389 435.772 194.701C435.044 195.014 434.387 195.472 433.841 196.047C433.296 196.622 432.873 197.302 432.599 198.045C432.325 198.789 432.205 199.58 432.246 200.372C432.222 201.601 432.562 202.811 433.224 203.847C433.887 204.883 434.841 205.7 435.967 206.194C426.985 207.542 427.386 217.294 427.386 217.294L448.623 217.39C448.623 217.39 449.12 207.461 440.202 206.13Z" fill="#FC4F00"/>
<path opacity="0.1" d="M440.202 206.13C441.316 205.639 442.262 204.832 442.92 203.808C443.579 202.784 443.922 201.589 443.907 200.372C443.949 199.58 443.829 198.789 443.554 198.045C443.28 197.302 442.857 196.622 442.312 196.047C441.766 195.472 441.11 195.014 440.381 194.701C439.653 194.389 438.869 194.227 438.077 194.227C437.284 194.227 436.5 194.389 435.772 194.701C435.044 195.014 434.387 195.472 433.841 196.047C433.296 196.622 432.873 197.302 432.599 198.045C432.325 198.789 432.205 199.58 432.246 200.372C432.222 201.601 432.562 202.811 433.224 203.847C433.887 204.883 434.841 205.7 435.967 206.194C426.985 207.542 427.386 217.294 427.386 217.294L448.623 217.39C448.623 217.39 449.12 207.461 440.202 206.13Z" fill="black"/>
<path d="M474.711 223.68L399.019 223.337L398.978 232.383L474.67 232.727L474.711 223.68Z" fill="#FC4F00"/>
<path opacity="0.2" d="M474.711 223.68L399.019 223.337L398.978 232.383L474.67 232.727L474.711 223.68Z" fill="white"/>
<path d="M196.442 270.563H195.688L193.506 270.723C192.326 270.794 191.152 270.949 189.994 271.188C189.243 271.294 188.499 271.438 187.764 271.621L185.278 272.311C181.046 273.609 177.054 275.587 173.456 278.166C168.704 281.615 164.735 286.032 161.811 291.126C160.093 294.062 158.726 297.19 157.737 300.445C156.699 303.983 156.101 307.636 155.957 311.32C155.861 313.256 155.893 315.195 156.053 317.127C156.053 318.105 156.326 319.084 156.454 320.078C156.562 321.081 156.75 322.073 157.015 323.045C158.458 329.482 161.384 335.492 165.562 340.597C169.739 345.702 175.052 349.76 181.075 352.447C185.435 354.328 190.108 355.378 194.854 355.543C199.755 355.812 204.661 355.109 209.29 353.473L210.701 352.944H210.894L211.054 353.04L231.281 363.306L230.687 363.819C228.522 357.114 226.437 350.618 224.416 344.379V344.138L224.592 343.962C229.499 339.02 233.141 332.967 235.21 326.318C237.085 320.238 237.632 313.828 236.814 307.519C236.087 301.912 234.285 296.498 231.505 291.575C229.109 287.346 226.019 283.55 222.362 280.347C219.346 277.812 216.007 275.687 212.434 274.027C209.73 272.861 206.913 271.974 204.029 271.381L200.821 270.851L198.495 270.675L197.083 270.579H196.602C196.762 270.561 196.923 270.561 197.083 270.579H198.511L200.837 270.675L204.045 271.14C206.965 271.69 209.82 272.545 212.562 273.69C216.197 275.33 219.596 277.45 222.667 279.994C226.39 283.183 229.547 286.979 232.002 291.222C234.861 296.198 236.719 301.685 237.472 307.374C238.357 313.781 237.848 320.303 235.98 326.494C233.897 333.282 230.199 339.463 225.201 344.507L225.298 344.09C227.319 350.33 229.42 356.826 231.601 363.514L231.906 364.493L230.992 364.028L210.765 353.778H211.118L209.675 354.307C204.957 355.967 199.96 356.687 194.966 356.425C190.118 356.24 185.348 355.152 180.899 353.217C172.413 349.583 165.353 343.266 160.801 335.236C158.706 331.527 157.176 327.527 156.262 323.366C156.011 322.369 155.824 321.356 155.7 320.335C155.572 319.324 155.363 318.33 155.315 317.335C154.881 311.628 155.484 305.889 157.096 300.397C158.109 297.097 159.514 293.93 161.282 290.965C164.275 285.826 168.327 281.381 173.168 277.925C176.824 275.339 180.884 273.377 185.182 272.118L187.7 271.477C188.441 271.305 189.191 271.171 189.946 271.076C191.116 270.859 192.301 270.731 193.49 270.691L195.688 270.611C195.938 270.577 196.19 270.561 196.442 270.563Z" fill="#FC4F00"/>
<path d="M205.585 307.968H202.617L196.201 298.953V293.035C196.201 293.035 191.614 292.746 192.159 300.493C192.705 308.241 192.159 306.268 192.159 306.268C192.159 306.268 182.423 306.268 181.621 307.15C180.819 308.032 180.771 317.431 180.659 322.677C180.597 323.941 180.96 325.19 181.689 326.224C182.419 327.259 183.473 328.02 184.685 328.387C185.024 328.481 185.375 328.529 185.727 328.531C188.165 328.531 200.564 326.558 200.564 326.558H205.681L205.585 307.968Z" fill="#FC4F00"/>
<path d="M214.07 306.38L212.241 326.654H207.172V306.797L214.07 306.38Z" fill="#FC4F00"/>
<path d="M274.524 719.137V705.423L249.935 705.247L249.727 725.987L251.25 726.099C258.035 726.532 285.768 727.174 290.324 725.762C295.392 724.19 274.524 719.137 274.524 719.137Z" fill="#FC4F00"/>
<path d="M290.902 724.479C290.902 724.703 281.695 724.896 270.354 724.896C259.014 724.896 249.807 724.703 249.807 724.479C249.807 724.254 259.014 724.062 270.354 724.062C281.695 724.062 290.902 724.254 290.902 724.479Z" fill="#455A64"/>
<path d="M274.958 721.944C274.749 721.832 274.958 721.11 275.455 720.34C275.952 719.571 276.626 719.25 276.786 719.41C276.947 719.571 276.61 720.18 276.129 720.838C275.647 721.495 275.166 722.057 274.958 721.944Z" fill="#455A64"/>
<path d="M276.53 722.843C276.305 722.843 276.417 721.944 276.899 721.094C277.38 720.244 278.021 719.731 278.198 719.859C278.374 719.987 278.085 720.709 277.636 721.463C277.187 722.217 276.738 722.923 276.53 722.843Z" fill="#455A64"/>
<path d="M257.218 724.415C257.121 724.415 256.752 724.126 256.223 723.516C255.577 722.733 254.857 722.013 254.074 721.367C253.303 720.752 252.385 720.348 251.411 720.196C250.657 720.1 250.176 720.196 250.128 720.1C250.08 720.004 250.545 719.667 251.427 719.603C252.591 719.578 253.727 719.964 254.635 720.693C255.486 721.387 256.203 722.229 256.752 723.18C257.121 723.885 257.314 724.351 257.218 724.415Z" fill="#455A64"/>
<path d="M275.038 719.362C275.15 719.555 274.733 720.036 274.027 720.292C273.322 720.549 272.696 720.453 272.664 720.292C272.632 720.132 273.129 719.795 273.739 719.571C274.348 719.346 274.91 719.17 275.038 719.362Z" fill="#455A64"/>
<path d="M274.653 718.031C274.653 718.271 274.011 718.464 273.177 718.48C272.343 718.496 271.685 718.304 271.701 718.079C271.717 717.854 272.375 717.646 273.177 717.63C273.979 717.614 274.621 717.806 274.653 718.031Z" fill="#455A64"/>
<path d="M335.076 719.137V705.423L310.486 705.247L310.278 725.778L311.802 725.89C318.587 726.323 346.336 727.174 350.875 725.762C355.944 724.19 335.076 719.137 335.076 719.137Z" fill="#FC4F00"/>
<path d="M351.452 724.511C351.452 724.735 342.262 724.928 330.905 724.928C319.549 724.928 310.374 724.735 310.374 724.511C310.374 724.286 319.565 724.094 330.905 724.094C342.246 724.094 351.452 724.286 351.452 724.511Z" fill="#455A64"/>
<path d="M335.509 721.944C335.316 721.832 335.509 721.11 336.006 720.34C336.503 719.571 337.177 719.25 337.337 719.41C337.498 719.571 337.161 720.18 336.679 720.838C336.198 721.495 335.717 722.057 335.509 721.944Z" fill="#455A64"/>
<path d="M337.08 722.843C336.872 722.843 336.968 721.944 337.465 721.094C337.963 720.244 338.588 719.731 338.765 719.859C338.941 719.987 338.636 720.709 338.187 721.463C337.738 722.217 337.305 722.923 337.08 722.843Z" fill="#455A64"/>
<path d="M317.768 724.415C317.672 724.415 317.319 724.126 316.774 723.516C316.128 722.733 315.408 722.013 314.625 721.367C313.854 720.752 312.936 720.348 311.962 720.196C311.224 720.1 310.727 720.196 310.679 720.1C310.631 720.004 311.096 719.667 311.978 719.603C313.142 719.578 314.278 719.964 315.186 720.693C316.041 721.382 316.759 722.226 317.303 723.18C317.672 723.885 317.865 724.351 317.768 724.415Z" fill="#455A64"/>
<path d="M335.589 719.362C335.701 719.555 335.284 720.036 334.578 720.292C333.872 720.549 333.247 720.453 333.215 720.292C333.183 720.132 333.68 719.795 334.29 719.571C334.899 719.346 335.46 719.17 335.589 719.362Z" fill="#455A64"/>
<path d="M335.236 718.031C335.236 718.271 334.594 718.464 333.76 718.48C332.926 718.496 332.285 718.304 332.301 718.079C332.317 717.854 332.958 717.646 333.76 717.63C334.562 717.614 335.236 717.806 335.236 718.031Z" fill="#455A64"/>
<path d="M425.669 311.882C425.028 311.224 423.44 311.545 423.44 311.545C423.599 310.622 423.599 309.678 423.44 308.754C423.151 307.856 421.13 308.032 421.13 308.032C421.037 307.276 421.037 306.511 421.13 305.755C421.146 305.587 421.11 305.418 421.027 305.272C420.944 305.126 420.817 305.008 420.665 304.937C419.709 304.547 418.682 304.361 417.649 304.391C416.414 303.509 421.419 296.5 423.28 294.254C425.14 292.008 424.803 290.26 423.151 290.26C422.012 290.26 416.174 296.997 414.377 299.258C412.581 301.52 407.817 307.808 407.657 302.787C407.496 297.767 405.475 293.981 404.208 293.34C402.941 292.698 401.593 294.206 402.283 295.601C402.889 297.187 403.267 298.85 403.406 300.542C403.58 301.889 403.52 303.257 403.229 304.584C402.698 307.053 401.974 309.477 401.064 311.834H400.936C400.936 311.834 365.936 345.406 363.402 347.795C361.141 349.945 315.651 345.245 306.524 344.283C303.423 343.829 300.291 343.614 297.157 343.641C293.195 343.818 292.489 344.379 288.543 344.427C278.579 344.538 268.637 345.412 258.805 347.042C254.354 347.798 250.195 349.763 246.784 352.722C243.373 355.681 240.84 359.519 239.461 363.819C230.27 392.531 209.45 460.493 205.777 498.668C203.001 503.701 200.496 508.879 198.27 514.178C195.688 521.204 196.313 521.445 197.18 521.605C199.521 522.038 202.184 509.431 203.179 512.478C204.173 515.526 198.126 527.508 200.58 527.861C203.788 528.31 206.338 515.029 206.643 513.97C206.948 512.911 208.536 513.248 208.247 514.243C207.782 515.654 203.275 530.619 206.419 531.101C208.151 531.357 208.343 528.197 208.343 528.197C208.343 528.197 211.551 513.874 213.011 514.162C214.471 514.451 212.915 522.904 212.177 525.727C211.439 528.55 212.466 529.978 213.974 529.288C215 528.807 217.454 520.225 218.128 517.435C218.802 514.644 220.486 506.912 222.747 511.387C225.009 515.863 228.442 518.461 229.853 518.525C230.171 518.489 230.471 518.358 230.714 518.149C230.957 517.941 231.132 517.664 231.216 517.355C231.301 517.046 231.291 516.719 231.188 516.416C231.085 516.113 230.894 515.848 230.639 515.654C229.425 514.469 228.383 513.119 227.543 511.644C226.795 510.495 226.252 509.225 225.939 507.891C225.293 505.23 224.917 502.511 224.817 499.774L224.56 498.17C228.153 480.382 238.499 428.172 253.432 394.825L259.559 407.432L262.222 416.767L245.893 457.076L315.539 456.162L305.145 416.158L317.768 374.454C331.418 374.759 366.466 375.272 372.304 372.625C379.651 369.417 417.649 321.426 417.649 321.426C420.126 319.501 422.498 317.445 424.755 315.266C424.755 315.266 427.065 313.326 425.669 311.882Z" fill="#FFBE9D"/>
<path d="M242.83 427.29C244.851 420.393 255.229 386.292 255.229 386.292C255.229 386.292 260.329 414.089 258.982 417.441C257.743 420.311 256.278 423.079 254.603 425.718C242.83 443.635 244.369 452.601 244.369 452.601L315.507 450.435C315.667 440.491 309.781 417.361 308.562 413.672C307.343 409.983 311.401 397.904 311.401 397.904C311.401 397.904 319.421 389.74 319.132 385.538C318.98 381.763 318.513 378.007 317.736 374.31L361.044 375.914L359.681 346.56L297.478 340.337C295.313 346.448 275.728 343.449 275.728 343.449C254.587 344.154 253.272 348.036 244.482 354.869C235.692 361.702 221.144 420.344 221.144 420.344L242.83 427.29Z" fill="#FC4F00"/>
<path d="M284.887 420.344C283.654 420.565 282.398 420.629 281.149 420.537C278.823 420.537 275.631 420.376 272.119 420.023C268.606 419.671 265.43 419.173 263.168 418.724C261.921 418.564 260.699 418.251 259.527 417.794C260.781 417.794 262.033 417.913 263.265 418.147C265.542 418.436 268.702 418.837 272.199 419.189C275.696 419.542 278.872 419.783 281.165 419.943C282.416 419.959 283.662 420.093 284.887 420.344V420.344Z" fill="#455A64"/>
<path d="M289.763 414.297C288.529 414.902 287.225 415.349 285.881 415.629C279.482 417.31 272.879 418.093 266.264 417.954C264.895 417.999 263.526 417.87 262.19 417.569C263.541 417.399 264.903 417.329 266.264 417.361C268.782 417.281 272.247 417.104 276.065 416.655C279.882 416.206 283.283 415.565 285.689 415.051C287.025 414.694 288.387 414.442 289.763 414.297V414.297Z" fill="#455A64"/>
<path d="M313.694 387.318C313.662 388.541 313.495 389.757 313.197 390.943C312.78 393.173 312.138 396.22 311.32 399.557C310.502 402.893 309.716 405.973 309.01 408.058C308.727 409.251 308.307 410.409 307.759 411.506C307.849 410.287 308.075 409.082 308.433 407.913C309.042 405.411 309.732 402.524 310.502 399.364C311.272 396.204 312.01 393.317 312.619 390.815C312.837 389.61 313.197 388.437 313.694 387.318V387.318Z" fill="#455A64"/>
<path d="M243.583 423.2C239.873 422.626 236.21 421.774 232.628 420.649C228.968 419.793 225.376 418.667 221.881 417.281C225.59 417.863 229.252 418.716 232.837 419.831C236.498 420.684 240.09 421.81 243.583 423.2V423.2Z" fill="#455A64"/>
<path d="M318.506 373.957C317.901 374.061 317.283 374.061 316.678 373.957C315.002 373.785 313.357 373.391 311.785 372.786C309.161 371.8 306.773 370.276 304.773 368.312C302.773 366.348 301.206 363.987 300.172 361.381C299.03 358.515 298.542 355.43 298.745 352.351C298.816 349.811 299.576 347.339 300.942 345.197C301.903 343.754 303.339 342.693 305 342.198C305.444 342.075 305.903 342.016 306.364 342.021C306.685 342.021 306.845 342.021 306.845 342.021C306.845 342.021 306.171 342.021 305.097 342.454C303.573 343.017 302.28 344.073 301.423 345.454C299.242 348.886 298.633 355.158 300.958 361.012C302.041 363.773 303.735 366.252 305.915 368.263C307.7 369.908 309.757 371.232 311.994 372.176C314.093 373.006 316.277 373.603 318.506 373.957V373.957Z" fill="#455A64"/>
<path d="M355.896 375.336C355.494 370.417 355.366 365.48 355.511 360.547C355.385 355.618 355.535 350.686 355.96 345.774C356.361 350.688 356.49 355.62 356.345 360.547C356.48 365.481 356.33 370.419 355.896 375.336V375.336Z" fill="#455A64"/>
<path d="M297.061 342.133C297.237 338.557 297.606 334.514 297.606 334.514C297.606 334.514 306.46 333.536 306.989 324.393C307.519 315.25 306.989 294.158 306.989 294.158L290.949 285.945L273.145 299.948L275.888 345.662L292.217 346.705C293.465 346.739 294.676 346.278 295.584 345.421C296.492 344.564 297.023 343.381 297.061 342.133V342.133Z" fill="#FFBE9D"/>
<path d="M298.649 317.159C298.649 317.159 298.649 317.335 298.504 317.544C298.385 317.695 298.231 317.815 298.055 317.893C297.879 317.972 297.686 318.006 297.494 317.993C296.467 317.993 295.473 316.806 295.12 315.427C294.952 314.758 294.952 314.058 295.12 313.39C295.153 313.098 295.258 312.819 295.426 312.578C295.594 312.337 295.82 312.142 296.082 312.01C296.298 311.921 296.54 311.921 296.756 312.01C296.916 312.09 297.046 312.219 297.125 312.379C297.237 312.652 297.125 312.828 297.125 312.812C297.125 312.796 297.125 312.652 296.965 312.491C296.881 312.377 296.757 312.297 296.618 312.267C296.479 312.237 296.334 312.26 296.211 312.331C296.014 312.45 295.85 312.617 295.735 312.816C295.62 313.015 295.558 313.24 295.553 313.47C295.418 314.066 295.418 314.686 295.553 315.282C295.874 316.533 296.74 317.544 297.51 317.64C297.661 317.661 297.814 317.65 297.96 317.608C298.106 317.567 298.242 317.496 298.36 317.4C298.552 317.271 298.617 317.143 298.649 317.159Z" fill="#EB996E"/>
<path d="M312.491 289.217C311.256 285.015 306.781 282.93 302.707 281.775C296.499 280.01 289.795 279.24 283.731 281.47C277.668 283.7 270.386 287.613 270.386 294.302C266.809 294.013 264.756 297.141 263.345 301.023C262.442 303.388 261.901 305.875 261.741 308.401V308.401C261.291 317.159 258.837 329.253 253.159 335.669C249.951 339.246 245.508 341.716 243.68 346.175C242.076 350.041 242.91 354.628 241.418 358.542C240.087 361.991 237.151 364.445 235.002 367.444C232.812 370.847 231.523 374.751 231.257 378.788C230.99 382.826 231.755 386.865 233.478 390.526C235.214 394.093 237.658 397.27 240.661 399.862C243.664 402.454 247.163 404.408 250.946 405.604C258.438 407.883 266.428 407.961 273.963 405.828C279.618 404.476 284.894 401.86 289.394 398.177C293.998 394.417 297.16 389.181 298.344 383.356C299.483 376.812 297.654 370.155 296.291 363.643C292.024 343.064 293.243 341.989 298.633 322.885C298.761 322.548 298.825 322.196 298.921 321.859C299.018 321.522 299.066 321.362 299.13 321.105C299.283 320.35 299.363 319.582 299.37 318.811C298.583 319.104 297.729 319.166 296.908 318.99C296.087 318.813 295.333 318.407 294.735 317.817C294.136 317.188 293.718 316.408 293.526 315.561C293.334 314.714 293.375 313.831 293.644 313.005C294.023 312.101 294.587 311.288 295.299 310.616C296.012 309.945 296.858 309.431 297.782 309.107C299.563 308.369 301.472 307.984 303.22 307.166C306.925 305.402 309.492 301.745 311.24 297.911C312.677 295.254 313.121 292.172 312.491 289.217V289.217Z" fill="#455A64"/>
<path d="M299.29 317.592C299.629 318.093 299.909 318.631 300.124 319.196C300.605 320.207 301.247 321.634 301.953 323.286L302.081 323.591H301.744L300.14 323.735C299.033 323.735 298.103 323.944 297.012 323.928C296.917 323.906 296.829 323.861 296.757 323.797C296.684 323.732 296.628 323.651 296.595 323.559C296.548 323.413 296.548 323.256 296.595 323.11C296.633 322.894 296.681 322.679 296.74 322.468L297.028 321.329C297.174 320.57 297.399 319.828 297.702 319.116C297.672 319.89 297.559 320.659 297.365 321.41L297.141 322.548C297.061 322.933 296.916 323.527 297.141 323.479C297.943 323.479 299.082 323.302 300.14 323.238L301.744 323.094L301.536 323.447C300.846 321.843 300.269 320.335 299.932 319.292C299.636 318.76 299.42 318.187 299.29 317.592V317.592Z" fill="#FC4F00"/>
<path d="M244.369 452.601L315.507 450.435L346.464 571.281L340.77 709.898H303.156L307.76 574.232L280.251 490.102L284.486 715.272L246.471 715.833L242.477 504.185C242.3 498.299 240.376 485.034 241.097 479.195L244.369 452.601Z" fill="#455A64"/>
<path d="M289.714 491.819C288.55 491.892 287.381 491.822 286.234 491.61C284.084 491.353 281.149 490.904 277.925 490.263C274.701 489.621 271.814 488.883 269.729 488.29C268.614 488.045 267.536 487.657 266.521 487.135C266.521 486.894 271.75 488.145 278.166 489.445C284.582 490.744 289.746 491.578 289.714 491.819Z" fill="#455A64"/>
<path d="M340.385 702.295C340.385 702.52 331.867 702.713 321.361 702.713C310.855 702.713 302.322 702.52 302.322 702.295C302.322 702.071 310.839 701.878 321.361 701.878C331.884 701.878 340.385 702.055 340.385 702.295Z" fill="#455A64"/>
<path d="M284.149 709.417C284.149 709.658 275.872 709.834 265.671 709.834C255.469 709.834 247.208 709.658 247.208 709.417C247.208 709.177 255.485 709 265.671 709C275.856 709 284.149 709.193 284.149 709.417Z" fill="#455A64"/>
<path d="M279.24 708.84C279.016 708.84 278.021 659.645 277.011 598.966C276 538.287 275.407 489.06 275.615 489.06C275.824 489.06 276.85 538.238 277.845 598.95C278.839 659.661 279.481 708.84 279.24 708.84Z" fill="#455A64"/>
<path d="M335.332 702.295C335.314 702.077 335.314 701.857 335.332 701.638V699.713C335.332 697.981 335.46 695.495 335.557 692.335C335.781 685.919 336.102 676.599 336.503 665.179C337.369 642.21 338.588 610.547 339.919 575.596C339.919 575.259 339.919 574.938 339.919 574.649V574.761C331.498 541.077 323.879 510.505 318.346 488.386L311.93 462.225C311.192 459.161 310.63 456.771 310.229 455.103C310.037 454.317 309.909 453.708 309.796 453.242C309.734 453.034 309.696 452.818 309.684 452.601C309.767 452.803 309.832 453.012 309.877 453.226C310.005 453.675 310.165 454.285 310.39 455.055C310.823 456.659 311.448 459.097 312.25 462.145C313.854 468.336 316.116 477.254 318.939 488.242C324.521 510.345 332.22 540.837 340.754 574.569V574.681C340.754 574.97 340.754 575.307 340.754 575.628C339.326 610.579 338.027 642.226 337.08 665.195C336.583 676.631 336.166 685.887 335.877 692.335C335.717 695.543 335.589 697.981 335.508 699.713C335.508 700.531 335.412 701.173 335.396 701.638C335.399 701.859 335.377 702.079 335.332 702.295V702.295Z" fill="#455A64"/>
<path d="M323.062 571.826C320.36 572.714 317.577 573.332 314.753 573.671C311.288 574.264 308.337 574.681 307.006 574.745V574.425C307.439 574.553 307.663 574.633 307.663 574.697C307.663 574.762 307.391 574.697 306.941 574.697H305.979L306.941 574.409C308.193 574.04 311.144 573.43 314.609 572.805C317.387 572.202 320.219 571.874 323.062 571.826Z" fill="#455A64"/>
<path d="M322.404 576.43C319.902 576.544 317.395 576.432 314.913 576.093C312.408 576.042 309.912 575.768 307.455 575.275C312.467 574.866 317.513 575.256 322.404 576.43V576.43Z" fill="#455A64"/>
<path opacity="0.2" d="M244.064 455.151C244.907 456.233 245.968 457.125 247.179 457.769C248.389 458.413 249.722 458.794 251.09 458.888C253.955 459.228 256.853 459.174 259.703 458.728C278.069 456.691 297.526 454.814 315.507 450.435C292.233 451.735 267.643 451.301 244.369 452.601L244.129 454.59" fill="black"/>
<g opacity="0.2">
<path d="M268.044 487.953L281.165 538.864L280.251 490.102L268.044 487.953Z" fill="black"/>
</g>
</svg>
