<svg xmlns="http://www.w3.org/2000/svg" width="585.135" height="365.984" viewBox="0 0 585.135 365.984">
  <g id="Group_24" data-name="Group 24" transform="translate(-217.792 -185.884)">
    <g id="Group_23" data-name="Group 23" transform="translate(217.792 185.884)">
      <path id="Path_1" data-name="Path 1" d="M741.379,822.49s42.023,9.962,62.71-35.187c26.838-58.576-10.83-114.22-75.808-118.227-93.718-5.78-41.779-155.4-189.664-114.807-41.583,11.415-132.028-47.514-185.271,52.335-9.053,16.978-36.117,16.145-72.175,45.11-63.606,51.094-40.708,171.319,12.884,171.865S741.379,822.49,741.379,822.49Z" transform="translate(-236.506 -457.769)" fill="#fcecdb"/>
      <path id="Path_2" data-name="Path 2" d="M488.089,1529.8s1.953-12.8,26.88-16.244,48.1-31.054,89.21-27.047,75.216,29.152,122.008,21.448,76.091,2.116,86.586,9.861S866.7,1516,869.913,1530.2Z" transform="translate(-421.17 -1164.212)" fill="#a8d29f"/>
      <path id="Path_3" data-name="Path 3" d="M848.549,430.58s-28.133-1.376-13.209,84.366c0,0,10.04,29.1-2.634,47.864h186.572V430.58Z" transform="translate(-679.167 -369.999)" fill="#afcdfb"/>
      <g id="Group_7" data-name="Group 7" transform="translate(66.918 177.586)">
        <g id="Group_2" data-name="Group 2" transform="translate(99.595 74.384)">
          <path id="Path_4" data-name="Path 4" d="M961.006,1235.169s-13.034-15.206-.8-24.865c0,0,8.933-5.408,16.218-4.969,0,0-10.322,17.308-6.982,19.03s10.111-20.116,10.111-20.116,20.33-1.971,26.87,1.173c0,0-17.38,14.222-13.72,15.069s22.432-13.113,22.432-13.113,18.922,3.22,17.913,14.763-7.529,15.107-10.394,14.8-19.628-6.706-19.993-4.357,9.725,10.021,16.791,10.38c0,0-13.34,14.712-22.206,10.466s-9.623-10.976-15.15-13.5-10.244-2.518-7.963.056,12.284,5.077,15.444,10.667,6,9.361-3.176,7.981-24.083-8.092-24.738-15.778Z" transform="translate(-938.976 -1203.639)" fill="#599dad"/>
          <g id="Group_1" data-name="Group 1" transform="translate(0 18.724)">
            <path id="Path_5" data-name="Path 5" d="M1007.339,1279.358s-51.392-1.981-62.742,12.717a37.168,37.168,0,0,1-10.234,14.363l-1.2,3.281s8.906-9.39,12.092-9.958C945.252,1299.76,940.269,1281.552,1007.339,1279.358Z" transform="translate(-922.567 -1279.268)" fill="#599dad"/>
            <path id="Path_6" data-name="Path 6" d="M902.17,1385.078s-11.031,8.158-11.8,22.734l2,.179s3.523-15.072,9.891-20.966S902.17,1385.078,902.17,1385.078Z" transform="translate(-890.373 -1357.909)" fill="#599dad"/>
          </g>
        </g>
        <g id="Group_4" data-name="Group 4" transform="translate(0 33.098)">
          <path id="Path_7" data-name="Path 7" d="M564.142,1090.568s20.734-11.611,11.058-27.369c0,0-7.741-9.676-16.034-12.164,0,0,4.423,23.5,0,24.052s-3.041-26.54-3.041-26.54-21.84-10.505-30.41-9.676c0,0,13.546,22.946,9.123,22.393s-19.628-23.775-19.628-23.775-22.393-4.147-25.987,9.123,2.212,19.905,5.529,20.734,24.6.553,24.052,3.318-14.929,7.188-22.946,4.7c0,0,8.847,21.84,20.458,20.734s15.205-8.293,22.393-8.846,12.44,1.382,8.846,3.317-15.758.635-21.564,5.57-10.505,7.977.276,10.188,30.134.829,34-7.464Z" transform="translate(-488.089 -1036.875)" fill="#6bb7bf"/>
          <g id="Group_3" data-name="Group 3" transform="translate(11.363 13.883)">
            <path id="Path_8" data-name="Path 8" d="M533.985,1092.953s58.056,18.8,64.691,39.81a44.1,44.1,0,0,0,5.529,20.182v4.147s-6.082-14.1-9.4-16.035C594.805,1141.056,607.8,1122.81,533.985,1092.953Z" transform="translate(-533.985 -1092.953)" fill="#6bb7bf"/>
            <path id="Path_9" data-name="Path 9" d="M809.187,1327.425s8.953,13.6,3.849,30.146l-2.3-.619s2.236-18.229-2.448-27.4S809.187,1327.425,809.187,1327.425Z" transform="translate(-738.967 -1267.434)" fill="#6bb7bf"/>
          </g>
        </g>
        <g id="Group_6" data-name="Group 6" transform="translate(91.072)">
          <path id="Path_10" data-name="Path 10" d="M873.914,973.964s-27.332-15.306-14.577-36.078c0,0,10.2-12.755,21.136-16.035,0,0-5.831,30.976,0,31.7s4.008-34.985,4.008-34.985,28.789-13.848,40.086-12.754c0,0-17.857,30.247-12.026,29.518S938.416,904,938.416,904s29.518-5.466,34.256,12.026-2.915,26.238-7.289,27.332-32.433.729-31.7,4.373,19.678,9.475,30.247,6.2c0,0-11.662,28.789-26.967,27.332s-20.043-10.933-29.518-11.662-16.4,1.822-11.661,4.373,20.772.836,28.425,7.342,13.848,10.514-.364,13.43-39.722,1.093-44.824-9.84Z" transform="translate(-855.946 -903.187)" fill="#86d1cd"/>
          <g id="Group_5" data-name="Group 5" transform="translate(3.533 18.301)">
            <path id="Path_11" data-name="Path 11" d="M991.647,977.108s-76.529,24.781-85.275,52.477c0,0,.364,12.39-7.288,26.6v5.466s8.017-18.586,12.39-21.137C911.474,1040.517,894.346,1016.465,991.647,977.108Z" transform="translate(-891.937 -977.108)" fill="#6bb7bf"/>
            <path id="Path_12" data-name="Path 12" d="M877.363,1286.185s-11.8,17.922-5.074,39.738l3.036-.816s-2.948-24.029,3.227-36.114S877.363,1286.185,877.363,1286.185Z" transform="translate(-870.216 -1207.106)" fill="#6bb7bf"/>
          </g>
        </g>
        <path id="Path_13" data-name="Path 13" d="M762.09,1485.408a53.538,53.538,0,0,0,53.538-53.538H708.552A53.538,53.538,0,0,0,762.09,1485.408Z" transform="translate(-653.971 -1300.982)" fill="#efcbab"/>
        <path id="Path_14" data-name="Path 14" d="M795.095,1485a53.577,53.577,0,0,1-60.188-53.129h13.3A53.547,53.547,0,0,0,795.095,1485Z" transform="translate(-673.801 -1300.981)" fill="#ffebdc"/>
        <path id="Path_15" data-name="Path 15" d="M814.12,1639.051H705.565a6.606,6.606,0,0,1,6.605-6.605h95.345a6.605,6.605,0,0,1,6.605,6.605Z" transform="translate(-651.723 -1451.899)" fill="#efcbab"/>
        <rect id="Rectangle_2" data-name="Rectangle 2" width="110.055" height="1.642" transform="translate(52.82 130.888)" fill="#efcdaf"/>
      </g>
      <g id="Group_9" data-name="Group 9" transform="translate(339.133 78.529)">
        <path id="Path_16" data-name="Path 16" d="M1698.006,529.457s-9.379-17.7,4.674-24.435c0,0,9.9-3.316,16.914-1.288,0,0-13.869,14.621-10.989,17.033s14.28-17.406,14.28-17.406,20.267,2.539,25.957,7.042c0,0-20.077,10.061-16.693,11.691s24.764-7.87,24.764-7.87,17.754,7.295,14.235,18.334-10.661,13.086-13.389,12.158-17.678-10.85-18.549-8.64,7.288,11.912,14.1,13.812c0,0-16.244,11.425-23.961,5.336s-6.979-12.821-11.817-16.5-9.442-4.705-7.781-1.693,10.87,7.649,12.727,13.8,3.8,10.449-4.851,7.089-21.719-13.181-20.671-20.823Z" transform="translate(-1668.37 -503.077)" fill="#599dad"/>
        <g id="Group_8" data-name="Group 8" transform="translate(0 21.446)">
          <path id="Path_17" data-name="Path 17" d="M1725.642,596s-49.7-13.213-64-1.365A37.166,37.166,0,0,1,1648.5,606.4l-1.9,2.937s10.749-7.206,13.983-7.061C1660.59,602.279,1659.725,583.42,1725.642,596Z" transform="translate(-1632.002 -589.702)" fill="#599dad"/>
          <path id="Path_18" data-name="Path 18" d="M1604.116,655.1s-12.553,5.538-16.5,19.591l1.914.614s6.745-13.931,14.251-18.284S1604.116,655.1,1604.116,655.1Z" transform="translate(-1587.616 -638.399)" fill="#599dad"/>
        </g>
      </g>
      <g id="Group_11" data-name="Group 11" transform="translate(288.305 0)">
        <path id="Path_19" data-name="Path 19" d="M1401.023,258.874s-27.775-14.485-15.645-35.628c0,0,9.82-13.053,20.65-16.657,0,0-4.906,31.136.944,31.691s2.965-35.088,2.965-35.088,28.364-14.7,39.689-13.942c0,0-16.948,30.765-11.142,29.863s24.929-32.1,24.929-32.1,29.342-6.343,34.6,11-2.133,26.313-6.471,27.536-32.4,1.694-31.56,5.315,19.952,8.885,30.418,5.292c0,0-10.8,29.124-26.142,28.122s-20.36-10.331-29.852-10.777-16.337,2.309-11.526,4.718,20.788.217,28.631,6.493,14.155,10.1.036,13.435-39.672,2.276-45.1-8.5Z" transform="translate(-1382.312 -185.884)" fill="#86d1cd"/>
        <g id="Group_10" data-name="Group 10" transform="translate(5.825 17.998)">
          <path id="Path_20" data-name="Path 20" d="M1521.83,258.582s-75.757,27.048-83.675,54.992c0,0,.733,12.374-6.493,26.808l.162,5.464s7.461-18.816,11.756-21.5C1443.58,324.35,1425.744,300.819,1521.83,258.582Z" transform="translate(-1425.269 -258.582)" fill="#6bb7bf"/>
          <path id="Path_21" data-name="Path 21" d="M1412.234,578.339s-11.263,18.265-3.889,39.871l3.011-.905s-3.661-23.931,2.151-36.194S1412.234,578.339,1412.234,578.339Z" transform="translate(-1405.841 -496.539)" fill="#6bb7bf"/>
        </g>
      </g>
      <rect id="Rectangle_3" data-name="Rectangle 3" width="194.787" height="254.029" transform="translate(181.212 111.332)" fill="#9abcef"/>
      <rect id="Rectangle_4" data-name="Rectangle 4" width="191.513" height="254.029" transform="translate(187.581 111.332)" fill="#e9f3fe"/>
      <path id="Path_22" data-name="Path 22" d="M2175.311,1528.952h-38.592c-2.068-1.754,1.431-5.738,5.087-6.006a22.562,22.562,0,0,1,5.89.7c.531-7.054,3.564-38.762,14.993-37.488,12.852,1.426,0,13.964-3.633,21.387a176.443,176.443,0,0,0-6.827,17.1c1.043.226,2.124.448,3.227.651,1.7-5.23,8.042-22.823,16.1-21.8,9.463,1.2,5.659,8.254-1.048,12.441-4.921,3.079-10.964,7.455-13.835,9.57a41.024,41.024,0,0,0,7.547.6C2170.833,1525.955,2174.06,1527.9,2175.311,1528.952Z" transform="translate(-1661.178 -1164.212)" fill="#a8d29f"/>
      <path id="Path_23" data-name="Path 23" d="M1116.922,481.328l0,0H925.406c1.059-14.482-.537-25-3.094-32.561-4.911-14.542-13.376-18.19-13.376-18.19h180.615c15.415,0,27.368,9.287,30.622,21.614.121.464.234.925.333,1.387C1123.595,467.684,1117.049,481.07,1116.922,481.328Z" transform="translate(-737.827 -370)" fill="#e9f3fe"/>
      <path id="Path_24" data-name="Path 24" d="M1157.575,536.61l0,0H966.059c1.059-14.482-.536-25-3.094-32.561,19.572,3.584,68.046,11.221,119.931,9.934,33.566-.833,60.091-3.079,78.263-5.123C1164.247,522.966,1157.7,536.353,1157.575,536.61Z" transform="translate(-778.479 -425.282)" fill="#d8e8fd"/>
      <g id="Group_13" data-name="Group 13" transform="translate(212.442 165.144)">
        <path id="Rectangle_5" data-name="Rectangle 5" d="M2.382,0h100.59a2.382,2.382,0,0,1,2.382,2.382v0a2.382,2.382,0,0,1-2.382,2.382H2.382A2.382,2.382,0,0,1,0,2.382v0A2.382,2.382,0,0,1,2.382,0Z" transform="translate(12.604)" fill="#bbd5fc"/>
        <rect id="Rectangle_6" data-name="Rectangle 6" width="65.646" height="4.764" rx="2.382" transform="translate(12.604 8.015)" fill="#bbd5fc"/>
        <g id="Group_12" data-name="Group 12" transform="translate(0 0)">
          <path id="Path_25" data-name="Path 25" d="M1078.708,864.94v-9.731h-1.284q-1.168,0-1.168-.973,0-.7.915-.992a6.773,6.773,0,0,1,1.489-.234q1.022-.078,1.644-.078.6,0,.759.243a2.905,2.905,0,0,1,.156,1.236V864.94h1.323q1.284,0,1.284,1.109,0,1.167-1.284,1.168h-5.333a1.469,1.469,0,0,1-.944-.3,1.021,1.021,0,0,1-.38-.847q0-1.128,1.3-1.129Z" transform="translate(-1075.886 -852.932)" fill="#bbd5fc"/>
        </g>
      </g>
      <g id="Group_15" data-name="Group 15" transform="translate(212.362 215.314)">
        <rect id="Rectangle_7" data-name="Rectangle 7" width="105.354" height="4.764" rx="2.382" transform="translate(12.684 0)" fill="#d2e4fd"/>
        <path id="Rectangle_8" data-name="Rectangle 8" d="M2.382,0H63.264a2.382,2.382,0,0,1,2.382,2.382v0a2.382,2.382,0,0,1-2.382,2.382H2.382A2.382,2.382,0,0,1,0,2.382v0A2.382,2.382,0,0,1,2.382,0Z" transform="translate(12.684 8.015)" fill="#d2e4fd"/>
        <g id="Group_14" data-name="Group 14">
          <path id="Path_26" data-name="Path 26" d="M1083.784,1067.386q0,.973-1.359.972h-5.641q-1.221,0-1.221-.98a1.239,1.239,0,0,1,.327-.722q.481-.55,1.41-1.651,1.41-1.771,2.357-3.062.326-.43.929-1.307a3.161,3.161,0,0,0,.5-1.479,1.52,1.52,0,0,0-.43-1.109,1.474,1.474,0,0,0-1.1-.438,1.689,1.689,0,0,0-1.135.413,1.959,1.959,0,0,0-.516,1.032q-.241.98-.31,1.135a.872.872,0,0,1-.843.551.966.966,0,0,1-.808-.378,1.291,1.291,0,0,1-.275-.86,4.153,4.153,0,0,1,.189-1.222,3.67,3.67,0,0,1,1.462-2.029,4.245,4.245,0,0,1,2.425-.671,3.757,3.757,0,0,1,2.614.947,3.315,3.315,0,0,1,1.084,2.55,4.444,4.444,0,0,1-.774,2.377q-.43.672-1.771,2.377-.688.879-2.167,2.549h3.715Q1083.784,1066.38,1083.784,1067.386Z" transform="translate(-1075.563 -1055.579)" fill="#d2e4fd"/>
        </g>
      </g>
      <g id="Group_17" data-name="Group 17" transform="translate(212.145 256.636)">
        <path id="Rectangle_9" data-name="Rectangle 9" d="M2.382,0h100.59a2.382,2.382,0,0,1,2.382,2.382v0a2.382,2.382,0,0,1-2.382,2.382H2.382A2.382,2.382,0,0,1,0,2.382v0A2.382,2.382,0,0,1,2.382,0Z" transform="translate(12.901 0.529)" fill="#d2e4fd"/>
        <path id="Rectangle_10" data-name="Rectangle 10" d="M2.382,0H63.264a2.382,2.382,0,0,1,2.382,2.382v0a2.382,2.382,0,0,1-2.382,2.382H2.382A2.382,2.382,0,0,1,0,2.382v0A2.382,2.382,0,0,1,2.382,0Z" transform="translate(12.901 8.545)" fill="#d2e4fd"/>
        <g id="Group_16" data-name="Group 16" transform="translate(0 0)">
          <path id="Path_27" data-name="Path 27" d="M1083.124,1231.8a3.689,3.689,0,0,1-1.283,2.936,4.521,4.521,0,0,1-3.077,1.055,4.309,4.309,0,0,1-2.461-.685,3.133,3.133,0,0,1-1.617-2.62,1.1,1.1,0,0,1,.281-.756.92.92,0,0,1,.721-.316,1.1,1.1,0,0,1,.862.615,13.516,13.516,0,0,0,.756,1.125,1.961,1.961,0,0,0,1.494.615,1.867,1.867,0,0,0,1.758-.914,2.432,2.432,0,0,0,.246-1.161q0-1.722-2.022-1.916-1.143-.105-1.143-.967a.92.92,0,0,1,.664-.9q1.24-.457,1.257-.475a1.7,1.7,0,0,0,.664-1.53,1.375,1.375,0,0,0-.385-1.028,1.414,1.414,0,0,0-1.034-.378,1.889,1.889,0,0,0-1.261.386,2.532,2.532,0,0,0-.649,1.143.8.8,0,0,1-.806.615.827.827,0,0,1-.692-.369,1.337,1.337,0,0,1-.272-.809,2.246,2.246,0,0,1,.3-1.09,3.372,3.372,0,0,1,1.512-1.424,4.431,4.431,0,0,1,2.04-.474,3.554,3.554,0,0,1,2.488.906,3.072,3.072,0,0,1,.993,2.382,3.264,3.264,0,0,1-1.477,2.813A3.187,3.187,0,0,1,1083.124,1231.8Z" transform="translate(-1074.685 -1222.485)" fill="#d2e4fd"/>
        </g>
      </g>
      <g id="Group_18" data-name="Group 18" transform="translate(234.492 122.67)">
        <path id="Rectangle_11" data-name="Rectangle 11" d="M2.767,0H64.44a2.766,2.766,0,0,1,2.766,2.766v0A2.767,2.767,0,0,1,64.44,5.534H2.767A2.767,2.767,0,0,1,0,2.767v0A2.767,2.767,0,0,1,2.767,0Z" transform="translate(16.944)" fill="#bbd5fc"/>
        <path id="Rectangle_12" data-name="Rectangle 12" d="M2.767,0H98.328A2.767,2.767,0,0,1,101.1,2.767v0a2.767,2.767,0,0,1-2.767,2.767H2.767A2.767,2.767,0,0,1,0,2.767v0A2.767,2.767,0,0,1,2.767,0Z" transform="translate(0 8.533)" fill="#bbd5fc"/>
      </g>
      <g id="Group_19" data-name="Group 19" transform="translate(199.256 146.447)">
        <path id="Path_28" data-name="Path 28" d="M1100.988,826.562c-20.863,0-40.661-2.618-55.42-6.36-14.911-3.78-22.943-9.959-22.943-15.44,0-4.967,6.546-9.536,18.93-13.211h0c-11.868,3.523-18.215,8.7-18.215,13.211,0,5.011,8.227,9.971,22.572,13.608,14.707,3.729,34.267,5.782,55.077,5.782s40.369-2.054,55.076-5.782c14.345-3.637,22.572-8.6,22.572-13.608,0-5.307-8.663-11.9-22.609-17.212-15.856-6.038-35.4-8.278-55.04-8.278-36.865,0-52.041,4.3-65.207,9.7h0c13.224-5.416,28.212-11.555,65.207-11.555,19.715,0,39.346,3.341,55.277,9.407,14.24,5.422,23.086,12.3,23.086,17.942,0,5.481-8.212,10.581-23.123,14.361C1141.468,822.865,1121.851,826.562,1100.988,826.562Z" transform="translate(-1022.625 -777.413)" fill="#c65447"/>
      </g>
      <path id="Path_47" data-name="Path 47" d="M593.421,1462.238s-19.426-49.743-33.05-41.822S593.421,1462.238,593.421,1462.238Z" transform="translate(-473.682 -1114.134)" fill="#a8d29f"/>
      <path id="Path_48" data-name="Path 48" d="M543.527,1535.5s-25.663-22.178-37.386-18.059S543.527,1535.5,543.527,1535.5Z" transform="translate(-433.392 -1187.4)" fill="#a8d29f"/>
      <path id="Path_49" data-name="Path 49" d="M1760.225,1565.151s5.914-20.563,12.852-18.137S1760.225,1565.151,1760.225,1565.151Z" transform="translate(-1378.358 -1209.884)" fill="#a8d29f"/>
      <path id="Path_50" data-name="Path 50" d="M1782.023,1593.753s15.1-9.91,18.415-6.847S1782.023,1593.753,1782.023,1593.753Z" transform="translate(-1394.759 -1239.607)" fill="#a8d29f"/>
      <path id="Path_51" data-name="Path 51" d="M1211.365,1429.792H1093.6a1.437,1.437,0,0,1-1.433-1.433h0a1.437,1.437,0,0,1,1.433-1.433h117.765a1.437,1.437,0,0,1,1.433,1.433h0A1.437,1.437,0,0,1,1211.365,1429.792Z" transform="translate(-875.694 -1119.676)" fill="#d2e4fd"/>
      <path id="Path_52" data-name="Path 52" d="M1211.365,1452.962H1093.6a1.437,1.437,0,0,1-1.433-1.433h0a1.437,1.437,0,0,1,1.433-1.433h117.765a1.437,1.437,0,0,1,1.433,1.433h0A1.437,1.437,0,0,1,1211.365,1452.962Z" transform="translate(-875.694 -1137.109)" fill="#d2e4fd"/>
      <path id="Path_53" data-name="Path 53" d="M1211.365,1478.639H1093.6a1.437,1.437,0,0,1-1.433-1.433h0a1.437,1.437,0,0,1,1.433-1.433h117.765a1.437,1.437,0,0,1,1.433,1.433h0A1.437,1.437,0,0,1,1211.365,1478.639Z" transform="translate(-875.694 -1156.429)" fill="#d2e4fd"/>
      <path id="Rectangle_14" data-name="Rectangle 14" d="M1.433,0H103.642a1.433,1.433,0,0,1,1.433,1.433v0a1.433,1.433,0,0,1-1.433,1.433H1.433A1.433,1.433,0,0,1,0,1.433v0A1.433,1.433,0,0,1,1.433,0Z" transform="translate(216.473 325.7)" fill="#d2e4fd"/>
      <rect id="Rectangle_15" data-name="Rectangle 15" width="585.135" height="1.245" rx="0.622" transform="translate(0 364.739)" fill="#1c468a"/>
    </g>
  </g>
</svg>
