<svg width="830" height="830" viewBox="0 0 830 830" fill="none" xmlns="http://www.w3.org/2000/svg">
<path d="M731.579 437.842C734.899 393.735 724.64 347.687 710.895 306.702C690.56 245.68 650.853 183.148 584.121 168.706C545.642 160.406 506.483 169.303 473.482 190.153C441.759 210.206 417.042 236.118 378.015 241.132C338.557 246.211 298.07 244.169 258.412 244.169C156.438 244.169 73.6874 351.289 94.371 462.874C115.055 574.46 212.596 651.832 295.347 651.832C369.715 651.832 430.903 607.228 501.536 595.243C536.562 589.3 571.737 596.338 606.398 587.441C646.686 577.082 684.567 552.398 706.894 516.658C722.1 492.29 729.504 465.447 731.579 437.842Z" fill="#FC4F00"/>
<path opacity="0.7" d="M731.579 437.842C734.899 393.735 724.64 347.687 710.895 306.702C690.56 245.68 650.853 183.148 584.121 168.706C545.642 160.406 506.483 169.303 473.482 190.153C441.759 210.206 417.042 236.118 378.015 241.132C338.557 246.211 298.07 244.169 258.412 244.169C156.438 244.169 73.6874 351.289 94.371 462.874C115.055 574.46 212.596 651.832 295.347 651.832C369.715 651.832 430.903 607.228 501.536 595.243C536.562 589.3 571.737 596.338 606.398 587.441C646.686 577.082 684.567 552.398 706.894 516.658C722.1 492.29 729.504 465.447 731.579 437.842Z" fill="white"/>
<path d="M719.643 422.354C719.643 422.354 719.643 414.054 708.023 402.55C696.403 391.046 689.033 384.373 689.033 384.373C689.033 384.373 683.256 403.363 694.013 414.934C701.91 423.06 710.472 430.511 719.61 437.211L719.643 422.354Z" fill="#FC4F00"/>
<path d="M702.877 473.913C702.877 473.913 702.877 465.613 691.257 454.11C679.637 442.606 672.3 435.933 672.3 435.933C672.3 435.933 666.507 454.923 677.28 466.493C685.177 474.619 693.739 482.071 702.877 488.77V473.913Z" fill="#FC4F00"/>
<path d="M718.913 436.414C718.913 436.414 719.793 428.214 732.508 417.938C745.224 407.663 753.308 401.886 753.308 401.886C753.308 401.886 757.043 421.374 745.158 431.766C736.447 439.014 727.147 445.522 717.353 451.221L718.913 436.414Z" fill="#FC4F00"/>
<path d="M698.661 497.303C698.661 497.303 700.321 489.235 714.115 480.354C727.91 471.473 736.476 466.576 736.476 466.576C736.476 466.576 738.136 486.363 725.237 495.41C715.813 501.705 705.879 507.202 695.54 511.844L698.661 497.303Z" fill="#FC4F00"/>
<path d="M702.462 563.703C702.462 563.703 702.462 555.403 714.082 543.883C725.702 532.362 733.056 525.722 733.056 525.722C733.056 525.722 738.85 544.713 728.076 556.266C720.183 564.401 711.62 571.858 702.479 578.56L702.462 563.703Z" fill="#FC4F00"/>
<path d="M702.28 579.905C702.28 579.905 703.442 571.737 693.648 558.657C683.854 545.576 677.429 537.973 677.429 537.973C677.429 537.973 669.013 555.951 677.994 568.915C684.651 578.084 692.064 586.68 700.155 594.612L702.28 579.905Z" fill="#FC4F00"/>
<path d="M690.875 627.928C690.875 627.928 690.875 619.628 702.495 608.124C714.115 596.621 721.486 589.948 721.486 589.948C721.486 589.948 727.263 608.938 716.506 620.508C708.607 628.637 700.045 636.094 690.909 642.802L690.875 627.928Z" fill="#FC4F00"/>
<path d="M698.595 671.47C698.595 671.47 696.503 663.485 704.753 649.375C713.003 635.265 718.531 626.999 718.531 626.999C718.531 626.999 728.923 643.897 721.469 657.808C715.894 667.67 709.502 677.049 702.363 685.846L698.595 671.47Z" fill="#FC4F00"/>
<path d="M720.689 420.246C720.108 428.84 719.055 437.397 717.535 445.876C712.954 469.481 701.533 484.72 696.968 506.034C692.403 527.349 705.517 554.822 701.948 582.212C698.379 609.602 687.788 624.824 690.826 643.101C693.864 661.377 709.866 710.878 709.866 710.878" stroke="#455A64" stroke-linecap="round" stroke-linejoin="round"/>
<path d="M718.813 441.909L731.263 432.347" stroke="#455A64" stroke-linecap="round" stroke-linejoin="round"/>
<path d="M719.395 430.903L714.166 421.624" stroke="#455A64" stroke-linecap="round" stroke-linejoin="round"/>
<path d="M697.665 505.055C697.665 505.055 708.09 497.236 718.813 489.418" stroke="#455A64" stroke-linecap="round" stroke-linejoin="round"/>
<path d="M702.877 488.771C702.877 488.771 694.179 471.739 684.335 460.451" stroke="#455A64" stroke-linecap="round" stroke-linejoin="round"/>
<path d="M702.877 575.456C708.824 564.465 716.34 554.4 725.188 545.576" stroke="#455A64" stroke-linecap="round" stroke-linejoin="round"/>
<path d="M700.852 587.042C697.689 579.591 693.907 572.417 689.548 565.595C683.472 556.615 682.592 555.453 682.592 555.453" stroke="#455A64" stroke-linecap="round" stroke-linejoin="round"/>
<path d="M690.875 643.101C693.522 636.558 696.663 630.226 700.271 624.16C703.881 618.522 707.951 613.192 712.439 608.224" stroke="#455A64" stroke-linecap="round" stroke-linejoin="round"/>
<path d="M702.363 685.846C701.758 679.59 702.835 673.286 705.483 667.586C709.833 659.186 714.746 648.18 716.771 643.831" stroke="#455A64" stroke-linecap="round" stroke-linejoin="round"/>
<path d="M625.322 532.661C625.322 532.661 624.426 527.482 630.419 518.966C636.411 510.45 640.379 505.52 640.379 505.52C640.379 505.52 646.056 516.808 640.578 525.207C636.509 531.165 631.951 536.774 626.949 541.973L625.322 532.661Z" fill="#FC4F00"/>
<path d="M641.441 563.172C641.441 563.172 640.544 557.993 646.537 549.477C652.529 540.961 656.497 536.031 656.497 536.031C656.497 536.031 662.174 547.319 656.696 555.735C652.625 561.686 648.066 567.288 643.067 572.484L641.441 563.172Z" fill="#FC4F00"/>
<path d="M627.298 541.392C627.298 541.392 625.87 536.412 616.773 531.283C607.676 526.154 601.999 523.464 601.999 523.464C601.999 523.464 601.767 536.097 610.299 541.309C616.546 544.906 623.081 547.976 629.837 550.489L627.298 541.392Z" fill="#FC4F00"/>
<path d="M646.62 577.381C646.62 577.381 644.661 572.501 635.1 568.417C625.538 564.334 619.562 562.209 619.562 562.209C619.562 562.209 620.658 574.792 629.754 579.074C636.346 581.995 643.17 584.36 650.156 586.146L646.62 577.381Z" fill="#FC4F00"/>
<path d="M651.434 619.429C651.434 619.429 650.554 614.25 642.038 608.257C633.523 602.265 628.161 598.928 628.161 598.928C628.161 598.928 626.6 611.461 634.585 617.537C640.418 621.784 646.598 625.532 653.061 628.742L651.434 619.429Z" fill="#FC4F00"/>
<path d="M653.326 629.572C653.326 629.572 651.666 624.592 656.431 615.296C661.195 606 664.349 600.572 664.349 600.572C664.349 600.572 671.57 610.93 667.353 620.043C664.177 626.513 660.462 632.705 656.248 638.552L653.326 629.572Z" fill="#FC4F00"/>
<path d="M667.835 671.321C667.835 671.321 668.432 666.108 676.583 659.701C684.734 653.293 689.863 649.591 689.863 649.591C689.863 649.591 692.137 662.025 684.518 668.548C678.937 673.115 672.985 677.207 666.723 680.783L667.835 671.321Z" fill="#FC4F00"/>
<path d="M665.66 658.439C665.66 658.439 664.764 653.26 656.264 647.267C647.765 641.275 642.42 637.938 642.42 637.938C642.42 637.938 640.86 650.471 648.844 656.563C654.682 660.804 660.862 664.552 667.32 667.768L665.66 658.439Z" fill="#FC4F00"/>
<path d="M665.66 686.593C665.66 686.593 666.092 681.347 659.386 673.396C652.679 665.444 648.33 660.863 648.33 660.863C648.33 660.863 643.632 672.582 649.824 680.5C654.362 686.076 659.36 691.263 664.764 696.005L665.66 686.593Z" fill="#FC4F00"/>
<path d="M624.442 531.432C625.741 536.761 627.332 542.015 629.207 547.169C634.635 561.478 643.449 569.795 648.629 582.66C653.808 595.525 648.629 614.2 653.741 630.983C658.854 647.765 667.32 656.165 667.32 667.951C667.32 679.737 662.739 712.522 662.739 712.522" stroke="#455A64" stroke-linecap="round" stroke-linejoin="round"/>
<path d="M627.978 544.812L619.13 540.181" stroke="#455A64" stroke-linecap="round" stroke-linejoin="round"/>
<path d="M626.418 537.973L628.676 531.598" stroke="#455A64" stroke-linecap="round" stroke-linejoin="round"/>
<path d="M648.081 582.129C648.081 582.129 640.694 578.361 633.141 574.609" stroke="#455A64" stroke-linecap="round" stroke-linejoin="round"/>
<path d="M643.051 572.484C645.228 565.645 648.093 559.043 651.6 552.78" stroke="#455A64" stroke-linecap="round" stroke-linejoin="round"/>
<path d="M652.463 626.833C647.538 620.6 641.733 615.114 635.232 610.548" stroke="#455A64" stroke-linecap="round" stroke-linejoin="round"/>
<path d="M654.986 633.871C656.168 628.862 657.761 623.959 659.751 619.213C662.589 612.922 663.071 612.092 663.071 612.092" stroke="#455A64" stroke-linecap="round" stroke-linejoin="round"/>
<path d="M666.922 676.898C669.8 673.331 672.989 670.026 676.45 667.021C678.652 665.4 680.717 663.601 682.625 661.643" stroke="#455A64" stroke-linecap="round" stroke-linejoin="round"/>
<path d="M667.32 667.951C664.949 664.125 662.29 660.485 659.369 657.061C656.491 653.92 653.36 651.022 650.006 648.396" stroke="#455A64" stroke-linecap="round" stroke-linejoin="round"/>
<path d="M664.764 696.005C664.467 692.013 663.109 688.173 660.83 684.883C657.194 680.085 652.911 673.711 651.168 671.204" stroke="#455A64" stroke-linecap="round" stroke-linejoin="round"/>
<path d="M153.832 460.351L146.562 439.585L153.832 448.399L148.122 417.241L156.953 439.585L160.074 395.943L165.27 437.493L170.98 429.193V439.585L177.736 425.557L174.101 449.96L180.326 445.81L170.466 459.305L153.832 460.351Z" fill="#FC4F00"/>
<path d="M176.69 455.155H149.682L154.546 509.686H171.827L176.69 455.155Z" fill="#455A64" stroke="#455A64" stroke-linecap="round" stroke-linejoin="round"/>
<path d="M227.354 509.072H135.34V703.956H227.354V509.072Z" fill="white" stroke="#455A64" stroke-linecap="round" stroke-linejoin="round"/>
<path d="M232.383 509.072H181.338V703.956H232.383V509.072Z" fill="white" stroke="#455A64" stroke-linecap="round" stroke-linejoin="round"/>
<path d="M226.64 509.072H181.338V703.956H226.64V509.072Z" fill="#455A64" stroke="#455A64" stroke-linecap="round" stroke-linejoin="round"/>
<path d="M221.544 658.638H181.338V698.545H221.544V658.638Z" fill="#FC4F00" stroke="#455A64" stroke-linecap="round" stroke-linejoin="round"/>
<path d="M221.544 660.796H181.338V665.909H221.544V660.796Z" fill="white" stroke="#455A64" stroke-linecap="round" stroke-linejoin="round"/>
<path d="M221.544 690.178H181.338V695.291H221.544V690.178Z" fill="white" stroke="#455A64" stroke-linecap="round" stroke-linejoin="round"/>
<path d="M188.958 659.468V709.932" stroke="#455A64" stroke-linecap="round" stroke-linejoin="round"/>
<path d="M202.985 659.468V709.932" stroke="#455A64" stroke-linecap="round" stroke-linejoin="round"/>
<path d="M215.302 659.468V709.932" stroke="#455A64" stroke-linecap="round" stroke-linejoin="round"/>
<path d="M221.544 516.31H181.338V574.991H221.544V516.31Z" fill="#FC4F00" stroke="#455A64" stroke-linecap="round" stroke-linejoin="round"/>
<path d="M221.544 518.767H181.338V524.577H221.544V518.767Z" fill="white" stroke="#455A64" stroke-linecap="round" stroke-linejoin="round"/>
<path d="M221.544 556.382H181.338V562.192H221.544V556.382Z" fill="white" stroke="#455A64" stroke-linecap="round" stroke-linejoin="round"/>
<path d="M188.958 517.239V574.592" stroke="#455A64" stroke-linecap="round" stroke-linejoin="round"/>
<path d="M202.985 517.239V574.592" stroke="#455A64" stroke-linecap="round" stroke-linejoin="round"/>
<path d="M215.302 517.239V574.592" stroke="#455A64" stroke-linecap="round" stroke-linejoin="round"/>
<path d="M221.544 587.026H181.338V645.707H221.544V587.026Z" fill="#FC4F00" stroke="#455A64" stroke-linecap="round" stroke-linejoin="round"/>
<path d="M221.544 589.482H181.338V595.292H221.544V589.482Z" fill="white" stroke="#455A64" stroke-linecap="round" stroke-linejoin="round"/>
<path d="M221.544 627.098H181.338V632.908H221.544V627.098Z" fill="white" stroke="#455A64" stroke-linecap="round" stroke-linejoin="round"/>
<path d="M188.958 587.972V645.308" stroke="#455A64" stroke-linecap="round" stroke-linejoin="round"/>
<path d="M202.985 587.972V645.308" stroke="#455A64" stroke-linecap="round" stroke-linejoin="round"/>
<path d="M215.302 587.972V645.308" stroke="#455A64" stroke-linecap="round" stroke-linejoin="round"/>
<path d="M227.337 574.177H181.338V580.85H227.337V574.177Z" fill="white" stroke="#455A64" stroke-linecap="round" stroke-linejoin="round"/>
<path d="M227.337 645.342H181.338V652.015H227.337V645.342Z" fill="white" stroke="#455A64" stroke-linecap="round" stroke-linejoin="round"/>
<path d="M227.337 509.072V703.939" stroke="#455A64" stroke-linecap="round" stroke-linejoin="round"/>
<path d="M174.848 509.072V703.939H181.338V516.31H226.54V508.989L174.848 509.072Z" fill="white" stroke="#455A64" stroke-linecap="round" stroke-linejoin="round"/>
<path d="M181.338 516.31V509.072" stroke="#455A64" stroke-linecap="round" stroke-linejoin="round"/>
<path d="M226.989 419.549C222.158 410.236 220.133 403.563 220.133 402.019C220.133 398.965 226.773 397.139 226.773 397.139C237.131 391.661 285.852 399.579 307.781 403.231C320.056 405.371 332.474 406.591 344.932 406.883C344.932 406.883 347.969 404.459 351.572 401.405C355.174 398.35 372.272 378.264 378.978 376.505C385.685 374.745 391.76 378.945 391.76 378.945C391.76 378.945 402.733 385.585 400.89 386.863C399.048 388.141 372.272 411.215 365.565 415.482C358.859 419.748 344.865 417.922 332.681 420.362C322.19 422.454 279.694 425.043 269.949 425.84C262.631 427.576 254.951 426.936 248.021 424.014" fill="white"/>
<path d="M391.876 378.879C391.876 378.879 385.784 374.612 379.094 376.438C372.405 378.264 355.34 398.367 351.688 401.338C348.036 404.31 345.048 406.816 345.048 406.816C332.591 406.525 320.173 405.304 307.897 403.164C285.968 399.512 237.247 391.544 226.889 397.072C226.889 397.072 220.249 398.898 220.249 401.953C220.48 403.66 220.92 405.333 221.56 406.933L222.473 407.265C222.473 407.265 234.641 405.986 260.902 406.617C287.164 407.248 347.903 410.85 351.804 412.261C353.464 412.892 365.233 410.236 378.281 405.621C388.241 397.504 399.944 387.361 401.123 386.647C402.849 385.568 391.876 378.879 391.876 378.879Z" fill="#FC4F00"/>
<path opacity="0.5" d="M391.876 378.879C391.876 378.879 385.784 374.612 379.094 376.438C372.405 378.264 355.34 398.367 351.688 401.338C348.036 404.31 345.048 406.816 345.048 406.816C332.591 406.525 320.173 405.304 307.897 403.164C285.968 399.512 237.247 391.544 226.889 397.072C226.889 397.072 220.249 398.898 220.249 401.953C220.48 403.66 220.92 405.333 221.56 406.933L222.473 407.265C222.473 407.265 234.641 405.986 260.902 406.617C287.164 407.248 347.903 410.85 351.804 412.261C353.464 412.892 365.233 410.236 378.281 405.621C388.241 397.504 399.944 387.361 401.123 386.647C402.849 385.568 391.876 378.879 391.876 378.879Z" fill="white"/>
<path d="M226.989 419.549C222.158 410.236 220.133 403.563 220.133 402.019C220.133 398.965 226.773 397.139 226.773 397.139C237.131 391.661 285.852 399.579 307.781 403.231C320.056 405.371 332.474 406.591 344.932 406.883C344.932 406.883 347.969 404.459 351.572 401.405C355.174 398.35 372.272 378.264 378.978 376.505C385.685 374.745 391.76 378.945 391.76 378.945C391.76 378.945 402.733 385.585 400.89 386.863C399.048 388.141 372.272 411.215 365.565 415.482C358.859 419.748 344.865 417.922 332.681 420.362C322.19 422.454 279.694 425.043 269.949 425.84C262.631 427.576 254.951 426.936 248.021 424.014" stroke="#455A64" stroke-linecap="round" stroke-linejoin="round"/>
<path d="M467.539 473.698C468.641 471.606 470.293 469.856 472.318 468.636C474.343 467.416 476.662 466.773 479.026 466.776H589.748C589.748 466.776 597.749 466.776 595.359 481.981C592.969 497.187 560.134 590.031 552.199 618.101C544.264 646.172 542.588 705.334 542.588 705.334H409.788C409.788 705.334 420.312 563.852 467.539 473.698Z" fill="white"/>
<path opacity="0.16" d="M517.405 466.776H479.026C476.662 466.773 474.343 467.416 472.318 468.636C470.293 469.856 468.641 471.606 467.539 473.698C420.312 563.852 409.671 705.284 409.671 705.284H469.232L483.923 649.492L545.177 662.124C545.609 657.443 546.107 652.679 546.688 647.981L545.343 633.041C545.343 633.041 532.794 619.844 528.843 616.541C524.892 613.237 527.515 607.278 526.851 581.531C526.187 555.785 503.08 537.276 494.481 521.423C485.882 505.57 499.112 495.66 510.998 479.807C515.231 474.08 516.957 469.863 517.405 466.776Z" fill="black"/>
<path d="M467.539 473.698C468.641 471.606 470.293 469.856 472.318 468.636C474.343 467.416 476.662 466.773 479.026 466.776H589.748C589.748 466.776 597.749 466.776 595.359 481.981C592.969 497.187 560.134 590.031 552.199 618.101C544.264 646.172 542.588 705.334 542.588 705.334H409.788C409.788 705.334 420.312 563.852 467.539 473.698Z" stroke="#455A64" stroke-linecap="round" stroke-linejoin="round"/>
<path d="M570.542 493.186C559.354 519.298 535.682 622.666 531.831 705.284H542.521C542.521 705.284 544.181 646.056 552.133 618.051C560.084 590.047 592.952 497.187 595.293 481.931C597.633 466.676 589.682 466.726 589.682 466.726C589.682 466.726 579.523 472.254 570.542 493.186Z" fill="#455A64" stroke="#455A64" stroke-linecap="round" stroke-linejoin="round"/>
<path d="M376.04 440.996C376.04 440.996 358.377 430.637 351.687 412.377C344.998 394.117 404.06 364.868 429.707 363.042C455.354 361.216 462.592 367.906 477.847 394.101C493.103 420.296 503.428 456.218 495.51 473.88C487.592 491.543 474.195 495.809 483.89 510.4C493.584 524.992 521.041 566.425 519.215 585.914C517.389 605.402 498.514 622.434 471.075 624.293C443.635 626.152 407.115 609.668 376.67 582.793C346.226 555.917 354.128 516.393 365.05 503.611C375.973 490.829 392.457 485.949 393.669 473.167C394.881 460.385 376.04 440.996 376.04 440.996Z" fill="#455A64" stroke="#455A64" stroke-linecap="round" stroke-linejoin="round"/>
<path d="M451.321 412.095C460.7 429.558 472.436 452.948 476.105 467.074C482.512 491.808 449.545 507.379 458.691 519.281" stroke="white" stroke-linecap="round" stroke-linejoin="round"/>
<path d="M438.539 389.22C438.539 389.22 442.191 395.445 447.237 404.608" stroke="white" stroke-linecap="round" stroke-linejoin="round"/>
<path d="M487.741 433.161C488.823 436.434 489.525 439.82 489.833 443.253" stroke="white" stroke-linecap="round" stroke-linejoin="round"/>
<path d="M444.88 380.14C444.88 380.14 473.731 401.455 485.251 426.969" stroke="white" stroke-linecap="round" stroke-linejoin="round"/>
<path d="M404.841 396.126C384.24 401.903 354.609 411.282 357.016 416.693" stroke="white" stroke-linecap="round" stroke-linejoin="round"/>
<path d="M423.881 391.046C423.881 391.046 419.482 392.142 412.925 393.902" stroke="white" stroke-linecap="round" stroke-linejoin="round"/>
<path d="M398.4 380.289C410.2 376.571 422.559 374.941 434.92 375.475" stroke="white" stroke-linecap="round" stroke-linejoin="round"/>
<path d="M390 383.726C391.866 382.754 393.796 381.911 395.777 381.203" stroke="white" stroke-linecap="round" stroke-linejoin="round"/>
<path d="M220.133 402.019C220.125 402.135 220.125 402.251 220.133 402.367C220.125 402.251 220.125 402.135 220.133 402.019V402.019ZM226.988 419.548C224.193 414.429 221.966 409.018 220.348 403.413C221.958 409.021 224.185 414.432 226.988 419.548V419.548ZM220.166 402.467C220.166 402.567 220.166 402.683 220.166 402.832C220.199 402.683 220.182 402.567 220.166 402.467V402.467ZM220.249 402.932C220.269 403.095 220.303 403.256 220.348 403.413C220.303 403.256 220.269 403.095 220.249 402.932ZM226.988 419.532C233.197 431.291 240.921 442.185 249.963 451.935C271.891 475.69 335.237 537.823 341.263 542.09C347.289 546.356 345.529 558.524 341.263 570.708C336.997 582.892 321.16 600.588 321.774 620.043C322.389 639.498 328.414 669.378 327.867 675.471C327.319 681.563 312.08 702.28 312.08 702.28H469.216C469.216 702.28 449.628 677.38 449.628 668.864C449.628 660.348 476.52 551.236 477.731 543.318C478.943 535.4 474.079 529.922 464.335 529.308C454.591 528.693 417.44 520.775 415.614 514.683C413.788 508.591 425.358 485.45 425.358 485.45L388.838 487.276C388.838 487.276 387.012 503.113 384.572 506.167C382.132 509.222 378.48 503.113 369.948 498.863C361.415 494.614 345.048 490.945 338.889 486.065C332.73 481.184 274.332 426.305 274.332 426.305" fill="white"/>
<path d="M348.218 490.763C351.256 496.075 354.294 500.872 354.294 500.872C354.294 500.872 364.536 506.632 367.092 506.632C369.649 506.632 385.02 514.932 385.02 514.932C385.02 514.932 397.836 511.728 393.32 500.839C391.896 498.051 390.098 495.471 387.975 493.17C387.212 498 385.983 504.325 384.539 506.134C382.099 509.172 378.447 503.08 369.914 498.83C364.387 496.075 355.439 493.551 348.218 490.763Z" fill="#FC4F00"/>
<path d="M316.944 466.112C298.136 448.698 274.332 426.371 274.332 426.371L260.487 424.379L258.827 425.309C258.827 425.309 297.904 459.887 306.22 463.738C309.585 465.284 313.241 466.094 316.944 466.112Z" fill="#FC4F00"/>
<path d="M336.648 484.139L335.154 482.811C335.917 484.073 336.349 484.87 336.349 484.87L336.648 484.139Z" fill="#FC4F00"/>
<g opacity="0.5">
<path d="M348.218 490.763C351.256 496.075 354.294 500.872 354.294 500.872C354.294 500.872 364.536 506.632 367.092 506.632C369.649 506.632 385.02 514.932 385.02 514.932C385.02 514.932 397.836 511.728 393.32 500.839C391.896 498.051 390.098 495.471 387.975 493.17C387.212 498 385.983 504.325 384.539 506.134C382.099 509.172 378.447 503.08 369.914 498.83C364.387 496.075 355.439 493.551 348.218 490.763Z" fill="white"/>
<path d="M316.944 466.112C298.136 448.698 274.332 426.371 274.332 426.371L260.487 424.379L258.827 425.309C258.827 425.309 297.904 459.887 306.22 463.738C309.585 465.284 313.241 466.094 316.944 466.112Z" fill="white"/>
<path d="M336.648 484.139L335.154 482.811C335.917 484.073 336.349 484.87 336.349 484.87L336.648 484.139Z" fill="white"/>
</g>
<path d="M226.988 419.532C233.197 431.291 240.921 442.185 249.963 451.935C271.891 475.69 335.237 537.823 341.263 542.09C347.289 546.356 345.529 558.524 341.263 570.708C336.997 582.892 321.16 600.588 321.774 620.043C322.389 639.498 328.414 669.378 327.867 675.471C327.319 681.563 312.08 702.28 312.08 702.28H469.216C469.216 702.28 449.628 677.38 449.628 668.864C449.628 660.348 476.52 551.236 477.731 543.318C478.943 535.4 474.079 529.922 464.335 529.308C454.591 528.693 417.44 520.775 415.614 514.683C413.788 508.591 425.358 485.45 425.358 485.45L388.838 487.276C388.838 487.276 387.012 503.113 384.572 506.167C382.132 509.222 378.48 503.113 369.948 498.863C361.415 494.614 345.048 490.945 338.889 486.065C332.73 481.184 274.332 426.305 274.332 426.305M220.133 402.019C220.125 402.135 220.125 402.251 220.133 402.367C220.125 402.251 220.125 402.135 220.133 402.019V402.019ZM226.988 419.548C224.193 414.429 221.966 409.018 220.348 403.413C221.958 409.021 224.185 414.432 226.988 419.548V419.548ZM220.166 402.467C220.166 402.567 220.166 402.683 220.166 402.832C220.199 402.683 220.182 402.567 220.166 402.467V402.467ZM220.249 402.932C220.269 403.095 220.303 403.256 220.348 403.413C220.303 403.256 220.269 403.095 220.249 402.932Z" stroke="#455A64" stroke-linecap="round" stroke-linejoin="round"/>
<path d="M274.332 426.371C274.332 426.371 254.876 426.736 244.02 417.789" stroke="#455A64" stroke-linecap="round" stroke-linejoin="round"/>
<path d="M415.631 514.683C413.805 508.607 425.375 485.45 425.375 485.45L388.855 487.276C388.855 487.276 387.029 503.113 384.589 506.167C382.149 509.222 378.497 503.113 369.964 498.863C369.317 498.531 368.603 498.216 367.873 497.9L365.665 532.611C365.665 532.611 368.869 566.226 407.281 559.835C422.835 557.245 439.435 543.368 453.761 527.764C439.02 525.058 417.025 519.348 415.631 514.683Z" fill="white"/>
<path d="M414.601 490.049C414.601 490.049 412.394 502.432 410.617 516.127C408.841 529.822 407.53 540.015 407.53 540.015L415.631 514.683L424.761 487.841C424.761 487.841 415.929 487.841 414.601 490.049Z" fill="#FC4F00"/>
<path opacity="0.5" d="M414.601 490.049C414.601 490.049 412.394 502.432 410.617 516.127C408.841 529.822 407.53 540.015 407.53 540.015L415.631 514.683L424.761 487.841C424.761 487.841 415.929 487.841 414.601 490.049Z" fill="white"/>
<path d="M415.631 514.683C413.805 508.607 425.375 485.45 425.375 485.45L388.855 487.276C388.855 487.276 387.029 503.113 384.589 506.167C382.149 509.222 378.497 503.113 369.964 498.863C369.317 498.531 368.603 498.216 367.873 497.9L365.665 532.611C365.665 532.611 368.869 566.226 407.281 559.835C422.835 557.245 439.435 543.368 453.761 527.764C439.02 525.058 417.025 519.348 415.631 514.683Z" stroke="#455A64" stroke-linecap="round" stroke-linejoin="round"/>
<path d="M384.572 506.167C382.132 509.205 378.48 503.113 369.947 498.863C364.569 496.158 356.003 493.701 348.915 491.045C346.907 486.281 344.251 480.072 342.541 476.321C339.503 469.681 334.623 473.88 334.623 473.88C332.076 470.985 330.019 467.693 328.53 464.136C325.493 457.496 320.612 458.044 313.922 456.832C307.233 455.62 293.206 442.822 293.206 442.822C293.206 442.822 286.649 437.842 283.943 435.368C280.789 441.577 273.236 452.5 256.901 459.322C282.947 486.53 335.785 538.222 341.329 542.106C347.421 546.356 345.595 558.54 341.329 570.725C337.063 582.909 321.226 600.605 321.841 620.06C322.455 639.515 328.481 669.395 327.933 675.487C327.385 680.916 315.234 697.931 312.594 701.583L318.786 702.28H351.023C350.841 685.945 350.857 619.28 362.029 592.72C374.828 562.192 384.572 506.167 384.572 506.167Z" fill="#FC4F00"/>
<path opacity="0.16" d="M369.948 498.863C364.569 496.158 356.004 493.701 348.915 491.045C346.907 486.281 344.251 480.072 342.541 476.321C339.503 469.681 334.623 473.88 334.623 473.88C332.077 470.985 330.019 467.693 328.531 464.136C325.493 457.496 320.612 458.044 313.923 456.832C307.233 455.62 293.206 442.822 293.206 442.822C293.206 442.822 286.649 437.842 283.943 435.368C282.593 438.005 280.986 440.501 279.146 442.822C290.035 452.035 302.054 461.796 306.253 463.738C314.553 467.572 316.496 464.369 322.853 468.22C329.211 472.071 336.299 484.82 336.299 484.82C336.299 484.82 340.15 474.561 343.354 481.616C346.558 488.671 354.244 500.822 354.244 500.822C354.244 500.822 364.486 506.582 367.043 506.582C369.051 506.582 378.895 511.695 383.078 513.903C384.008 509.039 384.522 506.118 384.522 506.118C382.132 509.205 378.48 503.113 369.948 498.863Z" fill="black"/>
<path d="M384.572 506.167C382.132 509.205 378.48 503.113 369.947 498.863C364.569 496.158 356.003 493.701 348.915 491.045C346.907 486.281 344.251 480.072 342.541 476.321C339.503 469.681 334.623 473.88 334.623 473.88C332.076 470.985 330.019 467.693 328.53 464.136C325.493 457.496 320.612 458.044 313.922 456.832C307.233 455.62 293.206 442.822 293.206 442.822C293.206 442.822 286.649 437.842 283.943 435.368C280.789 441.577 273.236 452.5 256.901 459.322C282.947 486.53 335.785 538.222 341.329 542.106C347.421 546.356 345.595 558.54 341.329 570.725C337.063 582.909 321.226 600.605 321.841 620.06C322.455 639.515 328.481 669.395 327.933 675.487C327.385 680.916 315.234 697.931 312.594 701.583L318.786 702.28H351.023C350.841 685.945 350.857 619.28 362.029 592.72C374.828 562.192 384.572 506.167 384.572 506.167Z" stroke="#455A64" stroke-linecap="round" stroke-linejoin="round"/>
<path d="M385.004 504.043C385.004 504.043 377.434 501.719 372.77 505.802C368.105 509.886 361.15 530.835 357.049 553.56C354.522 566.79 356.266 580.48 362.029 592.653C362.029 592.653 371.608 567.538 374.513 555.303C377.418 543.069 385.004 504.043 385.004 504.043Z" fill="#FC4F00"/>
<path opacity="0.16" d="M370.479 507.744C370.479 507.744 375.957 506.416 378.215 507.18C380.116 507.995 381.893 509.074 383.493 510.384L385.004 504.042C382.738 502.885 380.168 502.461 377.65 502.831C373.882 503.594 370.479 507.744 370.479 507.744Z" fill="black"/>
<path d="M385.004 504.043C385.004 504.043 377.434 501.719 372.77 505.802C368.105 509.886 361.15 530.835 357.049 553.56C354.522 566.79 356.266 580.48 362.029 592.653C362.029 592.653 371.608 567.538 374.513 555.303C377.418 543.069 385.004 504.043 385.004 504.043Z" stroke="#455A64" stroke-linecap="round" stroke-linejoin="round"/>
<path d="M334.025 506.034L343.769 545.625L321.841 495.676" stroke="#455A64" stroke-linecap="round" stroke-linejoin="round"/>
<path d="M398.217 702.28H469.232C469.232 702.28 449.644 677.38 449.644 668.864C449.644 660.348 476.536 551.236 477.748 543.318C478.96 535.4 474.096 529.922 464.352 529.308C454.608 528.694 417.457 520.775 415.631 514.683C415.631 514.683 401.62 564.018 396.757 597.517C392.573 626.252 396.906 685.879 398.217 702.28Z" fill="#FC4F00"/>
<path opacity="0.16" d="M464.352 529.308C456.367 528.81 429.99 523.398 419.714 518.119L423.449 526.751C430.217 530.342 437.495 532.872 445.029 534.255C457.396 536.462 468.9 536.031 476.42 547.086L476.785 547.634C477.25 545.509 477.565 544.015 477.665 543.318C478.976 535.4 474.096 529.922 464.352 529.308Z" fill="black"/>
<path d="M398.217 702.28H469.232C469.232 702.28 449.644 677.38 449.644 668.864C449.644 660.348 476.536 551.236 477.748 543.318C478.96 535.4 474.096 529.922 464.352 529.308C454.608 528.694 417.457 520.775 415.631 514.683C415.631 514.683 401.62 564.018 396.757 597.517C392.573 626.252 396.906 685.879 398.217 702.28Z" stroke="#455A64" stroke-linecap="round" stroke-linejoin="round"/>
<path d="M415.631 514.683C415.631 514.683 396.84 574.443 396.757 597.517C396.757 597.517 423.45 565.197 426.936 542.488C430.422 519.779 415.631 514.683 415.631 514.683Z" fill="#FC4F00"/>
<path opacity="0.16" d="M412.394 522.319C415.217 522.224 418.021 522.819 420.564 524.051C423.106 525.283 425.31 527.116 426.985 529.391C426.985 529.391 423.3 518.551 415.631 514.683L412.394 522.319Z" fill="black"/>
<path d="M415.631 514.683C415.631 514.683 396.84 574.443 396.757 597.517C396.757 597.517 423.45 565.197 426.936 542.488C430.422 519.779 415.631 514.683 415.631 514.683Z" stroke="#455A64" stroke-linecap="round" stroke-linejoin="round"/>
<path d="M616.242 691.041C616.242 691.041 630.003 691.606 639.017 692.901C645.028 693.716 651.08 694.198 657.144 694.345C657.144 694.345 652.164 684.285 646.852 681.447C641.54 678.608 631.912 673.528 623.844 674.657C615.777 675.786 604.24 683.92 605.203 686.51C606.165 689.099 610.465 690.261 616.242 691.041Z" fill="white"/>
<path d="M616.242 691.041C616.242 691.041 630.003 691.606 639.017 692.901C645.028 693.716 651.08 694.198 657.144 694.345C657.144 694.345 652.164 684.285 646.852 681.447C641.54 678.608 631.912 673.528 623.844 674.657C615.777 675.786 604.24 683.92 605.203 686.51C606.165 689.099 610.465 690.261 616.242 691.041Z" fill="#FC4F00"/>
<path opacity="0.5" d="M616.242 691.041C616.242 691.041 630.003 691.606 639.017 692.901C645.028 693.716 651.08 694.198 657.144 694.345C657.144 694.345 652.164 684.285 646.852 681.447C641.54 678.608 631.912 673.528 623.844 674.657C615.777 675.786 604.24 683.92 605.203 686.51C606.165 689.099 610.465 690.261 616.242 691.041Z" fill="white"/>
<path d="M616.242 691.041C616.242 691.041 630.003 691.606 639.017 692.901C645.028 693.716 651.08 694.198 657.144 694.345C657.144 694.345 652.164 684.285 646.852 681.447C641.54 678.608 631.912 673.528 623.844 674.657C615.777 675.786 604.24 683.92 605.203 686.51C606.165 689.099 610.465 690.261 616.242 691.041Z" stroke="#455A64" stroke-linecap="round" stroke-linejoin="round"/>
<path d="M639.1 686.925C639.1 686.925 650.006 681.264 652.729 681.347C655.451 681.43 673.545 693.664 672.649 695.623C672.04 696.531 671.161 697.225 670.136 697.607C669.111 697.988 667.993 698.037 666.938 697.748C664.93 696.802 652.745 691.622 652.745 691.622L644.777 693.498L639.1 686.925Z" fill="white"/>
<path d="M639.1 686.925C639.1 686.925 650.006 681.264 652.729 681.347C655.451 681.43 673.545 693.664 672.649 695.623C671.752 697.582 667.469 699.175 666.938 697.748C666.407 696.32 652.745 691.622 652.745 691.622L644.777 693.498L639.1 686.925Z" fill="#FC4F00"/>
<path opacity="0.5" d="M639.1 686.925C639.1 686.925 650.006 681.264 652.729 681.347C655.451 681.43 673.545 693.664 672.649 695.623C671.752 697.582 667.469 699.175 666.938 697.748C666.407 696.32 652.745 691.622 652.745 691.622L644.777 693.498L639.1 686.925Z" fill="white"/>
<path d="M639.1 686.925C639.1 686.925 650.006 681.264 652.729 681.347C655.451 681.43 673.545 693.664 672.649 695.623C672.04 696.531 671.161 697.225 670.136 697.607C669.111 697.988 667.993 698.037 666.938 697.748C664.93 696.802 652.745 691.622 652.745 691.622L644.777 693.498L639.1 686.925Z" stroke="#455A64" stroke-linecap="round" stroke-linejoin="round"/>
<path d="M631.314 677.612C631.314 677.612 645.856 677.147 648.744 678.608C651.633 680.069 664.68 702.446 662.722 704.072C660.763 705.699 655.351 705.218 655.517 703.408C655.683 701.599 643.499 689.614 643.499 689.614L634.02 687.539L631.314 677.612Z" fill="white"/>
<path d="M631.314 677.612C631.314 677.612 645.856 677.147 648.744 678.608C651.633 680.069 664.68 702.446 662.722 704.072C660.763 705.699 655.351 705.218 655.517 703.408C655.683 701.599 643.499 689.614 643.499 689.614L634.02 687.539L631.314 677.612Z" fill="#FC4F00"/>
<path opacity="0.5" d="M631.314 677.612C631.314 677.612 645.856 677.147 648.744 678.608C651.633 680.069 664.68 702.446 662.722 704.072C660.763 705.699 655.351 705.218 655.517 703.408C655.683 701.599 643.499 689.614 643.499 689.614L634.02 687.539L631.314 677.612Z" fill="white"/>
<path d="M631.314 677.612C631.314 677.612 645.856 677.147 648.744 678.608C651.633 680.069 664.68 702.446 662.722 704.072C660.763 705.699 655.351 705.218 655.517 703.408C655.683 701.599 643.499 689.614 643.499 689.614L634.02 687.539L631.314 677.612Z" stroke="#455A64" stroke-linecap="round" stroke-linejoin="round"/>
<path d="M622.699 674.608C622.699 674.608 637.423 674.126 640.345 675.62C643.267 677.114 656.48 699.74 654.488 701.4C652.496 703.06 647.051 702.545 647.217 700.719C647.383 698.893 635.05 686.759 635.05 686.759L625.455 684.651L622.699 674.608Z" fill="white"/>
<path d="M622.699 674.608C622.699 674.608 637.423 674.126 640.345 675.62C643.267 677.114 656.48 699.74 654.488 701.4C652.496 703.06 647.051 702.545 647.217 700.719C647.383 698.893 635.05 686.759 635.05 686.759L625.455 684.651L622.699 674.608Z" fill="#FC4F00"/>
<path opacity="0.5" d="M622.699 674.608C622.699 674.608 637.423 674.126 640.345 675.62C643.267 677.114 656.48 699.74 654.488 701.4C652.496 703.06 647.051 702.545 647.217 700.719C647.383 698.893 635.05 686.759 635.05 686.759L625.455 684.651L622.699 674.608Z" fill="white"/>
<path d="M622.699 674.608C622.699 674.608 637.423 674.126 640.345 675.62C643.267 677.114 656.48 699.74 654.488 701.4C652.496 703.06 647.051 702.545 647.217 700.719C647.383 698.893 635.05 686.759 635.05 686.759L625.455 684.651L622.699 674.608Z" stroke="#455A64" stroke-linecap="round" stroke-linejoin="round"/>
<path d="M455.288 590.246C465.946 606.664 487.343 648.263 493.585 652.944C503.329 660.248 568.467 677.977 574.742 682.824C581.017 687.672 580.585 692.535 586.528 694.312C592.471 696.088 614.748 701.184 623.247 701.981C631.746 702.778 627.945 697.515 627.945 697.515L613.453 687.555L626.086 684.435C626.086 684.435 638.752 699.673 641.125 700.503C643.499 701.333 647.682 700.503 647.417 698.628C646.952 695.623 633.44 671.038 628.642 669.993C623.845 668.947 594.728 672.981 594.728 672.981C594.728 672.981 533.657 631.796 532.561 630.335C532.561 630.335 528.909 619.977 525.921 615.711C522.933 611.444 521.041 612.673 521.041 612.673C521.041 612.673 522.269 607.178 520.443 605.352L510.699 595.608L510.351 596.073C508.691 592.753 507.031 588.968 505.205 584.652C500.108 572.65 482.064 538.969 479.026 534.105C476.752 530.47 457.695 527.863 448.034 526.768" fill="#FC4F00"/>
<path opacity="0.16" d="M497.718 591.292C505.686 598.364 503.03 598.364 501.254 604.572C499.478 610.781 502.582 602.364 510.102 602.813C517.621 603.261 515.414 612.972 514.517 614.748C513.621 616.524 523.813 618.732 522.037 622.699C520.261 626.667 510.102 632.427 504.358 638.187C498.614 643.947 519.381 628.891 526.453 628.46C528.611 628.31 530.387 628.592 531.881 628.559C530.314 624.118 528.3 619.846 525.872 615.81C522.817 611.544 520.991 612.773 520.991 612.773C520.991 612.773 522.22 607.278 520.394 605.452L510.649 595.708L510.301 596.173C508.641 592.853 506.981 589.068 505.155 584.752C500.059 572.75 482.014 539.069 478.977 534.205C476.702 530.569 457.646 527.963 447.984 526.868L448.864 534.553L449.08 534.719C449.08 534.719 461.015 536.927 464.999 537.375C468.983 537.824 473.847 541.343 473.399 544.015C472.951 546.688 461.464 558.607 464.999 559.503C468.535 560.4 472.519 550.655 476.503 551.983C480.487 553.311 489.7 584.221 497.718 591.292Z" fill="black"/>
<path d="M455.288 590.246C465.946 606.664 487.343 648.263 493.585 652.944C503.329 660.248 568.467 677.977 574.742 682.824C581.017 687.672 580.585 692.535 586.528 694.312C592.471 696.088 614.748 701.184 623.247 701.981C631.746 702.778 627.945 697.515 627.945 697.515L613.453 687.555L626.086 684.435C626.086 684.435 638.752 699.673 641.125 700.503C643.499 701.333 647.682 700.503 647.417 698.628C646.952 695.623 633.44 671.038 628.642 669.993C623.845 668.947 594.728 672.981 594.728 672.981C594.728 672.981 533.657 631.796 532.561 630.335C532.561 630.335 528.909 619.977 525.921 615.711C522.933 611.444 521.041 612.673 521.041 612.673C521.041 612.673 522.269 607.178 520.443 605.352L510.699 595.608L510.351 596.073C508.691 592.753 507.031 588.968 505.205 584.652C500.108 572.65 482.064 538.969 479.026 534.105C476.752 530.47 457.695 527.863 448.034 526.768" stroke="#455A64" stroke-linecap="round" stroke-linejoin="round"/>
<path d="M455.454 567.72C455.006 569.214 454.624 570.708 454.325 572.235" stroke="#455A64" stroke-linecap="round" stroke-linejoin="round"/>
<path d="M471.59 540.247C466.373 546.193 461.974 552.808 458.509 559.918" stroke="#455A64" stroke-linecap="round" stroke-linejoin="round"/>
<path d="M495.975 634.502C500.457 627.862 507.595 619.446 515.463 617.039" stroke="#455A64" stroke-linecap="round" stroke-linejoin="round"/>
<path d="M491.011 642.669C491.011 642.669 491.808 641.109 493.236 638.751" stroke="#455A64" stroke-linecap="round" stroke-linejoin="round"/>
<path d="M491.011 632.178C491.011 632.178 499.162 611.793 507.312 606.548C515.463 601.302 510.798 611.793 510.798 611.793" stroke="#455A64" stroke-linecap="round" stroke-linejoin="round"/>
<path d="M574.742 682.841C581.033 687.705 580.585 692.552 586.528 694.328C592.471 696.104 614.748 701.201 623.247 701.997C631.746 702.794 627.945 697.532 627.945 697.532L613.453 687.572L626.086 684.451C626.086 684.451 638.751 699.69 641.125 700.52C643.499 701.35 648.014 701.649 647.417 698.644C646.255 692.834 633.439 671.055 628.642 670.009C623.845 668.963 594.728 672.997 594.728 672.997C594.728 672.997 539.102 634.817 533.009 630.684C509.388 632.958 498.149 645.325 493.418 652.745L493.584 652.878C503.329 660.248 568.467 677.977 574.742 682.841Z" fill="white"/>
<path d="M647.4 698.711C644.379 691.324 633.423 671.121 628.626 670.076C623.828 669.03 594.712 673.064 594.712 673.064C594.712 673.064 539.085 634.884 532.993 630.75C526.793 631.289 520.71 632.761 514.949 635.116C523.73 640.096 582.262 673.296 589.649 674.773C597.484 676.433 623.629 672.134 628.227 675.222C631.149 677.18 639.847 690.975 645.724 700.769C647.4 700.52 648.014 700.205 647.4 698.711Z" fill="#FC4F00"/>
<path opacity="0.5" d="M647.4 698.711C642.686 688.136 633.423 671.121 628.626 670.076C623.828 669.03 594.712 673.064 594.712 673.064C594.712 673.064 539.085 634.884 532.993 630.75C526.793 631.289 520.71 632.761 514.949 635.116C523.73 640.096 582.262 673.296 589.649 674.773C597.484 676.433 623.629 672.134 628.227 675.222C631.149 677.18 639.847 690.975 645.724 700.769C647.4 700.52 648.064 700.188 647.4 698.711Z" fill="white"/>
<path d="M574.742 682.841C581.033 687.705 580.585 692.552 586.528 694.328C592.471 696.104 614.748 701.201 623.247 701.997C631.746 702.794 627.945 697.532 627.945 697.532L613.453 687.572L626.086 684.451C626.086 684.451 638.751 699.69 641.125 700.52C643.499 701.35 648.014 701.649 647.417 698.644C646.255 692.834 633.439 671.055 628.642 670.009C623.845 668.963 594.728 672.997 594.728 672.997C594.728 672.997 539.102 634.817 533.009 630.684C509.388 632.958 498.149 645.325 493.418 652.745L493.584 652.878C503.329 660.248 568.467 677.977 574.742 682.841Z" stroke="#455A64" stroke-linecap="round" stroke-linejoin="round"/>
<path d="M428.031 392.972L378.032 413.838C377.426 422.625 375.25 431.233 371.608 439.253C365.698 451.753 369.151 475.408 374.828 488.173C380.505 500.938 405.521 495.942 414.668 494.348C420.871 493.168 426.947 491.395 432.812 489.053C435.482 490.082 438.37 490.415 441.205 490.02C444.039 489.625 446.726 488.515 449.013 486.795C449.013 486.795 422.254 411.68 428.031 392.972Z" fill="white"/>
<path d="M428.031 392.972L378.032 413.838C377.426 422.625 375.25 431.233 371.608 439.253C365.698 451.753 369.151 475.408 374.828 488.173C375.778 490.226 377.307 491.956 379.227 493.153V492.19C379.227 492.19 369.948 469.199 371.707 455.936C373.467 442.672 381.003 436.016 381.883 427.633C382.763 419.25 382.315 415.266 399.13 409.074C415.946 402.882 423.001 397.139 424.761 403.314C426.52 409.489 433.609 450.192 438.472 459.92C443.336 469.647 442.888 479.84 435.385 484.239C427.801 488.791 419.675 492.372 411.199 494.896L414.734 494.282C420.938 493.102 427.014 491.328 432.878 488.986C435.548 490.015 438.437 490.348 441.271 489.953C444.105 489.558 446.793 488.449 449.08 486.729C449.08 486.729 422.254 411.68 428.031 392.972Z" fill="#FC4F00"/>
<path opacity="0.5" d="M428.031 392.972L378.032 413.838C377.426 422.625 375.25 431.233 371.608 439.253C365.698 451.753 369.151 475.408 374.828 488.173C375.778 490.226 377.307 491.956 379.227 493.153V492.19C379.227 492.19 369.948 469.199 371.707 455.936C373.467 442.672 381.003 436.016 381.883 427.633C382.763 419.25 382.315 415.266 399.13 409.074C415.946 402.882 423.001 397.139 424.761 403.314C426.52 409.489 433.609 450.192 438.472 459.92C443.336 469.647 442.888 479.84 435.385 484.239C427.801 488.791 419.675 492.372 411.199 494.896L414.734 494.282C420.938 493.102 427.014 491.328 432.878 488.986C435.548 490.015 438.437 490.348 441.271 489.953C444.105 489.558 446.793 488.449 449.08 486.729C449.08 486.729 422.254 411.68 428.031 392.972Z" fill="white"/>
<path d="M428.031 392.972L378.032 413.838C377.426 422.625 375.25 431.233 371.608 439.253C365.698 451.753 369.151 475.408 374.828 488.173C380.505 500.938 405.521 495.942 414.668 494.348C420.871 493.168 426.947 491.395 432.812 489.053C435.482 490.082 438.37 490.415 441.205 490.02C444.039 489.625 446.726 488.515 449.013 486.795C449.013 486.795 422.254 411.68 428.031 392.972Z" stroke="#455A64" stroke-linecap="round" stroke-linejoin="round"/>
<path d="M402.766 425.69C402.902 428.63 402.537 431.571 401.687 434.389C400.359 437.709 387.826 450.756 388.208 452.167C388.59 453.578 389.718 458.11 391.943 458.542" stroke="#455A64" stroke-linecap="round" stroke-linejoin="round"/>
<path d="M416.66 437.36C418.403 433.874 424.13 437.277 424.047 445.129" stroke="#455A64" stroke-linecap="round" stroke-linejoin="round"/>
<path d="M388.274 427.101C388.274 427.101 393.154 424.96 397.52 432.862" stroke="#455A64" stroke-linecap="round" stroke-linejoin="round"/>
<path d="M409.721 448.864C415.361 449.148 420.723 451.397 424.877 455.222" stroke="#455A64" stroke-width="0.5" stroke-linecap="round" stroke-linejoin="round"/>
<path d="M382.381 438.489C385.297 438.878 388.145 439.666 390.847 440.83" stroke="#455A64" stroke-width="0.5" stroke-linecap="round" stroke-linejoin="round"/>
<path d="M402.218 418.32C400.929 417.639 399.499 417.266 398.042 417.231C396.584 417.197 395.138 417.501 393.818 418.121C389.353 420.262 386.614 422.619 386.913 419.88C387.212 417.141 392.457 414.12 394.034 413.722C395.611 413.323 402.666 412.228 402.218 418.32Z" fill="#455A64"/>
<path d="M414.734 412.128C419.388 415.893 423.085 420.706 425.524 426.172C428.844 434.472 431.467 425.408 428.844 419.98C426.222 414.552 418.635 408.775 414.734 412.128Z" fill="#455A64"/>
<path d="M449.744 500.988C449.744 504.856 447.552 507.993 444.863 507.993C442.174 507.993 440 504.856 440 500.988C440 497.12 442.174 487.277 444.863 487.277C447.552 487.277 449.744 497.12 449.744 500.988Z" fill="#FC4F00" stroke="#455A64" stroke-linecap="round" stroke-linejoin="round"/>
<path d="M417.091 435.85C416.901 436.357 416.751 436.879 416.643 437.41C416.162 439.867 415.68 444.996 416.643 445.212C417.606 445.428 419.963 440.63 420.378 438.174C420.472 437.692 420.527 437.203 420.544 436.713C419.411 436.358 418.258 436.069 417.091 435.85Z" fill="#455A64"/>
<path d="M388.772 426.62C388.625 427.054 388.508 427.498 388.424 427.948C387.926 430.405 387.942 435.8 388.988 435.999C390.034 436.198 391.744 431.152 392.225 428.695C392.345 428.099 392.412 427.494 392.424 426.886C391.236 426.559 389.995 426.469 388.772 426.62V426.62Z" fill="#455A64"/>
<path d="M416.66 437.443L418.32 434.356C420.952 434.868 423.336 436.248 425.093 438.273" stroke="#455A64" stroke-width="0.75" stroke-linecap="round" stroke-linejoin="round"/>
<path d="M388.772 426.62L390.432 424.678C390.432 424.678 391.146 424.329 395.063 426.105" stroke="#455A64" stroke-width="0.75" stroke-linecap="round" stroke-linejoin="round"/>
<path d="M382.48 471.639C382.48 471.639 385.269 466.51 389.004 466.51C392.739 466.51 395.528 474.893 395.528 474.893" stroke="#455A64" stroke-linecap="round" stroke-linejoin="round"/>
<path d="M262.28 692.851C258.67 692.671 255.125 691.827 251.822 690.361C251.361 690.19 250.94 689.928 250.584 689.59C250.228 689.252 249.945 688.845 249.751 688.393C249.558 687.942 249.458 687.456 249.458 686.965C249.458 686.474 249.559 685.988 249.753 685.537C249.947 685.086 250.23 684.679 250.587 684.341C250.943 684.003 251.364 683.741 251.825 683.571C252.286 683.401 252.776 683.327 253.266 683.353C253.757 683.378 254.237 683.504 254.677 683.721C257.997 685.132 262.297 686.012 263.442 685.514C265.55 683.156 268.787 668.914 264.604 662.041C263.658 660.514 262.778 660.232 262.197 660.165C259.823 659.833 256.304 662.274 255.059 663.485C254.712 663.812 254.305 664.068 253.859 664.237C253.414 664.407 252.94 664.487 252.463 664.473C251.987 664.459 251.518 664.352 251.083 664.157C250.649 663.961 250.257 663.683 249.93 663.336C249.603 662.989 249.347 662.582 249.178 662.136C249.008 661.691 248.928 661.217 248.942 660.74C248.956 660.264 249.063 659.795 249.258 659.36C249.454 658.926 249.732 658.534 250.079 658.207C250.726 657.576 256.719 652.181 263.11 653.044C264.695 653.275 266.206 653.869 267.524 654.779C268.843 655.689 269.934 656.89 270.713 658.29C276.871 668.333 272.655 687.439 267.924 691.224C266.28 692.387 264.291 692.96 262.28 692.851V692.851Z" fill="white"/>
<path d="M267.144 660.946C266.708 659.915 266.027 659.006 265.158 658.3C264.29 657.594 263.262 657.111 262.164 656.895C258.014 656.231 254.113 660.398 253.681 660.863C253.284 661.341 253.039 661.926 252.977 662.544C252.915 663.162 253.039 663.785 253.332 664.332C253.985 664.201 254.589 663.891 255.075 663.436C256.32 662.274 259.84 659.833 262.213 660.116C262.794 660.116 263.674 660.464 264.62 661.991C268.804 668.797 265.567 683.107 263.458 685.464C262.313 685.962 258.03 685.082 254.694 683.671C254.283 683.498 253.844 683.403 253.399 683.389C253.429 683.844 253.573 684.284 253.816 684.67C254.06 685.055 254.395 685.374 254.793 685.597C256.892 686.718 259.208 687.374 261.583 687.522C262.938 687.587 264.265 687.123 265.284 686.227C268.405 683.356 271.161 668.665 267.144 660.946Z" fill="#FC4F00"/>
<path opacity="0.5" d="M267.144 660.946C266.708 659.915 266.027 659.006 265.158 658.3C264.29 657.594 263.262 657.111 262.164 656.895C258.014 656.231 254.113 660.398 253.681 660.863C253.284 661.341 253.039 661.926 252.977 662.544C252.915 663.162 253.039 663.785 253.332 664.332C253.985 664.201 254.589 663.891 255.075 663.436C256.32 662.274 259.84 659.833 262.213 660.116C262.794 660.116 263.674 660.464 264.62 661.991C268.804 668.797 265.567 683.107 263.458 685.464C262.313 685.962 258.03 685.082 254.694 683.671C254.283 683.498 253.844 683.403 253.399 683.389C253.429 683.844 253.573 684.284 253.816 684.67C254.06 685.055 254.395 685.374 254.793 685.597C256.892 686.718 259.208 687.374 261.583 687.522C262.938 687.587 264.265 687.123 265.284 686.227C268.405 683.356 271.161 668.665 267.144 660.946Z" fill="white"/>
<path d="M262.28 692.851C258.67 692.671 255.125 691.827 251.822 690.361C251.361 690.19 250.94 689.928 250.584 689.59C250.228 689.252 249.945 688.845 249.751 688.393C249.558 687.942 249.458 687.456 249.458 686.965C249.458 686.474 249.559 685.988 249.753 685.537C249.947 685.086 250.23 684.679 250.587 684.341C250.943 684.003 251.364 683.741 251.825 683.571C252.286 683.401 252.776 683.327 253.266 683.353C253.757 683.378 254.237 683.504 254.677 683.721C257.997 685.132 262.297 686.012 263.442 685.514C265.55 683.156 268.787 668.914 264.604 662.041C263.658 660.514 262.778 660.232 262.197 660.165C259.823 659.833 256.304 662.274 255.059 663.485C254.712 663.812 254.305 664.068 253.859 664.237C253.414 664.407 252.94 664.487 252.463 664.473C251.987 664.459 251.518 664.352 251.083 664.157C250.649 663.961 250.257 663.683 249.93 663.336C249.603 662.989 249.347 662.582 249.178 662.136C249.008 661.691 248.928 661.217 248.942 660.74C248.956 660.264 249.063 659.795 249.258 659.36C249.454 658.926 249.732 658.534 250.079 658.207C250.726 657.576 256.719 652.181 263.11 653.044C264.695 653.275 266.206 653.869 267.524 654.779C268.843 655.689 269.934 656.89 270.713 658.29C276.871 668.333 272.655 687.439 267.924 691.224C266.28 692.387 264.291 692.96 262.28 692.851V692.851Z" stroke="#455A64" stroke-linecap="round" stroke-linejoin="round"/>
<path d="M255.939 650.023H216.016V703.01H255.939V650.023Z" fill="white"/>
<path d="M232.367 650.023H216.016V703.01H232.367V650.023Z" fill="#FC4F00"/>
<path opacity="0.5" d="M232.367 650.023H216.016V703.01H232.367V650.023Z" fill="white"/>
<path d="M255.939 650.023H216.016V703.01H255.939V650.023Z" stroke="#455A64" stroke-linecap="round" stroke-linejoin="round"/>
<path d="M475.325 702.28H304.776L299.215 608.523C299.061 607.614 299.107 606.682 299.348 605.792C299.589 604.902 300.021 604.076 300.612 603.369C301.204 602.662 301.942 602.091 302.776 601.697C303.609 601.303 304.518 601.095 305.44 601.086H474.594C475.522 601.085 476.438 601.287 477.28 601.676C478.121 602.066 478.868 602.635 479.467 603.343C480.066 604.051 480.503 604.882 480.748 605.776C480.993 606.671 481.04 607.608 480.886 608.523L475.325 702.28Z" fill="#455A64" stroke="#455A64" stroke-linecap="round" stroke-linejoin="round"/>
<path d="M313.176 603.327H473.366C474.271 603.318 475.167 603.506 475.991 603.88C476.815 604.253 477.548 604.802 478.138 605.488C478.728 606.175 479.161 606.982 479.406 607.853C479.651 608.724 479.703 609.638 479.558 610.531" stroke="white" stroke-linecap="round" stroke-linejoin="round"/>
<path d="M300.46 609.054C300.594 607.485 301.314 606.024 302.477 604.963C303.64 603.901 305.16 603.317 306.735 603.327" stroke="white" stroke-linecap="round" stroke-linejoin="round"/>
<path d="M476.038 693.149H304.062V702.279H476.038V693.149Z" fill="white" stroke="#455A64" stroke-linecap="round" stroke-linejoin="round"/>
<path d="M389.436 659.352C396.166 659.352 401.621 656.082 401.621 652.048C401.621 648.014 396.166 644.744 389.436 644.744C382.707 644.744 377.252 648.014 377.252 652.048C377.252 656.082 382.707 659.352 389.436 659.352Z" fill="white" stroke="#455A64" stroke-linecap="round" stroke-linejoin="round"/>
<path d="M735.43 701.201H94.9023V716.755H735.43V701.201Z" fill="#455A64"/>
<path d="M569.347 124.5H261.201C250.814 124.5 242.393 132.921 242.393 143.308V320.114C242.393 330.502 250.814 338.922 261.201 338.922H569.347C579.734 338.922 588.154 330.502 588.154 320.114V143.308C588.154 132.921 579.734 124.5 569.347 124.5Z" fill="white"/>
<path d="M423.405 247.722C451.357 243.23 470.375 216.929 465.882 188.977C461.39 161.025 435.089 142.007 407.137 146.499C379.185 150.991 360.168 177.293 364.66 205.244C369.152 233.196 395.453 252.214 423.405 247.722Z" fill="#455A64"/>
<path d="M414.883 206.587L397.802 228.516C397.221 229.428 396.423 230.182 395.478 230.71C394.533 231.237 393.472 231.521 392.39 231.537C390.906 231.557 389.475 230.99 388.406 229.96C387.863 229.462 387.434 228.853 387.148 228.174C386.861 227.495 386.724 226.762 386.746 226.026C386.8 224.376 387.382 222.788 388.406 221.494L407.878 197.407L389.618 173.304C388.77 172.173 388.305 170.8 388.29 169.386C388.286 168.543 388.456 167.708 388.791 166.934C389.125 166.16 389.616 165.463 390.232 164.888C390.812 164.283 391.507 163.802 392.278 163.474C393.048 163.146 393.877 162.977 394.714 162.979C395.787 162.996 396.838 163.282 397.771 163.809C398.705 164.337 399.492 165.09 400.06 166L416.56 187.729L433.16 166.365C433.753 165.368 434.584 164.533 435.577 163.934C436.57 163.335 437.695 162.989 438.854 162.929C439.573 162.927 440.284 163.074 440.944 163.359C441.604 163.645 442.198 164.064 442.688 164.589C443.212 165.082 443.629 165.676 443.914 166.335C444.199 166.994 444.347 167.705 444.348 168.424C444.331 169.709 443.887 170.953 443.087 171.959L423.549 196.959L442.423 221.859C443.315 222.972 443.812 224.35 443.834 225.777C443.839 226.601 443.665 227.417 443.324 228.168C442.983 228.919 442.483 229.587 441.858 230.126C440.64 231.297 439.016 231.951 437.327 231.952C436.249 231.938 435.192 231.655 434.252 231.127C433.313 230.599 432.52 229.844 431.948 228.931L414.883 206.587Z" fill="white"/>
<path d="M512.94 301.788H317.541C313.579 301.788 309.779 300.214 306.977 297.412C304.175 294.61 302.601 290.81 302.601 286.848V286.848C302.601 282.886 304.175 279.086 306.977 276.284C309.779 273.482 313.579 271.908 317.541 271.908H512.94C516.902 271.908 520.702 273.482 523.504 276.284C526.306 279.086 527.88 282.886 527.88 286.848V286.848C527.88 290.81 526.306 294.61 523.504 297.412C520.702 300.214 516.902 301.788 512.94 301.788V301.788Z" fill="#F6F6F6"/>
<path d="M344.317 291.662C344.186 291.662 344.057 291.636 343.938 291.584C343.818 291.533 343.71 291.458 343.62 291.363C343.521 291.266 343.444 291.149 343.393 291.021C343.342 290.892 343.317 290.755 343.321 290.616C343.321 290.382 343.384 290.153 343.503 289.952L344.997 287.628H341.943C341.802 287.635 341.661 287.613 341.529 287.561C341.397 287.51 341.278 287.431 341.179 287.329C341.009 287.131 340.915 286.878 340.915 286.616C340.915 286.354 341.009 286.1 341.179 285.902C341.278 285.801 341.397 285.722 341.529 285.67C341.661 285.619 341.802 285.596 341.943 285.603L344.948 285.686L343.62 283.528C343.487 283.307 343.412 283.056 343.404 282.798C343.4 282.659 343.425 282.522 343.476 282.393C343.527 282.265 343.604 282.148 343.703 282.051C343.796 281.956 343.907 281.88 344.029 281.829C344.152 281.778 344.284 281.751 344.416 281.752C344.602 281.749 344.785 281.801 344.941 281.902C345.098 282.002 345.221 282.146 345.296 282.316L346.757 284.922L348.151 282.432C348.239 282.239 348.379 282.073 348.554 281.953C348.73 281.833 348.935 281.763 349.147 281.752C349.278 281.752 349.407 281.778 349.527 281.83C349.647 281.881 349.755 281.956 349.845 282.051C349.942 282.142 350.019 282.253 350.07 282.376C350.122 282.499 350.147 282.631 350.143 282.764C350.141 283 350.072 283.23 349.944 283.428L348.483 285.769L351.521 285.686C351.663 285.678 351.804 285.7 351.936 285.752C352.068 285.803 352.187 285.883 352.285 285.985C352.456 286.183 352.549 286.437 352.549 286.699C352.549 286.961 352.456 287.214 352.285 287.412C352.187 287.514 352.068 287.594 351.936 287.646C351.804 287.697 351.663 287.72 351.521 287.711H348.45L349.811 289.836C349.965 290.092 350.051 290.384 350.06 290.683C350.065 290.817 350.043 290.951 349.994 291.077C349.946 291.202 349.872 291.317 349.778 291.413C349.691 291.506 349.586 291.581 349.469 291.632C349.352 291.683 349.225 291.711 349.098 291.712C348.892 291.707 348.692 291.643 348.522 291.529C348.351 291.414 348.217 291.253 348.135 291.064L346.757 288.624L345.379 291.064C345.28 291.257 345.126 291.416 344.937 291.522C344.749 291.628 344.533 291.677 344.317 291.662V291.662Z" fill="black"/>
<path d="M359.556 291.662C359.425 291.662 359.296 291.636 359.176 291.584C359.057 291.533 358.948 291.458 358.858 291.363C358.76 291.266 358.683 291.149 358.632 291.021C358.58 290.892 358.556 290.755 358.56 290.616C358.559 290.382 358.623 290.153 358.742 289.952L360.236 287.628H357.182C357.041 287.635 356.9 287.613 356.768 287.561C356.636 287.51 356.517 287.431 356.418 287.329C356.248 287.131 356.154 286.878 356.154 286.616C356.154 286.354 356.248 286.1 356.418 285.902C356.517 285.801 356.636 285.722 356.768 285.67C356.9 285.619 357.041 285.596 357.182 285.603L360.186 285.686L358.775 283.445C358.642 283.224 358.568 282.973 358.56 282.715C358.556 282.576 358.58 282.439 358.632 282.31C358.683 282.182 358.76 282.065 358.858 281.968C358.951 281.873 359.063 281.797 359.185 281.746C359.308 281.695 359.439 281.668 359.572 281.669C359.758 281.666 359.941 281.718 360.097 281.819C360.254 281.919 360.377 282.063 360.452 282.233L361.913 284.839L363.307 282.349C363.395 282.156 363.534 281.99 363.71 281.87C363.886 281.75 364.091 281.68 364.303 281.669C364.434 281.669 364.563 281.695 364.683 281.747C364.802 281.798 364.911 281.873 365 281.968C365.098 282.059 365.175 282.17 365.226 282.293C365.278 282.416 365.303 282.548 365.299 282.681C365.297 282.917 365.228 283.147 365.1 283.345L363.639 285.686L366.677 285.603C366.818 285.595 366.96 285.617 367.092 285.669C367.223 285.72 367.343 285.8 367.441 285.902C367.611 286.1 367.705 286.354 367.705 286.616C367.705 286.878 367.611 287.131 367.441 287.329C367.343 287.431 367.223 287.511 367.092 287.563C366.96 287.614 366.818 287.637 366.677 287.628H363.606L364.967 289.753C365.121 290.009 365.206 290.301 365.216 290.6C365.221 290.734 365.198 290.868 365.15 290.994C365.101 291.119 365.028 291.234 364.934 291.33C364.847 291.423 364.741 291.498 364.624 291.549C364.507 291.6 364.381 291.628 364.253 291.629C364.047 291.626 363.847 291.563 363.676 291.448C363.505 291.333 363.371 291.171 363.291 290.981L361.913 288.541L360.535 290.981C360.453 291.176 360.318 291.344 360.144 291.464C359.971 291.585 359.767 291.653 359.556 291.662V291.662Z" fill="black"/>
<path d="M374.794 291.662C374.664 291.662 374.535 291.636 374.415 291.584C374.295 291.533 374.187 291.458 374.097 291.363C373.999 291.266 373.922 291.149 373.87 291.021C373.819 290.892 373.795 290.755 373.798 290.616C373.798 290.382 373.861 290.153 373.981 289.952L375.475 287.628H372.421C372.279 287.635 372.138 287.613 372.007 287.561C371.875 287.51 371.756 287.431 371.657 287.329C371.486 287.131 371.393 286.878 371.393 286.616C371.393 286.354 371.486 286.1 371.657 285.902C371.756 285.801 371.875 285.722 372.007 285.67C372.138 285.619 372.279 285.596 372.421 285.603L375.425 285.686L374.014 283.445C373.881 283.224 373.807 282.973 373.798 282.715C373.795 282.576 373.819 282.439 373.87 282.31C373.922 282.182 373.999 282.065 374.097 281.968C374.19 281.873 374.301 281.797 374.424 281.746C374.547 281.695 374.678 281.668 374.811 281.669C374.997 281.666 375.179 281.718 375.336 281.819C375.492 281.919 375.616 282.063 375.691 282.233L377.152 284.839L378.546 282.349C378.634 282.156 378.773 281.99 378.949 281.87C379.124 281.75 379.33 281.68 379.542 281.669C379.672 281.669 379.801 281.695 379.921 281.747C380.041 281.798 380.149 281.873 380.239 281.968C380.337 282.059 380.413 282.17 380.465 282.293C380.516 282.416 380.541 282.548 380.538 282.681C380.536 282.917 380.467 283.147 380.339 283.345L378.878 285.686L381.916 285.603C382.057 285.595 382.199 285.617 382.33 285.669C382.462 285.72 382.581 285.8 382.679 285.902C382.85 286.1 382.944 286.354 382.944 286.616C382.944 286.878 382.85 287.131 382.679 287.329C382.581 287.431 382.462 287.511 382.33 287.563C382.199 287.614 382.057 287.637 381.916 287.628H378.845L380.206 289.753C380.36 290.009 380.445 290.301 380.455 290.6C380.46 290.734 380.437 290.868 380.389 290.994C380.34 291.119 380.267 291.234 380.173 291.33C380.085 291.423 379.98 291.498 379.863 291.549C379.746 291.6 379.62 291.628 379.492 291.629C379.286 291.626 379.086 291.563 378.915 291.448C378.744 291.333 378.61 291.171 378.529 290.981L377.152 288.541L375.774 290.981C375.692 291.176 375.556 291.344 375.383 291.464C375.21 291.585 375.005 291.653 374.794 291.662V291.662Z" fill="black"/>
<path d="M390.1 291.662C389.97 291.662 389.841 291.636 389.721 291.584C389.601 291.533 389.493 291.458 389.403 291.363C389.305 291.266 389.228 291.149 389.176 291.021C389.125 290.892 389.1 290.755 389.104 290.616C389.104 290.382 389.167 290.153 389.287 289.952L390.781 287.628H387.726C387.585 287.635 387.444 287.613 387.312 287.561C387.181 287.51 387.061 287.431 386.963 287.329C386.792 287.131 386.698 286.878 386.698 286.616C386.698 286.354 386.792 286.1 386.963 285.902C387.061 285.801 387.181 285.722 387.312 285.67C387.444 285.619 387.585 285.596 387.726 285.603L390.731 285.686L389.32 283.445C389.187 283.224 389.112 282.973 389.104 282.715C389.1 282.576 389.125 282.439 389.176 282.31C389.228 282.182 389.305 282.065 389.403 281.968C389.496 281.873 389.607 281.797 389.73 281.746C389.852 281.695 389.984 281.668 390.117 281.669C390.303 281.666 390.485 281.718 390.642 281.819C390.798 281.919 390.921 282.063 390.996 282.233L392.457 284.839L393.852 282.349C393.939 282.156 394.079 281.99 394.254 281.87C394.43 281.75 394.635 281.68 394.848 281.669C394.978 281.669 395.107 281.695 395.227 281.747C395.347 281.798 395.455 281.873 395.545 281.968C395.642 282.059 395.719 282.17 395.771 282.293C395.822 282.416 395.847 282.548 395.844 282.681C395.841 282.917 395.772 283.147 395.644 283.345L394.184 285.686L397.221 285.603C397.363 285.595 397.504 285.617 397.636 285.669C397.768 285.72 397.887 285.8 397.985 285.902C398.156 286.1 398.25 286.354 398.25 286.616C398.25 286.878 398.156 287.131 397.985 287.329C397.887 287.431 397.768 287.511 397.636 287.563C397.504 287.614 397.363 287.637 397.221 287.628H394.15L395.512 289.753C395.665 290.009 395.751 290.301 395.761 290.6C395.765 290.734 395.743 290.868 395.694 290.994C395.646 291.119 395.572 291.234 395.478 291.33C395.391 291.423 395.286 291.498 395.169 291.549C395.052 291.6 394.926 291.628 394.798 291.629C394.592 291.624 394.393 291.56 394.222 291.446C394.052 291.331 393.917 291.17 393.835 290.981L392.457 288.541L391.079 290.981C390.998 291.176 390.862 291.344 390.689 291.464C390.515 291.585 390.311 291.653 390.1 291.662V291.662Z" fill="black"/>
<path d="M405.272 291.662C405.142 291.662 405.013 291.636 404.893 291.584C404.773 291.533 404.665 291.458 404.575 291.363C404.477 291.266 404.4 291.149 404.348 291.021C404.297 290.892 404.273 290.755 404.276 290.616C404.284 290.384 404.347 290.156 404.459 289.952L405.953 287.628H402.899C402.757 287.635 402.616 287.613 402.485 287.561C402.353 287.51 402.234 287.431 402.135 287.329C401.964 287.131 401.871 286.878 401.871 286.616C401.871 286.354 401.964 286.1 402.135 285.902C402.234 285.801 402.353 285.722 402.485 285.67C402.616 285.619 402.757 285.596 402.899 285.603L405.903 285.686L404.492 283.445C404.359 283.224 404.285 282.973 404.276 282.715C404.273 282.576 404.297 282.439 404.348 282.31C404.4 282.182 404.477 282.065 404.575 281.968C404.668 281.873 404.779 281.797 404.902 281.746C405.025 281.695 405.156 281.668 405.289 281.669C405.475 281.666 405.657 281.718 405.814 281.819C405.97 281.919 406.094 282.063 406.169 282.233L407.63 284.839L409.024 282.349C409.112 282.156 409.251 281.99 409.427 281.87C409.602 281.75 409.808 281.68 410.02 281.669C410.151 281.667 410.28 281.692 410.4 281.744C410.521 281.795 410.629 281.872 410.717 281.968C410.815 282.059 410.891 282.17 410.943 282.293C410.994 282.416 411.019 282.548 411.016 282.681C411.014 282.917 410.945 283.147 410.817 283.345L409.356 285.686L412.394 285.603C412.535 285.595 412.677 285.617 412.808 285.669C412.94 285.72 413.059 285.8 413.157 285.902C413.328 286.1 413.422 286.354 413.422 286.616C413.422 286.878 413.328 287.131 413.157 287.329C413.059 287.431 412.94 287.511 412.808 287.563C412.677 287.614 412.535 287.637 412.394 287.628H409.323L410.684 289.753C410.838 290.009 410.923 290.301 410.933 290.6C410.938 290.734 410.915 290.868 410.867 290.994C410.818 291.119 410.745 291.234 410.651 291.33C410.563 291.423 410.458 291.498 410.341 291.549C410.224 291.6 410.098 291.628 409.97 291.629C409.765 291.624 409.565 291.56 409.394 291.446C409.224 291.331 409.09 291.17 409.007 290.981L407.63 288.541L406.252 290.981C406.17 291.176 406.035 291.344 405.861 291.464C405.688 291.585 405.483 291.653 405.272 291.662V291.662Z" fill="black"/>
<path d="M420.511 291.662C420.381 291.662 420.252 291.636 420.132 291.584C420.012 291.533 419.904 291.458 419.814 291.363C419.716 291.266 419.639 291.149 419.587 291.021C419.536 290.892 419.511 290.755 419.515 290.616C419.523 290.384 419.585 290.156 419.698 289.952L421.192 287.628H418.154C418.01 287.637 417.866 287.615 417.732 287.563C417.597 287.512 417.475 287.432 417.374 287.329C417.203 287.131 417.109 286.878 417.109 286.616C417.109 286.354 417.203 286.1 417.374 285.902C417.475 285.799 417.597 285.72 417.732 285.668C417.866 285.617 418.01 285.594 418.154 285.603L421.142 285.686L419.731 283.445C419.598 283.224 419.524 282.973 419.515 282.715C419.511 282.576 419.536 282.439 419.587 282.31C419.639 282.182 419.716 282.065 419.814 281.968C419.907 281.873 420.018 281.797 420.141 281.746C420.263 281.695 420.395 281.668 420.528 281.669C420.714 281.666 420.896 281.718 421.053 281.819C421.209 281.919 421.333 282.063 421.408 282.233L422.868 284.839L424.263 282.349C424.351 282.156 424.49 281.99 424.666 281.87C424.841 281.75 425.046 281.68 425.259 281.669C425.389 281.667 425.519 281.692 425.639 281.744C425.759 281.795 425.867 281.872 425.956 281.968C426.053 282.059 426.13 282.17 426.182 282.293C426.233 282.416 426.258 282.548 426.255 282.681C426.253 282.917 426.184 283.147 426.056 283.345L424.595 285.686L427.633 285.603C427.774 285.595 427.915 285.617 428.047 285.669C428.179 285.72 428.298 285.8 428.396 285.902C428.567 286.1 428.661 286.354 428.661 286.616C428.661 286.878 428.567 287.131 428.396 287.329C428.298 287.431 428.179 287.511 428.047 287.563C427.915 287.614 427.774 287.637 427.633 287.628H424.562L425.923 289.753C426.076 290.009 426.162 290.301 426.172 290.6C426.177 290.734 426.154 290.868 426.106 290.994C426.057 291.119 425.984 291.234 425.89 291.33C425.802 291.423 425.697 291.498 425.58 291.549C425.463 291.6 425.337 291.628 425.209 291.629C425.004 291.624 424.804 291.56 424.633 291.446C424.463 291.331 424.328 291.17 424.246 290.981L422.868 288.541L421.491 290.981C421.409 291.176 421.273 291.344 421.1 291.464C420.926 291.585 420.722 291.653 420.511 291.662V291.662Z" fill="black"/>
<path d="M435.75 291.662C435.62 291.662 435.491 291.636 435.371 291.584C435.251 291.533 435.143 291.458 435.053 291.363C434.955 291.266 434.877 291.149 434.826 291.021C434.775 290.892 434.75 290.755 434.754 290.616C434.754 290.382 434.817 290.153 434.937 289.952L436.431 287.628H433.376C433.235 287.635 433.094 287.613 432.962 287.561C432.831 287.51 432.711 287.431 432.613 287.329C432.442 287.131 432.348 286.878 432.348 286.616C432.348 286.354 432.442 286.1 432.613 285.902C432.711 285.801 432.831 285.722 432.962 285.67C433.094 285.619 433.235 285.596 433.376 285.603L436.381 285.686L434.92 283.528C434.787 283.307 434.713 283.056 434.704 282.798C434.7 282.659 434.725 282.522 434.776 282.393C434.828 282.265 434.905 282.148 435.003 282.051C435.096 281.956 435.207 281.88 435.33 281.829C435.452 281.778 435.584 281.751 435.717 281.752C435.903 281.749 436.085 281.801 436.242 281.902C436.398 282.002 436.522 282.146 436.597 282.316L438.057 284.922L439.452 282.432C439.54 282.239 439.679 282.073 439.855 281.953C440.03 281.833 440.235 281.763 440.448 281.752C440.578 281.75 440.708 281.775 440.828 281.827C440.948 281.878 441.056 281.955 441.145 282.051C441.242 282.142 441.319 282.253 441.371 282.376C441.422 282.499 441.447 282.631 441.444 282.764C441.442 283 441.372 283.23 441.245 283.428L439.784 285.769L442.822 285.686C442.963 285.678 443.104 285.7 443.236 285.752C443.368 285.803 443.487 285.883 443.585 285.985C443.756 286.184 443.85 286.437 443.85 286.699C443.85 286.961 443.756 287.214 443.585 287.412C443.487 287.514 443.368 287.594 443.236 287.646C443.104 287.697 442.963 287.72 442.822 287.711H439.751L441.112 289.836C441.265 290.093 441.351 290.384 441.361 290.683C441.366 290.817 441.343 290.951 441.294 291.077C441.246 291.202 441.172 291.317 441.079 291.413C440.991 291.506 440.886 291.581 440.769 291.632C440.652 291.683 440.526 291.711 440.398 291.712C440.192 291.707 439.993 291.643 439.822 291.529C439.652 291.414 439.517 291.253 439.435 291.064L438.057 288.624L436.68 291.064C436.59 291.236 436.457 291.382 436.294 291.487C436.131 291.592 435.944 291.652 435.75 291.662V291.662Z" fill="black"/>
<path d="M450.989 291.662C450.858 291.662 450.729 291.636 450.609 291.584C450.49 291.533 450.381 291.458 450.292 291.363C450.193 291.266 450.116 291.149 450.065 291.021C450.013 290.892 449.989 290.755 449.993 290.616C450 290.384 450.063 290.156 450.175 289.952L451.669 287.628H448.632C448.49 287.639 448.348 287.618 448.216 287.566C448.083 287.514 447.965 287.433 447.868 287.33C447.687 287.136 447.586 286.881 447.586 286.616C447.586 286.351 447.687 286.096 447.868 285.902C447.965 285.798 448.083 285.717 448.216 285.666C448.348 285.614 448.49 285.592 448.632 285.603L451.62 285.686L450.208 283.445C450.075 283.224 450.001 282.973 449.993 282.715C449.988 282.579 450.011 282.444 450.06 282.317C450.109 282.19 450.183 282.075 450.277 281.977C450.372 281.88 450.485 281.802 450.61 281.749C450.735 281.696 450.869 281.669 451.005 281.669C451.191 281.666 451.374 281.718 451.53 281.819C451.687 281.919 451.81 282.063 451.885 282.233L453.346 284.84L454.74 282.35C454.828 282.156 454.967 281.99 455.143 281.87C455.319 281.75 455.524 281.68 455.736 281.669C455.867 281.665 455.998 281.689 456.118 281.741C456.239 281.793 456.346 281.87 456.433 281.968C456.531 282.059 456.608 282.17 456.659 282.293C456.711 282.416 456.736 282.548 456.732 282.682C456.73 282.917 456.661 283.148 456.533 283.346L455.072 285.686L458.11 285.603C458.251 285.595 458.393 285.617 458.525 285.669C458.657 285.72 458.776 285.8 458.874 285.902C459.044 286.101 459.138 286.354 459.138 286.616C459.138 286.878 459.044 287.131 458.874 287.33C458.776 287.432 458.657 287.511 458.525 287.563C458.393 287.614 458.251 287.637 458.11 287.628H455.039L456.4 289.753C456.554 290.01 456.64 290.301 456.649 290.6C456.654 290.731 456.632 290.861 456.586 290.983C456.54 291.106 456.471 291.218 456.381 291.314C456.292 291.409 456.184 291.486 456.065 291.541C455.946 291.595 455.817 291.625 455.687 291.629C455.481 291.624 455.281 291.56 455.111 291.446C454.94 291.331 454.806 291.17 454.724 290.982L453.346 288.541L451.968 290.982C451.886 291.176 451.751 291.344 451.577 291.464C451.404 291.585 451.2 291.653 450.989 291.662V291.662Z" fill="black"/>
<path d="M466.227 291.662C466.097 291.662 465.968 291.636 465.848 291.584C465.728 291.533 465.62 291.458 465.53 291.363C465.432 291.266 465.355 291.149 465.303 291.021C465.252 290.892 465.228 290.755 465.232 290.616C465.239 290.384 465.302 290.156 465.414 289.952L466.908 287.628H463.854C463.715 287.636 463.576 287.614 463.447 287.562C463.318 287.511 463.202 287.431 463.107 287.33C462.926 287.136 462.825 286.881 462.825 286.616C462.825 286.351 462.926 286.096 463.107 285.902C463.202 285.8 463.318 285.721 463.447 285.669C463.576 285.618 463.715 285.595 463.854 285.603L466.858 285.686L465.447 283.445C465.314 283.224 465.24 282.973 465.232 282.715C465.227 282.579 465.25 282.444 465.299 282.317C465.348 282.19 465.422 282.075 465.516 281.977C465.611 281.88 465.724 281.802 465.849 281.749C465.974 281.696 466.108 281.669 466.244 281.669C466.43 281.666 466.613 281.718 466.769 281.819C466.925 281.919 467.049 282.063 467.124 282.233L468.585 284.84L469.979 282.35C470.067 282.156 470.206 281.99 470.382 281.87C470.558 281.75 470.763 281.68 470.975 281.669C471.106 281.665 471.236 281.689 471.357 281.741C471.477 281.793 471.585 281.87 471.672 281.968C471.77 282.059 471.847 282.17 471.898 282.293C471.949 282.416 471.974 282.548 471.971 282.682C471.969 282.917 471.9 283.148 471.772 283.346L470.311 285.686L473.349 285.603C473.49 285.595 473.632 285.617 473.763 285.669C473.895 285.72 474.014 285.8 474.112 285.902C474.283 286.101 474.377 286.354 474.377 286.616C474.377 286.878 474.283 287.131 474.112 287.33C474.014 287.432 473.895 287.511 473.763 287.563C473.632 287.614 473.49 287.637 473.349 287.628H470.278L471.639 289.753C471.793 290.01 471.878 290.301 471.888 290.6C471.893 290.731 471.871 290.861 471.825 290.983C471.779 291.106 471.709 291.218 471.62 291.314C471.531 291.409 471.423 291.486 471.304 291.541C471.185 291.595 471.056 291.625 470.925 291.629C470.72 291.624 470.52 291.56 470.349 291.446C470.179 291.331 470.045 291.17 469.962 290.982L468.585 288.541L467.207 290.982C467.125 291.176 466.99 291.344 466.816 291.464C466.643 291.585 466.438 291.653 466.227 291.662V291.662Z" fill="black"/>
<path d="M481.4 291.662C481.269 291.662 481.14 291.636 481.021 291.584C480.901 291.533 480.793 291.458 480.703 291.363C480.604 291.266 480.527 291.149 480.476 291.021C480.424 290.892 480.4 290.755 480.404 290.616C480.412 290.384 480.474 290.156 480.586 289.952L482.08 287.628H479.026C478.887 287.636 478.748 287.614 478.619 287.562C478.49 287.511 478.374 287.431 478.279 287.33C478.098 287.136 477.998 286.881 477.998 286.616C477.998 286.351 478.098 286.096 478.279 285.902C478.374 285.8 478.49 285.721 478.619 285.669C478.748 285.618 478.887 285.595 479.026 285.603L482.031 285.686L480.62 283.445C480.486 283.224 480.412 282.973 480.404 282.715C480.4 282.576 480.424 282.439 480.476 282.31C480.527 282.182 480.604 282.065 480.703 281.968C480.796 281.873 480.907 281.797 481.029 281.746C481.152 281.695 481.284 281.669 481.416 281.669C481.602 281.666 481.785 281.718 481.941 281.819C482.098 281.919 482.221 282.063 482.296 282.233L483.757 284.84L485.151 282.35C485.239 282.156 485.379 281.99 485.554 281.87C485.73 281.75 485.935 281.68 486.147 281.669C486.278 281.665 486.409 281.689 486.529 281.741C486.65 281.793 486.757 281.87 486.845 281.968C486.942 282.059 487.019 282.17 487.07 282.293C487.122 282.416 487.147 282.548 487.143 282.682C487.141 282.917 487.072 283.148 486.944 283.346L485.483 285.686L488.521 285.603C488.663 285.595 488.804 285.617 488.936 285.669C489.068 285.72 489.187 285.8 489.285 285.902C489.455 286.101 489.549 286.354 489.549 286.616C489.549 286.878 489.455 287.131 489.285 287.33C489.187 287.432 489.068 287.511 488.936 287.563C488.804 287.614 488.663 287.637 488.521 287.628H485.45L486.811 289.753C486.965 290.01 487.051 290.301 487.06 290.6C487.065 290.734 487.043 290.868 486.994 290.994C486.946 291.119 486.872 291.234 486.778 291.33C486.691 291.423 486.585 291.498 486.468 291.549C486.352 291.601 486.225 291.628 486.098 291.629C485.892 291.624 485.692 291.56 485.522 291.446C485.351 291.331 485.217 291.17 485.135 290.982L483.757 288.541L482.379 290.982C482.297 291.176 482.162 291.344 481.988 291.464C481.815 291.585 481.611 291.653 481.4 291.662V291.662Z" fill="black"/>
<path d="M533.624 328.381H553.925" stroke="white" stroke-width="3" stroke-linecap="round" stroke-linejoin="round"/>
<path d="M252.038 178.898V313.74C252.038 317.645 253.589 321.39 256.35 324.152C259.112 326.913 262.857 328.464 266.762 328.464H514.351" stroke="white" stroke-width="3" stroke-linecap="round" stroke-linejoin="round"/>
<path d="M252.038 143.142V163.361" stroke="white" stroke-width="3" stroke-linecap="round" stroke-linejoin="round"/>
</svg>
