<svg width="812" height="1024" viewBox="0 0 812 1024" fill="none" xmlns="http://www.w3.org/2000/svg">
<path d="M812 783.155H0V783.667H812V783.155Z" fill="#EBEBEB"/>
<path d="M730.638 816.107H676.851V816.619H730.638V816.107Z" fill="#EBEBEB"/>
<path d="M537.901 821.678H523.789V822.19H537.901V821.678Z" fill="#EBEBEB"/>
<path d="M675.227 797.102H644.062V797.614H675.227V797.102Z" fill="#EBEBEB"/>
<path d="M155.336 800.543H85.1951V801.055H155.336V800.543Z" fill="#EBEBEB"/>
<path d="M180.085 800.543H169.805V801.055H180.085V800.543Z" fill="#EBEBEB"/>
<path d="M365.644 809.185H213.507V809.697H365.644V809.185Z" fill="#EBEBEB"/>
<path d="M384.888 691.814H71.3098C68.8533 691.809 66.4988 690.574 64.7633 688.382C63.0278 686.19 62.053 683.218 62.053 680.12V124.232C62.0744 121.151 63.0586 118.206 64.7918 116.036C66.525 113.866 68.8673 112.645 71.3098 112.64H384.888C387.347 112.64 389.706 113.872 391.445 116.065C393.184 118.258 394.161 121.233 394.161 124.334V680.12C394.161 683.222 393.184 686.196 391.445 688.389C389.706 690.582 387.347 691.814 384.888 691.814ZM71.3098 113.049C68.961 113.055 66.7098 114.235 65.0504 116.332C63.391 118.428 62.459 121.269 62.459 124.232V680.12C62.459 683.082 63.391 685.923 65.0504 688.02C66.7098 690.116 68.961 691.297 71.3098 691.302H384.888C387.238 691.297 389.491 690.117 391.153 688.021C392.815 685.925 393.751 683.084 393.755 680.12V124.232C393.751 121.268 392.815 118.427 391.153 116.331C389.491 114.235 387.238 113.055 384.888 113.049H71.3098Z" fill="#EBEBEB"/>
<path d="M736.175 691.814H422.581C420.123 691.809 417.767 690.575 416.029 688.383C414.291 686.191 413.312 683.22 413.308 680.12V124.232C413.334 121.15 414.321 118.204 416.057 116.035C417.793 113.865 420.137 112.645 422.581 112.64H736.175C738.615 112.651 740.953 113.873 742.683 116.043C744.413 118.213 745.395 121.155 745.416 124.232V680.12C745.416 683.215 744.443 686.183 742.711 688.375C740.979 690.567 738.629 691.803 736.175 691.814ZM422.581 113.049C420.231 113.055 417.978 114.235 416.316 116.331C414.654 118.427 413.718 121.268 413.714 124.232V680.12C413.718 683.084 414.654 685.925 416.316 688.021C417.978 690.117 420.231 691.297 422.581 691.302H736.175C738.526 691.297 740.779 690.117 742.441 688.021C744.103 685.925 745.038 683.084 745.042 680.12V124.232C745.038 121.268 744.103 118.427 742.441 116.331C740.779 114.235 738.526 113.055 736.175 113.049H422.581Z" fill="#EBEBEB"/>
<path d="M614.311 654.643V683.725L624.055 692.654H578.583L593.101 685.855V656.671L614.311 654.643Z" fill="#E0E0E0"/>
<path d="M491.65 691.814V783.421H694.65V691.814H491.65ZM495.304 697.753H654.196V727.695H495.32L495.304 697.753Z" fill="#E0E0E0"/>
<path d="M491.65 691.814V783.421H659.084V691.814H491.65ZM495.304 697.753H654.196V727.695H495.32L495.304 697.753Z" fill="#EBEBEB"/>
<path d="M495.304 727.695H528.044V697.754H495.304V727.695Z" fill="#E0E0E0"/>
<path d="M613.677 727.695H654.196V712.724H613.677V727.695Z" fill="#E0E0E0"/>
<path d="M580.19 727.695H610.689V718.807H580.19V727.695Z" fill="#E0E0E0"/>
<path d="M544.089 727.695H573.142V709.509H544.089V727.695Z" fill="#E0E0E0"/>
<path d="M625.402 734.208L626.263 737.792H637.923L638.8 734.208H654.196V773.96H603.089V734.208H625.402Z" fill="#E0E0E0"/>
<path d="M564.665 734.208L565.542 737.792H577.202L578.079 734.208H600.377V773.96H549.269V734.208H564.665Z" fill="#E0E0E0"/>
<path d="M517.764 734.208L518.624 737.792H530.285L531.162 734.208H546.557V773.96H495.45V734.208H517.764Z" fill="#E0E0E0"/>
<path d="M521.336 672.031H672.352C675.518 672.031 678.085 668.794 678.085 664.801V555.459C678.085 551.466 675.518 548.229 672.352 548.229H521.336C518.17 548.229 515.604 551.466 515.604 555.459V664.801C515.604 668.794 518.17 672.031 521.336 672.031Z" fill="#E0E0E0"/>
<path d="M517.52 672.031H668.536C671.702 672.031 674.269 668.794 674.269 664.801V555.459C674.269 551.466 671.702 548.229 668.536 548.229H517.52C514.354 548.229 511.787 551.466 511.787 555.459V664.801C511.787 668.794 514.354 672.031 517.52 672.031Z" fill="#E6E6E6"/>
<path d="M669.494 666.01V554.23H516.562V666.01H669.494Z" fill="#F0F0F0"/>
<path d="M310.411 220.447H117.756V471.49H310.411V220.447Z" fill="#EBEBEB"/>
<path d="M317.151 220.447H124.496V471.49H317.151V220.447Z" fill="#F0F0F0"/>
<path d="M312.052 226.406H129.352V465.674H312.052V226.406Z" fill="#E0E0E0"/>
<path d="M307.488 226.406H129.352V465.674H307.488V226.406Z" fill="#F5F5F5"/>
<path d="M220.263 226.406H216.642V465.674H220.263V226.406Z" fill="#EBEBEB"/>
<path d="M241.018 226.406L291.784 465.654H296.656L245.89 226.406H241.018Z" fill="white"/>
<path d="M221.806 222.72H218.704V470.262H221.806V222.72Z" fill="#F0F0F0"/>
<path d="M259.434 226.406L307.488 452.833V328.376L285.856 226.406H259.434Z" fill="white"/>
<path d="M129.352 248.115V271.073L170.65 465.654H175.522L129.352 248.115Z" fill="white"/>
<path d="M129.352 294.482V418.939L139.258 465.654H165.664L129.352 294.482Z" fill="white"/>
<path d="M648.869 234.762H532.217V413.757H648.869V234.762Z" fill="#E6E6E6"/>
<path d="M622.171 369.418L560.881 293.437L627.189 279.634L622.171 369.418Z" fill="#E0E0E0"/>
<path d="M562.359 351.416L559.322 293.151L605.476 307.446L608.821 352.01L562.359 351.416Z" fill="#F0F0F0"/>
<path d="M635.906 286.03C643.18 276.857 643.18 261.983 635.906 252.81C628.631 243.636 616.837 243.636 609.563 252.81C602.288 261.983 602.288 276.857 609.563 286.03C616.837 295.204 628.631 295.204 635.906 286.03Z" fill="#FAFAFA"/>
<path d="M568.4 372.183C568.403 369.925 567.875 367.717 566.882 365.838C565.89 363.959 564.477 362.493 562.823 361.627C561.17 360.761 559.35 360.534 557.594 360.973C555.837 361.413 554.224 362.5 552.958 364.096C551.692 365.693 550.83 367.727 550.482 369.942C550.133 372.157 550.314 374.452 551 376.537C551.687 378.623 552.849 380.404 554.339 381.656C555.829 382.908 557.58 383.574 559.371 383.57C561.764 383.564 564.058 382.363 565.751 380.229C567.443 378.094 568.396 375.201 568.4 372.183Z" fill="#E0E0E0"/>
<path d="M561.498 392.212L587.579 372.183L565.655 349.389L561.498 392.212Z" fill="#F5F5F5"/>
<path d="M592.322 400.466H597.453V257.536H592.322V400.466Z" fill="#E0E0E0"/>
<path d="M543.163 394.137H549.805V257.536H543.163V394.137Z" fill="#EBEBEB"/>
<path d="M603.235 394.793H637.144V352.031H603.235V394.793Z" fill="#EBEBEB"/>
<path d="M215.83 693.391L194.36 615.363C194.36 615.363 224.112 643.195 223.95 612.352C223.787 581.509 210.373 605.471 205.745 594.063C201.116 582.656 218.948 582.779 212.679 565.494C206.41 548.209 188.628 574.771 185.477 559.452C182.326 544.133 177.357 536.351 164.365 537.723C164.365 537.723 157.366 557.875 165.989 572.436C174.612 586.998 144.698 575.304 147.784 589.947C150.87 604.59 160.776 617.37 165.177 607.068C169.578 596.767 175.116 616.509 167.629 621.609C160.143 626.708 177.373 648.745 181.222 637.174C183.867 629.487 187.132 622.164 190.966 615.322L210.763 698.818L215.83 693.391Z" fill="#EBEBEB"/>
<path d="M237.965 694.088L262.162 644.178C262.162 644.178 238.225 657.777 242.057 636.457C245.89 615.137 252.272 634.266 256.852 627.261C261.432 620.257 249.057 617.021 255.471 606.167C261.886 595.313 271.013 617.165 274.959 607.171C278.906 597.176 283.356 592.732 292.174 596.152C292.174 596.152 294.61 611.43 286.912 619.868C279.214 628.306 301.268 626.012 297.419 635.474C293.57 644.936 285.142 651.981 283.339 644.014C281.537 636.047 275.317 648.663 279.896 653.599C284.476 658.534 269.86 670.515 268.626 661.791C267.715 655.968 266.333 650.279 264.501 644.813L240.807 698.819L237.965 694.088Z" fill="#E6E6E6"/>
<path d="M221.66 694.559L232.735 614.175C232.735 614.175 207.222 647.291 203.503 617.165C199.784 587.039 215.862 607.723 218.948 595.661C222.033 583.598 204.64 587.325 208.57 569.201C212.5 551.076 233.206 573.419 234.343 557.855C235.48 542.29 239.378 533.688 252.207 532.439C252.207 532.439 261.578 550.666 255.033 566.6C248.488 582.533 276.145 565.146 275.008 580.034C273.871 594.923 265.8 609.382 260.23 600.207C254.659 591.032 251.72 611.43 259.661 614.871C267.603 618.312 253.539 643.297 248.375 632.791C244.829 625.829 240.72 619.35 236.113 613.458L227.36 698.818L221.66 694.559Z" fill="#F5F5F5"/>
<path d="M207.872 784.937H245.906C247.189 784.94 248.425 784.325 249.361 783.217C250.297 782.109 250.862 780.593 250.94 778.977L254.968 696.32C255.01 695.456 254.912 694.59 254.678 693.776C254.445 692.961 254.083 692.215 253.613 691.584C253.143 690.953 252.575 690.45 251.945 690.106C251.315 689.761 250.636 689.583 249.95 689.582H203.828C203.142 689.583 202.463 689.761 201.833 690.106C201.203 690.45 200.635 690.953 200.165 691.584C199.695 692.215 199.333 692.961 199.1 693.776C198.867 694.59 198.768 695.456 198.81 696.32L202.838 779.08C202.936 780.677 203.509 782.168 204.443 783.254C205.377 784.341 206.602 784.942 207.872 784.937Z" fill="#EBEBEB"/>
<path d="M199.346 698.818H254.968C256.205 698.818 257.398 698.244 258.321 697.205C259.243 696.167 259.83 694.736 259.97 693.186C260.055 692.295 259.989 691.391 259.776 690.533C259.564 689.676 259.209 688.886 258.737 688.214C258.264 687.542 257.684 687.005 257.034 686.637C256.384 686.269 255.68 686.079 254.968 686.08H199.346C198.637 686.08 197.936 686.269 197.289 686.634C196.642 687 196.063 687.533 195.591 688.201C195.119 688.868 194.763 689.653 194.549 690.505C194.334 691.357 194.264 692.257 194.344 693.145C194.476 694.703 195.06 696.143 195.983 697.19C196.907 698.237 198.104 698.817 199.346 698.818Z" fill="#F5F5F5"/>
<path d="M406 875.643C579.902 875.643 720.877 865.263 720.877 852.459C720.877 839.656 579.902 829.276 406 829.276C232.098 829.276 91.1226 839.656 91.1226 852.459C91.1226 865.263 232.098 875.643 406 875.643Z" fill="#F5F5F5"/>
<path d="M578.68 245.002V821.453C578.68 822.646 578.492 823.827 578.127 824.927C577.761 826.027 577.226 827.025 576.552 827.861C575.878 828.698 575.078 829.357 574.2 829.801C573.322 830.244 572.383 830.463 571.437 830.443H325.823C324.966 830.46 324.116 830.26 323.322 829.854C322.528 829.448 321.806 828.845 321.2 828.081C320.595 827.317 320.117 826.407 319.795 825.406C319.473 824.405 319.314 823.332 319.327 822.251V244.265C319.297 243.308 319.416 242.354 319.679 241.456C319.942 240.557 320.343 239.734 320.859 239.031C321.375 238.329 321.996 237.763 322.687 237.364C323.377 236.965 324.123 236.742 324.881 236.708H383.264C384.165 236.73 385.04 237.091 385.778 237.744C386.516 238.397 387.082 239.313 387.405 240.374L390.085 248.566C390.414 249.622 390.985 250.532 391.725 251.177C392.466 251.823 393.342 252.176 394.242 252.191H504.041C504.934 252.182 505.804 251.839 506.542 251.204C507.279 250.569 507.85 249.672 508.182 248.627L510.862 240.292C511.184 239.228 511.75 238.31 512.487 237.653C513.225 236.997 514.1 236.632 515.003 236.605H572.395C574.109 236.675 575.733 237.597 576.91 239.17C578.087 240.743 578.724 242.84 578.68 245.002Z" fill="#263238"/>
<path d="M578.696 275.169H319.36V789.566H578.696V275.169Z" fill="#F47624"/>
<path opacity="0.7" d="M578.696 275.169H319.36V789.566H578.696V275.169Z" fill="white"/>
<path opacity="0.6" d="M349.988 261.509H353.35V255.877H349.988V261.509Z" fill="white"/>
<path opacity="0.6" d="M344.515 261.509H347.877V253.993H344.515V261.509Z" fill="white"/>
<path opacity="0.6" d="M339.042 261.509H342.404V252.109H339.042V261.509Z" fill="white"/>
<path opacity="0.6" d="M333.57 261.509H336.931V250.225H333.57V261.509Z" fill="white"/>
<path opacity="0.6" d="M548.636 253.809H546.655V259.441H548.636V253.809Z" fill="white"/>
<path opacity="0.6" d="M550 261.509H565.85V251.74H550V261.509Z" fill="white"/>
<path d="M436.19 326.246H521.531C521.786 326.277 522.042 326.24 522.285 326.138C522.527 326.036 522.75 325.871 522.939 325.654C523.128 325.437 523.279 325.173 523.382 324.878C523.486 324.583 523.539 324.265 523.539 323.942C523.539 323.62 523.486 323.301 523.382 323.007C523.279 322.712 523.128 322.448 522.939 322.231C522.75 322.014 522.527 321.849 522.285 321.747C522.042 321.645 521.786 321.608 521.531 321.638H436.19C435.735 321.693 435.313 321.959 435.005 322.385C434.698 322.811 434.528 323.366 434.528 323.942C434.528 324.519 434.698 325.074 435.005 325.5C435.313 325.926 435.735 326.192 436.19 326.246Z" fill="#263238"/>
<path d="M540.954 334.787H435.719C435.531 334.76 435.34 334.785 435.16 334.858C434.98 334.931 434.813 335.051 434.672 335.21C434.531 335.37 434.418 335.565 434.341 335.783C434.264 336.001 434.224 336.237 434.224 336.476C434.224 336.715 434.264 336.951 434.341 337.17C434.418 337.388 434.531 337.583 434.672 337.742C434.813 337.902 434.98 338.022 435.16 338.095C435.34 338.168 435.531 338.192 435.719 338.166H540.954C541.284 338.12 541.589 337.922 541.811 337.61C542.032 337.299 542.155 336.895 542.155 336.476C542.155 336.058 542.032 335.654 541.811 335.342C541.589 335.03 541.284 334.832 540.954 334.787Z" fill="#263238"/>
<path d="M510.082 344.474H435.719C435.531 344.447 435.34 344.472 435.16 344.545C434.98 344.618 434.813 344.738 434.672 344.897C434.531 345.057 434.418 345.252 434.341 345.47C434.264 345.688 434.224 345.924 434.224 346.163C434.224 346.402 434.264 346.638 434.341 346.857C434.418 347.075 434.531 347.27 434.672 347.429C434.813 347.589 434.98 347.709 435.16 347.782C435.34 347.855 435.531 347.879 435.719 347.853H510.082C510.412 347.807 510.717 347.609 510.939 347.297C511.16 346.986 511.282 346.582 511.282 346.163C511.282 345.745 511.16 345.341 510.939 345.029C510.717 344.717 510.412 344.519 510.082 344.474Z" fill="#263238"/>
<path d="M575.594 407.142H322.445V726.385H575.594V407.142Z" fill="#F47624"/>
<path d="M567.442 760.914L560.312 753.152L553.167 760.914V739.574H567.442V760.914Z" fill="#F47624"/>
<path d="M541.685 739.574H530.934C530.228 739.574 529.551 739.928 529.051 740.558C528.552 741.187 528.271 742.042 528.271 742.933V752.189C528.271 753.08 528.552 753.935 529.051 754.564C529.551 755.194 530.228 755.548 530.934 755.548H534.588V760.914L537.365 755.548H541.685C542.036 755.551 542.383 755.466 542.707 755.298C543.031 755.13 543.326 754.883 543.573 754.571C543.821 754.258 544.017 753.887 544.15 753.478C544.283 753.069 544.351 752.631 544.349 752.189V742.933C544.351 742.491 544.283 742.053 544.15 741.644C544.017 741.235 543.821 740.864 543.573 740.551C543.326 740.239 543.031 739.992 542.707 739.824C542.383 739.656 542.036 739.571 541.685 739.574Z" fill="#F47624"/>
<path d="M520.135 742.113C518.154 738.017 514.321 739.553 512.34 742.728C510.375 739.533 506.558 737.915 504.528 742.011C501.134 748.892 508.052 755.343 511.333 757.883L512.258 758.6L513.2 757.883C516.432 755.405 523.48 749.056 520.135 742.113Z" fill="#F47624"/>
<g opacity="0.3">
<path opacity="0.7" d="M523.902 434.012H533.484L528.693 449.679L523.902 434.012Z" fill="white"/>
<path opacity="0.7" d="M554.775 512L557.682 523.51L544.397 522.486L554.775 512Z" fill="white"/>
<path d="M551.039 461.496L546.492 475.566L560.313 481.649V470.262L551.039 461.496Z" fill="white"/>
<path d="M371.847 430.244H378.879L371.847 441.856V430.244Z" fill="white"/>
<path d="M345.409 487.485L353.366 485.192L355.591 493.814L346.415 497.848L345.409 487.485Z" fill="white"/>
<path d="M425.927 441.856C427.64 441.856 429.028 440.105 429.028 437.944C429.028 435.784 427.64 434.033 425.927 434.033C424.213 434.033 422.825 435.784 422.825 437.944C422.825 440.105 424.213 441.856 425.927 441.856Z" fill="white"/>
<path d="M380.731 700.232C380.731 701.768 380.369 703.269 379.692 704.546C379.015 705.823 378.053 706.818 376.927 707.405C375.802 707.992 374.563 708.144 373.369 707.843C372.174 707.542 371.078 706.8 370.218 705.713C369.358 704.625 368.773 703.24 368.537 701.733C368.301 700.226 368.426 698.665 368.894 697.247C369.362 695.829 370.154 694.618 371.168 693.768C372.182 692.918 373.374 692.466 374.592 692.47C375.399 692.47 376.199 692.671 376.945 693.061C377.691 693.451 378.368 694.023 378.938 694.744C379.509 695.465 379.96 696.321 380.268 697.263C380.575 698.204 380.733 699.213 380.731 700.232Z" fill="white"/>
<path d="M351.093 632.791L353.366 637.645L342.372 643.584L339.871 640.348L351.093 632.791Z" fill="white"/>
<path d="M422.825 712.253L420.681 705.393H429.045L422.825 712.253Z" fill="white"/>
<path d="M511.674 705.393L512.323 697.754L523.789 701.563V712.725L511.674 705.393Z" fill="white"/>
<path d="M536.31 666.01H546.557L541.442 673.649L536.31 666.01Z" fill="white"/>
<path d="M553.167 587.407L551.04 603.628L553.394 606.331L555.603 587.407H553.167Z" fill="white"/>
<path d="M333.294 539.894L342.372 548.209L335.876 554.23L333.294 539.894Z" fill="white"/>
<path d="M373.569 474.071C374.134 474.071 374.592 473.493 374.592 472.781C374.592 472.068 374.134 471.49 373.569 471.49C373.004 471.49 372.546 472.068 372.546 472.781C372.546 473.493 373.004 474.071 373.569 474.071Z" fill="white"/>
<path d="M505.048 458.691C505.837 458.691 506.477 457.884 506.477 456.888C506.477 455.893 505.837 455.086 505.048 455.086C504.258 455.086 503.619 455.893 503.619 456.888C503.619 457.884 504.258 458.691 505.048 458.691Z" fill="white"/>
<path d="M466.689 703.918C466.689 704.304 466.568 704.674 466.351 704.946C466.135 705.219 465.842 705.372 465.536 705.372C465.23 705.372 464.937 705.219 464.721 704.946C464.504 704.674 464.383 704.304 464.383 703.918C464.383 703.533 464.504 703.163 464.721 702.89C464.937 702.617 465.23 702.464 465.536 702.464C465.842 702.464 466.135 702.617 466.351 702.89C466.568 703.163 466.689 703.533 466.689 703.918Z" fill="white"/>
<path d="M480.217 423.219L491.65 421.048V428.073L480.217 430.244V423.219Z" fill="white"/>
<path d="M555.603 430.244H559.354L557.47 436.04L555.603 430.244Z" fill="white"/>
<path d="M339.871 437.944H345.409L342.632 441.856L339.871 437.944Z" fill="white"/>
<path d="M549.805 712.253L549.269 698.819L557.47 702.464L549.805 712.253Z" fill="white"/>
<path d="M557.682 634.941L553.394 630.62V634.941L557.682 638.198V634.941Z" fill="white"/>
<path d="M337.825 591.729L342.632 596.869L340.228 601.457L333.862 595.026L337.825 591.729Z" fill="white"/>
<path d="M333.862 471.49H339.871L333.294 474.071L333.862 471.49Z" fill="white"/>
</g>
<path d="M438.594 459.223L449.458 446.341L460.209 459.346L473.266 450.273L481.126 466.248L495.564 461.578L500.013 479.498H514.922L515.717 498.258L530.155 502.927L527.199 521.359L540.272 530.411L533.793 547.328L544.657 560.189L535.043 574.546L543.033 590.418L530.886 601.313L535.498 619.172L521.596 625.91L522.538 644.669L507.727 646.84L504.95 665.313L490.172 662.753L483.838 679.772L470.034 672.666L460.534 687.165L448.565 675.963L436.515 687.022L427.128 672.42L413.276 679.342L407.072 662.262L392.293 664.617L389.646 646.123L374.852 643.768L375.94 625.029L362.087 618.127L366.829 600.31L354.763 589.271L362.883 573.501L353.366 559.022L364.344 546.304L357.995 529.285L371.133 520.397L368.323 501.944L382.793 497.459L383.719 478.699L398.627 478.884L403.223 461.005L417.628 465.859L425.602 449.987L438.594 459.223Z" fill="#F47624"/>
<path opacity="0.4" d="M536.667 578.642L546.281 564.306L535.417 551.444L541.913 534.528L528.839 525.476L531.795 507.044L517.358 502.374L516.562 483.615H501.654L497.204 465.695L482.767 470.364L474.906 454.39L461.914 463.462L451.164 450.458L440.299 463.339L427.307 454.103L419.333 469.995L404.928 465.121L400.332 483L385.424 482.816L384.498 501.576L370.028 506.061L372.838 524.493L359.7 533.381L366.05 550.4L354.99 563.2L364.507 577.679L356.387 593.449L368.453 604.488L363.711 622.305L377.564 629.207L376.476 647.946L391.27 650.301L393.901 668.733L408.696 666.378L414.9 683.458L428.752 676.536L438.139 691.138L450.189 680.079L462.158 691.282L471.658 676.782L485.462 683.889L491.796 666.87L506.558 669.43L509.351 650.998L524.162 648.827L523.204 630.067L537.122 623.329L532.51 605.45L544.657 594.575L536.667 578.642ZM533.679 591.872L522.944 601.498L527.021 617.288L514.727 623.227L515.571 639.795L502.482 641.72L500.03 658.104L487.038 655.851L481.435 670.884L469.255 664.617L460.859 677.396L450.287 667.505L439.649 677.274L431.367 664.371L419.122 670.515L413.649 655.421L400.576 657.469L398.254 641.085L385.262 639.037L386.236 622.49L373.991 616.346L378.181 600.617L367.528 590.868L374.706 576.942L366.293 564.162L376.037 552.919L370.272 537.805L381.884 529.961L379.399 513.577L392.196 509.624L393.008 493.056L406.162 493.22L410.222 477.43L422.938 481.73L429.987 467.702L441.468 475.894L451.05 464.507L460.55 475.996L472.081 467.988L479.031 482.099L491.78 478.003L495.71 493.855H508.88L509.579 510.443L522.327 514.539L519.729 530.801L531.259 538.788L525.543 553.738L535.141 565.105L526.647 577.782L533.679 591.872Z" fill="black"/>
<path opacity="0.4" d="M438.594 459.223L449.458 446.341L460.209 459.346L473.266 450.273L481.126 466.248L495.564 461.578L500.013 479.498H514.922L515.717 498.258L530.155 502.927L527.199 521.359L540.272 530.411L533.793 547.328L544.657 560.189L535.043 574.546L543.033 590.418L530.886 601.313L535.498 619.172L521.596 625.91L522.538 644.669L507.727 646.84L504.95 665.313L490.172 662.753L483.838 679.772L470.034 672.666L460.534 687.165L448.565 675.963L436.515 687.022L427.128 672.42L413.276 679.342L407.072 662.262L392.293 664.617L389.646 646.123L374.852 643.768L375.94 625.029L362.087 618.127L366.829 600.31L354.763 589.271L362.883 573.501L353.366 559.022L364.344 546.304L357.995 529.285L371.133 520.397L368.323 501.944L382.793 497.459L383.719 478.699L398.627 478.884L403.223 461.005L417.628 465.859L425.602 449.987L438.594 459.223Z" fill="black"/>
<path d="M535.043 574.546L544.657 560.21L533.793 547.348L540.289 530.432L527.215 521.38L530.171 502.948L515.734 498.278L514.938 479.519H500.03L495.58 461.599L481.143 466.268L473.282 450.294L460.29 459.366L449.539 446.362L438.675 459.244L425.683 450.007L417.709 465.9L403.304 461.025L398.708 478.904L383.8 478.72L382.874 497.48L368.404 501.965L371.214 520.397L358.076 529.285L364.426 546.304L353.366 559.104L362.883 573.583L354.763 589.353L366.829 600.392L362.087 618.209L375.94 625.111L374.852 643.85L389.646 646.205L392.277 664.637L407.072 662.282L413.276 679.363L427.128 672.44L436.515 687.043L448.565 675.983L460.534 687.186L470.034 672.686L483.838 679.793L490.172 662.774L504.934 665.334L507.727 646.902L522.538 644.731L521.58 625.971L535.498 619.233L530.886 601.354L543.033 590.479L535.043 574.546ZM532.055 587.776L521.32 597.402L525.397 613.192L513.103 619.131L513.947 635.699L500.858 637.624L498.406 654.008L485.414 651.755L479.811 666.788L467.631 660.521L459.235 673.3L448.663 663.409L438.025 673.178L429.743 660.275L417.498 666.419L412.025 651.325L398.952 653.373L396.63 636.989L383.638 634.941L384.612 618.394L372.367 612.25L376.557 596.521L365.903 586.772L373.082 572.846L364.669 560.067L374.413 548.823L368.648 533.709L380.26 525.865L377.775 509.481L390.572 505.528L391.384 488.96L404.538 489.124L408.598 473.334L421.314 477.635L428.363 463.606L439.844 471.798L449.426 460.411L458.926 471.9L470.457 463.892L477.407 478.003L490.156 473.907L494.086 489.759H507.256L507.955 506.348L520.703 510.444L518.105 526.705L529.635 534.692L523.919 549.642L533.517 561.009L525.023 573.686L532.055 587.776Z" fill="#F47624"/>
<path opacity="0.6" d="M535.043 574.546L544.657 560.21L533.793 547.348L540.289 530.432L527.215 521.38L530.171 502.948L515.734 498.278L514.938 479.519H500.03L495.58 461.599L481.143 466.268L473.282 450.294L460.29 459.366L449.539 446.362L438.675 459.244L425.683 450.007L417.709 465.9L403.304 461.025L398.708 478.904L383.8 478.72L382.874 497.48L368.404 501.965L371.214 520.397L358.076 529.285L364.426 546.304L353.366 559.104L362.883 573.583L354.763 589.353L366.829 600.392L362.087 618.209L375.94 625.111L374.852 643.85L389.646 646.205L392.277 664.637L407.072 662.282L413.276 679.363L427.128 672.44L436.515 687.043L448.565 675.983L460.534 687.186L470.034 672.686L483.838 679.793L490.172 662.774L504.934 665.334L507.727 646.902L522.538 644.731L521.58 625.971L535.498 619.233L530.886 601.354L543.033 590.479L535.043 574.546ZM532.055 587.776L521.32 597.402L525.397 613.192L513.103 619.131L513.947 635.699L500.858 637.624L498.406 654.008L485.414 651.755L479.811 666.788L467.631 660.521L459.235 673.3L448.663 663.409L438.025 673.178L429.743 660.275L417.498 666.419L412.025 651.325L398.952 653.373L396.63 636.989L383.638 634.941L384.612 618.394L372.367 612.25L376.557 596.521L365.903 586.772L373.082 572.846L364.669 560.067L374.413 548.823L368.648 533.709L380.26 525.865L377.775 509.481L390.572 505.528L391.384 488.96L404.538 489.124L408.598 473.334L421.314 477.635L428.363 463.606L439.844 471.798L449.426 460.411L458.926 471.9L470.457 463.892L477.407 478.003L490.156 473.907L494.086 489.759H507.256L507.955 506.348L520.703 510.444L518.105 526.705L529.635 534.692L523.919 549.642L533.517 561.009L525.023 573.686L532.055 587.776Z" fill="white"/>
<path opacity="0.4" d="M401.29 560.763C401.29 560.763 409.573 558.961 413.649 560.763C417.725 562.565 434.972 599.675 434.972 599.675C434.972 599.675 468.427 541.634 495.174 516.26C495.174 516.26 460.469 555.458 440.348 621.261C440.348 621.261 433.576 625.029 428.785 618.291C427.404 616.243 411.863 582.84 408.858 581.591C406.504 580.587 398.903 581.079 398.903 581.079L401.29 560.763Z" fill="black"/>
<path d="M399.666 558.715C399.666 558.715 407.949 556.913 412.025 558.715C416.101 560.517 433.348 597.627 433.348 597.627C433.348 597.627 466.803 539.587 493.55 514.212C493.55 514.212 458.845 553.411 438.724 619.213C438.724 619.213 431.952 622.981 427.161 616.243C425.78 614.195 410.239 580.792 407.234 579.543C404.879 578.54 397.279 579.031 397.279 579.031L399.666 558.715Z" fill="white"/>
<path d="M412.155 344.371C412.189 352.766 410.511 361.031 407.283 368.374L406.568 369.91C404.247 374.766 401.275 379.076 397.783 382.648L397.588 382.853C394.282 386.213 390.562 388.87 386.577 390.717C382.27 392.708 377.717 393.72 373.13 393.707C371.67 393.719 370.211 393.616 368.762 393.4C366.327 393.074 363.923 392.45 361.584 391.537C355.887 389.328 350.673 385.487 346.35 380.313C341.623 374.705 338.075 367.703 336.027 359.937C333.978 352.17 333.492 343.884 334.613 335.822C335.733 327.76 338.426 320.176 342.448 313.752C346.469 307.328 351.694 302.265 357.653 299.02C363.611 295.774 370.116 294.447 376.581 295.158C383.047 295.87 389.271 298.597 394.694 303.094C400.117 307.592 404.568 313.719 407.647 320.924C410.726 328.129 412.336 336.186 412.334 344.371H412.155Z" fill="#F47624"/>
<path d="M407.218 368.374L406.503 369.91C397.55 369.733 388.615 371.007 379.918 373.698L377.012 374.6L375.03 375.255C372.546 376.095 370.158 376.975 368.128 377.815L367.203 378.204L366.537 378.47C364.117 379.494 362.054 380.416 360.479 381.174C358.124 382.3 356.776 383.037 356.776 383.037C356.006 381.785 355.301 380.472 354.665 379.105L354.568 378.88C351.044 371.425 344.824 354.304 347.747 329.728C350.995 302.387 368.973 304.128 375.355 305.643C376.118 305.803 376.871 306.021 377.612 306.299C377.612 306.299 397.734 312.279 398.481 328.089C398.586 330.206 398.792 332.312 399.098 334.397C400.99 346.007 403.708 357.379 407.218 368.374Z" fill="#263238"/>
<path d="M386.512 390.717C382.205 392.708 377.652 393.72 373.065 393.707C371.605 393.718 370.146 393.616 368.697 393.4C366.262 393.074 363.858 392.449 361.519 391.536L360.268 378.654L359.667 372.51L386.447 377.303V380.19L386.528 388.669V390.717H386.512Z" fill="#F47624"/>
<path d="M397.523 382.853C394.217 386.213 390.497 388.87 386.512 390.717C382.205 392.708 377.652 393.72 373.065 393.707C371.605 393.718 370.147 393.616 368.697 393.4C366.262 393.074 363.858 392.449 361.519 391.536C355.822 389.328 350.609 385.487 346.286 380.313C347.52 380.068 348.77 379.883 350.021 379.679H350.329C351.807 379.474 353.285 379.289 354.763 379.146C356.517 378.962 358.254 378.818 360.008 378.736H360.317L362.461 378.634H365.01H367.998C371.246 378.634 374.538 378.784 377.872 379.085L381.234 379.433L383.004 379.658L385.57 380.15L386.138 380.252H386.528L389.549 380.907C390.02 381.01 390.491 381.153 390.962 381.235L391.855 381.46L392.813 381.686L394.437 382.095L395.574 382.382L397.523 382.853Z" fill="#263238"/>
<path d="M379.659 391.168C368.502 388.772 365.319 382.546 365.319 382.546C370.093 377.344 369.525 369.254 368.567 364.114C368.26 362.51 367.847 360.941 367.332 359.424L380.73 363.315C380.342 365.665 380.087 368.047 379.967 370.442C379.865 372.214 379.936 373.996 380.178 375.746C380.925 380.866 383.231 381.071 383.231 381.071C385.359 386.908 379.659 391.168 379.659 391.168Z" fill="#E4897B"/>
<path opacity="0.2" d="M379.919 370.565C379.816 372.337 379.887 374.119 380.13 375.869C374.803 374.682 370.905 369.07 368.518 364.237C368.211 362.633 367.798 361.064 367.284 359.547L380.682 363.438C380.293 365.788 380.038 368.17 379.919 370.565Z" fill="black"/>
<path d="M378.1 315.023C390.783 315.72 394.583 324.506 394.941 341.033C395.412 361.677 391.287 376.115 375.582 370.872C354.243 363.725 357.036 313.877 378.1 315.023Z" fill="#E4897B"/>
<path d="M386.772 339.681C387.709 342.128 388.876 344.425 390.247 346.521C389.85 347.159 389.323 347.649 388.722 347.938C388.121 348.226 387.47 348.303 386.837 348.16L386.772 339.681Z" fill="#DE5753"/>
<path d="M373.731 329.728C373.588 329.729 373.449 329.663 373.341 329.544C373.285 329.477 373.24 329.396 373.209 329.306C373.178 329.216 373.162 329.119 373.162 329.021C373.162 328.924 373.178 328.827 373.209 328.737C373.24 328.647 373.285 328.566 373.341 328.499C374.144 327.529 375.117 326.811 376.18 326.402C377.243 325.993 378.368 325.904 379.464 326.144C379.54 326.161 379.612 326.197 379.677 326.25C379.741 326.302 379.797 326.371 379.841 326.451C379.885 326.53 379.916 326.621 379.932 326.716C379.948 326.811 379.949 326.909 379.935 327.004C379.921 327.1 379.893 327.191 379.851 327.273C379.809 327.354 379.755 327.425 379.692 327.48C379.628 327.535 379.557 327.574 379.481 327.594C379.406 327.614 379.328 327.616 379.253 327.598C378.355 327.419 377.437 327.495 376.566 327.821C375.695 328.147 374.893 328.714 374.218 329.482C374.158 329.568 374.082 329.635 373.998 329.678C373.913 329.721 373.822 329.738 373.731 329.728Z" fill="#263238"/>
<path d="M393.56 329.073C393.438 329.069 393.319 329.019 393.219 328.929C392.607 328.275 391.887 327.802 391.112 327.543C390.337 327.284 389.525 327.247 388.737 327.434C388.663 327.466 388.585 327.479 388.508 327.473C388.43 327.466 388.354 327.44 388.285 327.397C388.215 327.353 388.153 327.292 388.103 327.217C388.052 327.143 388.014 327.057 387.99 326.963C387.943 326.776 387.956 326.573 388.026 326.397C388.095 326.221 388.216 326.086 388.363 326.021C389.328 325.755 390.328 325.77 391.288 326.064C392.248 326.359 393.141 326.925 393.901 327.721C394.027 327.839 394.11 328.015 394.134 328.21C394.159 328.405 394.122 328.604 394.031 328.765C393.976 328.858 393.905 328.933 393.823 328.986C393.742 329.039 393.652 329.069 393.56 329.073Z" fill="#263238"/>
<path d="M363.321 341.238C363.321 341.238 369.704 328.417 369.151 318.218C369.151 318.218 394.729 306.626 394.876 338.862C394.876 338.862 398.302 310.436 376.524 308.613C354.747 306.79 353.464 347.033 364.312 359.629C364.312 359.629 359.375 349.245 363.321 341.238Z" fill="#263238"/>
<path d="M365.286 344.719C365.223 342.865 364.582 341.117 363.502 339.855C362.423 338.594 360.992 337.92 359.521 337.981C355.559 338.309 353.35 348.385 363.045 351.355C364.426 351.785 365.27 350.208 365.286 344.719Z" fill="#E4897B"/>
<path d="M387.08 352.87C386.217 354.492 385.447 356.19 384.774 357.949L383.979 357.663C380.438 356.27 379.107 354.161 378.798 352.236C378.641 351.285 378.669 350.302 378.879 349.368C378.983 348.836 379.147 348.326 379.366 347.853C381.251 349.929 383.466 351.472 385.862 352.379C386.609 352.707 387.08 352.87 387.08 352.87Z" fill="#263238"/>
<path d="M385.879 352.379L385.164 353.853C381.916 352.543 379.61 351.068 378.879 349.368C378.983 348.836 379.147 348.326 379.366 347.853C381.255 349.932 383.476 351.475 385.879 352.379Z" fill="white"/>
<path d="M383.979 357.663C380.438 356.27 379.107 354.16 378.798 352.235C380.142 352.789 381.396 353.642 382.501 354.754C383.23 355.496 383.749 356.517 383.979 357.663Z" fill="#DE5753"/>
<path d="M377.807 316.211C377.807 316.211 371.799 342.262 358.677 341.217C345.555 340.173 366.959 307.937 366.959 307.937C366.959 307.937 388.737 298.905 398.838 313.835C408.939 328.765 394.876 338.862 394.876 338.862C394.876 338.862 396.37 318.525 377.807 316.211Z" fill="#263238"/>
<path d="M368.063 338.657C367.982 338.656 367.903 338.624 367.837 338.566C367.77 338.507 367.719 338.425 367.69 338.33C367.651 338.207 367.652 338.071 367.691 337.949C367.731 337.826 367.806 337.728 367.901 337.674C378.132 332.145 377.336 314.552 377.336 314.368C377.332 314.235 377.368 314.106 377.438 314.007C377.508 313.907 377.605 313.846 377.71 313.836C377.817 313.829 377.921 313.875 378.003 313.962C378.084 314.05 378.136 314.173 378.148 314.307C378.148 314.491 378.977 332.739 368.226 338.616L368.063 338.657Z" fill="#263238"/>
<path d="M379.301 338.78C379.415 340.009 378.977 341.094 378.327 341.197C377.677 341.299 377.044 340.357 376.93 339.149C376.817 337.94 377.255 336.834 377.905 336.732C378.554 336.63 379.188 337.531 379.301 338.78Z" fill="#263238"/>
<path d="M377.629 336.814L379.675 335.442C379.675 335.442 378.814 337.92 377.629 336.814Z" fill="#263238"/>
<path d="M391.465 336.691C391.579 337.92 391.14 339.005 390.491 339.108C389.841 339.21 389.208 338.288 389.094 337.06C388.98 335.831 389.419 334.745 390.069 334.643C390.718 334.541 391.384 335.462 391.465 336.691Z" fill="#263238"/>
<path d="M389.76 334.725L391.79 333.353C391.79 333.353 390.994 335.872 389.76 334.725Z" fill="#263238"/>
<path d="M397.718 382.648L397.523 382.853C394.217 386.213 390.497 388.87 386.512 390.717V389.263V388.628L384.385 383.201L385.473 379.965L386.398 377.262L387.34 379.842L397.718 382.648Z" fill="#F47624"/>
<path opacity="0.6" d="M397.718 382.648L397.523 382.853C394.217 386.213 390.497 388.87 386.512 390.717V389.263V388.628L384.385 383.201L385.473 379.965L386.398 377.262L387.34 379.842L397.718 382.648Z" fill="white"/>
<path d="M373.309 382.792L368.875 389.816L368.648 393.421C366.213 393.094 363.809 392.47 361.47 391.557C355.774 389.348 350.56 385.507 346.237 380.334L349.923 379.679H350.232L358.043 378.286L359.667 372.531L367.625 378.511L373.358 382.832L373.309 382.792Z" fill="#F47624"/>
<path opacity="0.6" d="M373.293 382.791L368.875 389.816L368.648 393.421C366.213 393.094 363.809 392.47 361.47 391.557C355.774 389.348 350.56 385.507 346.237 380.334L350.232 379.638L358.043 378.265L359.667 372.51L367.625 378.491L373.293 382.791Z" fill="white"/>
<path d="M414.835 386.109C414.835 388.762 414.211 391.356 413.042 393.562C411.873 395.768 410.212 397.487 408.268 398.503C406.324 399.518 404.186 399.783 402.122 399.266C400.059 398.748 398.163 397.471 396.676 395.595C395.188 393.719 394.175 391.328 393.765 388.726C393.354 386.124 393.565 383.427 394.37 380.976C395.175 378.525 396.538 376.43 398.288 374.956C400.037 373.482 402.094 372.695 404.197 372.695C407.019 372.695 409.724 374.108 411.719 376.624C413.714 379.14 414.835 382.552 414.835 386.109Z" fill="white"/>
<path d="M413.275 386.109C413.275 388.373 412.743 390.587 411.746 392.47C410.748 394.352 409.33 395.82 407.671 396.686C406.013 397.553 404.187 397.779 402.426 397.338C400.665 396.896 399.048 395.805 397.778 394.204C396.508 392.603 395.644 390.563 395.294 388.343C394.943 386.122 395.123 383.82 395.81 381.728C396.497 379.636 397.661 377.848 399.154 376.59C400.647 375.332 402.402 374.661 404.197 374.661C406.605 374.661 408.914 375.867 410.617 378.014C412.319 380.161 413.275 383.073 413.275 386.109Z" fill="#263238"/>
<path d="M403.84 392.069L399 386.683L400.072 385.147L403.58 389.038L408.192 381.051L409.508 382.259L403.84 392.069Z" fill="white"/>
<path d="M630.242 795.751C630.242 795.751 620.774 769.721 631.59 744.059C642.406 718.398 645.524 712.356 638.638 707.093C631.752 701.829 628.585 727.573 628.585 727.573C628.585 727.573 622.771 709.816 627.579 691.262C632.386 672.707 635.374 642.458 628.829 639.201C622.284 635.945 627.579 676.926 621.895 690.893C618.999 681.09 617.131 670.852 616.34 660.439C615.545 645.53 616.779 621.712 611.598 615.608C606.418 609.505 603.121 613.724 608.204 646.636C611.259 666.298 612.944 686.261 613.239 706.294C613.239 706.294 602.017 663.122 594.481 661.873C586.946 660.624 586.962 674.591 593.41 686.715C599.857 698.839 612.297 720.568 614.343 731.771C614.343 731.771 602.017 699.29 590.925 709.243C579.833 719.196 600.571 738.816 609.812 745.923C619.053 753.029 625.484 797.45 625.484 797.45L630.242 795.751Z" fill="#F47624"/>
<path opacity="0.2" d="M630.242 795.751C630.242 795.751 620.774 769.721 631.59 744.059C642.406 718.398 645.524 712.356 638.638 707.093C631.752 701.829 628.585 727.573 628.585 727.573C628.585 727.573 622.771 709.816 627.579 691.262C632.386 672.707 635.374 642.458 628.829 639.201C622.284 635.945 627.579 676.926 621.895 690.893C618.999 681.09 617.131 670.852 616.34 660.439C615.545 645.53 616.779 621.712 611.598 615.608C606.418 609.505 603.121 613.724 608.204 646.636C611.259 666.298 612.944 686.261 613.239 706.294C613.239 706.294 602.017 663.122 594.481 661.873C586.946 660.624 586.962 674.591 593.41 686.715C599.857 698.839 612.297 720.568 614.343 731.771C614.343 731.771 602.017 699.29 590.925 709.243C579.833 719.196 600.571 738.816 609.812 745.923C619.053 753.029 625.484 797.45 625.484 797.45L630.242 795.751Z" fill="black"/>
<path d="M622.772 806.441C622.772 806.441 631.98 780.227 620.92 754.77C609.861 729.313 606.678 723.333 613.531 717.906C620.384 712.479 623.778 738.243 623.778 738.243C623.778 738.243 629.414 720.384 624.444 701.911C619.475 683.438 616.178 653.251 622.69 649.892C629.203 646.533 624.314 687.596 630.112 701.44C632.916 691.587 634.69 681.315 635.39 670.884C636.023 655.954 634.578 632.177 639.694 625.971C644.809 619.766 648.155 623.923 643.38 656.937C640.513 676.69 639.019 696.72 638.914 716.8C638.914 716.8 649.73 673.423 657.249 672.031C664.768 670.638 664.898 684.606 658.564 696.853C652.231 709.1 639.986 731.054 638.053 742.257C638.053 742.257 650.071 709.489 661.244 719.299C672.417 729.109 651.89 749.056 642.714 756.306C633.539 763.556 627.546 808.141 627.546 808.141L622.772 806.441Z" fill="#F47624"/>
<path d="M665.255 787.743H589.155L595.31 856.433H659.1L665.255 787.743Z" fill="#263238"/>
<path d="M161.02 809.861L207.872 804.065V731.361H226.418V804.024L273.4 809.861C275.652 810.136 277.741 811.459 279.26 813.572C280.78 815.685 281.62 818.437 281.618 821.289V830.157H152.802V821.248C152.808 818.403 153.652 815.662 155.17 813.557C156.689 811.453 158.774 810.136 161.02 809.861Z" fill="#263238"/>
<path opacity="0.1" d="M161.02 809.861L207.872 804.065V731.361H226.418V804.024L273.4 809.861C275.652 810.136 277.741 811.459 279.26 813.572C280.78 815.685 281.62 818.437 281.618 821.289V830.157H152.802V821.248C152.808 818.403 153.652 815.662 155.17 813.557C156.689 811.453 158.774 810.136 161.02 809.861Z" fill="white"/>
<path d="M278.585 856.22C285.199 854.866 289.689 847.008 288.616 838.668C287.542 830.328 281.311 824.664 274.698 826.018C268.084 827.372 263.593 835.23 264.667 843.57C265.74 851.91 271.972 857.574 278.585 856.22Z" fill="#263238"/>
<path d="M169.727 843.629C170.8 835.289 166.309 827.431 159.696 826.077C153.083 824.723 146.851 830.386 145.778 838.726C144.704 847.066 149.195 854.925 155.809 856.279C162.422 857.632 168.653 851.969 169.727 843.629Z" fill="#263238"/>
<path d="M222.845 749.199H211.331C209.552 749.199 207.846 748.308 206.588 746.722C205.331 745.136 204.624 742.984 204.624 740.741V675.349H229.552V740.741C229.552 742.984 228.846 745.136 227.588 746.722C226.33 748.308 224.624 749.199 222.845 749.199Z" fill="#263238"/>
<path opacity="0.2" d="M222.845 749.199H211.331C209.552 749.199 207.846 748.308 206.588 746.722C205.331 745.136 204.624 742.984 204.624 740.741V675.349H229.552V740.741C229.552 742.984 228.846 745.136 227.588 746.722C226.33 748.308 224.624 749.199 222.845 749.199Z" fill="white"/>
<path d="M152.331 547.103C152.331 547.103 166.216 656.486 193.63 675.328H165.762C165.762 675.328 138.235 638.054 129.92 547.103H152.331Z" fill="#263238"/>
<path opacity="0.1" d="M152.331 547.103C152.331 547.103 166.216 656.486 193.63 675.328H165.762C165.762 675.328 138.235 638.054 129.92 547.103H152.331Z" fill="white"/>
<path d="M164.398 659.866H273.076C275.229 659.866 277.295 660.945 278.817 662.865C280.34 664.785 281.196 667.39 281.196 670.106V683.807H156.278V670.106C156.278 667.39 157.133 664.785 158.656 662.865C160.179 660.945 162.244 659.866 164.398 659.866Z" fill="#F47624"/>
<path d="M283.128 671.826H154.329C152.526 671.826 151.064 673.669 151.064 675.942V679.67C151.064 681.943 152.526 683.786 154.329 683.786H283.128C284.931 683.786 286.392 681.943 286.392 679.67V675.942C286.392 673.669 284.931 671.826 283.128 671.826Z" fill="#263238"/>
<path opacity="0.6" d="M283.128 671.826H154.329C152.526 671.826 151.064 673.669 151.064 675.942V679.67C151.064 681.943 152.526 683.786 154.329 683.786H283.128C284.931 683.786 286.392 681.943 286.392 679.67V675.942C286.392 673.669 284.931 671.826 283.128 671.826Z" fill="white"/>
<path d="M126.542 569.344H171.202C184.194 569.344 192.785 556.114 190.17 539.791L186.76 518.001C184.162 501.617 171.446 488.469 158.372 488.469H113.68C100.688 488.469 92.097 501.699 94.7117 518.001L98.1708 539.791C100.688 556.114 113.469 569.344 126.542 569.344Z" fill="#F47624"/>
<path d="M168.587 461.496H197.04L199.655 482.898L174.353 488.468L168.587 461.496Z" fill="#F47624"/>
<path d="M357.524 758.804L347.309 763.842L339.968 746.373L333.293 730.501L344.613 721.94L351.45 741.437L357.524 758.804Z" fill="#E4897B"/>
<path opacity="0.2" d="M351.45 741.437L339.968 746.373L333.293 730.501L344.613 721.94L351.45 741.437Z" fill="black"/>
<path d="M349.339 731.914L335.437 741.376C335.437 741.376 282.933 624.968 274.862 625.93C266.791 626.893 190.203 688.394 166.85 665.6C143.497 642.806 166.216 574.444 166.216 574.444C166.216 574.444 211.851 552.571 217.096 565.944C219.397 571.361 221.447 576.941 223.235 582.656C224.258 586.752 225.038 590.377 225.038 590.377C226.515 589.619 274.229 564.941 295.535 578.089C317.2 591.667 349.339 731.914 349.339 731.914Z" fill="#F47624"/>
<path opacity="0.3" d="M349.339 731.914L335.437 741.376C335.437 741.376 282.933 624.968 274.862 625.93C266.791 626.893 190.203 688.394 166.85 665.6C143.497 642.806 166.216 574.444 166.216 574.444C166.216 574.444 211.851 552.571 217.096 565.944C219.397 571.361 221.447 576.941 223.235 582.656C224.258 586.752 225.038 590.377 225.038 590.377C226.515 589.619 274.229 564.941 295.535 578.089C317.2 591.667 349.339 731.914 349.339 731.914Z" fill="white"/>
<path d="M273.855 826.839L262.958 825.262L262.909 805.888L262.893 788.091L276.064 787.313L274.894 808.243L273.855 826.839Z" fill="#E4897B"/>
<path opacity="0.2" d="M274.862 808.673L262.877 806.257V788.296L276.047 787.415L274.862 808.673Z" fill="black"/>
<path d="M328.649 735.539L348.981 722.698L351.092 733.553L335.697 743.567L328.649 735.539Z" fill="#263238"/>
<path d="M203 665.846C203 665.846 206.345 665.375 257.696 653.374C257.696 653.374 258.866 736.215 261.302 797.942L277.119 798.597C277.119 798.597 299.855 661.545 297.143 640.901C294.431 620.257 274.943 617.411 274.943 617.411C274.943 617.411 240.985 650.588 203 665.846Z" fill="#F47624"/>
<path opacity="0.4" d="M203 665.846C203 665.846 206.345 665.375 257.696 653.374C257.696 653.374 258.866 736.215 261.302 797.942L277.119 798.597C277.119 798.597 299.855 661.545 297.143 640.901C294.431 620.257 274.943 617.411 274.943 617.411C274.943 617.411 240.985 650.588 203 665.846Z" fill="white"/>
<path opacity="0.3" d="M203 665.846C203 665.846 206.345 665.375 257.696 653.374C257.696 653.374 258.866 736.215 261.302 797.942L277.119 798.597C277.119 798.597 299.855 661.545 297.143 640.901C294.431 620.257 274.943 617.411 274.943 617.411C274.943 617.411 240.985 650.588 203 665.846Z" fill="black"/>
<path d="M258.33 792.433L279.896 791.798L276.957 803L259.45 803.205L258.33 792.433Z" fill="#263238"/>
<path opacity="0.3" d="M225.038 590.438L197.04 603.013C197.04 603.013 211.77 589.148 223.235 582.718C224.258 586.895 225.038 590.438 225.038 590.438Z" fill="black"/>
<path d="M164.414 569.59L164.008 580.076L216.479 566.047L215.261 554.476L164.414 569.59Z" fill="#263238"/>
<path opacity="0.2" d="M164.414 569.59L164.008 580.076L216.479 566.047L215.261 554.476L164.414 569.59Z" fill="black"/>
<path d="M180.359 563.176L177.741 563.789L180.208 580.563L182.827 579.95L180.359 563.176Z" fill="#F47624"/>
<path d="M203.256 558.915L191.802 562.171L193.758 573.119L205.212 569.864L203.256 558.915Z" fill="white"/>
<path d="M212.228 553.277L209.609 553.889L212.074 570.663L214.693 570.051L212.228 553.277Z" fill="#F47624"/>
<path opacity="0.3" d="M180.359 563.176L177.741 563.789L180.208 580.563L182.827 579.95L180.359 563.176Z" fill="white"/>
<path opacity="0.3" d="M212.228 553.277L209.609 553.889L212.074 570.663L214.693 570.051L212.228 553.277Z" fill="white"/>
<path d="M377.824 781.64C376.116 780.979 374.327 780.722 372.546 780.882C372.546 780.882 365.968 777.421 357.93 760.873L351.125 761.999C349.979 762.218 348.914 762.876 348.075 763.883C347.235 764.891 346.662 766.199 346.432 767.631C346.375 768.031 346.375 768.44 346.432 768.84C346.717 770.919 347.113 772.972 347.617 774.984C349.362 781.633 351.423 788.144 353.788 794.481L354.909 793.907L351.417 781.476C350.248 777.257 354.324 780.821 356.484 784.917C358.644 789.013 361.697 792.965 368.973 789.504C377.434 785.347 380.779 783.135 377.824 781.64Z" fill="#F47624"/>
<path d="M356.273 756.49C356.273 756.49 367.203 777.4 372.513 780.882C372.513 780.882 366.504 787.026 358.482 777.155C348.121 764.518 346.399 768.84 346.399 768.84C346.307 766.363 346.399 763.881 346.675 761.426C347.536 756.634 356.273 756.49 356.273 756.49Z" fill="#E4897B"/>
<path d="M290.16 851.21C288.622 850.068 286.933 849.284 285.174 848.896C285.174 848.896 279.425 843.551 274.797 825.119L267.976 824.177C266.816 824.041 265.652 824.363 264.643 825.096C263.634 825.829 262.829 826.939 262.341 828.273C262.195 828.64 262.097 829.034 262.049 829.44C261.943 831.527 261.943 833.62 262.049 835.707C262.498 842.682 263.279 849.617 264.387 856.474L265.573 856.248L264.517 843.141C264.176 838.677 267.473 843.367 268.804 847.995C270.136 852.623 272.345 857.375 280.059 856.187C289.072 854.692 292.742 853.545 290.16 851.21Z" fill="#F47624"/>
<path d="M273.936 820.326C273.936 820.326 280.627 843.919 285.174 848.896C285.174 848.896 278.191 852.992 272.182 841.093C264.485 825.692 261.984 829.399 261.984 829.399C262.35 826.965 262.894 824.58 263.608 822.272C265.427 817.848 273.936 820.326 273.936 820.326Z" fill="#E4897B"/>
<path d="M193.694 389.12C193.694 389.12 168.052 373.412 159.59 407.245C151.129 441.078 161.978 464.425 161.978 464.425C161.978 464.425 191.648 454.84 216.625 461.537C216.625 461.537 211.234 432.701 212.533 416.154C213.832 399.606 193.694 389.12 193.694 389.12Z" fill="#263238"/>
<path d="M213.702 465.695C219.337 466.002 242.934 505.999 242.934 505.999L251.704 491.663C251.704 491.663 265.215 524.78 258.525 540.549C251.834 556.319 216.593 513.229 216.593 513.229L213.702 465.695Z" fill="#F47624"/>
<path opacity="0.6" d="M213.686 465.695L215.992 497.664L216.577 513.249C216.577 513.249 222.374 520.335 229.699 527.708C240.466 538.542 254.529 549.97 258.508 540.59C265.199 524.841 251.671 491.704 251.671 491.704L242.918 506.04V505.918C241.554 503.46 219.143 466.002 213.686 465.695Z" fill="white"/>
<path opacity="0.2" d="M215.992 497.664L216.577 513.249C216.577 513.249 222.374 520.336 229.699 527.708C230.397 508.99 216.577 481.731 216.577 481.731L215.992 497.664Z" fill="black"/>
<path opacity="0.2" d="M242.95 505.999L241.684 509.051L245.354 527.073C245.354 527.073 235.22 515.441 241.684 504.054L242.95 505.999Z" fill="black"/>
<path d="M216.658 501.371C216.658 501.862 216.658 502.375 216.658 502.887C216.658 505.098 216.658 507.433 216.544 509.911C216.544 510.116 216.544 510.321 216.544 510.546C216.544 511.877 216.544 513.249 216.544 514.642C216.544 514.888 216.544 515.113 216.544 515.359C216.544 517.407 216.43 519.455 216.366 521.503C216.366 521.79 216.366 522.076 216.366 522.363C216.366 525.148 216.187 528.077 216.073 531.169C215.813 538.112 215.505 545.813 215.115 554.353L214.384 554.578L164.771 569.406H164.576C164.576 569.406 166.574 535.941 163.147 516.997C163.122 516.831 163.09 516.667 163.05 516.506C163.05 516.219 162.952 515.932 162.887 515.646C162.822 515.359 162.66 514.581 162.562 514.028C162.465 513.475 162.335 512.922 162.205 512.348C161.767 510.3 161.296 508.252 160.792 505.999C160.467 504.525 160.11 503.009 159.737 501.453L159.542 500.675C159.103 498.831 158.632 496.927 158.145 494.961C157.999 494.387 157.869 493.834 157.723 493.24C157.008 490.435 156.245 487.465 155.417 484.352C154.507 480.843 153.511 477.123 152.429 473.191C158.118 470.903 163.917 469.069 169.789 467.702L172.306 467.128L174.97 466.575C179.42 465.674 183.918 465.039 188.416 464.63C190.225 464.466 192.027 464.343 193.824 464.261C194.912 464.261 196.033 464.261 197.072 464.261H197.527L200.775 464.384H202.285H203.244H204.283L205.907 464.507H207.141L209.366 464.691L210.243 464.794H211.023H211.737H212.322L213.735 464.958C213.735 464.958 213.735 464.958 213.865 464.958L213.978 465.101C214.087 465.264 214.18 465.443 214.254 465.633C214.753 466.967 215.108 468.379 215.31 469.832C215.31 470.241 215.44 470.692 215.521 471.183C215.602 471.675 215.716 472.719 215.83 473.621C215.943 474.522 215.976 474.931 216.041 475.669C216.106 476.406 216.154 477 216.203 477.717C216.684 485.586 216.835 493.482 216.658 501.371Z" fill="#263238"/>
<path d="M189.716 477.819C177.893 475.914 174.353 469.525 174.353 469.525C179.225 463.79 178.299 455.332 177.065 450.048C176.693 448.372 176.204 446.741 175.603 445.174L189.829 448.533C189.498 451.024 189.314 453.543 189.277 456.069C189.224 457.934 189.36 459.799 189.683 461.619C190.641 466.985 193.061 467.067 193.061 467.067C195.562 472.945 189.716 477.819 189.716 477.819Z" fill="#E4897B"/>
<path opacity="0.2" d="M189.277 456.069C189.224 457.934 189.36 459.799 189.683 461.619C184.032 460.698 179.761 454.984 177.065 450.048C176.693 448.372 176.204 446.741 175.603 445.174L189.829 448.533C189.498 451.024 189.314 453.543 189.277 456.069Z" fill="black"/>
<path d="M193.061 398.213C206.151 401.572 208.928 411.505 207.141 428.749C204.9 450.314 198.729 464.445 183.09 455.701C161.88 443.822 171.332 392.622 193.061 398.213Z" fill="#E4897B"/>
<path d="M198.826 425.656C199.478 428.392 200.389 431.018 201.538 433.48C201.043 434.058 200.431 434.453 199.769 434.623C199.108 434.793 198.422 434.73 197.787 434.442L198.826 425.656Z" fill="#DE5753"/>
<path d="M186.76 412.59C186.673 412.59 186.588 412.566 186.51 412.52C186.431 412.474 186.361 412.407 186.305 412.324C186.249 412.257 186.204 412.176 186.173 412.086C186.142 411.996 186.126 411.9 186.126 411.802C186.126 411.704 186.142 411.607 186.173 411.517C186.204 411.427 186.249 411.347 186.305 411.28C187.262 410.441 188.362 409.899 189.516 409.696C190.67 409.493 191.845 409.636 192.947 410.112C193.02 410.144 193.087 410.194 193.144 410.259C193.201 410.324 193.248 410.402 193.281 410.49C193.314 410.577 193.333 410.672 193.337 410.769C193.341 410.866 193.33 410.963 193.305 411.054C193.279 411.146 193.24 411.23 193.188 411.302C193.137 411.374 193.075 411.433 193.005 411.475C192.936 411.516 192.861 411.541 192.784 411.546C192.707 411.551 192.63 411.537 192.558 411.505C191.643 411.136 190.675 411.027 189.723 411.186C188.771 411.346 187.859 411.769 187.052 412.426C186.967 412.511 186.867 412.567 186.76 412.59Z" fill="#263238"/>
<path d="M207.369 416.01C207.215 416.005 207.069 415.924 206.963 415.785C206.404 414.977 205.712 414.335 204.934 413.903C204.157 413.471 203.313 413.261 202.464 413.286C202.388 413.304 202.31 413.302 202.235 413.28C202.16 413.258 202.089 413.217 202.026 413.16C201.964 413.102 201.912 413.029 201.873 412.946C201.833 412.862 201.808 412.769 201.798 412.672C201.784 412.576 201.786 412.478 201.803 412.383C201.821 412.288 201.853 412.199 201.899 412.12C201.944 412.042 202.002 411.976 202.069 411.926C202.135 411.877 202.209 411.845 202.285 411.832C203.318 411.755 204.352 411.976 205.306 412.48C206.26 412.984 207.11 413.758 207.791 414.741C207.845 414.809 207.889 414.89 207.918 414.98C207.948 415.07 207.963 415.166 207.963 415.263C207.963 415.36 207.948 415.456 207.918 415.546C207.889 415.635 207.845 415.717 207.791 415.785C207.678 415.926 207.527 416.006 207.369 416.01Z" fill="#263238"/>
<path d="M174.271 422.339C174.271 422.339 182.586 410.358 183.35 399.647C183.35 399.647 211.429 392.97 207.352 426.496C207.352 426.496 214.644 397.66 192.265 391.23C169.887 384.799 163.261 426.312 172.875 441.651C172.875 441.651 169.107 429.855 174.271 422.339Z" fill="#263238"/>
<path d="M175.847 426.373C175.937 425.412 175.877 424.437 175.669 423.505C175.461 422.573 175.109 421.702 174.634 420.941C174.159 420.18 173.57 419.545 172.9 419.072C172.231 418.598 171.494 418.296 170.731 418.181C166.59 417.69 162.952 427.684 172.631 432.804C174.028 433.541 175.132 431.964 175.847 426.373Z" fill="#E4897B"/>
<path d="M197.413 439.398C196.301 440.908 195.275 442.517 194.344 444.211L193.565 443.72C190.057 441.549 189.001 439.091 188.887 437.023C188.859 436 189.02 434.983 189.358 434.053C189.537 433.524 189.772 433.028 190.057 432.579C191.738 435.164 193.844 437.26 196.228 438.723C196.959 439.132 197.413 439.398 197.413 439.398Z" fill="#263238"/>
<path d="M196.228 438.641L195.302 440.033C192.054 437.985 189.894 435.937 189.358 434.053C189.537 433.524 189.772 433.028 190.057 432.579C191.745 435.134 193.85 437.202 196.228 438.641Z" fill="white"/>
<path d="M193.565 443.72C190.057 441.549 189.001 439.091 188.887 437.023C190.218 437.864 191.413 439.01 192.412 440.402C193.065 441.326 193.469 442.488 193.565 443.72Z" fill="#DE5753"/>
<path d="M192.59 399.36C192.59 399.36 182.846 425.165 169.432 421.335C156.018 417.505 182.424 388.567 182.424 388.567C182.424 388.567 206.248 383.672 214.758 401.408C223.267 419.144 207.352 426.599 207.352 426.599C207.352 426.599 211.575 405.668 192.59 399.36Z" fill="#263238"/>
<path d="M179.598 420.639C179.509 420.634 179.423 420.594 179.353 420.524C179.283 420.454 179.232 420.358 179.208 420.25C179.194 420.185 179.19 420.117 179.197 420.051C179.204 419.984 179.222 419.92 179.249 419.863C179.277 419.805 179.313 419.755 179.356 419.716C179.4 419.677 179.449 419.649 179.501 419.635C190.869 416.01 192.363 397.558 192.379 397.373C192.391 397.241 192.444 397.12 192.526 397.036C192.608 396.952 192.712 396.911 192.818 396.923C192.871 396.925 192.924 396.941 192.972 396.971C193.02 397.001 193.063 397.044 193.097 397.096C193.13 397.149 193.155 397.21 193.168 397.275C193.182 397.341 193.184 397.409 193.175 397.476C193.175 397.66 191.551 416.829 179.696 420.618L179.598 420.639Z" fill="#263238"/>
<path d="M191.177 423.137C191.177 424.448 190.544 425.472 189.862 425.452C189.18 425.431 188.628 424.325 188.676 423.014C188.725 421.704 189.31 420.659 190.008 420.7C190.706 420.741 191.226 421.888 191.177 423.137Z" fill="#263238"/>
<path d="M189.716 420.741L192.006 419.738C192.006 419.738 190.804 422.093 189.716 420.741Z" fill="#263238"/>
<path d="M204.104 423.506C204.104 424.817 203.455 425.861 202.773 425.82C202.091 425.779 201.555 424.694 201.587 423.383C201.62 422.072 202.22 421.048 202.919 421.089C203.617 421.13 204.137 422.195 204.104 423.506Z" fill="#263238"/>
<path d="M202.626 421.13L204.916 420.127C204.916 420.127 203.715 422.461 202.626 421.13Z" fill="#263238"/>
<path d="M222.293 492.093C222.269 492.312 222.284 492.535 222.336 492.747C222.387 492.958 222.475 493.152 222.593 493.316C222.71 493.48 222.855 493.609 223.016 493.695C223.178 493.781 223.352 493.822 223.527 493.814H237.104C237.479 493.796 237.838 493.615 238.119 493.301C238.401 492.988 238.587 492.561 238.647 492.093L241.667 458.301C241.707 458.064 241.707 457.819 241.665 457.582C241.624 457.345 241.543 457.123 241.427 456.929C241.312 456.735 241.165 456.574 240.996 456.458C240.828 456.341 240.641 456.272 240.449 456.253H226.873C226.467 456.314 226.09 456.552 225.808 456.926C225.527 457.3 225.357 457.787 225.33 458.301L222.293 492.093Z" fill="#263238"/>
<path opacity="0.5" d="M226.84 458.076L223.755 492.196C223.716 492.395 223.716 492.603 223.752 492.803C223.789 493.002 223.863 493.188 223.967 493.346C224.071 493.503 224.203 493.627 224.353 493.709C224.502 493.79 224.664 493.826 224.827 493.814H236.341C237.12 493.814 238.533 493.281 238.614 492.319L241.7 458.076C241.7 457.114 240.466 456.335 239.686 456.335H228.172C227.816 456.356 227.479 456.548 227.232 456.872C226.984 457.196 226.844 457.627 226.84 458.076Z" fill="white"/>
<path d="M250.746 494.92L243.665 479.765C243.721 476.471 243.519 473.178 243.064 469.934C242.447 468.05 235.512 463.79 234.148 464.446C232.784 465.101 232.297 480.707 233.531 482.878C234.765 485.048 239.101 487.322 239.101 487.322L238.809 490.291L242.95 506.061L250.746 494.92Z" fill="#E4897B"/>
<path d="M253.588 493.199L251.249 490.23L240.092 505.999L241.684 512.246L253.588 493.199Z" fill="#F47624"/>
<path d="M197.04 461.496L195.627 468.05L198.502 473.375L204.868 548.25L222.293 545.014C221.091 486.666 220.669 486.359 213.946 465.367L198.339 463.995L197.04 461.496Z" fill="#F47624"/>
<path opacity="0.6" d="M197.04 461.496L195.627 468.05L198.502 473.375L204.868 548.25L222.293 545.014C221.091 486.666 220.669 486.359 213.946 465.367L198.339 463.995L197.04 461.496Z" fill="white"/>
<path d="M168.587 461.496L184.064 469.688L180.264 477.88L184.015 554.537L160.565 563.2C160.565 563.2 143.545 506.88 152.266 473.457L167.629 467.866L168.587 461.496Z" fill="#F47624"/>
<path opacity="0.6" d="M183.415 542.331L184.015 554.476L173.557 558.326L160.565 563.118C155.765 546.462 152.41 529.199 150.561 511.631C149.311 498.299 149.343 484.557 152.266 473.375L167.629 467.784L168.587 461.496L184.064 469.688L180.264 477.88L181.758 508.314L183.415 542.331Z" fill="white"/>
<path opacity="0.2" d="M197.137 518.39C197.137 518.39 191.307 529.101 183.415 542.331C180.361 547.451 176.919 552.939 173.557 558.326L160.565 563.118C155.765 546.462 152.41 529.199 150.561 511.631C156.927 503.583 164.722 493.834 164.722 493.834C164.722 493.834 168.295 507.761 166.72 519.864L181.758 508.252L186.435 504.648L197.137 518.39Z" fill="black"/>
<path d="M184.438 509.747L200.532 493.814C201.464 490.367 202.609 487.019 203.958 483.799C204.933 482.304 219.045 475.75 220.198 475.607C221.351 475.464 220.198 490.189 218.428 492.687C216.658 495.186 205.306 500.142 205.306 500.142L188.481 520.192L184.438 509.747Z" fill="#E4897B"/>
<path d="M152.266 473.375C142.815 479.355 138.608 546.652 155.027 558.264C171.446 569.877 195.952 517.304 195.952 517.304L186.419 504.545C186.419 504.545 166.444 525.64 164.04 523.694C161.637 521.749 164.365 501.166 164.365 501.166C164.365 501.166 167.175 495.022 161.263 485.13C155.352 475.238 152.266 473.375 152.266 473.375Z" fill="#F47624"/>
<path opacity="0.6" d="M152.266 473.375C142.815 479.355 138.608 546.652 155.027 558.264C171.446 569.877 195.952 517.304 195.952 517.304L186.419 504.545C186.419 504.545 166.444 525.64 164.04 523.694C161.637 521.749 164.365 501.166 164.365 501.166C164.365 501.166 167.175 495.022 161.263 485.13C155.352 475.238 152.266 473.375 152.266 473.375Z" fill="white"/>
<path d="M196.13 522.056L198.989 519.885L188.287 500.101L184.356 502.866L196.13 522.056Z" fill="#F47624"/>
</svg>
