<svg id="Exeem_nav_logo" data-name="Exeem nav logo" xmlns="http://www.w3.org/2000/svg" width="329.26" height="113.515" viewBox="0 0 329.26 113.515">
  <g id="Group_1" data-name="Group 1" transform="translate(0 27.709)">
    <path id="Path_1" data-name="Path 1" d="M104.165,189.583a9.968,9.968,0,0,1,.082,1.27,10.78,10.78,0,0,1-2.647,6.876,9.622,9.622,0,0,1-7.878,3.41,10.229,10.229,0,0,1-6.027-1.744,10.8,10.8,0,0,1-2.018-1.83,11.408,11.408,0,0,1-2.035,1.83,10.231,10.231,0,0,1-6.029,1.744,9.651,9.651,0,0,1-7.829-3.4,10.684,10.684,0,0,1-2.7-6.887,9.589,9.589,0,0,1,.084-1.27H24.518a4.82,4.82,0,0,1-3.964-1.825,6.109,6.109,0,0,1-1.428-3.809,5.679,5.679,0,0,1,1.667-4.047,5.514,5.514,0,0,1,3.809-1.508H37.537a22.119,22.119,0,0,0,8.292-1.508,22.563,22.563,0,0,0,6.707-4.127,27.484,27.484,0,0,0,6.864,4.007,20.868,20.868,0,0,0,7.816,1.626c.079,0,.161,0,.24,0H68.8l-.159-17.142-1.27-.159a4.673,4.673,0,0,1-1.032-.079,3.032,3.032,0,0,1-.952-.238,5.262,5.262,0,0,1-2.936-2.422A7.007,7.007,0,0,1,61.5,154.9V129.19h-2.7v.476q-.4,2.7-2.778,2.7H36.982a22.209,22.209,0,0,0-11.825,3.254,23.4,23.4,0,0,0-8.73,8.888,22.308,22.308,0,0,0-1.746,18.253A22.573,22.573,0,0,0,2.857,194.9a22.966,22.966,0,0,0,8.253,8.689A24.066,24.066,0,0,0,24.1,206.963H144.238a2.443,2.443,0,0,1,1.943.873,2.952,2.952,0,0,1,.755,1.984v.476h2.619V189.583ZM32.934,151.608a4.935,4.935,0,0,1,4.047-1.864h6.508V154.9a6.632,6.632,0,0,1-1.587,4.206,5.285,5.285,0,0,1-4.365,1.984,5.981,5.981,0,0,1-4.485-1.667,5.388,5.388,0,0,1-1.626-3.889A6.163,6.163,0,0,1,32.934,151.608Z" transform="translate(0 -129.19)" fill="#2c3e50"/>
    <path id="Path_2" data-name="Path 2" d="M351.87,172.3l-.714-.09-.555-.069a3.741,3.741,0,0,1-.873-.079,4.68,4.68,0,0,1-.714-.079,5.537,5.537,0,0,1-3.254-2.422,6.772,6.772,0,0,1-1.111-3.61v-22.7H323.141v2.222h.558a2.6,2.6,0,0,1,2.1,1.032,3.376,3.376,0,0,1,.832,2.143v17.3a6.728,6.728,0,0,1-1.546,4.206,5.172,5.172,0,0,1-4.326,1.984h-7.38v17.3h7.777a20.788,20.788,0,0,0,14.6-5.635,27.534,27.534,0,0,0,6.866,4.007,20.87,20.87,0,0,0,7.737,1.624c.105,0,.212,0,.317,0h1.349v-.021Z" transform="translate(-246.164 -140.234)" fill="#2c3e50"/>
    <path id="Path_3" data-name="Path 3" d="M578.016,203.716l-1.27-.159a6.521,6.521,0,0,1-4.444-2.063,6.1,6.1,0,0,1-1.508-4.127V183.25H549.288v2.222h.556a2.72,2.72,0,0,1,2.183.991,3.322,3.322,0,0,1,.832,2.183v8.721a6.741,6.741,0,0,1-1.546,4.206,5.177,5.177,0,0,1-4.326,1.984,5.412,5.412,0,0,1-4.444-1.945,6.562,6.562,0,0,1-1.587-4.245V183.25H519.449v2.222H520a2.717,2.717,0,0,1,2.184.991,3.333,3.333,0,0,1,.832,2.183V198a5.426,5.426,0,0,1-1.746,3.73,5.529,5.529,0,0,1-4.127,1.825,5.392,5.392,0,0,1-4.485-1.945,6.68,6.68,0,0,1-1.546-4.245V183.25H489.689v2.222h.556a2.49,2.49,0,0,1,2.1.991,3.524,3.524,0,0,1,.755,2.183c.051,5.926.079,3.325.079,9.356a4.864,4.864,0,0,1-1.667,3.689,7.5,7.5,0,0,1-4.365,1.866l-.555.069-.714.09-.079,17.137v0h.555c.375,0,.744-.006,1.111-.021a22.311,22.311,0,0,0,7.5-1.527,29.2,29.2,0,0,0,7.183-4.165,27.745,27.745,0,0,0,6.9,4.086,20.749,20.749,0,0,0,8.095,1.628,18.864,18.864,0,0,0,7.619-1.311,34.477,34.477,0,0,0,6.111-3.61c.317-.21.686-.476,1.111-.794a26.128,26.128,0,0,0,6.864,4.086,21.058,21.058,0,0,0,8.135,1.628,19.5,19.5,0,0,0,8.213-1.587,31.947,31.947,0,0,0,6.628-4.127,30.681,30.681,0,0,0,6.863,4.047,20.223,20.223,0,0,0,7.9,1.664c.08,0,.159,0,.238,0h1.349Z" transform="translate(-381.603 -171.655)" fill="#2c3e50"/>
    <path id="Path_4" data-name="Path 4" d="M1269.739,418.095q0,1.428-.635,1.428h-4.523a1.916,1.916,0,0,1-1.508-.755,2.384,2.384,0,0,1-.635-1.546q.4-2.3,2.143-2.3h3.968V403.81h-1.984q-.238,1.348-1.428,1.349a17.268,17.268,0,0,0-7.539,1.746,12.4,12.4,0,0,0-4.444,4.562,11.752,11.752,0,0,0-1.508,5.755,10.967,10.967,0,0,0,.238,2.3h-3.333v11.19h2.7c0-1.006.29-1.508.873-1.508h20.316v-11.11Z" transform="translate(-980.754 -344.908)" fill="#f47624"/>
  </g>
  <g id="Group_2" data-name="Group 2" transform="translate(70.778 80.881)">
    <path id="Path_5" data-name="Path 5" d="M350.532,384.581a8.005,8.005,0,0,1-1.994,5.11,7.02,7.02,0,0,1-5.776,2.45,7.384,7.384,0,0,1-7.071-4.41,8.118,8.118,0,0,1-2.694,3.15,7.517,7.517,0,0,1-4.446,1.26,7.042,7.042,0,0,1-5.741-2.45,7.932,7.932,0,0,1-2.03-5.11,7.125,7.125,0,0,1,.089-1.12,8.011,8.011,0,0,1,1.977-3.99,7.152,7.152,0,0,1,5.7-2.38A7.518,7.518,0,0,1,333,378.35a8.255,8.255,0,0,1,2.694,3.08,7.691,7.691,0,0,1,2.626-3.08,7.516,7.516,0,0,1,4.444-1.26,7.128,7.128,0,0,1,5.74,2.38,8.069,8.069,0,0,1,1.943,3.99A7.121,7.121,0,0,1,350.532,384.581Z" transform="translate(-320.78 -377.09)" fill="#f47624"/>
  </g>
  <g id="Group_3" data-name="Group 3" transform="translate(269.384)">
    <path id="Path_6" data-name="Path 6" d="M1255.95,0V30.043h18.015V5.476a3.435,3.435,0,0,1,.873-2.183,2.664,2.664,0,0,1,2.143-1.07h.556V0Z" transform="translate(-1255.95)" fill="#f47624"/>
    <rect id="Rectangle_1" data-name="Rectangle 1" width="18.015" height="32.565" transform="translate(0 50.297)" fill="#f47624"/>
  </g>
  <g id="Group_4" data-name="Group 4" transform="translate(194.985 0.806)">
    <rect id="Rectangle_2" data-name="Rectangle 2" width="72.683" height="17.3" transform="translate(0 58.806)" fill="#2c3e50"/>
    <path id="Path_7" data-name="Path 7" d="M1053.818,57.09a22.7,22.7,0,0,1-2.778,10.673,23.113,23.113,0,0,1-8.015,8.691,22.6,22.6,0,0,1-12.618,3.412h-16.734v-17.3h16.576a4.955,4.955,0,0,0,4.006-1.746,5.691,5.691,0,0,0,1.469-3.73,5.793,5.793,0,0,0-1.469-3.809,4.962,4.962,0,0,0-4.006-1.746h-96.5l-1.349.714L922.559,38.52a4.257,4.257,0,0,1-.159-.873v-.159l39.442-27.7a3.047,3.047,0,0,0,1.428-2.54,3.08,3.08,0,0,0-.635-1.984l-.317-.4L964.7,3.76l12.459,17.38L957.795,34.71s16.616,0,34.431,0h42.8a22.063,22.063,0,0,1,13.914,8.648Q1053.817,50.107,1053.818,57.09Z" transform="translate(-919.543 -3.76)" fill="#2c3e50"/>
  </g>
</svg>
