<svg width="680" height="680" viewBox="0 0 680 680" fill="none" xmlns="http://www.w3.org/2000/svg">
<path d="M556.417 140.08C522.58 62.9272 441.361 33.8776 377.278 85.68C352.254 105.89 336.641 138.054 306 150.96C277.25 163.064 240.829 159.501 209.739 166.056C143.534 179.928 54.4 232.56 61.2 313.657C64.1784 349.18 88.1416 388.634 99.9872 421.872C113.587 460.115 121.747 507.96 157.746 530.822C219.463 570.071 293.91 537.989 349.506 506.342C379.426 489.328 395.896 478.87 428.114 484.704C457.939 490.144 484.799 509.184 513.944 486.594C535.826 469.635 537.635 435.268 556.009 415.086C576.708 392.346 597.693 390.701 608.45 356.524C621.493 315.058 602.276 289.15 589.288 252.103C576.3 215.057 572.356 176.378 556.417 140.08Z" fill="#FC4F00"/>
<g opacity="0.7">
<path d="M556.417 140.08C522.58 62.9272 441.361 33.8776 377.278 85.68C352.254 105.89 336.641 138.054 306 150.96C277.25 163.064 240.829 159.501 209.739 166.056C143.534 179.928 54.4 232.56 61.2 313.657C64.1784 349.18 88.1416 388.634 99.9872 421.872C113.587 460.115 121.747 507.96 157.746 530.822C219.463 570.071 293.91 537.989 349.506 506.342C379.426 489.328 395.896 478.87 428.114 484.704C457.939 490.144 484.799 509.184 513.944 486.594C535.826 469.635 537.635 435.268 556.009 415.086C576.708 392.346 597.693 390.701 608.45 356.524C621.493 315.058 602.276 289.15 589.288 252.103C576.3 215.057 572.356 176.378 556.417 140.08Z" fill="white"/>
</g>
<path d="M298.942 595.245C415.048 595.245 509.171 589.381 509.171 582.148C509.171 574.915 415.048 569.051 298.942 569.051C182.836 569.051 88.7129 574.915 88.7129 582.148C88.7129 589.381 182.836 595.245 298.942 595.245Z" fill="#FC4F00"/>
<path opacity="0.8" d="M298.942 595.245C415.048 595.245 509.171 589.381 509.171 582.148C509.171 574.915 415.048 569.051 298.942 569.051C182.836 569.051 88.7129 574.915 88.7129 582.148C88.7129 589.381 182.836 595.245 298.942 595.245Z" fill="white"/>
<path d="M456.81 84.1296H245.425C230.831 84.1296 219 95.9604 219 110.554V556.825C219 571.419 230.831 583.25 245.425 583.25H456.81C471.404 583.25 483.234 571.419 483.234 556.825V110.554C483.234 95.9604 471.404 84.1296 456.81 84.1296Z" fill="#455A64"/>
<path d="M471.593 138.938H230.846V528.441H471.593V138.938Z" fill="white" stroke="#455A64" stroke-width="1.33739" stroke-miterlimit="10"/>
<path d="M388.126 296.659C408.504 276.281 408.504 243.24 388.126 222.861C367.747 202.482 334.706 202.482 314.327 222.861C293.949 243.24 293.949 276.281 314.327 296.659C334.706 317.038 367.747 317.038 388.126 296.659Z" fill="#F7F7F7"/>
<path d="M404.184 523H297.826C297.587 523.001 297.35 522.963 297.128 522.889C296.907 522.814 296.705 522.704 296.536 522.565C296.366 522.426 296.231 522.261 296.139 522.079C296.047 521.897 296 521.701 296 521.504C295.999 521.306 296.045 521.11 296.136 520.927C296.227 520.744 296.362 520.578 296.532 520.438C296.702 520.298 296.904 520.187 297.126 520.112C297.348 520.037 297.586 519.999 297.826 520H404.184C404.423 520 404.66 520.039 404.881 520.115C405.102 520.19 405.303 520.301 405.472 520.441C405.641 520.581 405.774 520.747 405.865 520.929C405.955 521.112 406.001 521.307 406 521.504C406 521.901 405.809 522.281 405.468 522.562C405.128 522.842 404.666 523 404.184 523Z" fill="#455A64"/>
<path d="M424.197 341.278H278.256C275.244 341.278 272.802 343.72 272.802 346.732V363.936C272.802 366.948 275.244 369.389 278.256 369.389H424.197C427.209 369.389 429.651 366.948 429.651 363.936V346.732C429.651 343.72 427.209 341.278 424.197 341.278Z" fill="#F6F6F6"/>
<path d="M424.197 393.856H278.256C275.244 393.856 272.802 396.298 272.802 399.31V416.514C272.802 419.526 275.244 421.967 278.256 421.967H424.197C427.209 421.967 429.651 419.526 429.651 416.514V399.31C429.651 396.298 427.209 393.856 424.197 393.856Z" fill="#F6F6F6"/>
<path d="M377.209 285.791L361.855 276.951V269.647C364.078 266.958 365.689 263.816 366.574 260.44C367.103 260.628 367.659 260.724 368.22 260.726C370.124 260.726 371.334 254.823 371.538 250.607C373.755 245.915 370.736 243.168 370.736 243.168C370.736 243.168 371.987 241.917 372.817 236.899C373.646 231.88 369.892 233.975 366.968 229.378C364.044 224.781 361.95 219.776 352.348 219.776C349.703 219.689 347.092 220.4 344.856 221.817C342.62 223.233 340.861 225.289 339.809 227.719C337.419 227.727 335.038 228.005 332.71 228.548C329.773 229.378 328.943 238.993 331.445 242.76C332.566 244.819 333.163 247.121 333.186 249.465C332.52 248.649 331.826 248.431 331.445 250.281C330.616 254.456 333.961 260.304 333.961 260.304L335.689 259.815C336.559 263.422 338.237 266.784 340.598 269.647V276.951L325.244 285.791C323.451 286.826 321.961 288.315 320.925 290.107C319.889 291.9 319.343 293.934 319.341 296.004V301.063C328.473 308.118 339.687 311.945 351.227 311.945C362.766 311.945 373.98 308.118 383.112 301.063V296.004C383.113 293.933 382.568 291.898 381.531 290.105C380.495 288.312 379.004 286.824 377.209 285.791V285.791Z" fill="#455A64"/>
<path d="M292.672 414.977C292.32 414.972 291.983 414.83 291.733 414.582C291.6 414.463 291.493 414.316 291.42 414.152C291.347 413.988 291.31 413.81 291.312 413.63C291.316 413.385 291.386 413.145 291.516 412.937L293.964 409.02L289.19 409.17C289.01 409.181 288.83 409.154 288.661 409.091C288.493 409.028 288.339 408.929 288.211 408.802C287.989 408.553 287.867 408.232 287.867 407.898C287.867 407.565 287.989 407.243 288.211 406.994C288.336 406.862 288.489 406.76 288.658 406.694C288.827 406.628 289.009 406.601 289.19 406.613L293.896 406.79L291.475 402.886C291.343 402.674 291.273 402.429 291.271 402.179C291.27 402 291.307 401.822 291.379 401.658C291.452 401.494 291.559 401.347 291.693 401.227C291.943 400.979 292.279 400.838 292.631 400.833C292.863 400.834 293.089 400.902 293.284 401.027C293.479 401.152 293.635 401.33 293.733 401.54L296.058 405.742L298.357 401.567C298.466 401.344 298.634 401.156 298.842 401.022C299.051 400.887 299.292 400.813 299.54 400.806C299.712 400.807 299.881 400.843 300.038 400.914C300.195 400.984 300.336 401.086 300.451 401.214C300.701 401.473 300.838 401.82 300.832 402.179C300.831 402.413 300.77 402.642 300.655 402.846L298.193 406.79L302.967 406.613C303.148 406.601 303.33 406.628 303.499 406.694C303.668 406.76 303.821 406.862 303.946 406.994C304.178 407.234 304.305 407.557 304.3 407.891C304.299 408.228 304.173 408.553 303.946 408.802C303.818 408.929 303.665 409.028 303.496 409.091C303.327 409.154 303.147 409.181 302.967 409.17L298.166 409.02L300.56 412.896C300.694 413.113 300.765 413.362 300.764 413.617C300.764 413.978 300.621 414.323 300.365 414.579C300.11 414.834 299.764 414.977 299.404 414.977C299.171 414.974 298.943 414.903 298.75 414.772C298.557 414.642 298.406 414.458 298.316 414.242L296.045 410.162L293.787 414.242C293.687 414.456 293.53 414.637 293.333 414.767C293.136 414.896 292.907 414.969 292.672 414.977V414.977Z" fill="#455A64"/>
<path d="M314.731 414.977C314.379 414.972 314.042 414.83 313.792 414.582C313.659 414.463 313.552 414.316 313.479 414.152C313.406 413.988 313.37 413.81 313.371 413.631C313.375 413.385 313.446 413.145 313.575 412.937L316.023 409.02L311.263 409.17C311.081 409.178 310.9 409.15 310.729 409.087C310.559 409.024 310.403 408.927 310.27 408.802C310.09 408.616 309.969 408.38 309.925 408.124C309.88 407.869 309.914 407.606 310.021 407.37C310.128 407.134 310.304 406.935 310.525 406.8C310.747 406.665 311.004 406.6 311.263 406.613L315.955 406.79L313.534 402.886C313.402 402.674 313.332 402.429 313.33 402.179C313.329 402 313.366 401.822 313.438 401.658C313.511 401.494 313.618 401.347 313.752 401.227C314.002 400.979 314.338 400.838 314.69 400.833C314.922 400.834 315.148 400.902 315.343 401.027C315.538 401.152 315.694 401.33 315.792 401.54L318.117 405.742L320.416 401.567C320.525 401.345 320.693 401.156 320.901 401.022C321.11 400.887 321.351 400.813 321.599 400.806C321.771 400.805 321.941 400.841 322.098 400.911C322.256 400.982 322.396 401.085 322.51 401.214C322.636 401.341 322.736 401.491 322.804 401.657C322.871 401.823 322.905 402 322.904 402.179C322.9 402.414 322.834 402.644 322.714 402.846L320.252 406.79L325.04 406.64C325.219 406.628 325.398 406.656 325.565 406.722C325.732 406.788 325.883 406.89 326.005 407.021C326.237 407.262 326.364 407.584 326.359 407.918C326.358 408.256 326.232 408.58 326.005 408.83C325.88 408.956 325.729 409.054 325.562 409.118C325.396 409.181 325.217 409.208 325.04 409.197L320.225 409.047L322.619 412.923C322.753 413.14 322.824 413.389 322.823 413.644C322.823 414.005 322.68 414.351 322.425 414.606C322.169 414.861 321.824 415.004 321.463 415.004C321.23 415.001 321.002 414.93 320.809 414.799C320.616 414.669 320.465 414.485 320.375 414.27L318.104 410.19L315.846 414.27C315.742 414.478 315.583 414.654 315.387 414.778C315.19 414.903 314.964 414.972 314.731 414.977V414.977Z" fill="#455A64"/>
<path d="M336.804 414.977C336.447 414.975 336.105 414.834 335.852 414.582C335.718 414.463 335.611 414.316 335.538 414.152C335.466 413.988 335.429 413.81 335.43 413.631C335.434 413.385 335.505 413.145 335.634 412.937L338.082 409.02L333.322 409.17C333.066 409.18 332.812 409.114 332.594 408.979C332.375 408.845 332.202 408.648 332.095 408.415C331.989 408.182 331.954 407.922 331.996 407.669C332.037 407.416 332.154 407.181 332.329 406.994C332.458 406.863 332.613 406.761 332.784 406.695C332.955 406.629 333.139 406.601 333.322 406.613L338.014 406.79L335.593 402.886C335.462 402.674 335.391 402.429 335.389 402.179C335.394 402.001 335.433 401.825 335.505 401.661C335.578 401.498 335.681 401.35 335.811 401.227C336.064 400.976 336.406 400.834 336.763 400.833C336.992 400.837 337.216 400.905 337.408 401.03C337.601 401.156 337.754 401.332 337.851 401.54L340.176 405.742L342.475 401.567C342.584 401.345 342.752 401.156 342.96 401.022C343.169 400.887 343.41 400.813 343.658 400.806C343.83 400.805 344.001 400.841 344.158 400.911C344.315 400.982 344.455 401.085 344.569 401.214C344.695 401.341 344.795 401.491 344.863 401.657C344.93 401.823 344.965 402 344.964 402.179C344.959 402.414 344.893 402.644 344.773 402.846L342.312 406.79L347.099 406.613C347.275 406.595 347.453 406.616 347.62 406.672C347.788 406.729 347.941 406.821 348.07 406.943C348.199 407.064 348.3 407.211 348.367 407.375C348.434 407.538 348.466 407.715 348.459 407.891C348.462 408.227 348.341 408.551 348.119 408.802C347.991 408.929 347.837 409.028 347.669 409.091C347.5 409.154 347.32 409.181 347.14 409.17L342.339 409.02L344.719 412.896C344.853 413.113 344.924 413.362 344.923 413.617C344.919 413.795 344.879 413.971 344.807 414.135C344.734 414.298 344.631 414.446 344.501 414.569C344.383 414.696 344.24 414.798 344.081 414.868C343.922 414.938 343.75 414.975 343.576 414.977C343.345 414.973 343.12 414.901 342.929 414.771C342.738 414.64 342.59 414.457 342.502 414.242L340.217 410.162L337.96 414.242C337.858 414.463 337.695 414.649 337.49 414.78C337.285 414.91 337.046 414.978 336.804 414.977V414.977Z" fill="#455A64"/>
<path d="M358.863 414.977C358.506 414.975 358.164 414.834 357.911 414.582C357.655 414.331 357.508 413.989 357.503 413.631C357.499 413.386 357.565 413.145 357.694 412.937L360.142 409.02L355.382 409.17C355.2 409.178 355.018 409.15 354.848 409.087C354.677 409.024 354.521 408.927 354.389 408.802C354.167 408.553 354.044 408.232 354.044 407.898C354.044 407.565 354.167 407.243 354.389 406.994C354.52 406.867 354.676 406.768 354.846 406.702C355.017 406.637 355.199 406.606 355.382 406.613L360.087 406.79L357.68 402.886C357.548 402.674 357.478 402.429 357.476 402.179C357.48 402.001 357.52 401.825 357.592 401.661C357.664 401.498 357.768 401.35 357.898 401.227C358.151 400.976 358.493 400.834 358.85 400.833C359.081 400.834 359.308 400.902 359.503 401.027C359.698 401.152 359.853 401.33 359.951 401.54L362.263 405.742L364.562 401.567C364.671 401.345 364.838 401.156 365.047 401.022C365.256 400.887 365.497 400.813 365.745 400.806C365.917 400.805 366.087 400.841 366.244 400.911C366.401 400.982 366.542 401.085 366.656 401.214C366.782 401.341 366.882 401.491 366.949 401.657C367.017 401.823 367.051 402 367.05 402.179C367.045 402.414 366.98 402.644 366.86 402.846L364.398 406.79L369.186 406.613C369.362 406.595 369.539 406.616 369.707 406.672C369.874 406.729 370.028 406.821 370.156 406.943C370.285 407.064 370.387 407.211 370.454 407.375C370.521 407.538 370.552 407.715 370.546 407.891C370.548 408.227 370.427 408.551 370.206 408.802C370.077 408.929 369.924 409.028 369.755 409.091C369.586 409.154 369.406 409.181 369.226 409.17L364.426 409.02L366.806 412.896C366.94 413.113 367.01 413.362 367.01 413.617C367.011 413.796 366.974 413.974 366.901 414.138C366.829 414.302 366.722 414.449 366.588 414.569C366.47 414.696 366.327 414.798 366.168 414.868C366.009 414.938 365.837 414.975 365.663 414.977C365.432 414.973 365.207 414.901 365.016 414.771C364.825 414.64 364.676 414.457 364.589 414.242L362.304 410.162L360.046 414.242C359.943 414.467 359.775 414.657 359.565 414.787C359.355 414.918 359.111 414.984 358.863 414.977Z" fill="#455A64"/>
<path d="M380.922 414.977C380.565 414.975 380.224 414.834 379.97 414.582C379.76 414.369 379.625 414.092 379.588 413.794C379.551 413.497 379.614 413.195 379.766 412.937L382.201 409.02L377.441 409.17C377.259 409.178 377.078 409.15 376.907 409.087C376.737 409.024 376.58 408.927 376.448 408.802C376.226 408.553 376.104 408.232 376.104 407.898C376.104 407.565 376.226 407.243 376.448 406.994C376.579 406.867 376.735 406.768 376.905 406.702C377.076 406.637 377.258 406.606 377.441 406.613L382.146 406.79L379.725 402.886C379.594 402.674 379.523 402.429 379.521 402.179C379.527 401.821 379.673 401.478 379.929 401.227C380.183 400.976 380.525 400.834 380.881 400.833C381.113 400.834 381.34 400.902 381.535 401.027C381.73 401.152 381.885 401.33 381.983 401.54L384.295 405.742L386.593 401.567C386.702 401.345 386.87 401.156 387.079 401.022C387.287 400.887 387.529 400.813 387.777 400.806C387.951 400.805 388.123 400.841 388.283 400.911C388.442 400.981 388.585 401.084 388.701 401.214C388.951 401.473 389.088 401.82 389.082 402.179C389.077 402.414 389.012 402.644 388.892 402.846L386.43 406.79L391.217 406.613C391.393 406.595 391.571 406.616 391.739 406.672C391.906 406.729 392.059 406.821 392.188 406.943C392.317 407.064 392.419 407.211 392.486 407.375C392.553 407.538 392.584 407.715 392.577 407.891C392.58 408.227 392.459 408.551 392.237 408.802C392.109 408.929 391.956 409.028 391.787 409.091C391.618 409.154 391.438 409.181 391.258 409.17L386.457 409.02L388.837 412.896C388.972 413.113 389.042 413.362 389.041 413.617C389.043 413.796 389.006 413.974 388.933 414.138C388.86 414.302 388.754 414.449 388.62 414.569C388.501 414.696 388.358 414.798 388.199 414.868C388.04 414.938 387.869 414.975 387.695 414.977C387.464 414.973 387.239 414.901 387.048 414.771C386.857 414.64 386.708 414.457 386.621 414.242L384.336 410.162L382.078 414.242C381.976 414.463 381.813 414.649 381.608 414.78C381.403 414.91 381.165 414.978 380.922 414.977Z" fill="#455A64"/>
<path d="M402.981 414.977C402.629 414.972 402.293 414.83 402.043 414.582C401.909 414.463 401.802 414.316 401.73 414.152C401.657 413.988 401.62 413.81 401.621 413.631C401.626 413.385 401.696 413.145 401.825 412.937L404.26 409.02L399.5 409.17C399.325 409.183 399.149 409.16 398.983 409.101C398.818 409.043 398.666 408.95 398.538 408.83C398.41 408.71 398.309 408.564 398.24 408.403C398.172 408.241 398.137 408.067 398.14 407.891C398.139 407.725 398.171 407.56 398.234 407.406C398.297 407.252 398.39 407.112 398.507 406.994C398.632 406.862 398.785 406.76 398.954 406.694C399.123 406.628 399.305 406.601 399.486 406.613L404.192 406.79L401.771 402.886C401.639 402.674 401.569 402.429 401.567 402.179C401.572 401.821 401.719 401.478 401.975 401.227C402.228 400.976 402.57 400.834 402.927 400.833C403.159 400.834 403.385 400.902 403.58 401.027C403.775 401.152 403.931 401.33 404.029 401.54L406.341 405.742L408.653 401.567C408.761 401.347 408.926 401.159 409.132 401.025C409.338 400.891 409.577 400.815 409.822 400.806C409.996 400.805 410.169 400.841 410.328 400.911C410.487 400.981 410.63 401.084 410.747 401.214C410.997 401.473 411.133 401.82 411.128 402.179C411.127 402.413 411.066 402.642 410.951 402.846L408.489 406.79L413.263 406.613C413.444 406.601 413.626 406.628 413.795 406.694C413.964 406.76 414.117 406.862 414.242 406.994C414.474 407.234 414.601 407.557 414.596 407.891C414.595 408.228 414.469 408.553 414.242 408.802C414.114 408.929 413.961 409.028 413.792 409.091C413.623 409.154 413.443 409.181 413.263 409.17L408.462 409.02L410.842 412.896C410.976 413.113 411.047 413.362 411.046 413.617C411.041 413.976 410.894 414.318 410.638 414.569C410.39 414.822 410.054 414.968 409.7 414.977C409.469 414.973 409.243 414.901 409.053 414.771C408.862 414.64 408.713 414.457 408.625 414.242L406.341 410.162L404.083 414.242C403.985 414.455 403.83 414.636 403.636 414.765C403.441 414.895 403.215 414.968 402.981 414.977Z" fill="#455A64"/>
<path d="M377.4 111.67H325.04C324.095 111.67 323.188 111.294 322.52 110.626C321.852 109.958 321.477 109.051 321.477 108.106V108.106C321.477 107.161 321.852 106.255 322.52 105.587C323.188 104.919 324.095 104.543 325.04 104.543H377.4C378.345 104.543 379.251 104.919 379.919 105.587C380.588 106.255 380.963 107.161 380.963 108.106V108.106C380.963 109.051 380.588 109.958 379.919 110.626C379.251 111.294 378.345 111.67 377.4 111.67V111.67Z" fill="#40545D" stroke="#455A64" stroke-width="1.33739" stroke-linecap="round" stroke-linejoin="round"/>
<path d="M365.5 550.446C365.503 547.621 364.667 544.858 363.099 542.508C361.531 540.157 359.301 538.325 356.691 537.242C354.081 536.16 351.209 535.876 348.437 536.427C345.666 536.977 343.12 538.337 341.122 540.335C339.125 542.333 337.764 544.879 337.214 547.65C336.663 550.422 336.947 553.294 338.03 555.904C339.112 558.514 340.944 560.744 343.295 562.312C345.645 563.88 348.408 564.716 351.234 564.713C355.016 564.709 358.643 563.205 361.317 560.53C363.992 557.856 365.496 554.229 365.5 550.446Z" fill="#40545D"/>
<path d="M358.468 543.211H343.998V557.682H358.468V543.211Z" fill="#5D6E75" stroke="#455A64" stroke-width="1.33739" stroke-linecap="round" stroke-linejoin="round"/>
<path d="M539.885 386.24C539.885 386.24 520.927 338.069 537.804 332.343C555.375 326.373 554.6 358.183 553.92 373.687C552.492 406.817 548.834 412.977 546.1 404.885L539.885 386.24ZM534.187 423.817C539.395 430.617 540.864 423.572 531.467 391.761C527.06 376.801 517.486 346.541 502.798 357.897C488.695 368.777 522.259 408.217 522.259 408.217L534.187 423.817ZM524.123 451.425C529.087 455.831 529.182 450.269 517.391 427.298C511.855 416.541 500.146 394.767 490.558 405.538C481.351 415.929 512.726 441.184 512.726 441.184L524.123 451.425ZM513.243 484.255C518.207 488.675 518.302 483.099 506.511 460.142C500.975 449.385 489.266 427.597 479.678 438.382C470.525 448.8 501.805 474.055 501.805 474.055L513.243 484.255ZM544.659 417.425C536.716 420.525 543.027 423.898 576.197 423.803C591.755 423.803 623.525 423.096 616.752 405.81C610.265 389.205 563.019 410.353 563.019 410.353L544.659 417.425ZM535.614 439.511C527.21 440.966 532.731 445.536 565.263 452.037C580.508 455.097 611.775 460.741 608.579 442.517C605.519 424.945 555.008 436.288 555.008 436.288L535.614 439.511ZM525.496 466.48C518.343 467.513 522.912 471.498 550.262 477.754C563.087 480.692 589.403 486.2 587.118 470.655C584.942 455.695 541.966 464.154 541.966 464.154L525.496 466.48ZM517.812 491.463C510.808 493.245 515.772 496.726 543.652 500.045C556.708 501.595 583.459 504.288 579.556 489.069C575.789 474.463 533.955 487.397 533.955 487.397L517.812 491.463ZM558.803 390.32C554.723 399.459 563.195 398.072 592 372.939C605.491 361.148 632.555 336.477 611.122 324.197C590.545 312.392 568.418 369.349 568.418 369.349L558.803 390.32ZM518.873 524.008C514.562 526.524 518.791 527.503 538.566 523.559C547.841 521.723 566.704 517.643 560.326 509.592C554.151 501.84 528.855 518.16 528.855 518.16L518.873 524.008Z" fill="#FC4F00"/>
<path opacity="0.3" d="M539.885 386.24C539.885 386.24 520.927 338.069 537.804 332.343C555.375 326.373 554.6 358.183 553.92 373.687C552.492 406.817 548.834 412.977 546.1 404.885L539.885 386.24ZM534.187 423.817C539.395 430.617 540.864 423.572 531.467 391.761C527.06 376.801 517.486 346.541 502.798 357.897C488.695 368.777 522.259 408.217 522.259 408.217L534.187 423.817ZM524.123 451.425C529.087 455.831 529.182 450.269 517.391 427.298C511.855 416.541 500.146 394.767 490.558 405.538C481.351 415.929 512.726 441.184 512.726 441.184L524.123 451.425ZM513.243 484.255C518.207 488.675 518.302 483.099 506.511 460.142C500.975 449.385 489.266 427.597 479.678 438.382C470.525 448.8 501.805 474.055 501.805 474.055L513.243 484.255ZM544.659 417.425C536.716 420.525 543.027 423.898 576.197 423.803C591.755 423.803 623.525 423.096 616.752 405.81C610.265 389.205 563.019 410.353 563.019 410.353L544.659 417.425ZM535.614 439.511C527.21 440.966 532.731 445.536 565.263 452.037C580.508 455.097 611.775 460.741 608.579 442.517C605.519 424.945 555.008 436.288 555.008 436.288L535.614 439.511ZM525.496 466.48C518.343 467.513 522.912 471.498 550.262 477.754C563.087 480.692 589.403 486.2 587.118 470.655C584.942 455.695 541.966 464.154 541.966 464.154L525.496 466.48ZM517.812 491.463C510.808 493.245 515.772 496.726 543.652 500.045C556.708 501.595 583.459 504.288 579.556 489.069C575.789 474.463 533.955 487.397 533.955 487.397L517.812 491.463ZM558.803 390.32C554.723 399.459 563.195 398.072 592 372.939C605.491 361.148 632.555 336.477 611.122 324.197C590.545 312.392 568.418 369.349 568.418 369.349L558.803 390.32ZM518.873 524.008C514.562 526.524 518.791 527.503 538.566 523.559C547.841 521.723 566.704 517.643 560.326 509.592C554.151 501.84 528.855 518.16 528.855 518.16L518.873 524.008Z" fill="white"/>
<path d="M548.249 408.666L544.944 353.681L548.249 408.666ZM537.791 426.808L516.901 379.521L537.791 426.808ZM591.701 413.059L541.64 420.24L591.701 413.059ZM526.965 452.295L499.86 417.52L526.965 452.295ZM531.725 441.632L569.071 443.509L531.725 441.632ZM522.885 468.302L551.445 471.131L522.885 468.302ZM515.99 485.248L501.805 463.909L515.99 485.248ZM514.358 492.782L547.936 493.095L514.358 492.782ZM507.558 555.777C507.783 555.76 507.992 555.654 508.14 555.484C508.287 555.313 508.362 555.091 508.347 554.866C506.212 522.797 518.615 470.274 538.512 427.162C551.228 399.608 601.072 345.453 601.602 344.909C601.762 344.749 601.852 344.531 601.852 344.304C601.852 344.077 601.762 343.859 601.602 343.699C601.524 343.62 601.43 343.557 601.328 343.514C601.225 343.472 601.115 343.45 601.004 343.45C600.892 343.45 600.782 343.472 600.679 343.514C600.577 343.557 600.484 343.62 600.405 343.699C599.902 344.243 549.854 398.602 537.029 426.4C516.765 470.56 504.525 522.131 506.701 554.975C506.718 555.191 506.815 555.394 506.974 555.542C507.132 555.691 507.341 555.775 507.558 555.777V555.777ZM548.236 409.509C548.46 409.495 548.671 409.393 548.821 409.225C548.971 409.057 549.049 408.837 549.038 408.612L545.788 353.6C545.782 353.488 545.755 353.378 545.707 353.277C545.659 353.175 545.591 353.085 545.507 353.01C545.424 352.935 545.326 352.878 545.22 352.841C545.114 352.805 545.002 352.79 544.89 352.797C544.665 352.811 544.455 352.913 544.305 353.081C544.154 353.249 544.076 353.47 544.088 353.695L547.392 408.68C547.403 408.896 547.496 409.1 547.653 409.25C547.81 409.399 548.019 409.482 548.236 409.482V409.509ZM538.09 427.584C538.294 427.491 538.453 427.323 538.535 427.115C538.616 426.906 538.613 426.674 538.525 426.468L517.622 379.181C517.532 378.976 517.364 378.814 517.154 378.733C516.945 378.651 516.712 378.656 516.507 378.746C516.301 378.836 516.14 379.004 516.058 379.214C515.977 379.423 515.981 379.656 516.072 379.861L536.961 427.148C537.027 427.3 537.135 427.43 537.272 427.521C537.41 427.613 537.571 427.663 537.736 427.665C537.877 427.673 538.017 427.645 538.144 427.584H538.09ZM541.708 421.056L591.742 413.902C591.863 413.9 591.982 413.872 592.091 413.82C592.2 413.768 592.297 413.694 592.376 413.602C592.454 413.51 592.512 413.403 592.546 413.287C592.58 413.171 592.589 413.049 592.573 412.929C592.557 412.809 592.515 412.694 592.451 412.592C592.387 412.489 592.302 412.402 592.202 412.334C592.102 412.267 591.988 412.221 591.869 412.201C591.75 412.181 591.628 412.186 591.511 412.216L541.476 419.369C541.253 419.384 541.044 419.486 540.896 419.655C540.748 419.823 540.673 420.043 540.688 420.267C540.702 420.49 540.805 420.699 540.973 420.847C541.141 420.995 541.362 421.07 541.585 421.056H541.708ZM527.441 452.975C527.619 452.835 527.734 452.631 527.762 452.407C527.79 452.183 527.729 451.957 527.591 451.778L500.472 416.935C500.333 416.755 500.129 416.637 499.903 416.607C499.677 416.578 499.449 416.64 499.269 416.778C499.088 416.917 498.971 417.122 498.941 417.348C498.912 417.574 498.973 417.802 499.112 417.982L526.285 452.88C526.364 452.981 526.465 453.064 526.581 453.12C526.696 453.177 526.823 453.206 526.952 453.206C527.155 453.196 527.347 453.114 527.496 452.975H527.441ZM569.819 443.55C569.826 443.325 569.745 443.106 569.592 442.941C569.439 442.775 569.228 442.677 569.003 442.666L531.725 440.776C531.516 440.79 531.319 440.881 531.172 441.031C531.025 441.181 530.938 441.38 530.928 441.589C530.918 441.799 530.985 442.005 531.117 442.169C531.249 442.332 531.436 442.441 531.644 442.476L568.989 444.366C569.214 444.373 569.433 444.292 569.598 444.139C569.764 443.987 569.863 443.775 569.873 443.55H569.819ZM552.234 471.212C552.247 471.101 552.238 470.987 552.206 470.879C552.175 470.771 552.122 470.67 552.051 470.582C551.98 470.495 551.892 470.423 551.793 470.37C551.694 470.317 551.585 470.284 551.472 470.274L522.912 467.459C522.801 467.448 522.69 467.458 522.583 467.491C522.476 467.523 522.377 467.576 522.291 467.647C522.205 467.718 522.134 467.805 522.082 467.903C522.03 468.002 521.998 468.11 521.988 468.22C521.968 468.444 522.037 468.665 522.18 468.838C522.322 469.011 522.527 469.121 522.749 469.145L551.309 471.974H551.391C551.61 471.989 551.827 471.918 551.994 471.776C552.162 471.634 552.268 471.431 552.288 471.212H552.234ZM516.398 485.955C516.587 485.83 516.719 485.635 516.764 485.414C516.81 485.192 516.767 484.961 516.643 484.772L502.526 463.433C502.397 463.249 502.201 463.123 501.981 463.08C501.76 463.037 501.532 463.08 501.343 463.202C501.154 463.327 501.022 463.521 500.976 463.743C500.93 463.965 500.974 464.196 501.098 464.385L515.215 485.724C515.295 485.84 515.403 485.936 515.529 486.002C515.654 486.068 515.794 486.103 515.936 486.104C516.12 486.114 516.302 486.062 516.452 485.955H516.398ZM548.793 493.095C548.79 492.871 548.7 492.657 548.543 492.497C548.386 492.338 548.174 492.245 547.95 492.238L514.372 491.925C514.148 491.925 513.933 492.014 513.775 492.172C513.617 492.33 513.528 492.545 513.528 492.768C513.525 492.881 513.544 492.993 513.585 493.097C513.626 493.202 513.687 493.298 513.766 493.378C513.845 493.458 513.939 493.521 514.043 493.564C514.147 493.606 514.259 493.627 514.372 493.625L547.95 493.938C548.065 493.944 548.179 493.926 548.287 493.886C548.395 493.846 548.494 493.785 548.577 493.707C548.661 493.628 548.728 493.533 548.775 493.428C548.821 493.323 548.846 493.21 548.848 493.095H548.793ZM503.736 543.306C503.804 543.156 509.53 527.38 526.748 523.613C526.969 523.564 527.163 523.43 527.285 523.238C527.407 523.047 527.449 522.815 527.4 522.593C527.345 522.376 527.209 522.188 527.019 522.069C526.829 521.95 526.6 521.909 526.38 521.954C508.224 525.925 502.2 542.585 502.132 542.748C502.061 542.963 502.078 543.197 502.177 543.4C502.276 543.603 502.45 543.759 502.662 543.836H502.934C503.115 543.852 503.296 543.809 503.45 543.713C503.605 543.618 503.724 543.475 503.791 543.306H503.736ZM507.558 555.777C507.783 555.76 507.992 555.654 508.14 555.484C508.287 555.313 508.362 555.091 508.347 554.866C506.212 522.797 518.615 470.274 538.512 427.162C551.228 399.608 601.072 345.453 601.602 344.909C601.762 344.749 601.852 344.531 601.852 344.304C601.852 344.077 601.762 343.859 601.602 343.699C601.524 343.62 601.43 343.557 601.328 343.514C601.225 343.472 601.115 343.45 601.004 343.45C600.892 343.45 600.782 343.472 600.679 343.514C600.577 343.557 600.484 343.62 600.405 343.699C599.902 344.243 549.854 398.602 537.029 426.4C516.765 470.56 504.525 522.131 506.701 554.975C506.718 555.191 506.815 555.394 506.974 555.542C507.132 555.691 507.341 555.775 507.558 555.777V555.777ZM548.236 409.509C548.46 409.495 548.671 409.393 548.821 409.225C548.971 409.057 549.049 408.837 549.038 408.612L545.788 353.6C545.782 353.488 545.755 353.378 545.707 353.277C545.659 353.175 545.591 353.085 545.507 353.01C545.424 352.935 545.326 352.878 545.22 352.841C545.114 352.805 545.002 352.79 544.89 352.797C544.665 352.811 544.455 352.913 544.305 353.081C544.154 353.249 544.076 353.47 544.088 353.695L547.392 408.68C547.403 408.896 547.496 409.1 547.653 409.25C547.81 409.399 548.019 409.482 548.236 409.482V409.509ZM538.09 427.584C538.294 427.491 538.453 427.323 538.535 427.115C538.616 426.906 538.613 426.674 538.525 426.468L517.622 379.181C517.532 378.976 517.364 378.814 517.154 378.733C516.945 378.651 516.712 378.656 516.507 378.746C516.301 378.836 516.14 379.004 516.058 379.214C515.977 379.423 515.981 379.656 516.072 379.861L536.961 427.148C537.027 427.3 537.135 427.43 537.272 427.521C537.41 427.613 537.571 427.663 537.736 427.665C537.877 427.673 538.017 427.645 538.144 427.584H538.09ZM541.708 421.056L591.742 413.902C591.863 413.9 591.982 413.872 592.091 413.82C592.2 413.768 592.297 413.694 592.376 413.602C592.454 413.51 592.512 413.403 592.546 413.287C592.58 413.171 592.589 413.049 592.573 412.929C592.557 412.809 592.515 412.694 592.451 412.592C592.387 412.489 592.302 412.402 592.202 412.334C592.102 412.267 591.988 412.221 591.869 412.201C591.75 412.181 591.628 412.186 591.511 412.216L541.476 419.369C541.253 419.384 541.044 419.486 540.896 419.655C540.748 419.823 540.673 420.043 540.688 420.267C540.702 420.49 540.805 420.699 540.973 420.847C541.141 420.995 541.362 421.07 541.585 421.056H541.708ZM527.441 452.975C527.619 452.835 527.734 452.631 527.762 452.407C527.79 452.183 527.729 451.957 527.591 451.778L500.472 416.935C500.404 416.846 500.318 416.771 500.22 416.714C500.122 416.658 500.015 416.622 499.903 416.607C499.791 416.593 499.678 416.6 499.569 416.63C499.46 416.659 499.358 416.71 499.269 416.778C499.179 416.847 499.105 416.933 499.048 417.031C498.992 417.128 498.956 417.236 498.941 417.348C498.927 417.46 498.934 417.573 498.964 417.682C498.993 417.791 499.044 417.893 499.112 417.982L526.285 452.88C526.364 452.981 526.465 453.064 526.581 453.12C526.696 453.177 526.823 453.206 526.952 453.206C527.155 453.196 527.347 453.114 527.496 452.975H527.441ZM569.819 443.55C569.826 443.325 569.745 443.106 569.592 442.941C569.439 442.775 569.228 442.677 569.003 442.666L531.725 440.776C531.516 440.79 531.319 440.881 531.172 441.031C531.025 441.181 530.938 441.38 530.928 441.589C530.918 441.799 530.985 442.005 531.117 442.169C531.249 442.332 531.436 442.441 531.644 442.476L568.989 444.366C569.214 444.373 569.433 444.292 569.598 444.139C569.764 443.987 569.863 443.775 569.873 443.55H569.819ZM552.234 471.212C552.247 471.101 552.238 470.987 552.206 470.879C552.175 470.771 552.122 470.67 552.051 470.582C551.98 470.495 551.892 470.423 551.793 470.37C551.694 470.317 551.585 470.284 551.472 470.274L522.912 467.459C522.801 467.448 522.69 467.458 522.583 467.491C522.476 467.523 522.377 467.576 522.291 467.647C522.205 467.718 522.134 467.805 522.082 467.903C522.03 468.002 521.998 468.11 521.988 468.22C521.968 468.444 522.037 468.665 522.18 468.838C522.322 469.011 522.527 469.121 522.749 469.145L551.309 471.974H551.391C551.61 471.989 551.827 471.918 551.994 471.776C552.162 471.634 552.268 471.431 552.288 471.212H552.234ZM516.398 485.955C516.587 485.83 516.719 485.635 516.764 485.414C516.81 485.192 516.767 484.961 516.643 484.772L502.526 463.433C502.397 463.249 502.201 463.123 501.981 463.08C501.76 463.037 501.532 463.08 501.343 463.202C501.154 463.327 501.022 463.521 500.976 463.743C500.93 463.965 500.974 464.196 501.098 464.385L515.215 485.724C515.295 485.84 515.403 485.936 515.529 486.002C515.654 486.068 515.794 486.103 515.936 486.104C516.12 486.114 516.302 486.062 516.452 485.955H516.398ZM548.793 493.095C548.79 492.871 548.7 492.657 548.543 492.497C548.386 492.338 548.174 492.245 547.95 492.238L514.372 491.925C514.148 491.925 513.933 492.014 513.775 492.172C513.617 492.33 513.528 492.545 513.528 492.768C513.525 492.881 513.544 492.993 513.585 493.097C513.626 493.202 513.687 493.298 513.766 493.378C513.845 493.458 513.939 493.521 514.043 493.564C514.147 493.606 514.259 493.627 514.372 493.625L547.95 493.938C548.065 493.944 548.179 493.926 548.287 493.886C548.395 493.846 548.494 493.785 548.577 493.707C548.661 493.628 548.728 493.533 548.775 493.428C548.821 493.323 548.846 493.21 548.848 493.095H548.793ZM503.736 543.306C503.804 543.156 509.53 527.38 526.748 523.613C526.969 523.564 527.163 523.43 527.285 523.238C527.407 523.047 527.449 522.815 527.4 522.593C527.345 522.376 527.209 522.188 527.019 522.069C526.829 521.95 526.6 521.909 526.38 521.954C508.224 525.925 502.2 542.585 502.132 542.748C502.061 542.963 502.078 543.197 502.177 543.4C502.276 543.603 502.45 543.759 502.662 543.836H502.934C503.115 543.852 503.296 543.809 503.45 543.713C503.605 543.618 503.724 543.475 503.791 543.306H503.736Z" fill="#FC4F00"/>
<path opacity="0.2" d="M548.249 408.666L544.944 353.681L548.249 408.666ZM537.791 426.808L516.901 379.521L537.791 426.808ZM591.701 413.059L541.64 420.24L591.701 413.059ZM526.965 452.295L499.86 417.52L526.965 452.295ZM531.725 441.632L569.071 443.509L531.725 441.632ZM522.885 468.302L551.445 471.131L522.885 468.302ZM515.99 485.248L501.805 463.909L515.99 485.248ZM514.358 492.782L547.936 493.095L514.358 492.782ZM507.558 555.777C507.783 555.76 507.992 555.654 508.14 555.484C508.287 555.313 508.362 555.091 508.347 554.866C506.212 522.797 518.615 470.274 538.512 427.162C551.228 399.608 601.072 345.453 601.602 344.909C601.762 344.749 601.852 344.531 601.852 344.304C601.852 344.077 601.762 343.859 601.602 343.699C601.524 343.62 601.43 343.557 601.328 343.514C601.225 343.472 601.115 343.45 601.004 343.45C600.892 343.45 600.782 343.472 600.679 343.514C600.577 343.557 600.484 343.62 600.405 343.699C599.902 344.243 549.854 398.602 537.029 426.4C516.765 470.56 504.525 522.131 506.701 554.975C506.718 555.191 506.815 555.394 506.974 555.542C507.132 555.691 507.341 555.775 507.558 555.777V555.777ZM548.236 409.509C548.46 409.495 548.671 409.393 548.821 409.225C548.971 409.057 549.049 408.837 549.038 408.612L545.788 353.6C545.782 353.488 545.755 353.378 545.707 353.277C545.659 353.175 545.591 353.085 545.507 353.01C545.424 352.935 545.326 352.878 545.22 352.841C545.114 352.805 545.002 352.79 544.89 352.797C544.665 352.811 544.455 352.913 544.305 353.081C544.154 353.249 544.076 353.47 544.088 353.695L547.392 408.68C547.403 408.896 547.496 409.1 547.653 409.25C547.81 409.399 548.019 409.482 548.236 409.482V409.509ZM538.09 427.584C538.294 427.491 538.453 427.323 538.535 427.115C538.616 426.906 538.613 426.674 538.525 426.468L517.622 379.181C517.532 378.976 517.364 378.814 517.154 378.733C516.945 378.651 516.712 378.656 516.507 378.746C516.301 378.836 516.14 379.004 516.058 379.214C515.977 379.423 515.981 379.656 516.072 379.861L536.961 427.148C537.027 427.3 537.135 427.43 537.272 427.521C537.41 427.613 537.571 427.663 537.736 427.665C537.877 427.673 538.017 427.645 538.144 427.584H538.09ZM541.708 421.056L591.742 413.902C591.863 413.9 591.982 413.872 592.091 413.82C592.2 413.768 592.297 413.694 592.376 413.602C592.454 413.51 592.512 413.403 592.546 413.287C592.58 413.171 592.589 413.049 592.573 412.929C592.557 412.809 592.515 412.694 592.451 412.592C592.387 412.489 592.302 412.402 592.202 412.334C592.102 412.267 591.988 412.221 591.869 412.201C591.75 412.181 591.628 412.186 591.511 412.216L541.476 419.369C541.253 419.384 541.044 419.486 540.896 419.655C540.748 419.823 540.673 420.043 540.688 420.267C540.702 420.49 540.805 420.699 540.973 420.847C541.141 420.995 541.362 421.07 541.585 421.056H541.708ZM527.441 452.975C527.619 452.835 527.734 452.631 527.762 452.407C527.79 452.183 527.729 451.957 527.591 451.778L500.472 416.935C500.333 416.755 500.129 416.637 499.903 416.607C499.677 416.578 499.449 416.64 499.269 416.778C499.088 416.917 498.971 417.122 498.941 417.348C498.912 417.574 498.973 417.802 499.112 417.982L526.285 452.88C526.364 452.981 526.465 453.064 526.581 453.12C526.696 453.177 526.823 453.206 526.952 453.206C527.155 453.196 527.347 453.114 527.496 452.975H527.441ZM569.819 443.55C569.826 443.325 569.745 443.106 569.592 442.941C569.439 442.775 569.228 442.677 569.003 442.666L531.725 440.776C531.516 440.79 531.319 440.881 531.172 441.031C531.025 441.181 530.938 441.38 530.928 441.589C530.918 441.799 530.985 442.005 531.117 442.169C531.249 442.332 531.436 442.441 531.644 442.476L568.989 444.366C569.214 444.373 569.433 444.292 569.598 444.139C569.764 443.987 569.863 443.775 569.873 443.55H569.819ZM552.234 471.212C552.247 471.101 552.238 470.987 552.206 470.879C552.175 470.771 552.122 470.67 552.051 470.582C551.98 470.495 551.892 470.423 551.793 470.37C551.694 470.317 551.585 470.284 551.472 470.274L522.912 467.459C522.801 467.448 522.69 467.458 522.583 467.491C522.476 467.523 522.377 467.576 522.291 467.647C522.205 467.718 522.134 467.805 522.082 467.903C522.03 468.002 521.998 468.11 521.988 468.22C521.968 468.444 522.037 468.665 522.18 468.838C522.322 469.011 522.527 469.121 522.749 469.145L551.309 471.974H551.391C551.61 471.989 551.827 471.918 551.994 471.776C552.162 471.634 552.268 471.431 552.288 471.212H552.234ZM516.398 485.955C516.587 485.83 516.719 485.635 516.764 485.414C516.81 485.192 516.767 484.961 516.643 484.772L502.526 463.433C502.397 463.249 502.201 463.123 501.981 463.08C501.76 463.037 501.532 463.08 501.343 463.202C501.154 463.327 501.022 463.521 500.976 463.743C500.93 463.965 500.974 464.196 501.098 464.385L515.215 485.724C515.295 485.84 515.403 485.936 515.529 486.002C515.654 486.068 515.794 486.103 515.936 486.104C516.12 486.114 516.302 486.062 516.452 485.955H516.398ZM548.793 493.095C548.79 492.871 548.7 492.657 548.543 492.497C548.386 492.338 548.174 492.245 547.95 492.238L514.372 491.925C514.148 491.925 513.933 492.014 513.775 492.172C513.617 492.33 513.528 492.545 513.528 492.768C513.525 492.881 513.544 492.993 513.585 493.097C513.626 493.202 513.687 493.298 513.766 493.378C513.845 493.458 513.939 493.521 514.043 493.564C514.147 493.606 514.259 493.627 514.372 493.625L547.95 493.938C548.065 493.944 548.179 493.926 548.287 493.886C548.395 493.846 548.494 493.785 548.577 493.707C548.661 493.628 548.728 493.533 548.775 493.428C548.821 493.323 548.846 493.21 548.848 493.095H548.793ZM503.736 543.306C503.804 543.156 509.53 527.38 526.748 523.613C526.969 523.564 527.163 523.43 527.285 523.238C527.407 523.047 527.449 522.815 527.4 522.593C527.345 522.376 527.209 522.188 527.019 522.069C526.829 521.95 526.6 521.909 526.38 521.954C508.224 525.925 502.2 542.585 502.132 542.748C502.061 542.963 502.078 543.197 502.177 543.4C502.276 543.603 502.45 543.759 502.662 543.836H502.934C503.115 543.852 503.296 543.809 503.45 543.713C503.605 543.618 503.724 543.475 503.791 543.306H503.736ZM507.558 555.777C507.783 555.76 507.992 555.654 508.14 555.484C508.287 555.313 508.362 555.091 508.347 554.866C506.212 522.797 518.615 470.274 538.512 427.162C551.228 399.608 601.072 345.453 601.602 344.909C601.762 344.749 601.852 344.531 601.852 344.304C601.852 344.077 601.762 343.859 601.602 343.699C601.524 343.62 601.43 343.557 601.328 343.514C601.225 343.472 601.115 343.45 601.004 343.45C600.892 343.45 600.782 343.472 600.679 343.514C600.577 343.557 600.484 343.62 600.405 343.699C599.902 344.243 549.854 398.602 537.029 426.4C516.765 470.56 504.525 522.131 506.701 554.975C506.718 555.191 506.815 555.394 506.974 555.542C507.132 555.691 507.341 555.775 507.558 555.777V555.777ZM548.236 409.509C548.46 409.495 548.671 409.393 548.821 409.225C548.971 409.057 549.049 408.837 549.038 408.612L545.788 353.6C545.782 353.488 545.755 353.378 545.707 353.277C545.659 353.175 545.591 353.085 545.507 353.01C545.424 352.935 545.326 352.878 545.22 352.841C545.114 352.805 545.002 352.79 544.89 352.797C544.665 352.811 544.455 352.913 544.305 353.081C544.154 353.249 544.076 353.47 544.088 353.695L547.392 408.68C547.403 408.896 547.496 409.1 547.653 409.25C547.81 409.399 548.019 409.482 548.236 409.482V409.509ZM538.09 427.584C538.294 427.491 538.453 427.323 538.535 427.115C538.616 426.906 538.613 426.674 538.525 426.468L517.622 379.181C517.532 378.976 517.364 378.814 517.154 378.733C516.945 378.651 516.712 378.656 516.507 378.746C516.301 378.836 516.14 379.004 516.058 379.214C515.977 379.423 515.981 379.656 516.072 379.861L536.961 427.148C537.027 427.3 537.135 427.43 537.272 427.521C537.41 427.613 537.571 427.663 537.736 427.665C537.877 427.673 538.017 427.645 538.144 427.584H538.09ZM541.708 421.056L591.742 413.902C591.863 413.9 591.982 413.872 592.091 413.82C592.2 413.768 592.297 413.694 592.376 413.602C592.454 413.51 592.512 413.403 592.546 413.287C592.58 413.171 592.589 413.049 592.573 412.929C592.557 412.809 592.515 412.694 592.451 412.592C592.387 412.489 592.302 412.402 592.202 412.334C592.102 412.267 591.988 412.221 591.869 412.201C591.75 412.181 591.628 412.186 591.511 412.216L541.476 419.369C541.253 419.384 541.044 419.486 540.896 419.655C540.748 419.823 540.673 420.043 540.688 420.267C540.702 420.49 540.805 420.699 540.973 420.847C541.141 420.995 541.362 421.07 541.585 421.056H541.708ZM527.441 452.975C527.619 452.835 527.734 452.631 527.762 452.407C527.79 452.183 527.729 451.957 527.591 451.778L500.472 416.935C500.404 416.846 500.318 416.771 500.22 416.714C500.122 416.658 500.015 416.622 499.903 416.607C499.791 416.593 499.678 416.6 499.569 416.63C499.46 416.659 499.358 416.71 499.269 416.778C499.179 416.847 499.105 416.933 499.048 417.031C498.992 417.128 498.956 417.236 498.941 417.348C498.927 417.46 498.934 417.573 498.964 417.682C498.993 417.791 499.044 417.893 499.112 417.982L526.285 452.88C526.364 452.981 526.465 453.064 526.581 453.12C526.696 453.177 526.823 453.206 526.952 453.206C527.155 453.196 527.347 453.114 527.496 452.975H527.441ZM569.819 443.55C569.826 443.325 569.745 443.106 569.592 442.941C569.439 442.775 569.228 442.677 569.003 442.666L531.725 440.776C531.516 440.79 531.319 440.881 531.172 441.031C531.025 441.181 530.938 441.38 530.928 441.589C530.918 441.799 530.985 442.005 531.117 442.169C531.249 442.332 531.436 442.441 531.644 442.476L568.989 444.366C569.214 444.373 569.433 444.292 569.598 444.139C569.764 443.987 569.863 443.775 569.873 443.55H569.819ZM552.234 471.212C552.247 471.101 552.238 470.987 552.206 470.879C552.175 470.771 552.122 470.67 552.051 470.582C551.98 470.495 551.892 470.423 551.793 470.37C551.694 470.317 551.585 470.284 551.472 470.274L522.912 467.459C522.801 467.448 522.69 467.458 522.583 467.491C522.476 467.523 522.377 467.576 522.291 467.647C522.205 467.718 522.134 467.805 522.082 467.903C522.03 468.002 521.998 468.11 521.988 468.22C521.968 468.444 522.037 468.665 522.18 468.838C522.322 469.011 522.527 469.121 522.749 469.145L551.309 471.974H551.391C551.61 471.989 551.827 471.918 551.994 471.776C552.162 471.634 552.268 471.431 552.288 471.212H552.234ZM516.398 485.955C516.587 485.83 516.719 485.635 516.764 485.414C516.81 485.192 516.767 484.961 516.643 484.772L502.526 463.433C502.397 463.249 502.201 463.123 501.981 463.08C501.76 463.037 501.532 463.08 501.343 463.202C501.154 463.327 501.022 463.521 500.976 463.743C500.93 463.965 500.974 464.196 501.098 464.385L515.215 485.724C515.295 485.84 515.403 485.936 515.529 486.002C515.654 486.068 515.794 486.103 515.936 486.104C516.12 486.114 516.302 486.062 516.452 485.955H516.398ZM548.793 493.095C548.79 492.871 548.7 492.657 548.543 492.497C548.386 492.338 548.174 492.245 547.95 492.238L514.372 491.925C514.148 491.925 513.933 492.014 513.775 492.172C513.617 492.33 513.528 492.545 513.528 492.768C513.525 492.881 513.544 492.993 513.585 493.097C513.626 493.202 513.687 493.298 513.766 493.378C513.845 493.458 513.939 493.521 514.043 493.564C514.147 493.606 514.259 493.627 514.372 493.625L547.95 493.938C548.065 493.944 548.179 493.926 548.287 493.886C548.395 493.846 548.494 493.785 548.577 493.707C548.661 493.628 548.728 493.533 548.775 493.428C548.821 493.323 548.846 493.21 548.848 493.095H548.793ZM503.736 543.306C503.804 543.156 509.53 527.38 526.748 523.613C526.969 523.564 527.163 523.43 527.285 523.238C527.407 523.047 527.449 522.815 527.4 522.593C527.345 522.376 527.209 522.188 527.019 522.069C526.829 521.95 526.6 521.909 526.38 521.954C508.224 525.925 502.2 542.585 502.132 542.748C502.061 542.963 502.078 543.197 502.177 543.4C502.276 543.603 502.45 543.759 502.662 543.836H502.934C503.115 543.852 503.296 543.809 503.45 543.713C503.605 543.618 503.724 543.475 503.791 543.306H503.736Z" fill="black"/>
<path d="M529.767 531.801H491.265V539.77H494.624L501.574 583.25H519.458L526.408 539.77H529.767V531.801Z" fill="#455A64"/>
<path d="M166.845 290.809L122.06 276.189L118.075 265.662L108.977 265.377L92.4663 262.249L94.4519 265.662L115.233 280.745L120.36 283.301L167.198 307.768L166.845 290.809Z" fill="white" stroke="#455A64" stroke-width="1.00396" stroke-miterlimit="10"/>
<path d="M118.075 265.662L113.805 263.105L105.278 266.233L106.692 267.933L118.075 265.662Z" fill="white" stroke="#455A64" stroke-width="1.00396" stroke-linejoin="round"/>
<path d="M166.845 290.809L122.06 276.189L118.075 265.662L108.977 265.377L92.4663 262.249L94.4519 265.662L115.233 280.745L120.36 283.301L167.198 307.768L166.845 290.809Z" fill="white"/>
<path opacity="0.5" d="M166.845 290.809L122.06 276.189L118.075 265.662L108.977 265.377L92.4663 262.249L94.4519 265.662L115.233 280.745L120.36 283.301L167.198 307.768L166.845 290.809Z" fill="#FC4F00" stroke="#455A64" stroke-width="1.00396" stroke-miterlimit="10"/>
<path d="M166.845 290.809L122.06 276.189L118.075 265.662L108.977 265.377L92.4663 262.249L94.4519 265.662L115.233 280.745L120.36 283.301L167.198 307.768L166.845 290.809Z" stroke="#455A64" stroke-width="1.00396" stroke-miterlimit="10"/>
<path d="M118.075 265.662L113.805 263.105L105.278 266.233L106.692 267.933L118.075 265.662Z" fill="white"/>
<path opacity="0.5" d="M118.075 265.662L113.805 263.105L105.278 266.233L106.692 267.933L118.075 265.662Z" fill="#FC4F00" stroke="#455A64" stroke-width="1.00396" stroke-linejoin="round"/>
<path d="M118.075 265.662L113.805 263.105L105.278 266.233L106.692 267.933L118.075 265.662Z" stroke="#455A64" stroke-width="1.00396" stroke-linejoin="round"/>
<path d="M176.351 195.921C176.351 195.921 175.658 202.041 177.385 205.972C179.112 209.902 188.7 223.217 188.7 223.217L170.803 237.565C170.803 237.565 163.377 222.605 161.963 220.184C160.548 217.763 158.848 207.345 163.459 199.879C168.069 192.413 174.706 190.4 176.351 195.921Z" fill="white"/>
<g style="mix-blend-mode:multiply" opacity="0.5">
<path d="M167.158 215.587L174.923 231.689L170.789 237.578L162.982 223.638L167.158 215.587Z" fill="#FC4F00"/>
</g>
<path d="M176.351 195.921C176.351 195.921 175.658 202.041 177.385 205.972C179.112 209.902 188.7 223.217 188.7 223.217L170.803 237.565C170.803 237.565 163.377 222.605 161.963 220.184C160.548 217.763 158.848 207.345 163.459 199.879C168.069 192.413 174.706 190.4 176.351 195.921Z" stroke="#455A64" stroke-width="1.00396" stroke-miterlimit="10"/>
<path d="M181.9 184.715C180.798 177.915 173.006 164.084 160.643 164.614C152.619 164.968 148.866 166.586 145.384 168.558C142.546 170.23 139.901 172.21 137.496 174.461C131.458 181.71 129.336 183.695 130.506 189.244C130.41 191.457 130.756 193.667 131.526 195.745C133.375 200.682 134.64 203.905 136.245 206.258C135.755 208.556 134.477 214.622 134.409 216.009C134.341 217.396 138.489 216.43 140.583 215.9C144.473 224.604 151.599 230.642 153.816 231.336C157.678 232.546 163.785 226.195 167.022 221.272C170.258 216.349 167.81 210.814 167.824 208.61C167.838 206.407 175.1 201.566 177.793 200.029C180.486 198.492 182.988 191.502 181.9 184.715Z" fill="white"/>
<g style="mix-blend-mode:multiply" opacity="0.5">
<path d="M130.56 189.244C130.464 191.457 130.811 193.667 131.58 195.745C133.43 200.682 134.694 203.905 136.299 206.258C135.81 208.556 134.531 214.622 134.463 216.009C134.395 217.396 138.543 216.43 140.638 215.9C144.527 224.604 151.654 230.642 153.87 231.336C157.733 232.546 163.839 226.195 167.076 221.272C167.885 220.043 168.41 218.649 168.613 217.192C168.436 216.553 168.314 216.158 168.314 216.158C168.314 216.158 166.491 223.162 162.874 222.251C159.256 221.34 153.721 214.091 150.634 211.589C147.546 209.086 148.811 205.795 148.199 202.069C147.587 198.342 138.448 195.065 137.836 192.93C137.224 190.794 139.359 181.954 139.359 181.954C139.359 181.954 142.827 177.33 142.079 179.234C141.551 180.885 141.359 182.626 141.515 184.352C141.672 186.078 142.173 187.756 142.99 189.285C143.564 190.491 144.473 191.506 145.609 192.208C146.746 192.91 148.061 193.269 149.396 193.242L152.714 176.8L145.71 171.006L137.55 174.406C131.458 181.71 129.377 183.695 130.56 189.244Z" fill="#FC4F00"/>
</g>
<path d="M181.9 184.715C180.798 177.915 173.006 164.084 160.643 164.614C152.619 164.968 148.866 166.586 145.384 168.558C142.546 170.23 139.901 172.21 137.496 174.461C131.458 181.71 129.336 183.695 130.506 189.244C130.41 191.457 130.756 193.667 131.526 195.745C133.375 200.682 134.64 203.905 136.245 206.258C135.755 208.556 134.477 214.622 134.409 216.009C134.341 217.396 138.489 216.43 140.583 215.9C144.473 224.604 151.599 230.642 153.816 231.336C157.678 232.546 163.785 226.195 167.022 221.272C170.258 216.349 167.81 210.814 167.824 208.61C167.838 206.407 175.1 201.566 177.793 200.029C180.486 198.492 182.988 191.502 181.9 184.715Z" stroke="#455A64" stroke-miterlimit="10"/>
<path d="M137.931 202.15L139.291 206.04C139.291 206.04 142.215 207.006 145.778 203.116" stroke="#455A64" stroke-miterlimit="10" stroke-linecap="round"/>
<path d="M147.982 220.32C147.982 220.32 151.219 219.994 152.524 215.451" stroke="#455A64" stroke-miterlimit="10" stroke-linecap="round"/>
<path d="M135.66 198.9C135.66 198.9 136.626 195.976 142.46 195.976" stroke="#455A64" stroke-miterlimit="10" stroke-linecap="round"/>
<path d="M165.567 159.202C161.327 158.592 157.052 158.265 152.769 158.222C152.769 158.222 139.958 150.838 127.65 158.712C115.342 166.586 121.258 180.377 121.258 183.818C121.258 187.258 117.314 187.272 119.775 191.706C122.237 196.139 130.56 193.691 130.56 193.691C130.648 192.019 131.09 190.384 131.857 188.896C132.623 187.407 133.697 186.098 135.007 185.055C139.441 181.614 142.977 180.866 144.446 181.859C144.446 181.859 143.467 189.244 144.935 192.195C144.935 192.195 149.859 194.657 151.341 194.657C152.823 194.657 150.375 196.738 155.285 198.587C156.179 198.908 157.136 199.018 158.08 198.907C159.024 198.796 159.929 198.468 160.725 197.948C161.446 194.956 163.023 190.454 165.961 191.502C170.272 193.038 174.203 203.646 168.368 207.264C175.386 208.542 183.886 196.126 184.389 184.81C184.892 173.495 172.856 160.48 165.567 159.202Z" fill="#455A64"/>
<path d="M144.664 177.004C144.664 177.004 148.281 175.059 152.715 179.221C157.148 183.382 165.771 188.945 177.195 185.885" stroke="white" stroke-width="0.5" stroke-linecap="round" stroke-linejoin="round"/>
<path d="M144.16 173.672C144.16 173.672 146.649 169.782 150.811 169.782C154.972 169.782 164.696 175.617 172.462 175.617" stroke="white" stroke-width="0.5" stroke-linecap="round" stroke-linejoin="round"/>
<path d="M141.332 181.165C141.332 181.165 136.612 175.345 132.179 180.064C127.745 184.783 130.56 189.244 130.56 189.244" stroke="white" stroke-width="0.5" stroke-linecap="round" stroke-linejoin="round"/>
<path d="M122.468 185.055C125.173 182.616 126.854 179.244 127.174 175.617C127.731 169.51 136.068 164.234 141.331 169.238" stroke="white" stroke-width="0.5" stroke-linecap="round" stroke-linejoin="round"/>
<path d="M131.063 162.846C131.063 162.846 139.4 154.795 146.336 165.063" stroke="white" stroke-width="0.5" stroke-linecap="round" stroke-linejoin="round"/>
<path d="M198.914 558.702C198.914 558.702 204.041 566.671 203.47 571.798L202.912 576.926C202.912 576.926 184.103 582.08 180.119 582.08C176.134 582.08 155.04 580.081 155.04 580.081L154.129 576.463C154.065 576.196 154.095 575.915 154.214 575.667C154.333 575.42 154.533 575.221 154.782 575.103L173.591 566.331L179.52 559.844L198.914 558.702Z" fill="white" stroke="#455A64" stroke-width="1.00396" stroke-miterlimit="10"/>
<path d="M182.974 578.068C188.074 578.462 197.758 575.348 203.374 573.362L202.98 576.925C202.98 576.925 184.103 582.08 180.118 582.08C176.134 582.08 155.04 580.081 155.04 580.081L154.387 577.497C157.76 577.51 176.229 577.551 182.974 578.068Z" fill="#FC4F00" stroke="#455A64" stroke-width="1.00396" stroke-miterlimit="10"/>
<path d="M173.618 566.331L146.241 578.245C146.241 578.245 143.902 584.106 146.241 585.276C148.58 586.445 199.58 585.276 199.58 585.276C199.58 585.276 203.102 576.014 197.54 569.799C191.978 563.584 173.618 566.331 173.618 566.331Z" fill="white" stroke="#455A64" stroke-width="1.00396" stroke-miterlimit="10"/>
<path d="M199.58 585.276C199.58 585.276 148.58 586.446 146.241 585.276C145.112 584.705 145.071 583.059 145.33 581.495H200.478C200.298 582.781 199.997 584.047 199.58 585.276Z" fill="#FC4F00" stroke="#455A64" stroke-width="1.00396" stroke-miterlimit="10"/>
<path d="M160.67 359.326C160.67 359.326 153.517 391.027 150.81 410.856C148.104 430.685 146.513 470.41 147.084 474.966C147.655 479.522 176.134 555.859 176.134 555.859L178.976 562.659L198.914 558.674C198.914 558.674 189.802 529.625 186.388 513.672C182.974 497.719 175.508 471.512 175.508 466.956C175.508 462.4 193.188 375.387 194.453 369.675C195.718 363.963 201.457 355.191 201.457 355.191L163.282 354.416L160.67 359.326Z" fill="#FC4F00" stroke="#455A64" stroke-width="1.00396" stroke-miterlimit="10"/>
<path d="M160.671 359.326C160.671 359.326 156.482 388.28 158.209 408.408C159.936 428.536 163.649 471.39 163.649 477.768C163.649 484.146 173.944 522.24 174.529 534.208C175.44 551.494 174.162 560.048 174.162 560.048L173.55 566.318C173.55 566.318 185.559 568.031 188.184 568.779C191.215 569.56 194.344 569.899 197.472 569.786C197.472 569.786 201.838 550.569 201.838 534.194C201.838 517.82 198.207 484.119 196.398 470.465C194.589 456.81 200.288 404.138 203.524 394.305C206.761 384.472 213.833 363.65 209.073 353.015C204.313 342.38 160.671 359.326 160.671 359.326Z" fill="#FC4F00" stroke="#455A64" stroke-width="1.00396" stroke-miterlimit="10"/>
<path d="M214.363 347.684L213.928 360.631C213.928 360.631 206.176 362.168 195.731 363.977C187.109 365.473 165.458 363.583 158.168 362.875C157.504 362.816 156.89 362.498 156.459 361.988C156.029 361.479 155.817 360.82 155.87 360.155L156.577 348.459L214.363 347.684Z" fill="#455A64"/>
<path d="M184.062 218.62C184.062 218.62 171.822 231.853 167.212 240.081C162.602 248.309 160.779 260.916 159.052 270.844C157.325 280.772 162.003 304.083 160.684 314.786L156.509 348.5C156.509 348.5 155.611 350.785 158.617 353.287C161.622 355.79 176.297 356.701 189.557 357.367C194.398 357.612 208.855 354.498 211.222 354.348C214.078 354.171 214.173 350.54 214.295 347.684C214.866 334.261 217.287 298.479 218.878 282.894C222.156 251.111 204.218 220.429 184.062 218.62Z" fill="white" stroke="#455A64" stroke-width="1.00396" stroke-miterlimit="10"/>
<g style="mix-blend-mode:multiply">
<path d="M217.383 300.968C217.927 293.909 218.471 287.504 218.947 282.893C219.083 281.533 219.164 280.173 219.232 278.813L186.715 284.253L158.78 274.733C158.783 280.514 159.11 286.289 159.759 292.033L187.163 299.703L217.383 300.968Z" fill="#FC4F00"/>
</g>
<g style="mix-blend-mode:multiply">
<path d="M182.852 219.953C181.003 222.006 177.331 226.181 173.835 230.615L194.48 251.6L201.28 248.88L182.852 219.953Z" fill="#FC4F00"/>
</g>
<path d="M184.062 218.62C184.062 218.62 171.822 231.853 167.212 240.081C165.845 242.581 164.738 245.215 163.907 247.942L188.523 219.504C187.069 219.064 185.575 218.767 184.062 218.62V218.62Z" fill="#455A64"/>
<g style="mix-blend-mode:multiply">
<path d="M160.004 265.486L186.714 274.271L219.15 270.545C218.642 262.465 216.847 254.518 213.833 247.003L187.68 257.489L164.302 246.895C162.39 252.971 160.953 259.187 160.004 265.486V265.486Z" fill="#FC4F00"/>
</g>
<g style="mix-blend-mode:multiply">
<path d="M205.986 334.261C192.438 336.535 178.538 335.4 165.539 330.956L159.025 328.726L156.999 345.046L164.424 347.126C178.541 351.073 193.295 352.21 207.849 350.472L213.847 349.751C214.159 349.09 214.334 348.373 214.363 347.643C214.527 344.012 214.812 338.735 215.179 332.683L205.986 334.261Z" fill="#FC4F00"/>
</g>
<g style="mix-blend-mode:multiply">
<path d="M209.617 312.038C196.069 314.322 182.165 313.181 169.171 308.72L160.875 305.877C161.08 308.841 161.039 311.816 160.752 314.772L159.787 322.619L168.055 324.931C182.166 328.882 196.916 330.023 211.467 328.29L215.547 327.801C215.887 322.361 216.281 316.567 216.703 310.841L209.617 312.038Z" fill="#FC4F00"/>
</g>
<path d="M82.0232 254.527L108.319 275.669L109.453 274.26L83.1566 253.117L82.0232 254.527Z" fill="#455A64"/>
<path d="M196.724 233.294C196.724 233.294 206.366 239.863 206.584 255.381C206.679 262.181 205.972 268.532 204.408 279.67C202.844 290.809 193.134 327.08 185.572 331.486C178.01 335.893 166.274 327.57 166.274 327.57L109.507 289.884L95.7849 278.8L88.9849 265.962L91.1201 261.882L107.862 274.72L98.8449 266.383L100.613 264.139L103.877 266.41L113.397 269.974L115.478 283.574L118.415 285.586L172.72 305.429C172.72 305.429 172.04 276.202 172.543 270.613C173.046 265.023 173.74 250.974 179.724 240.788" fill="white"/>
<g style="mix-blend-mode:multiply" opacity="0.5">
<path d="M172.339 283.342C172.339 293.433 172.679 305.429 172.679 305.429L118.429 285.668L115.491 283.655L113.411 270.055L103.891 266.492L100.64 264.18L98.8721 266.424L107.862 274.72L91.1201 261.881L89.0938 265.893L95.8938 278.732L109.616 289.884L113.071 292.182L188.075 316.349L172.339 283.342Z" fill="#FC4F00"/>
</g>
<path d="M196.724 233.294C196.724 233.294 206.366 239.863 206.584 255.381C206.679 262.181 205.972 268.532 204.408 279.67C202.844 290.809 193.134 327.08 185.572 331.486C178.01 335.893 166.274 327.57 166.274 327.57L109.507 289.884L95.7849 278.8L88.9849 265.962L91.1201 261.882L107.862 274.72L98.8449 266.383L100.613 264.139L103.877 266.41L113.397 269.974L115.478 283.574L118.415 285.586L172.72 305.429C172.72 305.429 172.04 276.202 172.543 270.613C173.046 265.023 173.74 250.974 179.724 240.788" stroke="#455A64" stroke-width="1.00396" stroke-miterlimit="10"/>
<path d="M172.72 305.429L193.447 320.389L198.819 310.869C198.819 310.869 202.532 307.945 203.076 305.742C203.62 303.538 202.926 299.962 203.484 297.758C204.041 295.555 206.816 293.488 207.074 288.157C207.332 282.826 207.074 278.378 207.074 278.378C207.074 278.378 211.562 259.923 211.072 251.899C210.583 243.875 202.844 229.69 196.643 229.378C190.441 229.065 182.376 230.003 176.12 239.469C169.864 248.934 171.143 276.57 170.164 278.297C169.184 280.024 170.544 288.551 170.544 288.551C170.001 288.957 169.55 289.473 169.222 290.066C168.893 290.66 168.695 291.316 168.64 291.992C168.532 294.209 170.925 299.662 170.925 299.662L172.72 305.429Z" fill="white" stroke="#455A64" stroke-width="1.00396" stroke-miterlimit="10"/>
<g style="mix-blend-mode:multiply">
<path d="M170.707 271.197C170.75 273.57 170.572 275.942 170.177 278.283C169.306 279.833 170.299 286.837 170.517 288.265C182.174 291.886 194.501 292.816 206.57 290.985C206.83 290.039 206.985 289.068 207.033 288.088C207.305 282.771 207.033 278.31 207.033 278.31C207.033 278.31 207.427 276.664 207.971 274.162C195.472 274.957 182.923 273.958 170.707 271.197V271.197Z" fill="#FC4F00"/>
</g>
<g style="mix-blend-mode:multiply">
<path d="M175.277 240.979C173.332 244.882 172.244 250.743 171.619 256.687C183.965 261.398 197.276 263.018 210.392 261.406C210.916 258.26 211.148 255.074 211.086 251.886C210.85 249.366 210.255 246.893 209.318 244.542C197.865 244.809 186.426 243.612 175.277 240.979V240.979Z" fill="#FC4F00"/>
</g>
<path d="M170.925 299.812L172.679 305.429L193.406 320.389L198.778 310.869C198.778 310.869 202.49 307.945 203.034 305.742C203.131 305.358 203.191 304.967 203.211 304.572C192.289 304.383 181.437 302.783 170.925 299.812V299.812Z" fill="#455A64"/>
<path d="M185.926 568.602C185.926 568.602 186.388 556.825 188.646 539.607C190.903 522.389 185.477 497.937 184.566 493.857C183.654 489.777 185.028 480.719 184.117 477.537C183.206 474.354 178.799 460.782 181.397 445.033C183.994 429.284 186.102 387.654 186.102 387.654C186.102 387.654 179.561 382.337 177.643 375.414C175.726 368.492 177.194 366.316 177.194 366.316" stroke="#455A64" stroke-width="1.00396" stroke-miterlimit="10"/>
<path d="M188.958 366.955L186.442 380.881" stroke="#455A64" stroke-width="1.00396" stroke-miterlimit="10"/>
</svg>
